<svg width="70" height="77" viewBox="0 0 70 77" fill="none" xmlns="http://www.w3.org/2000/svg">
<ellipse rx="35" ry="20" transform="matrix(-1 0 0 1 35 57)" fill="#D7E19B"/>
<ellipse rx="35" ry="20" transform="matrix(-1 0 0 1 35 54)" fill="#00766A"/>
<ellipse rx="35" ry="34" transform="matrix(-1 0 0 1 35 34)" fill="#019F8E"/>
<path fill-rule="evenodd" clip-rule="evenodd" d="M51.5059 34.9574C52.2613 34.1127 52.2135 32.8517 51.4026 32.06C49.2704 29.9782 44.9208 25.9602 39.9626 22.6724C35.4678 19.6919 30.6598 17.4355 27.7776 16.196C26.4397 15.6207 24.9762 16.5062 24.833 17.9556C24.4953 21.3738 24 27.4173 24 33.4608C24 39.5413 24.5014 45.6217 24.8392 49.0284C24.9809 50.4582 26.4121 51.3474 27.7504 50.8247C31.048 49.5366 36.8102 47.0955 41.1028 44.2491C45.583 41.2783 49.5494 37.145 51.5059 34.9574Z" fill="white"/>
</svg>
