<svg width="70" height="77" viewBox="0 0 70 77" fill="none" xmlns="http://www.w3.org/2000/svg">
<ellipse cx="35" cy="57" rx="35" ry="20" fill="#D7E19B"/>
<ellipse cx="35" cy="54" rx="35" ry="20" fill="#00766A"/>
<ellipse cx="35" cy="34" rx="35" ry="34" fill="#019F8E"/>
<path fill-rule="evenodd" clip-rule="evenodd" d="M18.4941 34.9574C17.7387 34.1127 17.7865 32.8517 18.5974 32.06C20.7296 29.9782 25.0792 25.9602 30.0374 22.6724C34.5322 19.6919 39.3402 17.4355 42.2224 16.196C43.5603 15.6207 45.0238 16.5062 45.167 17.9556C45.5047 21.3738 46 27.4173 46 33.4608C46 39.5413 45.4986 45.6217 45.1608 49.0284C45.0191 50.4582 43.5879 51.3474 42.2496 50.8247C38.952 49.5366 33.1898 47.0955 28.8972 44.2491C24.417 41.2783 20.4506 37.145 18.4941 34.9574Z" fill="white"/>
</svg>
