<svg width="106" height="106" viewBox="0 0 106 106" fill="none" xmlns="http://www.w3.org/2000/svg">
<path fill-rule="evenodd" clip-rule="evenodd" d="M32.2454 11.3828C39.2274 11.1276 46.1456 11 53 11C59.8661 11 66.7963 11.1281 73.7905 11.3842C89.5291 11.9604 102.143 24.6088 102.676 40.3489C102.892 46.7371 103 53.2874 103 60C103 65.7532 102.921 71.2682 102.762 76.5448C102.286 92.3346 89.6477 105.05 73.8611 105.622C66.9074 105.874 59.9537 106 53 106C46.0565 106 39.113 105.874 32.1695 105.623C16.4156 105.054 3.79008 92.3882 3.27004 76.6326C3.09001 71.1784 3 65.6342 3 60C3 53.4853 3.12035 46.9103 3.36104 40.2753C3.93098 24.5637 16.534 11.9572 32.2454 11.3828Z" fill="#E0E3AE"/>
<path fill-rule="evenodd" clip-rule="evenodd" d="M32.2454 9.38284C39.2274 9.12761 46.1456 9 53 9C59.8661 9 66.7963 9.12805 73.7905 9.38415C89.5291 9.96044 102.143 22.6088 102.676 38.3489C102.892 44.7371 103 51.2874 103 58C103 63.7532 102.921 69.2682 102.762 74.5448C102.286 90.3346 89.6477 103.05 73.8611 103.622C66.9074 103.874 59.9537 104 53 104C46.0565 104 39.113 103.874 32.1695 103.623C16.4156 103.054 3.79008 90.3882 3.27004 74.6326C3.09001 69.1784 3 63.6342 3 58C3 51.4853 3.12035 44.9103 3.36104 38.2753C3.93098 22.5637 16.534 9.95717 32.2454 9.38284Z" fill="#CCE5E1"/>
<path fill-rule="evenodd" clip-rule="evenodd" d="M32.7764 3.36367C39.5782 3.12122 46.3194 3 53 3C59.6806 3 66.4218 3.12122 73.2236 3.36367C88.884 3.92188 101.477 16.439 102.129 32.0957L103 53H3L3.87101 32.0957C4.52338 16.439 17.116 3.92188 32.7764 3.36367V3.36367Z" fill="white"/>
<path fill-rule="evenodd" clip-rule="evenodd" d="M32.2454 4.38284C39.2274 4.12761 46.1456 4 53 4C59.8661 4 66.7963 4.12805 73.7905 4.38415C89.5291 4.96044 102.143 17.6088 102.676 33.3489C102.892 39.7371 103 47.2874 103 54C103 59.7532 102.921 66.2682 102.762 71.5448C102.286 87.3346 89.6477 100.05 73.8611 100.622C66.9074 100.874 59.9537 101 53 101C46.0565 101 39.113 100.874 32.1695 100.623C16.4156 100.054 3.79008 87.3882 3.27004 71.6326C3.09001 66.1784 3 59.6342 3 54C3 47.4853 3.12035 39.9103 3.36104 33.2753C3.93098 17.5637 16.534 4.95717 32.2454 4.38284Z" fill="#F5F5F5"/>
</svg>
