<svg width="100" height="102" viewBox="0 0 100 102" fill="none" xmlns="http://www.w3.org/2000/svg">
<path fill-rule="evenodd" clip-rule="evenodd" d="M29.2454 7.38284C36.2274 7.12761 43.1456 7 50 7C56.8661 7 63.7963 7.12805 70.7905 7.38415C86.5291 7.96044 99.1427 20.6088 99.6756 36.3489C99.8919 42.7371 100 49.2874 100 56C100 61.7532 99.9206 67.2682 99.7617 72.5448C99.2862 88.3346 86.6477 101.05 70.8611 101.622C63.9074 101.874 56.9537 102 50 102C43.0565 102 36.113 101.874 29.1695 101.623C13.4156 101.054 0.790077 88.3882 0.270037 72.6326C0.0900123 67.1784 0 61.6342 0 56C0 49.4853 0.120345 42.9103 0.361036 36.2753C0.930983 20.5637 13.534 7.95717 29.2454 7.38284Z" fill="#E0E3AE"/>
<path fill-rule="evenodd" clip-rule="evenodd" d="M29.2454 5.38284C36.2274 5.12761 43.1456 5 50 5C56.8661 5 63.7963 5.12805 70.7905 5.38415C86.5291 5.96044 99.1427 18.6088 99.6756 34.3489C99.8919 40.7371 100 47.2874 100 54C100 59.7532 99.9206 65.2682 99.7617 70.5448C99.2862 86.3346 86.6477 99.0505 70.8611 99.6222C63.9074 99.8741 56.9537 100 50 100C43.0565 100 36.113 99.8744 29.1695 99.6233C13.4156 99.0536 0.790077 86.3882 0.270037 70.6326C0.0900123 65.1784 0 59.6342 0 54C0 47.4853 0.120345 40.9103 0.361036 34.2753C0.930983 18.5637 13.534 5.95717 29.2454 5.38284Z" fill="#CCE5E1"/>
<path fill-rule="evenodd" clip-rule="evenodd" d="M29.2454 0.382838C36.2274 0.127613 43.1456 0 50 0C56.8661 0 63.7963 0.128051 70.7905 0.384152C86.5291 0.960439 99.1427 13.6088 99.6756 29.3489C99.8919 35.7371 100 43.2874 100 50C100 55.7532 99.9206 62.2682 99.7617 67.5448C99.2862 83.3346 86.6477 96.0505 70.8611 96.6222C63.9074 96.8741 56.9537 97 50 97C43.0565 97 36.113 96.8744 29.1695 96.6233C13.4156 96.0536 0.790077 83.3882 0.270037 67.6326C0.0900123 62.1784 0 55.6342 0 50C0 43.4853 0.120345 35.9103 0.361036 29.2753C0.930983 13.5637 13.534 0.957165 29.2454 0.382838Z" fill="#F5F5F5"/>
<path d="M66.5261 30.4651C66.4262 32.019 64.2452 33.1456 61.6591 32.9735C59.073 32.8015 57.064 31.403 57.1639 29.8491C57.5579 28.3729 59.4892 26.8412 62.0753 27.0133C64.6614 27.1853 66.3208 28.9057 66.5261 30.4651V30.4651Z" fill="#994848"/>
<path d="M88.3083 59.7393C81.3546 61.5651 75.8827 63.3188 70.039 60.6217C64.3007 57.9745 55.3436 54.1231 46.7695 53.5459C37.152 52.9022 30.7478 54.7613 26.8076 56.3041C32.4904 34.9936 41.9302 28.384 63.0409 30.0711C87.326 32.0135 88.4082 45.5101 88.3083 59.7393Z" fill="#873C3B"/>
<path d="M79.1182 61.8315C78.7907 50.8655 77.8917 43.4345 74.2401 38.5509C69.2732 31.908 61.2262 29.9435 61.2262 29.9435C61.82 29.9767 62.4249 30.0211 63.0354 30.0711C87.3205 32.0135 88.4027 45.5101 88.3028 59.7393C84.9674 60.6161 81.9707 61.4763 79.1126 61.8315H79.1182Z" fill="#6C302F"/>
<path d="M79.1182 61.8315C76.3878 62.1034 72.3088 61.4652 68.7126 59.7726C63.0964 57.1365 55.0218 53.2684 45.199 53.0021C35.4927 52.7412 29.5879 54.7557 26.9685 55.7158C25.1649 56.3762 22.1736 57.5416 14.8537 60.0778C10.2142 61.6817 8.88788 64.7395 15.8471 67.0759C24.6266 70.0227 41.8747 71.6487 49.8606 71.4212C54.1616 71.2991 56.3592 70.8496 58.6512 70.2447C67.4473 67.9139 79.1237 61.8315 79.1237 61.8315H79.1182Z" fill="#994848"/>
<path d="M55.5424 40.5962L42.9917 39.5754C42.4846 39.5341 42.0401 39.9118 41.9989 40.4189L41.3695 48.1572C41.3282 48.6643 41.7059 49.1089 42.213 49.1501L54.7636 50.1709C55.2707 50.2122 55.7152 49.8345 55.7565 49.3274L56.3859 41.5891C56.4271 41.082 56.0495 40.6374 55.5424 40.5962Z" fill="#FFF4EC"/>
<path d="M56.165 40.9205L48.9061 45.9318L42.2854 39.8217" stroke="#873C3B" stroke-width="1.1" stroke-linecap="round" stroke-linejoin="round"/>
<path d="M41.6195 48.8676L46.7085 44.267" stroke="#873C3B" stroke-width="1.1" stroke-linecap="round" stroke-linejoin="round"/>
<path d="M51.5033 44.1782L55.3881 49.9831" stroke="#873C3B" stroke-width="1.1" stroke-linecap="round" stroke-linejoin="round"/>
</svg>
