<svg width="158" height="77" viewBox="0 0 158 77" fill="none" xmlns="http://www.w3.org/2000/svg">
<ellipse cx="35" cy="57" rx="35" ry="20" fill="#D7E19B"/>
<ellipse cx="35" cy="54" rx="35" ry="20" fill="#00766A"/>
<ellipse cx="35" cy="34" rx="35" ry="34" fill="#019F8E"/>
<path fill-rule="evenodd" clip-rule="evenodd" d="M18.4941 34.9574C17.7387 34.1127 17.7865 32.8517 18.5974 32.06C20.7296 29.9782 25.0792 25.9602 30.0374 22.6724C34.5322 19.6919 39.3402 17.4355 42.2224 16.196C43.5603 15.6207 45.0238 16.5062 45.167 17.9556C45.5047 21.3738 46 27.4173 46 33.4608C46 39.5413 45.4986 45.6217 45.1608 49.0284C45.0191 50.4582 43.5879 51.3474 42.2496 50.8247C38.952 49.5366 33.1898 47.0955 28.8972 44.2491C24.417 41.2783 20.4506 37.145 18.4941 34.9574Z" fill="white"/>
<ellipse rx="35" ry="20" transform="matrix(-1 0 0 1 123 57)" fill="#D7E19B"/>
<ellipse rx="35" ry="20" transform="matrix(-1 0 0 1 123 54)" fill="#00766A"/>
<ellipse rx="35" ry="34" transform="matrix(-1 0 0 1 123 34)" fill="#019F8E"/>
<path fill-rule="evenodd" clip-rule="evenodd" d="M139.506 34.9574C140.261 34.1127 140.213 32.8517 139.403 32.06C137.27 29.9782 132.921 25.9602 127.963 22.6724C123.468 19.6919 118.66 17.4355 115.778 16.196C114.44 15.6207 112.976 16.5062 112.833 17.9556C112.495 21.3738 112 27.4173 112 33.4608C112 39.5413 112.501 45.6217 112.839 49.0284C112.981 50.4582 114.412 51.3474 115.75 50.8247C119.048 49.5366 124.81 47.0955 129.103 44.2491C133.583 41.2783 137.549 37.145 139.506 34.9574Z" fill="white"/>
</svg>
