<svg width="108" height="111" viewBox="0 0 108 111" fill="none" xmlns="http://www.w3.org/2000/svg">
<g filter="url(#filter0_d_129_18402)">
<path fill-rule="evenodd" clip-rule="evenodd" d="M33.2454 8.38284C40.2274 8.12761 47.1456 8 54 8C60.8661 8 67.7963 8.12805 74.7905 8.38415C90.5291 8.96044 103.143 21.6088 103.676 37.3489C103.892 43.7371 104 50.2874 104 57C104 62.7532 103.921 68.2682 103.762 73.5448C103.286 89.3346 90.6477 102.05 74.8611 102.622C67.9074 102.874 60.9537 103 54 103C47.0565 103 40.113 102.874 33.1695 102.623C17.4156 102.054 4.79008 89.3882 4.27004 73.6326C4.09001 68.1784 4 62.6342 4 57C4 50.4853 4.12035 43.9103 4.36104 37.2753C4.93098 21.5637 17.534 8.95717 33.2454 8.38284Z" fill="#E0E3AE"/>
<path fill-rule="evenodd" clip-rule="evenodd" d="M33.2454 6.38284C40.2274 6.12761 47.1456 6 54 6C60.8661 6 67.7963 6.12805 74.7905 6.38415C90.5291 6.96044 103.143 19.6088 103.676 35.3489C103.892 41.7371 104 48.2874 104 55C104 60.7532 103.921 66.2682 103.762 71.5448C103.286 87.3346 90.6477 100.05 74.8611 100.622C67.9074 100.874 60.9537 101 54 101C47.0565 101 40.113 100.874 33.1695 100.623C17.4156 100.054 4.79008 87.3882 4.27004 71.6326C4.09001 66.1784 4 60.6342 4 55C4 48.4853 4.12035 41.9103 4.36104 35.2753C4.93098 19.5637 17.534 6.95717 33.2454 6.38284Z" fill="#CCE5E1"/>
<path fill-rule="evenodd" clip-rule="evenodd" d="M33.7764 0.363671C40.5782 0.121224 47.3194 0 54 0C60.6806 0 67.4218 0.121224 74.2236 0.363671C89.884 0.921875 102.477 13.439 103.129 29.0957L104 50H4L4.87101 29.0957C5.52338 13.439 18.116 0.921876 33.7764 0.363671V0.363671Z" fill="white"/>
<path fill-rule="evenodd" clip-rule="evenodd" d="M33.2454 1.38284C40.2274 1.12761 47.1456 1 54 1C60.8661 1 67.7963 1.12805 74.7905 1.38415C90.5291 1.96044 103.143 14.6088 103.676 30.3489C103.892 36.7371 104 44.2874 104 51C104 56.7532 103.921 63.2682 103.762 68.5448C103.286 84.3346 90.6477 97.0505 74.8611 97.6222C67.9074 97.8741 60.9537 98 54 98C47.0565 98 40.113 97.8744 33.1695 97.6233C17.4156 97.0536 4.79008 84.3882 4.27004 68.6326C4.09001 63.1784 4 56.6342 4 51C4 44.4853 4.12035 36.9103 4.36104 30.2753C4.93098 14.5637 17.534 1.95717 33.2454 1.38284Z" fill="#F5F5F5"/>
<path fill-rule="evenodd" clip-rule="evenodd" d="M33.4523 30.5302C38.483 25.2155 45.6043 21.9 53.5 21.9C68.7431 21.9 81.1 34.2569 81.1 49.5C81.1 54.8961 79.5514 59.9306 76.8744 64.1832L33.4523 30.5302ZM29.3684 36.0947C27.1588 40.0639 25.9 44.6349 25.9 49.5C25.9 64.7431 38.2569 77.1 53.5 77.1C60.8613 77.1 67.5495 74.2181 72.498 69.521L29.3684 36.0947ZM53.5 15C34.4462 15 19 30.4462 19 49.5C19 68.5538 34.4462 84 53.5 84C72.5538 84 88 68.5538 88 49.5C88 30.4462 72.5538 15 53.5 15Z" fill="#979797"/>
</g>
<defs>
<filter id="filter0_d_129_18402" x="0" y="0" width="108" height="111" filterUnits="userSpaceOnUse" color-interpolation-filters="sRGB">
<feFlood flood-opacity="0" result="BackgroundImageFix"/>
<feColorMatrix in="SourceAlpha" type="matrix" values="0 0 0 0 0 0 0 0 0 0 0 0 0 0 0 0 0 0 127 0" result="hardAlpha"/>
<feOffset dy="4"/>
<feGaussianBlur stdDeviation="2"/>
<feComposite in2="hardAlpha" operator="out"/>
<feColorMatrix type="matrix" values="0 0 0 0 0 0 0 0 0 0 0 0 0 0 0 0 0 0 0.25 0"/>
<feBlend mode="normal" in2="BackgroundImageFix" result="effect1_dropShadow_129_18402"/>
<feBlend mode="normal" in="SourceGraphic" in2="effect1_dropShadow_129_18402" result="shape"/>
</filter>
</defs>
</svg>
