<svg width="100" height="103" viewBox="0 0 100 103" fill="none" xmlns="http://www.w3.org/2000/svg">
<path fill-rule="evenodd" clip-rule="evenodd" d="M29.2454 8.38284C36.2274 8.12761 43.1456 8 50 8C56.8661 8 63.7963 8.12805 70.7905 8.38415C86.5291 8.96044 99.1427 21.6088 99.6756 37.3489C99.8919 43.7371 100 50.2874 100 57C100 62.7532 99.9206 68.2682 99.7617 73.5448C99.2862 89.3346 86.6477 102.05 70.8611 102.622C63.9074 102.874 56.9537 103 50 103C43.0565 103 36.113 102.874 29.1695 102.623C13.4156 102.054 0.790077 89.3882 0.270037 73.6326C0.0900123 68.1784 0 62.6342 0 57C0 50.4853 0.120345 43.9103 0.361036 37.2753C0.930983 21.5637 13.534 8.95717 29.2454 8.38284Z" fill="#E0E3AE"/>
<path fill-rule="evenodd" clip-rule="evenodd" d="M29.2454 6.38284C36.2274 6.12761 43.1456 6 50 6C56.8661 6 63.7963 6.12805 70.7905 6.38415C86.5291 6.96044 99.1427 19.6088 99.6756 35.3489C99.8919 41.7371 100 48.2874 100 55C100 60.7532 99.9206 66.2682 99.7617 71.5448C99.2862 87.3346 86.6477 100.05 70.8611 100.622C63.9074 100.874 56.9537 101 50 101C43.0565 101 36.113 100.874 29.1695 100.623C13.4156 100.054 0.790077 87.3882 0.270037 71.6326C0.0900123 66.1784 0 60.6342 0 55C0 48.4853 0.120345 41.9103 0.361036 35.2753C0.930983 19.5637 13.534 6.95717 29.2454 6.38284Z" fill="#CCE5E1"/>
<path fill-rule="evenodd" clip-rule="evenodd" d="M29.7764 0.363671C36.5782 0.121224 43.3194 0 50 0C56.6806 0 63.4218 0.121224 70.2236 0.363671C85.884 0.921875 98.4766 13.439 99.129 29.0957L100 50H0L0.871012 29.0957C1.52338 13.439 14.116 0.921876 29.7764 0.363671V0.363671Z" fill="white"/>
<path fill-rule="evenodd" clip-rule="evenodd" d="M29.2454 1.38284C36.2274 1.12761 43.1456 1 50 1C56.8661 1 63.7963 1.12805 70.7905 1.38415C86.5291 1.96044 99.1427 14.6088 99.6756 30.3489C99.8919 36.7371 100 44.2874 100 51C100 56.7532 99.9206 63.2682 99.7617 68.5448C99.2862 84.3346 86.6477 97.0505 70.8611 97.6222C63.9074 97.8741 56.9537 98 50 98C43.0565 98 36.113 97.8744 29.1695 97.6233C13.4156 97.0536 0.790077 84.3882 0.270037 68.6326C0.0900123 63.1784 0 56.6342 0 51C0 44.4853 0.120345 36.9103 0.361036 30.2753C0.930983 14.5637 13.534 1.95717 29.2454 1.38284Z" fill="#F5F5F5"/>
<path d="M82.0717 59.5297C81.9959 59.8138 81.8254 60.0727 81.5728 60.2811C77.7968 63.4636 70.4784 60.6789 64.2524 62.7058C59.0177 64.4107 56.0183 69.6201 45.8016 69.9801C35.0292 70.3589 34.1704 63.5583 27.6666 63.451C23.7074 63.3878 19.8367 63.2363 18.397 61.8155C15.4355 58.8793 29.3715 51.4409 49.2114 51.4346C59.5481 51.4346 68.2368 52.3818 73.1241 53.7141C80.171 55.6274 82.4568 58.0269 82.0653 59.536" fill="#FFEA6D"/>
<path d="M80.7014 57.0102C83.2398 59.1697 81.5728 60.2874 81.5728 60.2874C77.7968 63.4698 70.4784 60.6852 64.2524 62.7121C62.7243 63.211 61.3856 64.0066 60.0027 64.8969C60.0027 64.8969 62.7495 61.8344 65.9699 61.083C70.1816 60.1043 77.7589 60.843 79.8427 59.5296C81.7181 58.3488 80.7014 57.0102 80.7014 57.0102V57.0102Z" fill="#E5B741"/>
<path d="M45.5427 69.9927C43.4779 69.8727 41.4131 69.1276 39.5061 68.1931C36.5699 66.5829 35.5849 65.1432 33.4822 63.5014C31.3858 61.866 28.8474 61.9165 23.8085 62.0491C18.1823 62.1944 18.277 60.0285 18.277 60.0285C17.8855 60.7105 17.9108 61.323 18.4033 61.8155C19.8367 63.2362 23.7074 63.3878 27.6729 63.4509C34.1199 63.5583 35.0166 70.2516 45.549 69.9927H45.5427Z" fill="#FFCB48"/>
<path d="M68.1799 58.1847C57.7422 57.8627 41.0911 59.637 35.9574 59.5234C28.298 59.3529 27.4582 58.4562 27.7676 54.8823C28.077 51.3083 30.0029 38.951 30.7101 35.8443C31.7268 31.3863 31.8215 30.3949 37.2014 30.578C41.8551 30.7359 52.1097 30.717 66.0583 30.035C69.2597 29.8771 71.4066 29.9908 72.1833 36.2484C72.6506 40.0371 72.7832 46.1178 73.5409 52.3628C74.2039 57.8564 74.7533 58.3805 68.1799 58.1784V58.1847Z" fill="#FFEA6D"/>
<path d="M73.5409 52.3691C72.7831 46.1305 72.6505 40.0434 72.1833 36.2547C71.6844 32.2008 70.611 30.7296 69.045 30.2307C69.8532 30.7043 70.4657 31.4368 70.4026 34.2088C70.3142 37.9343 69.8153 46.5472 68.3441 49.3256C66.3172 53.1458 63.9429 53.5878 56.5993 54.5097C49.1356 55.4442 39.222 56.4167 33.4316 55.8862C28.8032 55.4569 28.1717 55.3748 28.298 50.5442C27.7171 54.0424 27.6413 55.7221 27.7676 56.7071C28.0644 58.7846 29.8198 59.3908 35.9637 59.5297C41.0973 59.6433 57.7422 57.8627 68.1862 58.191C74.7595 58.3931 74.2102 57.869 73.5472 52.3754L73.5409 52.3691Z" fill="#FFCB48"/>
<path d="M34.543 40.8705C35.3576 37.4039 36.1595 36.4694 37.555 35.7748C39.5882 34.7645 43.7621 34.6193 47.4307 34.5056C53.1769 34.3288 55.2543 33.8615 55.4437 33.3816C55.6079 32.9649 50.6574 32.9712 46.0353 32.8891C38.6095 32.7565 35.4712 32.2135 34.3031 33.8426C33.3306 35.2002 32.7055 38.2753 32.4529 41.2115C32.0741 45.5811 31.8341 49.0856 32.3898 48.8267C33.1538 48.4668 33.9368 43.4531 34.5367 40.8769L34.543 40.8705Z" fill="#FFFDF2"/>
</svg>
