<svg width="100" height="103" viewBox="0 0 100 103" fill="none" xmlns="http://www.w3.org/2000/svg">
<path fill-rule="evenodd" clip-rule="evenodd" d="M29.2454 8.38284C36.2274 8.12761 43.1456 8 50 8C56.8661 8 63.7963 8.12805 70.7905 8.38415C86.5291 8.96044 99.1427 21.6088 99.6756 37.3489C99.8919 43.7371 100 50.2874 100 57C100 62.7532 99.9206 68.2682 99.7617 73.5448C99.2862 89.3346 86.6477 102.05 70.8611 102.622C63.9074 102.874 56.9537 103 50 103C43.0565 103 36.113 102.874 29.1695 102.623C13.4156 102.054 0.790077 89.3882 0.270037 73.6326C0.0900123 68.1784 0 62.6342 0 57C0 50.4853 0.120345 43.9103 0.361036 37.2753C0.930983 21.5637 13.534 8.95717 29.2454 8.38284Z" fill="#E0E3AE"/>
<path fill-rule="evenodd" clip-rule="evenodd" d="M29.2454 6.38284C36.2274 6.12761 43.1456 6 50 6C56.8661 6 63.7963 6.12805 70.7905 6.38415C86.5291 6.96044 99.1427 19.6088 99.6756 35.3489C99.8919 41.7371 100 48.2874 100 55C100 60.7532 99.9206 66.2682 99.7617 71.5448C99.2862 87.3346 86.6477 100.05 70.8611 100.622C63.9074 100.874 56.9537 101 50 101C43.0565 101 36.113 100.874 29.1695 100.623C13.4156 100.054 0.790077 87.3882 0.270037 71.6326C0.0900123 66.1784 0 60.6342 0 55C0 48.4853 0.120345 41.9103 0.361036 35.2753C0.930983 19.5637 13.534 6.95717 29.2454 6.38284Z" fill="#CCE5E1"/>
<path fill-rule="evenodd" clip-rule="evenodd" d="M29.7764 0.363671C36.5782 0.121224 43.3194 0 50 0C56.6806 0 63.4218 0.121224 70.2236 0.363671C85.884 0.921875 98.4766 13.439 99.129 29.0957L100 50H0L0.871012 29.0957C1.52338 13.439 14.116 0.921876 29.7764 0.363671V0.363671Z" fill="white"/>
<path fill-rule="evenodd" clip-rule="evenodd" d="M29.2454 1.38284C36.2274 1.12761 43.1456 1 50 1C56.8661 1 63.7963 1.12805 70.7905 1.38415C86.5291 1.96044 99.1427 14.6088 99.6756 30.3489C99.8919 36.7371 100 44.2874 100 51C100 56.7532 99.9206 63.2682 99.7617 68.5448C99.2862 84.3346 86.6477 97.0505 70.8611 97.6222C63.9074 97.8741 56.9537 98 50 98C43.0565 98 36.113 97.8744 29.1695 97.6233C13.4156 97.0536 0.790077 84.3882 0.270037 68.6326C0.0900123 63.1784 0 56.6342 0 51C0 44.4853 0.120345 36.9103 0.361036 30.2753C0.930983 14.5637 13.534 1.95717 29.2454 1.38284Z" fill="#F5F5F5"/>
<path d="M76.2916 68.754C76.2916 78.2767 70.9639 86 64.3956 86C56.7133 86 51.7283 79.1001 52.4996 68.754C53.2708 58.4078 57.8272 51.5079 64.3956 51.5079C70.9639 51.5079 76.2916 59.2275 76.2916 68.754Z" fill="#801E21"/>
<path d="M66.6719 51.8246C61.3368 53.3372 57.7043 60.1217 57.0635 68.754C56.3817 77.9303 60.2228 84.3943 66.4633 85.7392C66.1988 85.8026 65.9082 85.8622 65.6139 85.9106C59.3734 84.5657 55.7632 77.9303 56.445 68.754C57.0858 60.1217 60.4501 53.1361 65.7852 51.6234C66.0125 51.657 66.4521 51.7538 66.6719 51.8209V51.8246Z" fill="#4D1214"/>
<path d="M77.9681 68.7539C77.9681 75.9705 73.9332 81.8235 68.952 81.8235C63.1288 81.8235 59.351 76.5927 59.9359 68.7539C60.4873 61.3138 63.9708 55.6844 68.952 55.6844C73.9332 55.6844 77.9681 61.5374 77.9681 68.7539V68.7539Z" fill="#BF0B12"/>
<path d="M66.5155 54.9169C66.4186 57.1523 65.9194 59.4696 65.0103 61.8578C63.684 65.345 62.3763 69.4395 63.6467 73.9214C64.3993 76.5778 65.8933 78.6754 67.7412 79.6776C69.0228 80.3743 70.4348 80.5121 71.8171 80.0837C75.4123 78.9697 77.1373 75.598 77.1559 75.5645C77.1597 75.557 77.1634 75.5496 77.1671 75.5421C77.1932 75.5048 79.8272 71.7457 79.5776 66.1646C79.395 62.0664 77.5807 58.6127 76.3773 56.3252C76.3773 56.3252 75.7253 55.1032 75.4011 53.2925C74.6374 49.0266 66.5229 50.2039 66.5155 54.9132V54.9169Z" fill="#EF3138"/>
<path d="M78.4301 60.755C77.2826 59.6596 75.837 58.9853 74.1568 58.9853C72.6292 58.9853 71.1017 59.3728 69.0154 62.3235C66.3105 66.1572 66.087 72.841 68.6987 75.9184C69.7866 77.2 71.2098 77.7998 72.7149 77.7104C74.0674 77.6322 75.2745 77.3118 76.3251 76.8125C76.2133 76.9578 76.0867 77.1106 75.9488 77.2745C74.8721 77.8632 73.6426 78.0718 72.6628 78.1016C71.1502 78.15 69.5221 77.6396 68.3597 76.2723C65.5691 72.9863 65.6884 66.0454 68.6018 61.9695C70.7441 58.9667 72.6702 58.5829 74.2983 58.5829C75.9265 58.5829 77.3049 59.4175 78.2401 60.2632C78.2811 60.3675 78.3481 60.5426 78.4264 60.7587L78.4301 60.755Z" fill="#A72227"/>
<path d="M72.7187 77.7142C71.2135 77.8036 69.7903 77.2 68.7024 75.9221C66.0907 72.8484 66.3105 66.1609 69.0191 62.3272C71.1017 59.3765 72.633 58.989 74.1605 58.989C78.6648 58.9853 81.4926 63.8361 81.3808 68.7092C81.2802 73.1726 78.1879 77.3937 72.7187 77.7142V77.7142Z" fill="#F5676B"/>
<path d="M18 41.3667C22.78 22.4329 34.7878 13.7298 49.8841 15.1493C70.3454 17.0717 74.1232 35.048 75.6917 54.5257L66.4596 55.8036C65.8113 39.3846 64.1161 22.9918 46.9222 21.889C38.3383 21.3376 31.7551 27.4737 27.9177 39.787C23.4506 39.9621 20.9619 40.5955 18.0037 41.3704L18 41.3667Z" fill="#EF3138"/>
<path d="M63.5163 73.4408C62.4657 69.1488 64.2614 65.2406 65.4872 61.8577C66.4372 59.2349 67.0818 57.7297 67.0631 55.7998C67.0818 30.7709 59.6938 11.7402 37.7385 16.4532C28.4765 19.6237 21.409 27.8649 18 41.3666C22.1988 40.3197 23.9126 39.9583 27.914 39.7832C31.7514 27.4737 38.3346 21.3375 46.9185 21.8852C64.1087 22.988 65.8039 39.3809 66.4558 55.7961C66.2807 57.7558 65.8001 59.7788 65.0103 61.854C63.684 65.3412 62.2496 68.9588 63.52 73.4371L63.5163 73.4408Z" fill="#A72227"/>
<path d="M73.8401 40.2564C71.6084 40.018 68.5906 39.9249 65.9156 40.2564C65.7256 39.1648 65.5319 38.1179 65.3307 37.2312C68.0802 36.9481 71.3625 36.9033 73.1508 37.2312C73.3297 38.0695 73.6463 39.1201 73.8401 40.2564Z" fill="#F8A1A5"/>
<path d="M64.4589 37.8832L65.3307 37.2312C65.5095 38.0173 65.7033 39.0381 65.9156 40.2564L65.0997 40.8674C64.865 39.664 64.6414 38.5948 64.4589 37.8794V37.8832Z" fill="#C66A6E"/>
<path d="M73.6873 69.0445C75.5278 69.2755 77.6216 69.2755 79.939 68.8992C79.8011 69.8045 79.5478 70.7211 79.1827 71.6189C78.173 71.5854 77.1633 71.5444 76.1611 71.5034C74.2462 71.4215 72.3759 71.3283 70.5652 71.2501C70.9303 70.4044 71.165 69.499 71.2694 68.5825C72.0219 68.78 72.8304 68.9402 73.691 69.0482L73.6873 69.0445ZM77.6551 68.0237C75.7886 68.0349 73.6575 67.9641 71.3029 67.6511C71.3327 66.8687 71.2731 66.0789 71.1203 65.2965C72.2418 65.6095 73.3222 65.8107 74.3654 65.915C76.3437 66.1124 78.1916 65.956 79.8868 65.5201C80.0284 66.3024 80.0694 67.1258 80.0097 67.9678C79.2758 67.9976 78.4897 68.02 77.6551 68.0237Z" fill="#AF2228"/>
</svg>
