<svg width="100" height="103" viewBox="0 0 100 103" fill="none" xmlns="http://www.w3.org/2000/svg">
<path fill-rule="evenodd" clip-rule="evenodd" d="M29.2454 8.38284C36.2274 8.12761 43.1456 8 50 8C56.8661 8 63.7963 8.12805 70.7905 8.38415C86.5291 8.96044 99.1427 21.6088 99.6756 37.3489C99.8919 43.7371 100 50.2874 100 57C100 62.7532 99.9206 68.2682 99.7617 73.5448C99.2862 89.3346 86.6477 102.05 70.8611 102.622C63.9074 102.874 56.9537 103 50 103C43.0565 103 36.113 102.874 29.1695 102.623C13.4156 102.054 0.790077 89.3882 0.270037 73.6326C0.0900123 68.1784 0 62.6342 0 57C0 50.4853 0.120345 43.9103 0.361036 37.2753C0.930983 21.5637 13.534 8.95717 29.2454 8.38284Z" fill="#E0E3AE"/>
<path fill-rule="evenodd" clip-rule="evenodd" d="M29.2454 6.38284C36.2274 6.12761 43.1456 6 50 6C56.8661 6 63.7963 6.12805 70.7905 6.38415C86.5291 6.96044 99.1427 19.6088 99.6756 35.3489C99.8919 41.7371 100 48.2874 100 55C100 60.7532 99.9206 66.2682 99.7617 71.5448C99.2862 87.3346 86.6477 100.05 70.8611 100.622C63.9074 100.874 56.9537 101 50 101C43.0565 101 36.113 100.874 29.1695 100.623C13.4156 100.054 0.790077 87.3882 0.270037 71.6326C0.0900123 66.1784 0 60.6342 0 55C0 48.4853 0.120345 41.9103 0.361036 35.2753C0.930983 19.5637 13.534 6.95717 29.2454 6.38284Z" fill="#CCE5E1"/>
<path fill-rule="evenodd" clip-rule="evenodd" d="M29.7764 0.363671C36.5782 0.121224 43.3194 0 50 0C56.6806 0 63.4218 0.121224 70.2236 0.363671C85.884 0.921875 98.4766 13.439 99.129 29.0957L100 50H0L0.871012 29.0957C1.52338 13.439 14.116 0.921876 29.7764 0.363671V0.363671Z" fill="white"/>
<path fill-rule="evenodd" clip-rule="evenodd" d="M29.2454 1.38284C36.2274 1.12761 43.1456 1 50 1C56.8661 1 63.7963 1.12805 70.7905 1.38415C86.5291 1.96044 99.1427 14.6088 99.6756 30.3489C99.8919 36.7371 100 44.2874 100 51C100 56.7532 99.9206 63.2682 99.7617 68.5448C99.2862 84.3346 86.6477 97.0505 70.8611 97.6222C63.9074 97.8741 56.9537 98 50 98C43.0565 98 36.113 97.8744 29.1695 97.6233C13.4156 97.0536 0.790077 84.3882 0.270037 68.6326C0.0900123 63.1784 0 56.6342 0 51C0 44.4853 0.120345 36.9103 0.361036 30.2753C0.930983 14.5637 13.534 1.95717 29.2454 1.38284Z" fill="#F5F5F5"/>
<path d="M91.6451 66.9677C91.2549 73.7195 70.5742 76.1855 44.0884 71.8069C21.0697 68.0008 8.98941 59.5251 8.11306 55.3896C6.28039 46.7316 27.1914 50.64 50.2293 54.3118C73.2672 57.9835 91.9585 61.5305 91.6451 66.9677V66.9677Z" fill="#FFDF53"/>
<path d="M91.6451 66.9678C91.8914 62.7299 80.5851 59.6403 64.6764 56.7458C64.6764 56.7458 85.8688 61.5145 83.3357 67.278C82.7088 68.7045 81.3176 69.8015 79.4433 70.6395C79.0723 70.7994 78.6917 70.953 78.3015 71.0969C75.1831 72.2227 71.07 72.7824 66.9472 73.0255C61.1678 73.179 53.7571 72.517 43.791 70.8954C28.039 68.3335 13.771 62.2406 9.45961 56.5635C7.71329 54.2638 8.83912 52.2009 8.83912 52.2009C8.0939 52.9877 7.82524 54.0367 8.11309 55.3896C8.98945 59.5252 21.0697 68.0009 44.0884 71.8069C46.1002 72.1396 48.0768 72.4306 50.0182 72.6865C49.9894 72.6865 49.9703 72.6833 49.9703 72.6833C50.4116 72.7408 50.8466 72.7952 51.2848 72.8496C51.3839 72.8624 51.4831 72.8752 51.5822 72.8848C52.0812 72.9455 52.5769 73.0031 53.0695 73.0607C53.1111 73.0671 53.1558 73.0703 53.1974 73.0767C53.7156 73.1342 54.2273 73.1886 54.739 73.243C54.8478 73.2526 54.9565 73.2654 55.0653 73.275C55.5674 73.3261 56.0696 73.3741 56.5653 73.4189C56.6389 73.4253 56.7124 73.4317 56.7828 73.4381C57.2466 73.4797 57.7071 73.5181 58.1645 73.5564C58.2413 73.5628 58.318 73.5692 58.3916 73.5756C58.8809 73.614 59.3639 73.6492 59.8436 73.6844C59.946 73.6908 60.0451 73.6972 60.1475 73.7036C60.6336 73.7355 61.1198 73.7675 61.5996 73.7931C61.6283 73.7931 61.6571 73.7931 61.6859 73.7963C62.1465 73.8219 62.6038 73.8443 63.0548 73.8667C63.1444 73.8699 63.2371 73.8763 63.3267 73.8795C63.7872 73.8987 64.2414 73.9179 64.6924 73.9338C64.7787 73.9338 64.8651 73.9402 64.9547 73.9434C65.3928 73.9562 65.831 73.969 66.2628 73.9786C66.2948 73.9786 66.3236 73.9786 66.3555 73.9786C66.8033 73.9882 67.2479 73.9946 67.6893 73.9978C67.782 73.9978 67.8748 73.9978 67.9675 73.9978C68.3993 73.9978 68.8279 73.9978 69.2501 73.9978C69.314 73.9978 69.378 73.9978 69.442 73.9978C69.8354 73.9978 70.2256 73.9882 70.6126 73.9818C70.6766 73.9818 70.7373 73.9818 70.8013 73.9786C71.2107 73.969 71.6169 73.9594 72.0199 73.9466C72.1062 73.9466 72.1926 73.9402 72.2789 73.937C72.6819 73.921 73.0817 73.9051 73.4783 73.8859C73.5103 73.8859 73.5391 73.8827 73.5711 73.8795C73.9453 73.8603 74.3163 73.8379 74.6809 73.8155C74.7545 73.8123 74.8248 73.8059 74.8984 73.8027C75.2726 73.7771 75.6436 73.7483 76.0082 73.7196C76.0818 73.7132 76.1522 73.7068 76.2225 73.7004C76.5808 73.6684 76.9358 73.6364 77.2844 73.6012C77.3036 73.6012 77.3228 73.598 77.3388 73.5948C77.697 73.5596 78.0488 73.5181 78.3974 73.4765C78.471 73.4669 78.5446 73.4605 78.6181 73.4509C78.9571 73.4093 79.2898 73.3645 79.6192 73.3198C79.6736 73.3134 79.7248 73.3038 79.7791 73.2974C80.083 73.2526 80.3836 73.2078 80.6779 73.1598C80.7227 73.1534 80.7706 73.147 80.8154 73.1374C81.1289 73.0863 81.4391 73.0319 81.7397 72.9743C81.8037 72.9615 81.8677 72.9487 81.9316 72.9391C82.2355 72.8816 82.5329 72.8208 82.824 72.7568C82.8496 72.7504 82.8752 72.744 82.904 72.7377C83.179 72.6769 83.4445 72.6161 83.7067 72.5521C83.7579 72.5394 83.8123 72.5266 83.8635 72.5138C84.1353 72.4466 84.3976 72.3762 84.6567 72.3059C84.7078 72.2899 84.759 72.2771 84.8102 72.2611C85.0661 72.1875 85.3187 72.114 85.5586 72.0372C85.5682 72.0372 85.5746 72.0308 85.5842 72.0308C85.8305 71.9508 86.0703 71.8709 86.3038 71.7877C86.3518 71.7717 86.3998 71.7525 86.4478 71.7366C86.6748 71.6534 86.8923 71.5702 87.1034 71.4839C87.1386 71.4679 87.1738 71.4551 87.209 71.4391C87.4073 71.356 87.596 71.2728 87.7815 71.1896C87.8007 71.18 87.8199 71.1736 87.839 71.164C90.2058 70.0574 91.5524 68.6469 91.6483 66.9742L91.6451 66.9678Z" fill="#F4AE00"/>
<path d="M78.8676 60.7981C78.8676 60.7981 65.2137 64.2811 45.0032 60.942C27.588 58.0635 23.3981 51.1614 23.3981 51.1614C23.3981 51.1614 27.5464 39.2027 30.7512 34.6833C33.3387 31.034 41.0948 25.4944 54.8702 27.3814C70.6414 29.5404 77.8665 38.0033 78.5254 42.3403C79.1842 46.6773 78.8644 60.7981 78.8644 60.7981H78.8676Z" fill="#FFDF53"/>
<path d="M78.9412 54.2638C78.954 49.962 78.8836 44.7007 78.5254 42.3403C78.132 39.756 75.407 35.7068 69.9313 32.3997C69.9313 32.3997 75.3974 36.3273 75.0711 45.7338C74.956 49.0697 74.8632 52.1625 74.3419 54.9291L78.9412 54.2638V54.2638Z" fill="#F4AE00"/>
<path d="M26.0272 44.2273C24.508 47.947 23.0335 52.1081 23.0335 52.1081C23.0335 52.1081 26.2095 57.6381 44.9648 61.6521C66.7841 66.3217 78.8228 61.6169 78.8228 61.6169C78.8228 61.6169 78.9539 57.2703 78.9411 52.9333C59.6709 57.1104 33.7481 50.4098 26.0272 44.2273" fill="#C1272D"/>
<path d="M77.0925 62.1542C78.2375 61.8472 78.8228 61.6201 78.8228 61.6201C78.8228 61.6201 78.9475 57.1168 78.9412 52.9365C77.6202 53.2275 76.1554 53.477 74.5434 53.6913C74.3419 55.105 74.022 56.7394 73.1745 58.4921C72.3269 60.2448 66.7681 64.2044 45.6205 60.5646C28.039 57.539 23.219 51.5932 23.219 51.5932L23.0335 52.1113C23.0335 52.1113 26.2095 57.6413 44.9648 61.6553C55.8137 63.9773 64.2414 63.9805 69.9761 63.3984C69.9761 63.3984 75.5189 62.586 77.0925 62.1542V62.1542Z" fill="#9A1F24"/>
</svg>
