<svg width="1024" height="576" viewBox="0 0 1024 576" fill="none" xmlns="http://www.w3.org/2000/svg">
<path d="M1024 576H0V499.11L57.41 429.9L1024 429.82V576Z" fill="#E29E8A"/>
<path d="M0 499.11L57.41 429.9V0H0V499.11Z" fill="#EBAB9A"/>
<path d="M1024 0H57.41V429.9H1024V0Z" fill="#FBC9BA"/>
<path d="M515.93 0C493.1 74.62 525.98 459.59 481.14 576H1023.99V0H515.92H515.93Z" fill="#F04E4A"/>
<path d="M933.07 0C916.92 119.23 900.38 319.95 931.96 576H942.7C925.07 352.62 922.11 152.44 949.31 0H933.07Z" fill="#C13848"/>
<path d="M590.17 0C590.17 0 550 92 558.12 277.8C565.28 441.81 565.86 498.48 551.18 576H575.66C575.66 576 590.01 485 579.39 278.06C571.3 120.34 590.05 24.42 597.95 0H590.17Z" fill="#C13848"/>
<path d="M676.55 0C676.55 0 623.52 262.12 676.55 482.27C676.55 482.27 647.11 207.43 699.44 0H676.55Z" fill="#C13848"/>
<path d="M352.79 495.26L388.23 460V518.61L352.6 554L352.79 495.26Z" fill="#CCCCCC"/>
<path d="M134.19 495.26L352.86 495.39V554H134L134.19 495.26Z" fill="#D9D9D9"/>
<path d="M170.21 460H388.23L352.86 495.39L134.19 495.26L170.21 460Z" fill="#F5F5F5"/>
</svg>
