<svg width="80" height="82" viewBox="0 0 80 82" fill="none" xmlns="http://www.w3.org/2000/svg">
<ellipse cx="40" cy="62" rx="35" ry="20" fill="#D7E19B"/>
<ellipse cx="40" cy="59" rx="35" ry="20" fill="#872CDE"/>
<ellipse cx="40" cy="39" rx="35" ry="34" fill="#B272EF"/>
<path fill-rule="evenodd" clip-rule="evenodd" d="M59.2677 24.7404C60.7018 25.9763 62.1842 29.0309 57.5561 36.0816C57.5561 36.0816 64.2728 38.2824 59.0955 42.7607L55.4417 45.5072C55.4417 45.5072 63.3249 49.2769 51.0666 54.202C51.0666 54.202 43.8472 56.3596 43.4663 50.0103C43.4663 50.0103 43.0682 48.8392 42.3382 48.3904C42.0885 48.2464 41.8626 48.0646 41.6679 47.8532C40.9127 46.989 39.5396 44.8228 41.181 41.7649C41.2724 41.5981 41.3512 41.4254 41.4188 41.2474C42.1892 39.1454 47.752 24.8614 56.9275 24.0155C57.7753 23.9311 58.6206 24.1935 59.2677 24.7404ZM22.1277 24.0158C31.3032 24.8611 36.8666 39.1457 37.637 41.2478C37.7039 41.4251 37.7834 41.5978 37.8748 41.7646C39.5155 44.8232 38.1431 46.9887 37.3879 47.8536C37.1932 48.0649 36.9667 48.2461 36.7169 48.3907C35.9876 48.8395 35.5889 50.0106 35.5889 50.0106C35.208 56.3599 27.9892 54.2023 27.9892 54.2023C15.7309 49.2765 23.6141 45.5075 23.6141 45.5075L19.9596 42.761C14.783 38.2828 21.4997 36.0819 21.4997 36.0819C16.8709 29.0306 18.354 25.9766 19.7881 24.7407C20.4346 24.1931 21.2805 23.9315 22.1277 24.0158Z" fill="white"/>
</svg>
