<svg width="80" height="82" viewBox="0 0 80 82" fill="none" xmlns="http://www.w3.org/2000/svg">
<ellipse cx="40" cy="62" rx="35" ry="20" fill="#D7E19B"/>
<ellipse cx="40" cy="59" rx="35" ry="20" fill="#872CDE"/>
<ellipse cx="40" cy="39" rx="35" ry="34" fill="#B272EF"/>
<path fill-rule="evenodd" clip-rule="evenodd" d="M57.8832 26.6743C62.2319 24.8878 62.1177 28.1263 62.1177 28.1263C63.7191 34.7149 58.9136 34.1569 58.9136 34.1569C57.8838 36.837 53.4693 37.9865 53.4693 37.9865L53.4139 37.8875C53.8108 39.9185 54.0987 41.6385 54.0987 41.6385C57.4252 45.3241 53.5048 45.2126 53.5048 45.2126C53.5048 46.648 51.8076 46.2135 50.9803 45.9165C50.3741 49.1456 47.9017 58.1375 39.0997 58.7786C39.0997 58.7786 27.5838 60.1085 22.7916 57.4488L18 57.2135V48.1371C18 48.1371 22.3275 45.5549 30.2889 45.7112L31.1949 45.621C31.1573 45.5057 31.1367 45.3705 31.1367 45.2126C31.1367 45.2126 27.2158 45.3241 30.5423 41.6385C30.5423 41.6385 30.8209 39.9743 31.2078 37.9859L31.2072 37.9865C31.2072 37.9865 26.7933 36.837 25.7635 34.1569C25.7635 34.1569 20.958 34.7149 22.56 28.1263C22.56 28.1263 22.4452 24.8878 26.7933 26.6743L36.7209 28.1263C36.7209 28.1263 37.7221 27.6395 39.3539 27.2123H39.351C39.351 27.2123 38.8399 25.9366 39.8964 25.779C39.3475 25.1517 39.8883 24.6381 39.8883 24.6381C40.6838 24.282 41.1675 25.0459 41.4344 25.7517C41.3959 24.8718 41.4565 23.0979 42.558 23C42.558 23 43.7806 22.9625 43.7113 25.2961C43.9689 24.9185 44.3349 24.6455 44.8465 24.7683C44.8465 24.7683 45.346 25.1716 44.8961 25.7398C45.2725 25.6789 45.6607 25.7187 45.9532 25.9969C45.9532 25.9969 46.5931 26.7476 45.4917 27.2658H45.487C46.9999 27.6793 47.9207 28.1263 47.9207 28.1263L48.0168 28.2338L47.9562 28.1263L57.8832 26.6743Z" fill="white"/>
</svg>
