<svg width="90" height="125" viewBox="0 0 100 141" fill="none" xmlns="http://www.w3.org/2000/svg">
<path d="M73.3381 7C74.3381 7 75.4381 7.1 76.7381 7.4C84.2381 8.9 84.3381 12.8 84.3381 12.8L80.6381 31.4H88.5381C90.9381 31.4 92.8381 33.5 92.5381 35.9L81.6381 129.4C81.3381 132.1 79.0381 134.1 76.3381 134.1H23.2381C20.5381 134.1 18.2381 132.1 17.9381 129.4L7.03811 35.8C6.73811 33.4 8.63811 31.3 11.0381 31.3H63.2381L67.6381 9.4C67.6381 9.4 68.7381 7 73.3381 7ZM73.3381 5C67.6381 5 65.9381 8.2 65.7381 8.6L65.6381 8.8V9L61.5381 29.3H11.0381C9.33811 29.3 7.63811 30 6.53811 31.3C5.43811 32.6 4.83811 34.3 5.03811 36L15.9381 129.5C16.3381 133.2 19.5381 136 23.2381 136H76.3381C80.0381 136 83.2381 133.2 83.6381 129.5L94.5381 36C94.7381 34.3 94.2381 32.6 93.0381 31.3C91.9381 30 90.2381 29.3 88.5381 29.3H83.0381L86.2381 13.1V12.9V12.7C86.2381 12.1 85.7381 7.1 76.9381 5.4C75.8381 5.1 74.5381 5 73.3381 5Z" stroke="white" stroke-width="9"/>
<path d="M88.5381 31.4H11.0381C8.63808 31.4 6.73808 33.5 7.03808 35.9L17.9381 129.4C18.2381 132.1 20.5381 134.1 23.2381 134.1H76.3381C79.0381 134.1 81.3381 132.1 81.6381 129.4L92.5381 35.9C92.8381 33.5 90.9381 31.4 88.5381 31.4Z" fill="#D3E1EA"/>
<path d="M21.2381 126.6C21.5381 128.9 23.5381 130.6 26.0381 130.6H73.6381C76.0381 130.6 78.1381 128.9 78.4381 126.6L80.9381 106.1H18.6381L21.2381 126.6Z" fill="#DBBA95"/>
<path d="M14.7381 74.7L18.6381 106.1H80.9381L84.8381 74.7H14.7381Z" fill="#D6B492"/>
<path d="M88.1381 47.6C88.4381 45.6 86.7381 43.8 84.5381 43.8H15.0381C12.8381 43.8 11.2381 45.6 11.4381 47.6L14.7381 74.7H84.7381L88.1381 47.6Z" fill="#D3B08D"/>
<path opacity="0.8" d="M76.7381 7.4C69.2381 5.9 67.5381 9.5 67.5381 9.5L60.6381 43.8L45.9381 117.3L62.7381 120.7L78.0381 43.9L84.2381 12.9C84.4381 12.8 84.2381 8.9 76.7381 7.4Z" fill="#F28F8F"/>
<path d="M47.3381 97.4C52.4191 97.4 56.5381 93.281 56.5381 88.2C56.5381 83.119 52.4191 79 47.3381 79C42.2571 79 38.1381 83.119 38.1381 88.2C38.1381 93.281 42.2571 97.4 47.3381 97.4Z" fill="url(#paint0_radial_44_4242)"/>
<path d="M33.0381 125.3C38.1191 125.3 42.2381 121.181 42.2381 116.1C42.2381 111.019 38.1191 106.9 33.0381 106.9C27.9571 106.9 23.8381 111.019 23.8381 116.1C23.8381 121.181 27.9571 125.3 33.0381 125.3Z" fill="url(#paint1_radial_44_4242)"/>
<path d="M57.9381 120.1C63.0191 120.1 67.1381 115.981 67.1381 110.9C67.1381 105.819 63.0191 101.7 57.9381 101.7C52.8571 101.7 48.7381 105.819 48.7381 110.9C48.7381 115.981 52.8571 120.1 57.9381 120.1Z" fill="url(#paint2_radial_44_4242)"/>
<path d="M43.7381 113.5C48.8191 113.5 52.9381 109.381 52.9381 104.3C52.9381 99.219 48.8191 95.1 43.7381 95.1C38.6571 95.1 34.5381 99.219 34.5381 104.3C34.5381 109.381 38.6571 113.5 43.7381 113.5Z" fill="url(#paint3_radial_44_4242)"/>
<path d="M28.8381 110.8C33.9191 110.8 38.0381 106.681 38.0381 101.6C38.0381 96.519 33.9191 92.4 28.8381 92.4C23.7571 92.4 19.6381 96.519 19.6381 101.6C19.6381 106.681 23.7571 110.8 28.8381 110.8Z" fill="url(#paint4_radial_44_4242)"/>
<path d="M47.3381 129.3C52.4191 129.3 56.5381 125.181 56.5381 120.1C56.5381 115.019 52.4191 110.9 47.3381 110.9C42.2571 110.9 38.1381 115.019 38.1381 120.1C38.1381 125.181 42.2571 129.3 47.3381 129.3Z" fill="url(#paint5_radial_44_4242)"/>
<path d="M67.1381 126.3C72.2191 126.3 76.3381 122.181 76.3381 117.1C76.3381 112.019 72.2191 107.9 67.1381 107.9C62.0571 107.9 57.9381 112.019 57.9381 117.1C57.9381 122.181 62.0571 126.3 67.1381 126.3Z" fill="url(#paint6_radial_44_4242)"/>
<path d="M65.7381 106.9C70.8191 106.9 74.9381 102.781 74.9381 97.7C74.9381 92.619 70.8191 88.5 65.7381 88.5C60.6571 88.5 56.5381 92.619 56.5381 97.7C56.5381 102.781 60.6571 106.9 65.7381 106.9Z" fill="url(#paint7_radial_44_4242)"/>
<path opacity="0.4" d="M44.8381 86.6C45.8322 86.6 46.6381 85.7941 46.6381 84.8C46.6381 83.8059 45.8322 83 44.8381 83C43.844 83 43.0381 83.8059 43.0381 84.8C43.0381 85.7941 43.844 86.6 44.8381 86.6Z" fill="white"/>
<path opacity="0.4" d="M25.6381 101C26.6322 101 27.4381 100.194 27.4381 99.2C27.4381 98.2059 26.6322 97.4 25.6381 97.4C24.644 97.4 23.8381 98.2059 23.8381 99.2C23.8381 100.194 24.644 101 25.6381 101Z" fill="white"/>
<path opacity="0.4" d="M40.8188 103.471C41.7911 103.264 42.4116 102.308 42.2048 101.336C41.9979 100.364 41.0419 99.7432 40.0696 99.9501C39.0973 100.157 38.4767 101.113 38.6836 102.085C38.8905 103.058 39.8464 103.678 40.8188 103.471Z" fill="white"/>
<path opacity="0.4" d="M30.3138 115.253C31.2861 115.047 31.9067 114.091 31.6998 113.118C31.4929 112.146 30.537 111.525 29.5646 111.732C28.5923 111.939 27.9718 112.895 28.1786 113.867C28.3855 114.84 29.3414 115.46 30.3138 115.253Z" fill="white"/>
<path opacity="0.4" d="M44.816 119.752C45.7883 119.545 46.4089 118.589 46.202 117.617C45.9951 116.645 45.0392 116.024 44.0668 116.231C43.0945 116.438 42.4739 117.394 42.6808 118.366C42.8877 119.338 43.8436 119.959 44.816 119.752Z" fill="white"/>
<path opacity="0.4" d="M64.9186 116.56C65.8909 116.353 66.5115 115.397 66.3046 114.425C66.0977 113.452 65.1418 112.832 64.1694 113.039C63.1971 113.246 62.5765 114.201 62.7834 115.174C62.9903 116.146 63.9462 116.767 64.9186 116.56Z" fill="white"/>
<path opacity="0.4" d="M63.5048 96.7705C64.4771 96.5637 65.0976 95.6077 64.8908 94.6354C64.6839 93.663 63.7279 93.0425 62.7556 93.2494C61.7833 93.4563 61.1627 94.4122 61.3696 95.3845C61.5765 96.3569 62.5324 96.9774 63.5048 96.7705Z" fill="white"/>
<path opacity="0.2" d="M15.5381 31.4L28.8381 130.7H43.7381L32.1381 31.4H15.5381Z" fill="white"/>
<path opacity="0.2" d="M25.6381 72.1C28.0129 72.1 29.9381 70.1748 29.9381 67.8C29.9381 65.4252 28.0129 63.5 25.6381 63.5C23.2632 63.5 21.3381 65.4252 21.3381 67.8C21.3381 70.1748 23.2632 72.1 25.6381 72.1Z" stroke="white" stroke-miterlimit="10"/>
<path opacity="0.2" d="M45.5381 73.1C47.9129 73.1 49.8381 71.1748 49.8381 68.8C49.8381 66.4252 47.9129 64.5 45.5381 64.5C43.1633 64.5 41.2381 66.4252 41.2381 68.8C41.2381 71.1748 43.1633 73.1 45.5381 73.1Z" stroke="white" stroke-miterlimit="10"/>
<path opacity="0.2" d="M37.6381 91.4C40.0129 91.4 41.9381 89.4748 41.9381 87.1C41.9381 84.7252 40.0129 82.8 37.6381 82.8C35.2632 82.8 33.3381 84.7252 33.3381 87.1C33.3381 89.4748 35.2632 91.4 37.6381 91.4Z" stroke="white" stroke-miterlimit="10"/>
<path opacity="0.2" d="M57.0381 61C59.4129 61 61.3381 59.0748 61.3381 56.7C61.3381 54.3252 59.4129 52.4 57.0381 52.4C54.6633 52.4 52.7381 54.3252 52.7381 56.7C52.7381 59.0748 54.6633 61 57.0381 61Z" stroke="white" stroke-miterlimit="10"/>
<path opacity="0.2" d="M72.5381 88.1C74.9129 88.1 76.8381 86.1748 76.8381 83.8C76.8381 81.4252 74.9129 79.5 72.5381 79.5C70.1633 79.5 68.2381 81.4252 68.2381 83.8C68.2381 86.1748 70.1633 88.1 72.5381 88.1Z" stroke="white" stroke-miterlimit="10"/>
<path opacity="0.2" d="M27.4381 31.4L39.3381 130.7H46.8381L35.6381 31.4H27.4381Z" fill="white"/>
<defs>
<radialGradient id="paint0_radial_44_4242" cx="0" cy="0" r="1" gradientUnits="userSpaceOnUse" gradientTransform="translate(47.2931 88.1622) scale(9.2235 9.2235)">
<stop offset="0.7882" stop-color="#432307"/>
<stop offset="0.9994" stop-color="#D8A664" stop-opacity="0"/>
</radialGradient>
<radialGradient id="paint1_radial_44_4242" cx="0" cy="0" r="1" gradientUnits="userSpaceOnUse" gradientTransform="translate(33.0503 116.109) scale(9.2235 9.2235)">
<stop offset="0.7882" stop-color="#432307"/>
<stop offset="0.9994" stop-color="#D8A664" stop-opacity="0"/>
</radialGradient>
<radialGradient id="paint2_radial_44_4242" cx="0" cy="0" r="1" gradientUnits="userSpaceOnUse" gradientTransform="translate(57.9594 110.884) scale(9.2235 9.2235)">
<stop offset="0.7882" stop-color="#432307"/>
<stop offset="0.9994" stop-color="#D8A664" stop-opacity="0"/>
</radialGradient>
<radialGradient id="paint3_radial_44_4242" cx="0" cy="0" r="1" gradientUnits="userSpaceOnUse" gradientTransform="translate(43.7166 104.251) scale(9.2235)">
<stop offset="0.7882" stop-color="#432307"/>
<stop offset="0.9994" stop-color="#D8A664" stop-opacity="0"/>
</radialGradient>
<radialGradient id="paint4_radial_44_4242" cx="0" cy="0" r="1" gradientUnits="userSpaceOnUse" gradientTransform="translate(28.846 101.615) scale(9.2235 9.2235)">
<stop offset="0.7882" stop-color="#432307"/>
<stop offset="0.9994" stop-color="#D8A664" stop-opacity="0"/>
</radialGradient>
<radialGradient id="paint5_radial_44_4242" cx="0" cy="0" r="1" gradientUnits="userSpaceOnUse" gradientTransform="translate(47.2931 120.062) scale(9.2235 9.2235)">
<stop offset="0.7882" stop-color="#432307"/>
<stop offset="0.9994" stop-color="#D8A664" stop-opacity="0"/>
</radialGradient>
<radialGradient id="paint6_radial_44_4242" cx="0" cy="0" r="1" gradientUnits="userSpaceOnUse" gradientTransform="translate(67.128 117.05) rotate(-5.89475) scale(9.22339 9.22339)">
<stop offset="0.7882" stop-color="#432307"/>
<stop offset="0.9994" stop-color="#D8A664" stop-opacity="0"/>
</radialGradient>
<radialGradient id="paint7_radial_44_4242" cx="0" cy="0" r="1" gradientUnits="userSpaceOnUse" gradientTransform="translate(65.7371 97.6636) rotate(-12.0111) scale(9.22343 9.22343)">
<stop offset="0.7882" stop-color="#432307"/>
<stop offset="0.9994" stop-color="#D8A664" stop-opacity="0"/>
</radialGradient>
</defs>
</svg>
