<svg width="40" height="40" viewBox="0 0 40 40" fill="none" xmlns="http://www.w3.org/2000/svg">
<path d="M11.1798 7.22049C10.0863 6.12702 8.31347 6.12702 7.22 7.22049C6.12654 8.31396 6.12654 10.0868 7.22 11.1803L15.6803 19.6406L7.22 28.1009C6.12654 29.1944 6.12653 30.9672 7.22 32.0607C8.31347 33.1542 10.0863 33.1542 11.1798 32.0607L19.6401 23.6004L28.0602 32.0205C29.1537 33.114 30.9265 33.114 32.02 32.0205C33.1135 30.927 33.1135 29.1542 32.02 28.0607L23.5999 19.6406L32.02 11.2205C33.1135 10.127 33.1135 8.35416 32.02 7.26069C30.9265 6.16723 29.1537 6.16723 28.0602 7.26069L19.6401 15.6808L11.1798 7.22049Z" fill="#767676"/>
</svg>
