<svg width="178" height="100" viewBox="0 0 188 100" fill="none" xmlns="http://www.w3.org/2000/svg">
<path d="M77.3027 7C81.9027 7 85.8027 11.4 85.0027 20.5C85.6027 20.5 86.2027 20.5 86.8027 20.5C93.3027 20.5 100.103 21.4 106.303 23.1C111.303 14.6 117.103 11.2 121.703 11.2C129.503 11.2 133.803 20.9 124.703 31.6C127.603 33.7 130.203 36.2 132.203 39V38.9C132.203 38.9 132.203 38.9 132.103 38.9C131.703 38.9 145.203 35.9 157.003 35.9C167.503 35.9 176.603 38.3 173.303 47.2C173.403 47.2 173.503 47.2 173.603 47.2C177.003 47.2 183.803 53.4 178.803 59.6C177.303 61.2 174.903 62.1 172.803 62.3C176.903 65.7 175.803 72.2 170.503 74.9C165.803 78.3 159.103 79.4 152.603 79.4C142.303 79.4 132.603 76.7 132.703 76.5C125.203 87.5 108.803 92.8 91.9027 92.8C71.7027 92.8 50.7027 85.3 43.3027 71.4C42.3027 71.5 40.4027 71.6 37.9027 71.6C31.4027 71.6 21.2027 70.9 14.1027 66.9C7.00275 63.3 2.90275 54.3 12.7027 50.1C2.40275 40.6 15.3027 37 15.3027 37C11.9027 29.1 17.7027 26.7 25.5027 26.7C35.4027 26.7 48.5027 30.7 50.2027 32.7C54.1027 29.2 59.0027 26.4 64.5027 24.3C65.8027 12.8 72.1027 7 77.3027 7ZM77.3027 5C71.2027 5 64.4027 11.1 62.7027 22.8C57.9027 24.7 53.7027 27.1 50.1027 30.1C45.4027 27.4 33.5027 24.6 25.5027 24.6C19.4027 24.6 15.4027 26 13.5027 28.9C12.3027 30.8 12.0027 33.1 12.8027 35.8C10.7027 36.7 7.70275 38.6 6.90275 41.8C6.30275 44.3 7.20275 46.9 9.40275 49.6C5.60275 52.1 4.90275 55.3 4.80275 57.1C4.70275 61.5 8.10275 66.1 13.1027 68.5C20.4027 72.5 30.5027 73.4 37.8027 73.4C39.5027 73.4 41.0027 73.3 42.1027 73.3C50.9027 88 73.2027 94.7 91.9027 94.7C110.403 94.7 125.803 88.8 133.503 78.8C134.603 79.1 136.203 79.5 138.603 79.9C142.003 80.5 147.103 81.3 152.703 81.3C160.903 81.3 167.303 79.7 171.703 76.5C174.903 74.8 177.003 71.8 177.403 68.5C177.603 66.7 177.303 65 176.503 63.5C178.103 62.9 179.503 62 180.503 60.9C182.903 57.9 183.403 54.5 181.903 51.2C180.703 48.7 178.403 46.6 176.003 45.7C176.503 43.3 176.103 41.2 174.803 39.4C172.303 35.8 166.503 34 157.203 34C151.003 34 144.503 34.8 140.103 35.5C136.503 36 134.303 36.4 133.003 36.7C131.503 34.8 129.703 33 127.603 31.4C131.803 25.7 133.003 19.7 130.903 15C129.303 11.4 125.903 9.3 121.803 9.3C116.103 9.3 110.203 13.5 105.503 20.9C99.6027 19.4 93.3027 18.6 87.2027 18.6C87.2027 13 85.5027 9.8 83.9027 8C82.1027 6 79.8027 5 77.3027 5Z" stroke="white" stroke-width="9"/>
<path d="M105.103 24.9C105.103 24.9 112.403 14.4 116.703 12.1C121.003 9.89999 125.803 10.9 128.603 15.2C131.403 19.5 129.503 24.6 127.703 27.6C125.903 30.6 123.103 33.3 123.103 33.3L105.103 24.9Z" fill="#EFBD6F"/>
<path d="M64.3027 25.4C64.3027 25.4 65.9027 17 68.6027 12.1C71.1027 7.59999 79.5027 4.19998 83.7027 11C86.6027 15.8 84.5027 23.9 84.5027 23.9L64.3027 25.4Z" fill="#EFBD6F"/>
<path d="M123.303 21.3C120.903 24.6 116.303 26.2 113.603 24.2C110.903 22.2 113.103 18.3 115.503 15.1C117.903 11.8 122.003 10.8 124.803 12.8C127.503 14.8 125.603 18.1 123.303 21.3Z" fill="#E0A961"/>
<path d="M80.6027 13.8C79.4027 17.4 76.3027 21.8 71.8027 20.5C68.8027 19.6 68.1027 17.3 68.7027 14.7C69.8027 9.89998 74.7027 8.29998 76.9027 8.79998C78.3027 9.09998 81.8027 10.3 80.6027 13.8Z" fill="#E0A961"/>
<path d="M51.5027 33.3C51.5027 33.3 39.8027 25.9 24.9027 26.4C10.1027 26.9 15.4027 36.8 15.4027 36.8C15.4027 36.8 2.50273 40.4 12.8027 49.9C4.30273 53.9 5.00273 61.5 14.2027 66.6C25.3027 72.8 44.2027 71 44.2027 71L51.5027 33.3Z" fill="#EFBD6F"/>
<path d="M14.1027 66.7C25.2027 72.9 44.1027 71.1 44.1027 71.1L43.7027 56.7C37.9027 59.1 36.6027 63.4 18.7027 61.2C11.9027 60.4 7.50274 57.3 6.90274 56.4C6.30274 60 8.80274 63.8 14.1027 66.7Z" fill="#F4D598"/>
<path d="M94.0028 20.8C117.503 23.1 139.703 35.7 138.103 59.6C136.503 83.5 116.503 94.8 83.0028 91.8C45.3027 88.5 37.2028 66.1 40.0028 50.1C43.5028 30.6 66.9028 18.1 94.0028 20.8Z" fill="#EFBD6F"/>
<path d="M83.1027 91.8C114.703 94.6 134.303 84.7 137.703 63.4C137.503 63.6 132.203 77.2 117.503 81.7C105.003 85.5 57.0027 90.7 39.7027 59.7C41.3027 73.9 52.5027 89.1 83.1027 91.8Z" fill="#F4D598"/>
<path d="M128.303 48.5C130.603 62.4 117.503 74.3 87.9027 72.6C64.3027 71.3 45.6027 57.9 49.1027 44.3C52.9027 29.2 68.6027 23.6 88.9027 24.3C109.203 25 125.903 33.5 128.303 48.5Z" fill="#E0A961"/>
<path d="M132.303 38.8C132.303 38.8 161.703 31.9 171.903 39.1C176.303 42.5 173.403 47.1 173.403 47.1C173.403 47.1 180.603 47.8 180.603 54.8C180.603 61.7 172.903 62.2 172.903 62.2C172.903 62.2 181.403 69.9 167.603 76.4C153.203 83.2 132.803 76.4 132.803 76.4L132.303 38.8Z" fill="#EFBD6F"/>
<path d="M167.703 76.4C175.903 72.6 176.203 68.3 175.103 65.4C175.103 65.4 174.903 70.5 166.703 72.7C149.303 77.3 132.803 71.4 132.803 71.4L132.903 76.4C132.803 76.4 153.303 83.1 167.703 76.4Z" fill="#F4D598"/>
<path d="M170.503 59.9C171.403 61 172.203 61.7 173.103 62.2C174.203 62.1 180.603 61.2 180.603 54.8C180.603 54.1 180.503 53.6 180.403 53C180.403 53.9 180.003 61.2 170.503 59.9Z" fill="#F4D598"/>
<path d="M86.1027 58.3C86.1027 58.3 82.8027 62 73.9027 61.6C70.2027 61.4 66.6027 58.5 65.1027 57.1C64.9027 58.6 65.6027 60.3 67.8027 61.7C73.2027 65.3 81.7027 64.9 86.2027 61.2C88.9027 63.9 99.1027 67.7 104.603 63.6C106.703 62.1 107.403 60.4 107.303 58.9C105.803 60.2 102.703 62.5 98.4027 63.1C91.9027 63.9 86.1027 58.3 86.1027 58.3Z" fill="#996B41"/>
<path d="M100.703 56.4C95.4028 58.6 91.1028 56.4 90.9028 53.1C92.9028 50.4 91.0028 46.7 86.2028 46.6C81.8028 46.6 81.0028 50.4 82.9028 52.8C82.3028 54.7 79.8028 57.1 72.5028 54.8C68.1028 53.4 65.4028 54.9 65.1028 57.1C66.6028 58.5 70.2028 61.4 73.9028 61.6C82.8028 62 86.1028 58.3 86.1028 58.3C86.1028 58.3 91.9028 63.9 98.2028 63.1C102.603 62.6 105.703 60.3 107.103 58.9C107.003 56.5 104.203 54.9 100.703 56.4Z" fill="#845730"/>
<path d="M115.303 39.6C114.903 42.2 111.103 44.3 106.403 44.3C102.803 44.3 99.7028 43.1 98.3028 41.3C98.4028 42.2 98.7028 43.1 99.2028 43.8C101.003 46.7 108.603 48.4 112.503 46C115.303 44.2 116.103 41.8 115.303 39.6Z" fill="#996B41"/>
<path d="M106.403 44.3C111.103 44.3 114.903 42.2 115.303 39.6C115.203 39.3 115.003 38.9 114.803 38.6C113.403 36.4 110.203 34 106.403 34C106.403 34 106.403 34 106.303 34C105.403 34 104.503 34.2 103.603 34.5C99.3028 36 98.0028 38.8 98.3028 41.3C99.7028 43 102.803 44.3 106.403 44.3Z" fill="#845730"/>
<path d="M80.6027 35.3C80.2027 37.9 76.7027 39.9 72.6027 39.9C68.6027 39.9 65.3027 38.1 64.7027 35.6C64.3027 36.6 64.2027 37.8 64.6027 38.9C65.5027 41.6 69.5027 43.1 72.7027 43.1C75.9027 43.1 80.9027 41.6 80.9027 37.1C80.9027 36.4 80.8027 35.8 80.6027 35.3Z" fill="#996B41"/>
<path d="M72.6027 39.9C76.8027 39.9 80.2027 37.9 80.6027 35.3C79.7027 32.3 76.3027 30.5 71.7027 30.8C68.4027 31.1 65.6027 33.1 64.6027 35.6C65.3027 38 68.6027 39.9 72.6027 39.9Z" fill="#845730"/>
<path d="M146.403 39.2C154.303 37.7 167.603 37.1 170.503 42.1C173.403 47.1 169.703 48.5 169.703 48.5C169.703 48.5 175.203 48.6 175.503 53.1C175.903 57.6 166.803 57.7 166.803 57.7C166.803 57.7 170.703 61.6 167.303 65.5C164.003 69.2 148.303 69.8 138.103 66C130.903 63.3 128.603 42.6 146.403 39.2Z" fill="#E0A961"/>
<path d="M144.603 51.4C144.403 52.8 142.703 53.9 140.603 53.9C139.003 53.9 137.603 53.3 137.003 52.3C137.003 52.8 137.203 53.2 137.403 53.6C138.203 55.1 141.603 56 143.303 54.8C144.603 53.8 145.003 52.5 144.603 51.4Z" fill="#996B41"/>
<path d="M140.603 53.8C142.703 53.8 144.403 52.7 144.603 51.3C144.503 51.1 144.503 50.9 144.403 50.8C143.803 49.7 142.303 48.4 140.603 48.4C140.203 48.4 139.803 48.5 139.403 48.6C137.503 49.4 136.903 50.8 137.003 52.1C137.603 53.2 139.003 53.8 140.603 53.8Z" fill="#845730"/>
<path d="M156.303 50.9C156.103 52.3 154.403 53.4 152.303 53.4C150.703 53.4 149.303 52.8 148.703 51.8C148.703 52.3 148.903 52.7 149.103 53.1C149.903 54.6 153.303 55.5 155.003 54.3C156.303 53.3 156.703 52 156.303 50.9Z" fill="#996B41"/>
<path d="M152.303 53.3C154.403 53.3 156.103 52.2 156.303 50.8C156.203 50.6 156.203 50.4 156.103 50.3C155.503 49.2 154.003 47.9 152.303 47.9C151.903 47.9 151.503 48 151.103 48.1C149.203 48.9 148.603 50.3 148.703 51.6C149.403 52.7 150.703 53.3 152.303 53.3Z" fill="#845730"/>
<path d="M169.103 50.9C168.903 52.3 167.203 53.4 165.103 53.4C163.503 53.4 162.103 52.8 161.503 51.8C161.503 52.3 161.703 52.7 161.903 53.1C162.703 54.6 166.103 55.5 167.803 54.3C169.103 53.3 169.503 52 169.103 50.9Z" fill="#996B41"/>
<path d="M165.103 53.3C167.203 53.3 168.903 52.2 169.103 50.8C169.003 50.6 169.003 50.4 168.903 50.3C168.303 49.2 166.803 47.9 165.103 47.9C164.703 47.9 164.303 48 163.903 48.1C162.003 48.9 161.403 50.3 161.503 51.6C162.103 52.7 163.503 53.3 165.103 53.3Z" fill="#845730"/>
<path d="M32.8027 29C38.9027 30.2 43.0027 33 44.1027 37C45.1027 40.8 44.7027 50.6 37.2027 55.3C31.2027 59.1 18.7027 61.2 14.8027 56.5C11.0027 51.8 18.9027 48.5 18.9027 48.5C18.9027 48.5 7.90273 39.9 22.5027 37.2C14.7027 31.1 24.4027 27.4 32.8027 29Z" fill="#E0A961"/>
<path d="M44.8027 43.8C44.6027 45.2 42.9027 46.3 40.8027 46.3C39.2027 46.3 37.8027 45.7 37.2027 44.7C37.2027 45.2 37.4027 45.6 37.6027 46C38.4027 47.5 41.8027 48.4 43.5027 47.2C44.8027 46.2 45.1027 44.9 44.8027 43.8Z" fill="#996B41"/>
<path d="M40.8027 46.2C42.9027 46.2 44.6027 45.1 44.8027 43.7C44.7027 43.5 44.7027 43.3 44.6027 43.2C44.0027 42.1 42.5027 40.8 40.8027 40.8C40.4027 40.8 40.0027 40.9 39.6027 41C37.7027 41.8 37.1027 43.2 37.2027 44.5C37.8027 45.6 39.2027 46.2 40.8027 46.2Z" fill="#845730"/>
<path d="M33.1027 43.4C32.9027 44.8 31.2027 45.9 29.1027 45.9C27.5027 45.9 26.1027 45.3 25.5027 44.3C25.5027 44.8 25.7027 45.2 25.9027 45.6C26.7027 47.1 30.1027 48 31.8027 46.8C33.1027 45.9 33.5027 44.6 33.1027 43.4Z" fill="#996B41"/>
<path d="M29.2028 45.9C31.3028 45.9 33.0028 44.8 33.2028 43.4C33.1028 43.2 33.1028 43 33.0028 42.9C32.4028 41.8 30.9028 40.5 29.2028 40.5C28.8028 40.5 28.4028 40.6 28.0028 40.7C26.1028 41.5 25.5028 42.9 25.6028 44.2C26.2028 45.2 27.5028 45.9 29.2028 45.9Z" fill="#845730"/>
<path d="M21.5027 42.8C21.3027 44.2 19.6027 45.3 17.5027 45.3C15.9027 45.3 14.5027 44.7 13.9027 43.7C13.9027 44.2 14.1027 44.6 14.3027 45C15.1027 46.5 18.5027 47.4 20.2027 46.2C21.5027 45.2 21.8027 44 21.5027 42.8Z" fill="#996B41"/>
<path d="M17.5027 45.3C19.6027 45.3 21.3027 44.2 21.5027 42.8C21.4027 42.6 21.4027 42.4 21.3027 42.3C20.7027 41.2 19.2027 39.9 17.5027 39.9C17.1027 39.9 16.7027 40 16.3027 40.1C14.4027 40.9 13.8027 42.3 13.9027 43.6C14.5027 44.6 15.9027 45.3 17.5027 45.3Z" fill="#845730"/>
<path d="M62.9027 28.7C59.9027 28.5 55.2027 31.9 54.1027 34.1C53.0027 36.3 53.3027 39.8 56.8027 38.5C60.3027 37.2 67.4027 28.9 62.9027 28.7Z" fill="#FFE1BD"/>
<path d="M53.6027 40.2C55.5027 41 54.7027 44.7 52.8027 45.9C50.9027 47.1 48.5027 45.3 48.7027 43.2C48.8027 41.1 50.7027 38.9 53.6027 40.2Z" fill="#FFE1BD"/>
<path d="M75.3027 9.89999C76.0027 11.1 73.7027 13.6 72.0027 13.9C70.4027 14.3 69.9027 12.2 71.0027 10.7C72.1027 9.19998 74.3027 8.09999 75.3027 9.89999Z" fill="#FFE1BD"/>
<path d="M120.403 13.6C121.103 14.8 118.803 17.3 117.103 17.6C115.503 18 115.003 15.9 116.103 14.4C117.203 12.9 119.403 11.8 120.403 13.6Z" fill="#FFE1BD"/>
</svg>
