<svg width="130" height="125" viewBox="0 0 140 155" fill="none" xmlns="http://www.w3.org/2000/svg">
<path d="M43.6 7C44.3 7 44.9 7.3 45.3 7.9L50.1 14.8C50.5 15.4 51.2 15.7 51.9 15.7H60.3C62.1 15.7 63.1 17.7 62 19.1L56.9 25.8C56.5 26.4 56.3 27.1 56.6 27.8L59.2 35.8C59.7 37.2 58.6 38.6 57.2 38.6C57 38.6 56.7 38.6 56.5 38.5L48.6 35.7C48.4 35.6 48.1 35.6 47.9 35.6C47.8 35.6 47.7 35.6 47.6 35.6C47.2 40.4 46.7 51 48.9 56.6C51 61.8 57.8 62.8 59 70.2C60.4 70.2 61.9 70.2 63.3 70.3C64.5 66.5 65.5 62.3 65.5 58.4L65.3 58.2C65 57.9 64.6 57.8 64.2 57.8C64.1 57.8 63.9 57.8 63.8 57.9L57.4 59.6C57.2 59.6 57.1 59.7 57 59.7C55.8 59.7 55 58.5 55.4 57.3L58 51.1C58.2 50.6 58.2 50 57.9 49.5L54.3 43.9C53.6 42.8 54.4 41.3 55.7 41.3H55.8L62.5 41.8H62.6C63.1 41.8 63.6 41.6 63.9 41.2L68.1 36C68.4 35.6 68.9 35.4 69.4 35.4C70.1 35.4 70.9 35.9 71.1 36.7L72.6 43.2C72.7 43.7 73.1 44.2 73.6 44.4L79.8 46.8C81.1 47.3 81.3 49.1 80.1 49.8L74.4 53.3C73.9 53.6 73.6 54.1 73.6 54.7L73.2 61.4C73.1 62.4 72.3 63 71.5 63C71.1 63 70.7 62.9 70.4 62.6L67.4 60C68.8 64 68.7 67.5 67.8 70.5C90.6 71.8 107.7 77.1 107.7 83.4C107.7 83.4 107.7 85.8 107.3 89.5C109.5 88.2 113.1 86.8 117.8 86.8C119.3 86.8 121 87 122.7 87.3C131.4 89.2 135.4 96.5 131.4 107.5C127 119.8 112.6 126.1 95.6 127C93.3 130.3 90.5 133.2 87.1 135.3C84 137 80.8 138.4 77.8 139.3C77.6 139.4 77.3 139.4 77.1 139.5V145.6C77.1 145.6 68.7 148.4 57.3 148.4C46 148.4 37.5 145.6 37.5 145.6V139.5C34.2 138.5 30.9 137.1 27.5 135.2C7.4 122 6.9 83.2 6.9 83.2C6.9 76.2 27.6 70.5 53.7 70C49.2 66.5 42.4 65.4 41.1 59.8C39.6 53.1 44.1 41.3 46.4 35.8L39.8 40.9C39.4 41.2 39 41.3 38.5 41.3C37.4 41.3 36.3 40.4 36.4 39.1L36.6 30.7C36.6 30 36.3 29.3 35.7 28.9L28.9 24C27.5 23 27.8 20.7 29.5 20.2L37.5 17.8C38.2 17.6 38.7 17.1 38.9 16.4L41.5 8.4C41.9 7.6 42.8 7 43.6 7ZM99.7 119.9C106.3 118.5 122.4 113.8 124.9 102.9C125.7 99.4 124.5 94.9 119.2 94.9C118.8 94.9 118.4 94.9 118 95C113.3 95.5 108.6 98.3 105.8 100.3C104.6 106.5 102.7 113.5 99.7 119.9ZM43.6 5C41.8 5 40.2 6.2 39.7 7.9L37.1 15.9C37.1 15.9 37.1 16 37 16L29 18.4C27.5 18.9 26.4 20.1 26.1 21.7C25.8 23.3 26.5 24.8 27.8 25.7L34.6 30.6L34.7 30.7L34.5 39.1C34.5 40.2 34.9 41.3 35.7 42.1C36.5 42.9 37.6 43.4 38.7 43.4C39.6 43.4 40.4 43.1 41.1 42.6L42.3 41.7C40.1 47.9 38.2 55.4 39.4 60.5C40.3 64.7 43.7 66.8 47 68.5C25.5 69.6 5 74.5 5 83.4C5 83.8 5.2 93.5 7.8 104.9C11.4 120.5 17.7 131.3 26.5 137.1H26.6H26.7C29.5 138.7 32.5 140 35.7 141.1V145.7V147.1L37.1 147.6C37.5 147.7 46 150.5 57.5 150.5C69 150.5 77.5 147.7 77.9 147.6L79.3 147.1V145.7V141.1C82.4 140 85.5 138.7 88.3 137.1H88.4H88.5C91.6 135.1 94.4 132.4 96.9 129C115.9 127.8 129.2 120.3 133.6 108.3C135.9 102.1 135.8 96.5 133.5 92.4C131.5 88.9 128.1 86.5 123.5 85.5C121.7 85.1 119.9 84.9 118.1 84.9C114.9 84.9 112.1 85.5 109.9 86.4C110 84.6 110 83.6 110 83.5C110 74.6 89.2 70 70.5 68.7C70.7 67.5 70.7 66.2 70.7 64.9C71 65 71.4 65.1 71.8 65.1C73.8 65.1 75.4 63.6 75.5 61.6L75.9 55.1L81.5 51.7C82.7 51 83.4 49.6 83.3 48.2C83.2 46.8 82.3 45.6 80.9 45.1L74.8 42.8L73.3 36.5C72.9 34.8 71.4 33.7 69.7 33.7C68.6 33.7 67.5 34.2 66.8 35.1L62.7 40.2L60.1 40C60.4 39.8 60.6 39.5 60.9 39.2C61.7 38.1 61.9 36.8 61.5 35.5L58.9 27.5V27.4L64 20.7C65 19.4 65.1 17.8 64.4 16.4C63.7 15 62.3 14.1 60.7 14.1H52.3C52.3 14.1 52.2 14.1 52.2 14L47.4 7.1C46.2 5.7 45 5 43.6 5ZM53.4 59.1C52.2 58.1 51.3 57.1 50.8 55.8C49 51.3 49.1 43.1 49.4 38.1L53.9 39.7C53.2 40 52.6 40.6 52.2 41.3C51.6 42.5 51.6 43.9 52.3 45.1L55.8 50.6L53.3 56.6C53.1 57.4 53.1 58.3 53.4 59.1ZM56.9 61.6C57.2 61.6 57.5 61.6 57.9 61.5L63.5 60C63.2 62.5 62.7 65.2 61.8 68.2C61.4 68.2 61 68.2 60.6 68.2C59.7 65.2 57.9 63.2 56.2 61.6C56.4 61.6 56.6 61.6 56.9 61.6ZM107.6 101.5C110.1 99.8 114.2 97.4 118.2 97C118.5 97 118.9 96.9 119.2 96.9C120.6 96.9 121.7 97.3 122.3 98.1C123.1 99.1 123.3 100.7 122.9 102.4C121 110.5 109.9 114.9 103.1 116.9C105 112.4 106.5 107.2 107.6 101.5Z" stroke="white" stroke-width="9"/>
<path d="M104.6 91.4C104.6 91.4 111.5 85 122.7 87.4C131.4 89.3 135.4 96.6 131.4 107.6C126.8 120.3 111.7 126.6 94 127.1L96.9 120.5C96.9 120.5 121.7 116.7 124.9 103C125.8 99.2 124.3 94.4 118 95.1C110.5 95.9 103.1 102.6 103.1 102.6L104.6 91.4Z" fill="#E2E2E2"/>
<path d="M77.1 145.7C77.1 145.7 68.7 148.5 57.3 148.5C45.9 148.5 37.5 145.7 37.5 145.7V136.1H77V145.7H77.1Z" fill="#D8D8D8"/>
<path d="M19.9 83.4H7C7 83.4 7.5 122.2 27.6 135.4C32 137.8 36.4 139.4 40.6 140.5C25.8 129.4 21.2 96.8 19.9 83.4Z" fill="#EDEBEB"/>
<path d="M99.9 83.4C98.3 97.9 93.5 127.8 79.5 138.2C78.9 138.6 78.4 139 77.8 139.4C80.9 138.4 84 137.1 87.1 135.4C107.2 122.2 107.7 83.4 107.7 83.4H99.9V83.4Z" fill="#EDEBEB"/>
<path d="M76.8 83.4H43.1C44.1 111.5 51.9 129.6 59.2 140.5C66.7 130.1 75.4 112.2 76.8 83.4Z" fill="#EDEBEB"/>
<path d="M57.8 142.3C58.3 141.7 58.7 141.1 59.2 140.5C51.9 129.6 44.1 111.5 43.1 83.4H19.9C21.2 96.8 25.8 129.5 40.6 140.5C46.7 142 52.4 142.4 57.4 142.4C57.5 142.3 57.7 142.3 57.8 142.3Z" fill="white"/>
<path d="M99.9 83.4H76.8C75.4 112.2 66.7 130.2 59.2 140.5C59.6 141.1 60 141.7 60.4 142.3C65.6 142.1 71.6 141.4 77.7 139.5C78.3 139.1 78.8 138.7 79.4 138.3C93.5 127.7 98.3 97.9 99.9 83.4Z" fill="#E0E0E0"/>
<path d="M60.5 142.2C60.1 141.6 59.7 141 59.3 140.4C58.8 141 58.4 141.7 57.9 142.2C58.7 142.3 59.6 142.3 60.5 142.2Z" fill="#E0E0E0"/>
<path d="M57.3 96.6C85.1352 96.6 107.7 90.6902 107.7 83.4C107.7 76.1099 85.1352 70.2 57.3 70.2C29.4649 70.2 6.90002 76.1099 6.90002 83.4C6.90002 90.6902 29.4649 96.6 57.3 96.6Z" fill="#F4F4F4"/>
<path d="M57.3 93.6C82.926 93.6 103.7 89.0333 103.7 83.4C103.7 77.7667 82.926 73.2 57.3 73.2C31.674 73.2 10.9 77.7667 10.9 83.4C10.9 89.0333 31.674 93.6 57.3 93.6Z" fill="#7EAEF2"/>
<path d="M57.3 88.3C74.1447 88.3 87.8 85.5242 87.8 82.1C87.8 78.6759 74.1447 75.9 57.3 75.9C40.4554 75.9 26.8 78.6759 26.8 82.1C26.8 85.5242 40.4554 88.3 57.3 88.3Z" fill="#5C9AE5"/>
<path d="M34.5 79.8C35.9912 79.8 37.2001 79.0389 37.2001 78.1C37.2001 77.1611 35.9912 76.4 34.5 76.4C33.0089 76.4 31.8 77.1611 31.8 78.1C31.8 79.0389 33.0089 79.8 34.5 79.8Z" fill="#FFEB8A"/>
<path d="M37.8 82.9C38.5732 82.9 39.2 82.5419 39.2 82.1C39.2 81.6582 38.5732 81.3 37.8 81.3C37.0268 81.3 36.4 81.6582 36.4 82.1C36.4 82.5419 37.0268 82.9 37.8 82.9Z" fill="#FFEB8A"/>
<path d="M43.9 85C44.6732 85 45.3 84.6419 45.3 84.2C45.3 83.7582 44.6732 83.4 43.9 83.4C43.1268 83.4 42.5 83.7582 42.5 84.2C42.5 84.6419 43.1268 85 43.9 85Z" fill="#FFEB8A"/>
<path d="M83.6 85.6C85.0912 85.6 86.3 84.8389 86.3 83.9C86.3 82.9611 85.0912 82.2 83.6 82.2C82.1089 82.2 80.9 82.9611 80.9 83.9C80.9 84.8389 82.1089 85.6 83.6 85.6Z" fill="#FFEB8A"/>
<path d="M80.3 80.7C81.0732 80.7 81.7 80.3419 81.7 79.9C81.7 79.4582 81.0732 79.1 80.3 79.1C79.5268 79.1 78.9 79.4582 78.9 79.9C78.9 80.3419 79.5268 80.7 80.3 80.7Z" fill="#FFEB8A"/>
<path d="M74.2001 78.6C74.9732 78.6 75.6001 78.2419 75.6001 77.8C75.6001 77.3582 74.9732 77 74.2001 77C73.4269 77 72.8 77.3582 72.8 77.8C72.8 78.2419 73.4269 78.6 74.2001 78.6Z" fill="#FFEB8A"/>
<g opacity="0.7">
<path d="M79.8 46.8L73.6 44.4C73.1 44.2 72.7 43.8 72.6 43.2L71.1 36.7C70.8 35.3 69 34.9 68.1 36L63.8 41.2C63.4 41.6 62.9 41.9 62.3 41.8L55.6 41.3C54.2 41.2 53.3 42.7 54 43.9L57.6 49.5C57.9 50 58 50.6 57.7 51.1L55.1 57.3C54.6 58.6 55.7 60 57.1 59.6L63.5 57.9C64 57.8 64.6 57.9 65 58.3L65.2 58.4C65.2 69.1 58.1 82.1 58.1 82.1C58.1 82.1 72.1 74.2 67.1 60L70.1 62.6C71.2 63.5 72.8 62.8 72.9 61.4L73.3 54.7C73.3 54.1 73.6 53.6 74.1 53.3L79.8 49.8C81.2 49.1 81.1 47.3 79.8 46.8Z" fill="#FFEB8A"/>
<path d="M48.9 56.6C46.6 51 47.2 40.4 47.6 35.6C47.9 35.6 48.3 35.6 48.6 35.7L56.5 38.5C58.2 39.1 59.8 37.5 59.2 35.8L56.6 27.8C56.4 27.1 56.5 26.4 56.9 25.8L62 19.1C63.1 17.7 62.1 15.7 60.3 15.7H51.9C51.2 15.7 50.5 15.4 50.1 14.8L45.3 7.90003C44.3 6.40003 42.1 6.80003 41.5 8.50003L38.9 16.5C38.7 17.2 38.2 17.7 37.5 17.9L29.5 20.3C27.8 20.8 27.4 23 28.9 24.1L35.7 29C36.3 29.4 36.6 30.1 36.6 30.8L36.4 39.2C36.4 41 38.4 42 39.8 41L46.5 36.1C44.2 41.6 39.7 53.4 41.2 60.1C43.2 69.3 60.5 66.2 57.3 82.2C63.8 63 51.8 63.8 48.9 56.6Z" fill="#FFEB8A"/>
</g>
</svg>
