<svg width="80" height="80" viewBox="0 0 80 80" fill="none" xmlns="http://www.w3.org/2000/svg">
<path d="M40 75C59.3305 75 75 59.3305 75 40C75 20.6695 5 20.6695 5 40C5 59.3305 20.6695 75 40 75Z" fill="#CCE5E1"/>
<path d="M75 40C75 20.6695 59.3305 5 40 5C20.6695 5 5 20.6695 5 40C5 59.3305 75 59.3305 75 40Z" fill="white"/>
<path d="M40 73.0004C59.3305 73.0004 75 56.9995 75 39.0002C75 23.0005 59.3305 5.99988 40 5.99988C20.6695 5.99988 5 23.0005 5 39.0002C5 56.9995 20.6695 73.0004 40 73.0004Z" fill="#F5F5F5"/>
<path fill-rule="evenodd" clip-rule="evenodd" d="M55.834 29.7959C57.3887 28.2412 57.3887 25.7206 55.834 24.166C54.2794 22.6113 51.7588 22.6113 50.2041 24.166L40 34.3701L29.7959 24.166C28.2412 22.6113 25.7206 22.6113 24.166 24.166C22.6113 25.7206 22.6113 28.2412 24.166 29.7959L34.3701 40L24.166 50.2041C22.6113 51.7588 22.6113 54.2794 24.166 55.834C25.7206 57.3887 28.2412 57.3887 29.7959 55.834L40 45.6299L50.2041 55.834C51.7588 57.3887 54.2794 57.3887 55.834 55.834C57.3887 54.2794 57.3887 51.7588 55.834 50.2041L45.6299 40L55.834 29.7959Z" fill="#008375"/>
<path fill-rule="evenodd" clip-rule="evenodd" d="M55.834 28.7959C57.3887 27.2412 57.3887 24.7206 55.834 23.166C54.2794 21.6113 51.7588 21.6113 50.2041 23.166L40 33.3701L29.7959 23.166C28.2412 21.6113 25.7206 21.6113 24.166 23.166C22.6113 24.7206 22.6113 27.2412 24.166 28.7959L34.3701 39L24.166 49.2041C22.6113 50.7588 22.6113 53.2794 24.166 54.834C25.7206 56.3887 28.2412 56.3887 29.7959 54.834L40 44.6299L50.2041 54.834C51.7588 56.3887 54.2794 56.3887 55.834 54.834C57.3887 53.2794 57.3887 50.7588 55.834 49.2041L45.6299 39L55.834 28.7959Z" fill="#019F8E"/>
</svg>
