<svg width="80" height="82" viewBox="0 0 80 82" fill="none" xmlns="http://www.w3.org/2000/svg">
<ellipse cx="40" cy="62" rx="35" ry="20" fill="#D7E19B"/>
<ellipse cx="40" cy="59" rx="35" ry="20" fill="#872CDE"/>
<ellipse cx="40" cy="39" rx="35" ry="34" fill="#B272EF"/>
<path fill-rule="evenodd" clip-rule="evenodd" d="M17.2695 28.8302C19.4055 26.6942 26.4609 24.6451 31.1534 27.7622C35.8459 30.8792 37.5613 37.1821 37.5613 41.5918C37.5613 49.1201 35.9626 54.4619 30.0854 54.4619C24.2074 54.4619 18.3072 49.9075 16.2015 41.5918C15.1335 37.3741 15.1335 30.9661 17.2695 28.8302ZM62.6889 28.8302C60.5529 26.6942 53.4975 24.6451 48.805 27.7622C44.1125 30.8792 42.3971 37.1821 42.3971 41.5918C42.3971 49.1201 43.9958 54.4619 49.873 54.4619C55.7509 54.4619 61.6512 49.9075 63.7569 41.5918C64.8248 37.3741 64.8248 30.9661 62.6889 28.8302ZM51.4958 33.9045C53.8147 34.1128 55.3954 37.6379 55.0267 41.7788C54.6588 45.9189 52.4798 49.1064 50.1616 48.8982C47.8427 48.6899 46.262 45.1641 46.6307 41.0239C46.9986 36.8838 49.1769 33.6963 51.4958 33.9045ZM24.4575 41.7788C24.0887 37.6379 25.6695 34.1128 27.9884 33.9045C30.3073 33.6963 32.4855 36.8838 32.8535 41.0239C33.2222 45.1641 31.6415 48.6899 29.3226 48.8982C27.0044 49.1064 24.8254 45.9189 24.4575 41.7788Z" fill="white"/>
</svg>
