<svg width="95" height="97" viewBox="0 0 95 97" fill="none" xmlns="http://www.w3.org/2000/svg">
<path fill-rule="evenodd" clip-rule="evenodd" d="M52.3973 9.15287C52.3021 7.63362 51.9879 6.03784 51.2588 4.58427C50.5253 3.12201 49.3447 1.75643 47.5974 0.892469C45.8908 0.0486356 44.0245 -0.128842 42.2054 0.0795923L42.1961 0.0806609L42.1868 0.0817681C37.1203 0.683727 33.7446 3.33491 31.9121 6.99266L21.062 11.1658L24.5412 16.3997C21.1111 16.2637 17.9395 16.641 15.1974 17.3555C12.4325 18.076 9.93459 19.184 8.01784 20.6146C6.30546 21.8927 4.11771 24.1635 4.11771 27.3503C4.11771 29.9777 5.32677 31.8738 6.79055 33.1861C6.70184 33.2575 6.61445 33.3301 6.52848 33.4039C5.37951 34.3909 4.19204 35.8531 3.77288 37.8649C3.39838 39.6624 3.7459 41.3687 4.47362 42.8555C0.260802 49.101 -1.41006 57.443 1.36057 68.1752C1.91067 70.3061 2.63775 72.2944 3.52116 74.146L8.40603 81.5971C9.83354 83.1487 11.3895 84.5398 13.0402 85.7859C23.9442 94.1744 39.5346 96.2581 51.6325 96.48C57.8093 96.5933 63.3424 96.2228 67.3303 95.8253C69.3277 95.6262 70.9465 95.4194 72.0751 95.2608C72.6396 95.1815 73.0821 95.1141 73.3888 95.0657C73.5422 95.0415 73.6616 95.022 73.7454 95.008L73.8441 94.9915L73.8823 94.9849L73.8857 94.9844C74.6342 94.8546 72.1047 95.2938 75.6915 94.6706L76.7631 93.1888C76.9663 92.9084 86.5074 79.7227 91.6951 63.8482L91.9177 63.167V63.0134C96.2591 49.2532 97.7657 31.7826 84.4248 19.8026M83.1109 61.1425L83.0723 61.1206C87.3969 47.9486 87.7965 34.9263 78.4112 26.4986C74.4056 22.9007 70.6688 21.2359 67.3342 20.6569L62.4116 19.8023L63.7747 14.9956C63.8043 14.8913 63.8229 14.8059 63.8345 14.7384C63.4809 14.5269 62.7922 14.333 61.3187 14.7618C59.7265 15.2251 57.8449 16.2587 55.9022 17.6415C54.0042 18.9924 52.2763 20.511 51.0061 21.7142C50.3768 22.3103 49.8732 22.8162 49.5322 23.1674C49.362 23.3428 49.2331 23.4787 49.1501 23.5672C49.1086 23.6114 49.0786 23.6437 49.0608 23.6629L49.0443 23.6808L49.0432 23.682C49.0432 23.682 49.0433 23.6819 49.0377 23.6767L41.5234 19.0425C41.5158 19.0397 41.5157 19.0399 41.5157 19.0399L41.5164 19.0382L41.523 19.0206C41.5311 18.999 41.5448 18.9622 41.5635 18.9112C41.6009 18.809 41.6579 18.6505 41.7292 18.4442C41.8722 18.0303 42.0702 17.4304 42.2815 16.7114C42.7133 15.2419 43.1592 13.4119 43.3438 11.7042C43.4895 10.3565 43.4247 9.48806 43.3303 9.01087C43.3011 9.01345 43.2702 9.01655 43.2374 9.02024C41.1393 9.27218 40.3911 10.1113 39.9145 11.1147C39.2589 12.4948 39.0186 14.5828 39.1349 17.1986L36.3643 17.9281L45.6014 31.8239L32.7073 27.1072C26.7833 24.9402 21.3105 25.0632 17.4668 26.0647C16.1951 26.3961 15.1734 26.8046 14.4052 27.2071C15.235 27.4552 16.2909 27.6678 17.5306 27.8236C21.3068 28.2982 25.2362 28.0715 25.4296 28.0596L25.9897 37.0421C25.7393 37.058 20.7868 37.3902 16.5286 38.5257C15.188 38.8832 14.1645 39.2589 13.4443 39.6001L16.953 42.1089L13.5389 45.8537C9.88657 49.8599 7.49966 55.9503 10.0749 65.9255C11.0816 69.8252 12.8563 72.9705 15.164 75.5467L16.1255 76.6201C16.8622 77.3242 17.6471 77.9879 18.4767 78.6133L18.4954 78.6274L18.5139 78.6417C27.002 85.1805 40.0757 87.2665 51.7976 87.4815C57.5343 87.5867 62.7024 87.242 66.4376 86.8697C68.1265 86.7013 69.5151 86.5281 70.5219 86.3901C73.0087 82.6816 79.344 72.6204 83.1109 61.1425ZM12.8062 26.5086C12.8062 26.5086 12.8146 26.5144 12.8271 26.5264C12.8118 26.5147 12.8062 26.5086 12.8062 26.5086ZM12.9212 28.2477C12.9 28.2832 12.8852 28.3004 12.8831 28.3002C12.881 28.2999 12.8916 28.2822 12.9212 28.2477ZM52.3973 9.15287C54.3335 7.92055 56.5245 6.78352 58.8042 6.12017C61.8116 5.24507 65.5697 5.04646 68.9371 7.32169C70.6469 8.47695 71.9129 10.0835 72.4992 12.0672C72.5658 12.2924 72.6221 12.5172 72.6688 12.741C76.6175 14.0419 80.5637 16.3346 84.4248 19.8026" fill="white"/>
<path d="M73.1177 90.5504C73.1177 90.5504 14.4177 100.75 5.71771 67.0504C-2.98229 33.3504 37.7177 31.6504 37.7177 31.6504C37.7177 31.6504 58.8177 2.85035 81.4177 23.1504C105.918 45.1504 73.1177 90.5504 73.1177 90.5504Z" fill="#FF6686"/>
<path opacity="0.2" d="M39.8177 91.0504C50.2177 90.0504 65.0177 81.6504 68.2177 73.9504C78.6177 73.7504 87.3177 62.3503 87.3177 62.3503C91.1177 50.7503 92.4177 37.6504 85.3177 27.6504C85.3177 27.6504 81.3177 48.3504 61.3177 53.9504C50.3177 67.0504 22.9177 78.4504 11.7177 78.5504C18.6177 86.0504 29.3177 89.5504 39.8177 91.0504Z" fill="#EF3C67"/>
<path opacity="0.3" d="M68.2177 73.9504C65.0177 81.6504 50.1177 90.0504 39.8177 91.0504C56.6177 93.3504 73.1177 90.5504 73.1177 90.5504C73.1177 90.5504 82.4177 77.7504 87.4177 62.4504C87.4177 62.3504 78.6177 73.7504 68.2177 73.9504Z" fill="#EF3C67"/>
<path opacity="0.2" d="M45.3177 39.1504C45.3177 39.1504 60.4177 49.8504 65.1177 63.6504C62.5177 41.2504 48.9177 32.6504 45.3177 39.1504Z" fill="#DB3A68"/>
<path d="M8.61772 27.3504C8.61772 23.1504 21.2177 17.6504 35.2177 23.2504C34.5177 17.4504 32.6177 5.75035 42.7177 4.55035C52.3177 3.45035 45.7177 20.6504 45.7177 20.6504C45.7177 20.6504 59.0177 6.05036 66.4177 11.0504C73.8177 16.0504 58.1177 30.0504 50.9177 30.0504C58.7177 34.0504 58.4177 37.3504 56.4177 40.0504C54.4177 42.7504 42.7177 45.9504 38.8177 36.2504C34.4177 45.9504 12.5177 47.6504 8.71772 41.2504C4.31772 33.8504 25.7177 32.5504 25.7177 32.5504C25.7177 32.5504 8.61772 33.6504 8.61772 27.3504Z" fill="#80AF00"/>
<path d="M27.9177 13.3504L31.8177 11.8504L40.7177 29.3504L39.4177 30.6504L27.9177 13.3504Z" fill="#4E9100"/>
<path opacity="0.8" d="M27.8177 51.5504C17.5177 52.9504 23.7177 65.6504 33.6177 66.1504C48.1177 67.0504 39.5177 49.9504 27.8177 51.5504Z" fill="#FFB0BB"/>
<path opacity="0.8" d="M47.9177 62.7503C41.6177 63.8503 43.7177 72.2503 49.7177 71.3503C55.4177 70.5503 55.1177 61.5503 47.9177 62.7503Z" fill="#FFB0BB"/>
<path d="M42.4177 31.9504C42.4177 31.9504 45.9177 37.8504 51.1177 38.9504C46.8177 31.9504 42.4177 31.9504 42.4177 31.9504Z" fill="#56A000"/>
<path d="M46.8177 24.8504C46.8177 24.8504 61.4177 19.6504 63.6177 14.8504C55.8177 17.4504 46.8177 24.8504 46.8177 24.8504Z" fill="#56A000"/>
<path d="M39.8177 22.5504C39.8177 22.5504 44.4177 12.6504 42.3177 7.15035C38.1177 14.8504 39.8177 22.5504 39.8177 22.5504Z" fill="#56A000"/>
<path d="M33.4177 27.4504C33.4177 27.4504 18.3177 24.5504 13.1177 27.3504C21.9177 29.3504 33.4177 27.4504 33.4177 27.4504Z" fill="#56A000"/>
<path d="M34.3177 33.8504C34.3177 33.8504 19.6177 37.0504 14.0177 39.1504C24.2177 41.3504 34.3177 33.8504 34.3177 33.8504Z" fill="#56A000"/>
</svg>
