<svg width="352" height="409" viewBox="0 0 352 409" fill="none" xmlns="http://www.w3.org/2000/svg">
<path d="M131 96.09C125.61 63.64 108.17 40.69 80.74 25.59C77.306 23.7134 73.5098 22.5945 69.607 22.3085C65.7042 22.0225 61.7854 22.5761 58.1146 23.9321C54.4438 25.288 51.1061 27.4148 48.3264 30.1692C45.5467 32.9236 43.3894 36.2417 42 39.9L36.79 53.55C36.79 53.55 64.32 89.58 60 99.61C60 99.61 114.31 90.16 131 96.09Z" fill="#024F5C"/>
<path d="M49.82 30.8L42.18 50.89C64.18 66.19 67.18 89.09 67.18 89.09C72.18 88.18 105.91 85.58 105.91 85.58C100.38 34.26 60.53 32.06 49.82 30.8Z" fill="url(#paint0_linear_31_1514)"/>
<path d="M0 57.84C0 57.84 71.22 79.51 77.61 26.2C77.61 26.2 57 7.82003 0 57.84Z" fill="#024F5C"/>
<path d="M187.46 125.26C187.46 125.26 227 69.86 190.14 6.04999L149.45 24.26C149.45 24.26 143.11 71.16 132.45 75.33C132.49 75.33 179.52 108.53 187.46 125.26Z" fill="#024F5C"/>
<path d="M174.35 13.11L153.87 22.28C158.74 49.79 140.43 71.68 140.43 71.68L143.9 73.19C148.22 76.19 184.72 98.25 184.72 98.25C206.71 52.5 181.32 22 174.35 13.11Z" fill="url(#paint1_linear_31_1514)"/>
<path d="M104.8 25.27C104.8 25.27 174.39 59.83 190.14 6.05001C190.14 6.05001 172.06 -16.42 104.8 25.27Z" fill="#024F5C"/>
<path d="M302.1 297.68C302.1 297.68 280 302.12 282.26 351.5C284.66 404.5 280.26 403.73 261.55 404.03C238.17 404.4 236.36 400.03 243.89 389.39C242.38 377.54 237.08 323.94 229.94 295.09C222.8 266.24 308.49 287.35 302.1 297.68Z" fill="url(#paint2_linear_31_1514)"/>
<path d="M229.74 289.86L233.09 309.86L233.51 312.16C234.38 312.6 254.33 322.44 284.01 323.72C284.1 323.46 284.17 323.22 284.25 322.98C284.898 320.071 285.767 317.216 286.85 314.44C287.128 313.704 287.303 312.934 287.37 312.15C287.37 312.15 288 311.28 288.99 309.83C289.892 308.142 290.939 306.536 292.12 305.03C294.727 300.928 296.975 296.609 298.84 292.12C284.69 282.7 233.35 272.64 229.74 289.86Z" fill="#00767C"/>
<path d="M241.6 369.62C242.28 375.39 242.83 380.38 243.27 384.15C248.49 383.61 268.44 381.76 282.57 383.65C282.82 379.8 282.9 375.19 282.84 369.72C276.26 368.45 258 365.64 241.6 369.62Z" fill="#FCD637"/>
<path d="M183.87 297.68C183.87 297.68 161.8 302.12 164 351.5C166.4 404.5 162 403.73 143.29 404.03C119.91 404.4 118.11 400.03 125.63 389.39C124.12 377.54 118.82 323.94 111.69 295.09C104.56 266.24 190.26 287.35 183.87 297.68Z" fill="url(#paint3_linear_31_1514)"/>
<path d="M115.25 312.16C115.25 312.16 135.44 322.43 165.79 323.74C169.39 312.54 169.14 312.17 169.14 312.17C169.14 312.17 174.14 302.31 160.43 299.97C146.72 297.63 111.84 270.66 110.43 283.61L115.25 312.16Z" fill="#00767C"/>
<path d="M123.38 369.62C124.05 375.39 124.61 380.38 125.04 384.15C130.26 383.61 150.21 381.76 164.35 383.65C164.59 379.8 164.67 375.19 164.61 369.72C158 368.45 139.72 365.64 123.38 369.62Z" fill="#FCD637"/>
<path d="M275.37 278.8C298.3 319 294.34 359 297.5 385.22C298.28 391.64 282.22 408.55 309.36 408.55C341.97 408.55 337.8 386.17 337.03 340.62C336.44 305.47 337.03 285.21 341.78 275.3C346.53 265.39 259.75 251.38 275.37 278.8Z" fill="url(#paint4_linear_31_1514)"/>
<path d="M324.65 345C323.53 339.38 322.93 337.76 319.65 337.6C316.37 337.44 317.65 338.6 318.07 344.6C318.49 350.6 318.33 352.09 322.02 352.33C325.71 352.57 325.31 348.4 324.65 345Z" fill="#024F5C"/>
<path d="M312.41 353.5C313.15 355.95 315.72 362.9 313.41 363.24C310.49 363.68 306.41 362.03 306.03 353.82C303.72 348.2 304.18 345.77 306.95 345.45C309.72 345.13 312.41 353.5 312.41 353.5Z" fill="#024F5C"/>
<path d="M297.18 385.74C297.18 385.74 321.97 382.9 337.73 385.74C338.1 373.74 338.1 370.26 338.1 370.26C338.1 370.26 309.96 365.81 296.22 372.81C296.319 377.134 296.639 381.449 297.18 385.74Z" fill="#FCD637"/>
<path d="M290.83 152.4L324.83 136.56C325.563 136.217 326.192 135.685 326.652 135.018C327.112 134.352 327.386 133.575 327.446 132.768C327.506 131.96 327.35 131.151 326.994 130.424C326.638 129.697 326.095 129.078 325.42 128.63L301.12 112.63C300.201 111.997 299.543 111.051 299.271 109.969C298.998 108.887 299.13 107.743 299.64 106.75L320.64 66.08C320.715 65.9188 320.846 65.7904 321.009 65.719C321.171 65.6475 321.355 65.6379 321.524 65.6918C321.693 65.7458 321.837 65.8598 321.928 66.0122C322.02 66.1647 322.052 66.3453 322.02 66.52L317.7 99C317.581 99.8799 317.679 100.776 317.986 101.609C318.293 102.442 318.799 103.187 319.46 103.78L350.05 131.36C350.98 132.184 351.569 133.324 351.704 134.559C351.839 135.794 351.51 137.035 350.78 138.04L325.84 172.88L290.83 152.4Z" fill="url(#paint5_linear_31_1514)"/>
<path d="M285.44 146.18C384 167.36 342.66 269.5 341.78 275.3C310.42 314.44 334.44 261.59 265.98 292.75C219.36 309.06 138.34 323.75 110.98 287.32C92.42 262.66 90.93 227.15 99.35 214.59C121.07 229.93 172.57 203 179.83 174C203.96 177.42 204.69 170.44 229.74 159.05C251.74 149.07 271.06 143.09 285.44 146.18Z" fill="url(#paint6_linear_31_1514)"/>
<path d="M298.62 153.93C301.13 154.45 305.78 156.18 305.21 158.64C304.64 161.1 301.09 158.32 298.62 157.87C296.15 157.42 292.04 158.87 291.68 156.18C291.32 153.49 298.62 153.93 298.62 153.93Z" fill="#024F5C"/>
<path d="M305.1 166.25C308.54 168.94 310.48 172.33 309.47 173.49C308.46 174.65 306.75 172.73 302.13 168.78C298.84 165.78 296.98 166.29 296.76 165.24C296.54 164.19 299 161.42 305.1 166.25Z" fill="#024F5C"/>
<path d="M273.24 195.14C274.63 198.76 276.17 202.63 274.03 203.6C271.89 204.57 270.45 203.6 268.69 198.85C266.93 194.1 265.9 191.76 268.26 190.85C270.62 189.94 272.15 192.31 273.24 195.14Z" fill="#024F5C"/>
<path d="M282.76 190.23C283.55 192.08 286.02 198.23 282.76 199.73C280.04 200.86 280.26 195.91 278.9 193.25C277.54 190.59 276.17 188.14 278.32 187.05C280.47 185.96 282.76 190.23 282.76 190.23Z" fill="#024F5C"/>
<path d="M323.07 224.84C323.67 227.67 324.3 233.66 321.59 233.99C318.88 234.32 318.75 229.56 318.93 227.53C319.11 225.5 317.08 221.92 318.72 220.68C320.36 219.44 322.29 221.16 323.07 224.84Z" fill="#024F5C"/>
<path d="M315.82 233.45C316.41 238.45 316.49 241.78 314.15 242.63C311.81 243.48 310.83 237.41 311.09 234.42C311.35 231.43 309.56 227.89 312.76 227.42C314.58 227.38 315.57 231.29 315.82 233.45Z" fill="#024F5C"/>
<path d="M245.79 293.35L278 262.2L247.41 242.75L272.65 224L243.26 199.75L259.72 165.75C248.2 161.36 238.6 158.75 229.72 159.09L227.92 159.92L227.11 160.3L246.95 166.15L215.09 197L247.45 222L217 248.65L248.92 262.35L214.2 293.26L227.88 303.48C236.14 301.67 244.12 299.6 251.57 297.39L245.79 293.35Z" fill="#FCD637"/>
<path d="M192.25 169.41C192.19 169.63 192.12 169.85 192.05 170.06C192.441 169.026 192.775 167.971 193.05 166.9C192.829 167.751 192.562 168.589 192.25 169.41Z" fill="#00767C"/>
<path d="M96.81 256.49C99.3622 267.623 104.168 278.115 110.93 287.32C123.06 303.43 145.68 309.54 171.17 309.93C147.59 254.06 117 232.86 96.81 256.49Z" fill="url(#paint7_linear_31_1514)"/>
<path d="M135 64.91C177.74 73.16 195 98.12 196.56 150.28C196.86 159.95 202.96 170.09 205.91 172.43C209.15 174.99 202.02 173.95 161.41 212.43C121.42 250.24 98 238.83 98 238.83C93.93 233.14 96.62 218.93 79.81 219.31C12.59 220.81 10.47 162.94 19.72 156.43C19.72 156.43 16.18 138.87 36.84 129.56C45.09 125.84 41.72 106.63 44.95 98.18C58.26 63.28 84.64 55.18 135 64.91Z" fill="url(#paint8_linear_31_1514)"/>
<path d="M108.68 168.48C105.561 163.163 100.868 158.946 95.25 156.41C92.14 154.14 89.33 166.21 89.49 170.06L87.23 181.82C91.6238 181.521 95.877 180.148 99.6168 177.822C103.357 175.496 106.469 172.288 108.68 168.48Z" fill="url(#paint9_linear_31_1514)"/>
<path d="M99.61 131.2C99.61 116.99 105.78 102.11 117.22 99.81C128.12 97.62 134.14 113.81 133.87 125.92C133.38 147.17 123.72 155.83 115.11 155.25C103.85 154.5 99.6 139.66 99.61 131.2Z" fill="#C6E545"/>
<path d="M124.86 144.31C129.345 144.31 132.98 137.106 132.98 128.22C132.98 119.334 129.345 112.13 124.86 112.13C120.375 112.13 116.74 119.334 116.74 128.22C116.74 137.106 120.375 144.31 124.86 144.31Z" fill="#005889"/>
<path d="M116.74 131.73C119.894 131.73 122.45 129.814 122.45 127.45C122.45 125.086 119.894 123.17 116.74 123.17C113.586 123.17 111.03 125.086 111.03 127.45C111.03 129.814 113.586 131.73 116.74 131.73Z" fill="white"/>
<path d="M79.52 111.72C79.84 118.03 78.52 135.95 67 135.83C55.48 135.71 52.1 122.23 52.32 117.17C52.32 110.03 56.21 90.99 68.93 89.17C68.93 89.13 79 87.16 79.52 111.72Z" fill="#C6E545"/>
<path d="M71.69 131.47C76.2574 131.47 79.96 124.445 79.96 115.78C79.96 107.115 76.2574 100.09 71.69 100.09C67.1227 100.09 63.42 107.115 63.42 115.78C63.42 124.445 67.1227 131.47 71.69 131.47Z" fill="#005889"/>
<path d="M66.05 119.62C69.2036 119.62 71.76 117.753 71.76 115.45C71.76 113.147 69.2036 111.28 66.05 111.28C62.8965 111.28 60.34 113.147 60.34 115.45C60.34 117.753 62.8965 119.62 66.05 119.62Z" fill="white"/>
<path d="M116.57 67.79C118.096 63.4647 120.059 59.3065 122.43 55.38C125.18 51.16 129.01 47.48 133.87 45.99C134.594 45.7609 135.375 45.7891 136.08 46.07C138.14 46.92 137.9 49.07 137.56 50.89L135.8 59.89C138.271 56.5042 141.519 53.7607 145.27 51.89C147.527 50.8585 150.003 50.3951 152.48 50.54C153.116 50.5875 153.731 50.7891 154.272 51.1274C154.813 51.4657 155.263 51.9306 155.584 52.4819C155.905 53.0332 156.087 53.6544 156.114 54.2917C156.141 54.929 156.013 55.5634 155.74 56.14C154.887 57.9505 153.841 59.6638 152.62 61.25L158.09 63.63C158.497 63.7514 158.875 63.9528 159.203 64.2224C159.531 64.492 159.802 64.8244 160 65.2C160.082 65.6386 160.072 66.0897 159.968 66.5239C159.865 66.958 159.671 67.3656 159.4 67.72L156.84 72.21L116.57 67.79Z" fill="url(#paint10_linear_31_1514)"/>
<path d="M21.33 191.42C59.67 194.69 78.71 188.62 78.71 188.62C106.45 182.08 116.97 163.47 114.46 161.08C109.63 158.15 108.62 179.77 69.13 187.01C53.13 189.4 35.78 189.16 30.28 189.16C28.62 189.16 24.65 189.04 20.08 188.9C20.47 189.74 20.89 190.58 21.33 191.42Z" fill="#03505C"/>
<path d="M10.14 152.94C4.33 161.71 -0.370002 172.38 4.37 179.69C5.70374 181.686 7.64175 183.203 9.90013 184.019C12.1585 184.834 14.6186 184.904 16.92 184.22L27.74 181.13L37.9 184.45C42.3488 185.898 47.106 186.119 51.67 185.09C60.1 183.16 64.96 173.9 61.94 165.49C58.6501 156.644 53.3109 148.704 46.36 142.32L41.36 137.6C37.99 134.39 29.14 137.06 29.14 137.06C23.15 139 15.36 145.05 10.14 152.94Z" fill="#024F5C"/>
<path d="M33.55 148.27C33.55 148.27 30 167.77 40.67 173.46C40.67 173.46 42.21 151.25 33.55 148.27Z" fill="#ABCC37"/>
<path d="M21.28 146.51C21.28 146.51 9.28001 162.51 16.61 172.25C16.61 172.25 27.93 152.91 21.28 146.51Z" fill="#ABCC37"/>
<g opacity="0.5">
<path d="M150.75 170.93C146.75 175.93 139.5 167.75 143.2 158.43C146.9 149.11 162.46 156.49 150.75 170.93Z" fill="#024F5C"/>
<path d="M157 148.31C155.71 150.51 142.88 148.22 148.35 139.66C153.82 131.1 162.18 139.53 157 148.31Z" fill="#024F5C"/>
<path d="M163 155C162.38 156.77 155.65 155.34 157.5 150.71C159.35 146.08 165.09 149 163 155Z" fill="#024F5C"/>
</g>
<path d="M36.79 129.56C36.79 129.56 73.69 126.92 77.61 172.62L68.33 174.62C68.33 174.62 71.12 132 36.79 129.56Z" fill="#03505C"/>
<path d="M155 278.15C171.41 323.74 169.54 366.06 172.7 388.56C173.47 394.06 157.42 408.56 184.56 408.56C217.16 408.56 209.78 389.31 212.23 350.34C214.16 319.52 207.87 302.85 212.61 294.34C217.35 285.83 145.48 251.6 155 278.15Z" fill="url(#paint11_linear_31_1514)"/>
<path d="M199.88 345C198.77 339.38 198.17 337.76 194.88 337.6C191.59 337.44 192.88 338.6 193.29 344.6C193.7 350.6 193.56 352.09 197.29 352.33C201.02 352.57 200.55 348.4 199.88 345Z" fill="#024F5C"/>
<path d="M187.64 353.5C188.39 355.95 190.96 362.9 188.64 363.24C185.73 363.68 181.64 362.03 181.26 353.82C178.96 348.2 179.42 345.77 182.19 345.45C184.96 345.13 187.64 353.5 187.64 353.5Z" fill="#024F5C"/>
<path d="M172.42 385.74C172.42 385.74 197.2 382.9 212.97 385.74C213.33 373.74 213.33 370.26 213.33 370.26C213.33 370.26 185.2 365.81 171.45 372.81C171.55 377.134 171.874 381.45 172.42 385.74Z" fill="#FCD637"/>
<path d="M193.23 267.92C192.91 264.12 192.87 263.01 194.23 262.69C195.59 262.37 197.52 262.2 197.81 267.6C198.1 273 197.31 274.36 196.02 274.36C194.73 274.36 193.8 274.68 193.23 267.92Z" fill="#024F5C"/>
<path d="M201.61 259.31C200.61 255.98 198.81 252.14 200.53 251.31C202.25 250.48 203.68 253.41 205.47 258.64C207.26 263.87 206.76 265.49 205.47 266.13C204.18 266.77 203.13 264.35 201.61 259.31Z" fill="#024F5C"/>
<path d="M171.17 178.47C171.17 178.47 138.34 224.64 88.24 220.9C93.68 223.68 94.66 229.55 96.02 234.26C123.38 237.52 154.75 220.79 171.17 178.47Z" fill="#00767C"/>
<path d="M60.66 93.41C60.66 93.41 86.66 85.66 130.71 109.48C130.71 109.48 137.21 100.83 133.88 91.87C131.97 86.75 124.15 83.08 119.26 83.2C91.43 83.92 67.2 72.49 62.66 74.66C62.66 74.66 50.5 85.58 60.66 93.41Z" fill="#024F5C"/>
<defs>
<linearGradient id="paint0_linear_31_1514" x1="88.2668" y1="83.177" x2="50.7104" y2="23.9632" gradientUnits="userSpaceOnUse">
<stop stop-color="#FDEA03"/>
<stop offset="0.41" stop-color="#FEC70B"/>
<stop offset="0.78" stop-color="#FFAF10"/>
<stop offset="1" stop-color="#FFA612"/>
</linearGradient>
<linearGradient id="paint1_linear_31_1514" x1="165.64" y1="79.99" x2="174.69" y2="6.44998" gradientUnits="userSpaceOnUse">
<stop stop-color="#FDEA03"/>
<stop offset="0.41" stop-color="#FEC70B"/>
<stop offset="0.78" stop-color="#FFAF10"/>
<stop offset="1" stop-color="#FFA612"/>
</linearGradient>
<linearGradient id="paint2_linear_31_1514" x1="265.98" y1="403.46" x2="265.98" y2="317.86" gradientUnits="userSpaceOnUse">
<stop stop-color="#024F5C"/>
<stop offset="0.21" stop-color="#016671"/>
<stop offset="0.53" stop-color="#01838A"/>
<stop offset="0.8" stop-color="#009599"/>
<stop offset="1" stop-color="#009B9F"/>
</linearGradient>
<linearGradient id="paint3_linear_31_1514" x1="147.75" y1="403.46" x2="147.75" y2="317.86" gradientUnits="userSpaceOnUse">
<stop stop-color="#024F5C"/>
<stop offset="0.21" stop-color="#016671"/>
<stop offset="0.53" stop-color="#01838A"/>
<stop offset="0.8" stop-color="#009599"/>
<stop offset="1" stop-color="#009B9F"/>
</linearGradient>
<linearGradient id="paint4_linear_31_1514" x1="307.72" y1="408.55" x2="307.72" y2="301.62" gradientUnits="userSpaceOnUse">
<stop stop-color="#024F5C"/>
<stop offset="0.21" stop-color="#016671"/>
<stop offset="0.53" stop-color="#01838A"/>
<stop offset="0.8" stop-color="#009599"/>
<stop offset="1" stop-color="#009B9F"/>
</linearGradient>
<linearGradient id="paint5_linear_31_1514" x1="308.633" y1="169.464" x2="348.052" y2="58.105" gradientUnits="userSpaceOnUse">
<stop offset="0.16" stop-color="#024F5C"/>
<stop offset="0.76" stop-color="#EDD23D"/>
</linearGradient>
<linearGradient id="paint6_linear_31_1514" x1="203.35" y1="307.37" x2="260.28" y2="94.91" gradientUnits="userSpaceOnUse">
<stop offset="1" stop-color="#01999D"/>
</linearGradient>
<linearGradient id="paint7_linear_31_1514" x1="129.77" y1="298.94" x2="144.96" y2="242.28" gradientUnits="userSpaceOnUse">
<stop offset="0.07" stop-color="#FCD637"/>
<stop offset="0.67" stop-color="#009B9F"/>
</linearGradient>
<linearGradient id="paint8_linear_31_1514" x1="97.66" y1="239.14" x2="137.72" y2="33.04" gradientUnits="userSpaceOnUse">
<stop stop-color="#01999D"/>
</linearGradient>
<linearGradient id="paint9_linear_31_1514" x1="92.28" y1="158.67" x2="99.13" y2="178.57" gradientUnits="userSpaceOnUse">
<stop stop-color="#FFF3A2"/>
<stop offset="0.25" stop-color="#FFF29F"/>
<stop offset="0.41" stop-color="#FFED96"/>
<stop offset="0.55" stop-color="#FFE587"/>
<stop offset="0.68" stop-color="#FFD972"/>
<stop offset="0.8" stop-color="#FFCB56"/>
<stop offset="0.91" stop-color="#FFB935"/>
<stop offset="1" stop-color="#FFA612"/>
</linearGradient>
<linearGradient id="paint10_linear_31_1514" x1="116.57" y1="59.02" x2="160.11" y2="59.02" gradientUnits="userSpaceOnUse">
<stop stop-color="#009B9F"/>
</linearGradient>
<linearGradient id="paint11_linear_31_1514" x1="183.52" y1="408.55" x2="183.52" y2="305.62" gradientUnits="userSpaceOnUse">
<stop stop-color="#024F5C"/>
<stop offset="0.21" stop-color="#016671"/>
<stop offset="0.53" stop-color="#01838A"/>
<stop offset="0.8" stop-color="#009599"/>
<stop offset="1" stop-color="#009B9F"/>
</linearGradient>
</defs>
</svg>
