<svg width="341" height="392" viewBox="0 0 341 392" fill="none" xmlns="http://www.w3.org/2000/svg">
<path d="M255.396 313.804C255.396 313.804 239.763 301.438 207.672 331.246C173.214 363.221 171.22 359.811 160.323 347.361C146.71 331.8 148.63 328.076 160.127 327.062C167.274 319.256 200.48 284.981 215.903 263.64C231.325 242.3 266.031 312.199 255.396 313.804Z" fill="url(#paint0_linear_86_18378)"/>
<path d="M219.324 260.51L207.718 274.225L206.403 275.826C206.603 276.665 211.354 295.759 227.452 316.515C227.68 316.427 227.882 316.337 228.09 316.253C230.426 315.024 232.853 313.975 235.349 313.116C236.005 312.882 236.626 312.558 237.194 312.155C237.194 312.155 238.143 312.082 239.689 311.919C241.345 311.561 243.03 311.348 244.723 311.281C248.986 310.691 253.191 309.733 257.291 308.421C255.572 293.479 233.029 253.082 219.324 260.51Z" fill="#00767C"/>
<path d="M172.183 314.194C168.671 317.957 165.612 321.187 163.315 323.643C166.663 326.855 179.317 339.254 186.115 349.869C188.861 347.832 192.023 345.246 195.686 342.073C192.784 336.906 184.247 322.978 172.183 314.194Z" fill="#FCD637"/>
<path d="M179.616 266.433C179.616 266.433 159.584 265.503 147.326 315.408C134.203 368.98 130.683 367.14 114.692 362.889C94.7116 357.571 94.4318 352.764 103.869 343.956C105.975 331.741 116.806 276.863 118.999 246.285C121.192 215.706 188.003 257.66 179.616 266.433Z" fill="url(#paint1_linear_86_18378)"/>
<path d="M117.141 264.217C117.141 264.217 131.366 279.396 156.79 288.089C163.055 277.767 162.948 277.337 162.948 277.337C162.948 277.337 170.02 268.695 159.035 263.02C148.05 257.346 126.116 221.896 121.212 234.501L117.141 264.217Z" fill="#00767C"/>
<path d="M107.612 323.642C106.531 329.574 105.579 334.699 104.866 338.573C109.458 339.303 126.946 342.307 138.425 347.636C139.731 343.845 141.118 339.256 142.632 333.772C137.376 330.895 122.641 323.638 107.612 323.642Z" fill="#FCD637"/>
<path d="M269.471 285.212C254.506 323.367 224.738 342.917 208.423 359.691C204.432 363.802 183.853 362.173 198.934 380.839C217.055 403.267 230.162 387.937 261.127 362.043C285.025 342.064 299.316 331.189 308.785 328.937C318.255 326.686 279.689 259.2 269.471 285.212Z" fill="url(#paint2_linear_86_18378)"/>
<path d="M251.229 355.967C254.48 352.068 255.263 350.753 253.551 348.408C251.839 346.063 251.75 347.589 247.848 351.219C243.947 354.849 242.831 355.569 244.716 358.24C246.601 360.912 249.253 358.315 251.229 355.967Z" fill="#024F5C"/>
<path d="M238.569 352.282C237.292 354.155 233.93 359.793 232.412 358.394C230.486 356.63 229.356 352.906 234.804 348.073C237.393 343.354 239.324 342.318 241.083 344.045C242.843 345.771 238.569 352.282 238.569 352.282Z" fill="#024F5C"/>
<path d="M207.887 359.76C207.887 359.76 223.619 375.228 230.419 387.649C238.895 381.221 241.294 379.284 241.294 379.284C241.294 379.284 228.724 357.452 216.265 351.9C213.34 354.375 210.543 356.999 207.887 359.76Z" fill="#FCD637"/>
<path d="M240.502 202.902C240.801 206.323 241.166 209.995 239.111 210.3C237.055 210.606 236.068 209.43 235.729 204.955C235.391 200.481 235.086 198.237 237.314 198.036C239.542 197.835 240.265 200.226 240.502 202.902Z" fill="#024F5C"/>
<path d="M177.927 161.282C177.822 161.454 177.709 161.625 177.599 161.787C178.183 161.001 178.724 160.183 179.219 159.338C178.824 160.009 178.393 160.658 177.927 161.282Z" fill="#00767C"/>
<path d="M152.53 258.658C155.366 301.486 143.46 337.081 140.661 357.016C139.975 361.888 122.797 370.336 145.867 376.938C173.58 384.868 171.999 366.675 183.581 334.075C192.735 308.29 191.452 292.56 197.556 286.464C203.66 280.368 150.91 233.726 152.53 258.658Z" fill="url(#paint3_linear_86_18378)"/>
<path d="M174.385 326.522C174.811 321.464 174.696 319.938 171.938 319.002C169.181 318.065 169.994 319.367 168.88 324.578C167.766 329.789 167.284 331.024 170.396 332.136C173.508 333.247 174.125 329.581 174.385 326.522Z" fill="#024F5C"/>
<path d="M161.908 330.785C161.948 333.054 162.439 339.6 160.384 339.325C157.803 338.992 154.728 336.591 156.406 329.505C155.821 324.158 156.805 322.2 159.237 322.602C161.67 323.003 161.908 330.785 161.908 330.785Z" fill="#024F5C"/>
<path d="M141.111 354.546C141.111 354.546 162.868 358.155 175.581 364.41C178.812 354.276 179.66 351.311 179.66 351.311C179.66 351.311 156.833 340.677 143.438 343.295C142.469 347.003 141.692 350.758 141.111 354.546Z" fill="#FCD637"/>
<path d="M321.618 222.907C376.965 292.788 291.222 339.419 287.355 342.891C243.905 352.039 290.066 329.388 225.787 312.226C184.779 297.181 121.203 261.694 123.044 221.398C124.264 194.099 143.246 168.973 156.067 165.114C216.5 104 205 162.5 233.862 182.581C248.407 198.482 252.836 194.118 276.35 200.406C296.987 205.944 313.543 212.712 321.618 222.907Z" fill="url(#paint4_linear_86_18378)"/>
<path d="M326.25 235.616C327.67 237.382 329.87 241.179 328.095 242.541C326.321 243.904 325.463 240.007 324.031 238.311C322.598 236.615 318.976 235.297 320.245 233.254C321.515 231.212 326.25 235.616 326.25 235.616Z" fill="#024F5C"/>
<path d="M323.734 247.685C324.567 251.458 323.982 254.867 322.64 255.093C321.297 255.319 321.211 253.044 320.282 247.746C319.726 243.845 318.169 243.148 318.61 242.307C319.051 241.465 322.291 240.953 323.734 247.685Z" fill="#024F5C"/>
<path d="M294.98 251.532C294.477 253.241 292.699 258.836 289.629 258.03C287.136 257.274 290.074 254.012 290.644 251.428C291.214 248.844 291.659 246.398 293.74 246.861C295.822 247.324 294.98 251.532 294.98 251.532Z" fill="#024F5C"/>
<path d="M303.002 297.861C301.818 300.134 298.875 304.585 296.839 303.287C294.803 301.99 297.395 298.661 298.662 297.374C299.928 296.086 300.558 292.497 302.376 292.57C304.194 292.644 304.543 294.905 303.002 297.861Z" fill="#024F5C"/>
<path d="M293.205 299.675C290.791 303.427 288.97 305.75 286.895 305.016C284.819 304.282 287.568 299.579 289.43 297.68C291.291 295.781 292.063 292.354 294.512 293.831C295.777 294.826 294.25 298.057 293.205 299.675Z" fill="#024F5C"/>
<path d="M211.668 301.289L251.197 298.085L241.271 267.589L269.06 268.949L262.656 235.844L293.04 221.838C287.649 212.361 282.566 205.18 276.313 200.422L274.617 199.978L273.85 199.783L284.098 214.935L244.976 218.13L252.985 253.418L217.191 254.533L231.263 281.844L190.155 283.473L193.737 298.152C200.395 301.557 207.008 304.626 213.338 307.301L211.668 301.289Z" fill="#FCD637"/>
<path d="M130.735 192.346C126.207 201.396 123.578 211.273 123.01 221.37C122.217 239.207 134.216 256.099 151.395 270.692C166.766 219.224 157.825 187.53 130.735 192.346Z" fill="url(#paint5_linear_86_18378)"/>
<path d="M190.113 254.355C192.035 251.576 192.633 250.794 193.741 251.339C194.85 251.885 196.263 252.853 193.419 256.71C190.576 260.567 189.271 261.053 188.39 260.328C187.51 259.603 186.695 259.299 190.113 254.355Z" fill="#024F5C"/>
<path d="M200.682 253.175C201.875 250.335 202.809 246.697 204.451 247.096C206.092 247.495 205.418 250.303 203.694 254.886C201.971 259.47 200.717 260.297 199.476 260.01C198.235 259.722 198.881 257.477 200.682 253.175Z" fill="#024F5C"/>
<path d="M129.505 91.7763C119.09 64.5564 99.9175 47.7132 73.4799 39.4501C70.1726 38.4276 66.6856 38.1269 63.2538 38.5681C59.8219 39.0094 56.5248 40.1824 53.5847 42.0081C50.6445 43.8339 48.1294 46.27 46.2088 49.1524C44.2882 52.0348 43.0068 55.2966 42.4507 58.7181L40.3536 71.4891C40.3536 71.4891 70.5835 97.9053 68.6166 107.376C68.6166 107.376 113.995 89.5768 129.505 91.7763Z" fill="#024F5C"/>
<path d="M47.6145 49.4361L44.5524 68.2275C66.3211 77.6236 72.9745 96.9746 72.9745 96.9746C77.1452 95.3012 105.907 87.0846 105.907 87.0846C92.0302 43.5072 57.1163 48.6378 47.6145 49.4361Z" fill="url(#paint6_linear_86_18378)"/>
<path d="M9.23987 81.7135C9.23987 81.7135 74.7786 87.9438 70.8762 40.5327C70.8762 40.5327 49.7665 28.2171 9.23987 81.7135Z" fill="#024F5C"/>
<path d="M183.584 107.126C183.584 107.126 208.031 52.0432 164.8 3.15757L132.772 26.156C132.772 26.156 135.583 67.9933 127.086 73.4969C127.12 73.4898 173.743 94.0039 183.584 107.126Z" fill="#024F5C"/>
<path d="M152.37 12.0766L136.251 23.6561C145.34 46.679 133.353 68.9182 133.353 68.9182L136.627 69.6161C140.9 71.4573 176.428 84.1604 176.428 84.1604C187.379 40.5565 159.983 18.5632 152.37 12.0766Z" fill="url(#paint7_linear_86_18378)"/>
<path d="M94.2679 34.9214C94.2679 34.9214 160.677 52.6304 164.8 3.15755C164.8 3.15755 145.158 -13.1559 94.2679 34.9214Z" fill="#024F5C"/>
<path d="M127.45 64C165.939 63.6112 185.311 82.2313 195.898 127.239C197.87 135.582 204.95 143.307 207.92 144.817C211.18 146.468 204.819 146.824 176.449 187.406C148.497 227.297 126.187 221.529 126.187 221.529C121.653 217.308 121.468 204.496 106.972 207.796C49.0006 220.975 36.9182 171.108 43.7795 163.822C43.7795 163.822 37.6036 149.203 53.8543 137.47C60.3432 132.783 54.0225 116.701 55.3247 108.794C60.6771 76.1432 82.0975 64.4502 127.45 64Z" fill="url(#paint8_linear_86_18378)"/>
<path d="M122.984 158.567C119.341 154.502 114.529 151.669 109.212 150.46C106.116 149.039 105.818 160.014 106.639 163.329L106.763 173.938C110.516 172.901 113.958 170.958 116.786 168.278C119.614 165.598 121.743 162.264 122.984 158.567Z" fill="url(#paint9_linear_86_18378)"/>
<path d="M108.526 127.804C106.01 115.467 108.721 101.458 118.225 97.4405C127.281 93.6134 135.363 106.605 137.273 117.167C140.61 135.702 133.775 144.927 126.213 145.945C116.325 147.283 110.015 135.15 108.526 127.804Z" fill="#C6E545"/>
<path d="M132.723 134.724C136.608 133.932 138.482 127.036 136.909 119.321C135.336 111.606 130.911 105.994 127.025 106.787C123.14 107.579 121.266 114.475 122.839 122.19C124.412 129.905 128.837 135.517 132.723 134.724Z" fill="#005889"/>
<path d="M123.461 125.237C126.193 124.68 128.068 122.565 127.65 120.513C127.231 118.461 124.677 117.249 121.945 117.806C119.213 118.363 117.337 120.478 117.756 122.53C118.174 124.583 120.728 125.794 123.461 125.237Z" fill="white"/>
<path d="M87.6721 114.441C89.0665 119.863 91.0956 135.654 81.0939 137.585C71.0922 139.516 65.7773 128.41 65.072 123.978C63.8079 117.78 63.8071 100.562 74.5049 96.7349C74.4978 96.7002 82.8733 93.2107 87.6721 114.441Z" fill="#C6E545"/>
<path d="M84.3852 132.971C88.3422 132.164 90.3063 125.411 88.7721 117.888C87.2379 110.365 82.7865 104.921 78.8295 105.728C74.8725 106.535 72.9084 113.287 74.4425 120.81C75.9767 128.333 80.4282 133.778 84.3852 132.971Z" fill="#005889"/>
<path d="M77.4009 123.679C80.133 123.122 82.0173 121.05 81.6095 119.05C81.2018 117.051 78.6564 115.882 75.9243 116.439C73.1922 116.996 71.308 119.069 71.7157 121.068C72.1234 123.067 74.6688 124.237 77.4009 123.679Z" fill="white"/>
<path d="M111.993 69.7565C112.549 65.7318 113.514 61.7749 114.873 57.9472C116.508 53.7977 119.175 49.9262 123.121 47.7739C123.708 47.4471 124.389 47.3337 125.05 47.4529C126.985 47.8269 127.158 49.7359 127.186 51.376L127.254 59.5005C128.796 56.1244 131.124 53.1688 134.042 50.882C135.815 49.5877 137.878 48.748 140.05 48.4361C140.609 48.3649 141.178 48.4313 141.706 48.6295C142.235 48.8277 142.707 49.1517 143.083 49.5736C143.458 49.9955 143.726 50.5027 143.862 51.0512C143.999 51.5997 144 52.1731 143.866 52.7219C143.447 54.4445 142.844 56.1167 142.067 57.7095L147.228 58.8093C147.602 58.8429 147.965 58.9508 148.297 59.1269C148.629 59.3031 148.922 59.5437 149.16 59.8349C149.309 60.2011 149.38 60.5946 149.367 60.9898C149.354 61.385 149.259 61.7731 149.087 62.1287L147.664 66.4791L111.993 69.7565Z" fill="url(#paint10_linear_86_18378)"/>
<path d="M51.3691 193.915C85.1643 189.98 100.585 181.347 100.585 181.347C123.46 170.768 129.279 152.752 126.682 151.121C121.978 149.431 124.931 168.379 92.0003 181.641C78.5617 186.543 63.4879 189.4 58.7229 190.372C57.2848 190.665 53.8241 191.262 49.84 191.948C50.3266 192.609 50.8392 193.264 51.3691 193.915Z" fill="#03505C"/>
<path d="M34.8618 162.485C31.381 171.125 29.1982 181.219 34.5989 186.728C36.1079 188.226 38.0555 189.2 40.1564 189.509C42.2573 189.818 44.4011 189.444 46.2738 188.443L55.1007 183.849L64.4907 184.936C68.6014 185.408 72.762 184.759 76.5338 183.059C83.4955 179.894 86.0665 170.996 81.9612 164.229C77.5448 157.13 71.5134 151.18 64.3611 146.866L59.1937 143.651C55.7057 141.46 48.5111 145.342 48.5111 145.342C43.6651 148.084 37.9873 154.713 34.8618 162.485Z" fill="#024F5C"/>
<path d="M54.3165 154.295C54.3165 154.295 54.6934 171.851 64.9448 174.906C64.9448 174.906 62.3468 155.352 54.3165 154.295Z" fill="#ABCC37"/>
<path d="M43.3746 154.934C43.3746 154.934 35.8111 170.945 43.8859 178.106C43.8859 178.106 50.269 159.316 43.3746 154.934Z" fill="#ABCC37"/>
<g opacity="0.5">
<path d="M159.866 153.261C157.285 158.308 149.556 152.488 151.111 143.743C152.667 134.998 167.454 138.655 159.866 153.261Z" fill="#024F5C"/>
<path d="M161.276 132.519C160.547 134.656 149.027 134.935 152.25 126.537C155.474 118.139 164.209 123.981 161.276 132.519Z" fill="#024F5C"/>
<path d="M167.658 137.267C167.434 138.913 161.351 138.86 162.134 134.514C162.917 130.167 168.407 131.688 167.658 137.267Z" fill="#024F5C"/>
</g>
<path d="M53.8109 137.479C53.8109 137.479 85.3122 128.667 96.7993 167.65L89.1136 171.026C89.1136 171.026 83.985 133.532 53.8109 137.479Z" fill="#03505C"/>
<path d="M178.892 156.199C178.892 156.199 158.623 202.083 114.557 207.687C119.762 209.14 121.65 214.063 123.662 217.911C147.943 215.908 172.159 195.841 178.892 156.199Z" fill="#00767C"/>
<path d="M68.0907 101.877C68.0907 101.877 89.244 90.5552 131.624 103.452C131.624 103.452 135.724 94.7942 131.253 87.6038C128.692 83.4962 121.267 81.6916 117.052 82.6598C93.0684 88.2018 70.0529 82.5595 66.5038 85.2455C66.5038 85.2455 57.9023 96.8744 68.0907 101.877Z" fill="#024F5C"/>
<defs>
<linearGradient id="paint0_linear_86_18378" x1="163.241" y1="350.023" x2="221.109" y2="300.995" gradientUnits="userSpaceOnUse">
<stop stop-color="#024F5C"/>
<stop offset="0.21" stop-color="#016671"/>
<stop offset="0.53" stop-color="#01838A"/>
<stop offset="0.8" stop-color="#009599"/>
<stop offset="1" stop-color="#009B9F"/>
</linearGradient>
<linearGradient id="paint1_linear_86_18378" x1="118.646" y1="363.404" x2="143.138" y2="277.822" gradientUnits="userSpaceOnUse">
<stop stop-color="#024F5C"/>
<stop offset="0.21" stop-color="#016671"/>
<stop offset="0.53" stop-color="#01838A"/>
<stop offset="0.8" stop-color="#009599"/>
<stop offset="1" stop-color="#009B9F"/>
</linearGradient>
<linearGradient id="paint2_linear_86_18378" x1="198.023" y1="379.711" x2="271.719" y2="320.168" gradientUnits="userSpaceOnUse">
<stop stop-color="#024F5C"/>
<stop offset="0.21" stop-color="#016671"/>
<stop offset="0.53" stop-color="#01838A"/>
<stop offset="0.8" stop-color="#009599"/>
<stop offset="1" stop-color="#009B9F"/>
</linearGradient>
<linearGradient id="paint3_linear_86_18378" x1="144.986" y1="376.677" x2="170.077" y2="288.996" gradientUnits="userSpaceOnUse">
<stop stop-color="#024F5C"/>
<stop offset="0.21" stop-color="#016671"/>
<stop offset="0.53" stop-color="#01838A"/>
<stop offset="0.8" stop-color="#009599"/>
<stop offset="1" stop-color="#009B9F"/>
</linearGradient>
<linearGradient id="paint4_linear_86_18378" x1="174.803" y1="287.027" x2="333.437" y2="173.863" gradientUnits="userSpaceOnUse">
<stop offset="1" stop-color="#01999D"/>
</linearGradient>
<linearGradient id="paint5_linear_86_18378" x1="129.326" y1="239.907" x2="171.636" y2="209.732" gradientUnits="userSpaceOnUse">
<stop offset="0.07" stop-color="#FCD637"/>
<stop offset="0.67" stop-color="#009B9F"/>
</linearGradient>
<linearGradient id="paint6_linear_86_18378" x1="90.1964" y1="88.1156" x2="47.0911" y2="43.4247" gradientUnits="userSpaceOnUse">
<stop stop-color="#FDEA03"/>
<stop offset="0.41" stop-color="#FEC70B"/>
<stop offset="0.78" stop-color="#FFAF10"/>
<stop offset="1" stop-color="#FFA612"/>
</linearGradient>
<linearGradient id="paint7_linear_86_18378" x1="156.665" y1="71.6787" x2="151.519" y2="6.2319" gradientUnits="userSpaceOnUse">
<stop stop-color="#FDEA03"/>
<stop offset="0.41" stop-color="#FEC70B"/>
<stop offset="0.78" stop-color="#FFAF10"/>
<stop offset="1" stop-color="#FFA612"/>
</linearGradient>
<linearGradient id="paint8_linear_86_18378" x1="125.947" y1="221.858" x2="124.31" y2="35.8496" gradientUnits="userSpaceOnUse">
<stop stop-color="#01999D"/>
</linearGradient>
<linearGradient id="paint9_linear_86_18378" x1="107.039" y1="152.947" x2="116.518" y2="169.001" gradientUnits="userSpaceOnUse">
<stop stop-color="#FFF3A2"/>
<stop offset="0.25" stop-color="#FFF29F"/>
<stop offset="0.41" stop-color="#FFED96"/>
<stop offset="0.55" stop-color="#FFE587"/>
<stop offset="0.68" stop-color="#FFD972"/>
<stop offset="0.8" stop-color="#FFCB56"/>
<stop offset="0.91" stop-color="#FFB935"/>
<stop offset="1" stop-color="#FFA612"/>
</linearGradient>
<linearGradient id="paint10_linear_86_18378" x1="110.44" y1="62.1427" x2="148.161" y2="54.4502" gradientUnits="userSpaceOnUse">
<stop stop-color="#009B9F"/>
</linearGradient>
</defs>
</svg>
