<svg width="1024" height="576" viewBox="0 0 1024 576" fill="none" xmlns="http://www.w3.org/2000/svg">
<g clip-path="url(#clip0_36_13512)">
<rect width="1024" height="576" fill="white"/>
<path d="M1024 0H0V255.78H1024V0Z" fill="url(#paint0_linear_36_13512)"/>
<path d="M845.57 39.69H878.67C878.67 39.69 873.82 17.18 861.31 32.56C861.31 32.56 856.97 27.85 853.81 34.55C853.81 34.55 849.03 28.96 845.57 39.7V39.69Z" fill="white"/>
<path d="M984.52 60.7H935.91C935.91 60.7 938.79 43.1 950.62 52.19C950.62 52.19 954.08 41.95 967.35 41.95C979.75 41.95 984.51 53.92 984.51 60.7H984.52Z" fill="white"/>
<path d="M627.41 77.56H687.99C687.99 77.56 692.71 60.51 685.68 59.07C680.96 58.11 676.05 60.71 672.77 63.98C671.23 57.72 659.96 40.19 640.79 67.93C640.79 67.83 625.48 58.59 627.4 77.56H627.41Z" fill="white"/>
<path d="M339.74 72.05C338.13 63.45 327.38 70.64 327.38 70.64C325.7 66.27 322.48 62.98 318.25 62.98C312.21 62.98 307.77 70.57 307.24 76.48H351.37C347.74 66.27 339.75 72.05 339.75 72.05H339.74Z" fill="white"/>
<path d="M257.31 38.21C257.31 38.21 255.91 31.81 251.51 36.56C250.11 33.61 248.11 30.76 244.56 30.76C241.71 30.76 238.81 33.56 237.21 38.91C237.21 38.91 235.66 36.81 234.31 37.41C233.46 37.76 232.71 39.31 232.36 42.36H259.51C259.51 42.31 261.46 37.01 257.31 38.21Z" fill="white"/>
<path d="M186.29 66.85H166.13C166.13 66.85 167.33 59.55 172.23 63.32C172.23 63.32 173.67 59.07 179.17 59.07C184.31 59.07 186.29 64.04 186.29 66.85Z" fill="white"/>
<path d="M45.72 53.19C45.72 53.19 45.02 48.35 46.69 48.08C47.6 47.92 48.57 48.83 49.49 50.18C49.49 50.18 50.46 43.89 53.52 43.89C55.78 43.89 56.85 48.19 56.85 48.19C56.85 48.19 59.32 42.92 62.55 44.1C63.84 44.64 63.73 47.65 63.57 49.26C63.57 49.26 67.71 47.65 65.61 53.18H45.72V53.19Z" fill="white"/>
<path d="M108.97 161.53V101.83L133.67 99.83L135.37 162.23C126.27 162.03 118.77 161.83 108.97 161.53Z" fill="#088D91"/>
<path d="M114.17 101.43L116.87 161.73" stroke="#006165" stroke-width="1.09" stroke-miterlimit="10"/>
<path d="M120.47 105.93L120.57 110.83" stroke="#006165" stroke-width="1.09" stroke-linecap="round" stroke-linejoin="round"/>
<path d="M126.57 113.33L126.67 118.13" stroke="#006165" stroke-width="1.09" stroke-linecap="round" stroke-linejoin="round"/>
<path d="M129.37 141.83V145.63" stroke="#006165" stroke-width="1.09" stroke-linecap="round" stroke-linejoin="round"/>
<path d="M126.47 149.23L126.57 152.53" stroke="#006165" stroke-width="1.09" stroke-linecap="round" stroke-linejoin="round"/>
<path d="M122.47 127.43L122.57 133.03" stroke="#006165" stroke-width="1.09" stroke-linecap="round" stroke-linejoin="round"/>
<path d="M99.49 92.42H75.99L78.49 158.62L99.49 157.92V92.42Z" fill="#088D91"/>
<path d="M87.69 95.82C94.1517 95.82 99.39 94.2978 99.39 92.42C99.39 90.5422 94.1517 89.02 87.69 89.02C81.2283 89.02 75.99 90.5422 75.99 92.42C75.99 94.2978 81.2283 95.82 87.69 95.82Z" fill="#029FA5"/>
<path d="M95.09 85.12L94.39 93.62H80.79L79.79 85.12H95.09Z" fill="#088D91"/>
<path d="M87.49 87.32C91.6874 87.32 95.09 86.335 95.09 85.12C95.09 83.905 91.6874 82.92 87.49 82.92C83.2926 82.92 79.89 83.905 79.89 85.12C79.89 86.335 83.2926 87.32 87.49 87.32Z" fill="#029FA5"/>
<path d="M95.09 95.12L94.49 158.12" stroke="#006165" stroke-width="1.63" stroke-miterlimit="10"/>
<path d="M87.69 95.82L89.69 158.32" stroke="#006165" stroke-width="1.63" stroke-miterlimit="10"/>
<path d="M80.79 95.22L83.49 158.42" stroke="#006165" stroke-width="1.63" stroke-miterlimit="10"/>
<path d="M61.89 119.13L65.79 158.63L33.49 160.13V118.13L61.89 119.13Z" fill="#029FA5"/>
<path d="M62.49 125.73L33.49 123.63V136.73L63.59 136.13L62.49 125.73Z" fill="#03B1B7"/>
<path d="M59.19 125.53V136.23" stroke="#006165" stroke-width="1.63" stroke-miterlimit="10"/>
<path d="M51.59 124.93L52.49 136.33" stroke="#006165" stroke-width="1.63" stroke-miterlimit="10"/>
<path d="M45.99 124.53L45.49 136.73" stroke="#006165" stroke-width="1.63" stroke-miterlimit="10"/>
<path d="M37.69 123.93L38.69 136.73" stroke="#006165" stroke-width="1.63" stroke-miterlimit="10"/>
<path d="M824.31 81.26L838.21 94.56L836.81 180.36L821.31 179.86L824.31 81.26Z" fill="#088D91"/>
<path d="M838.21 90.16L836.81 181.06L866.81 181.56L862.91 86.66L838.21 90.16Z" fill="#03B1B7"/>
<path d="M824.31 81.26L838.21 94.56L862.91 86.66L824.31 81.26Z" fill="#48C6CB"/>
<path d="M829.71 97.96V104.76" stroke="#006165" stroke-width="2" stroke-linecap="round" stroke-linejoin="round"/>
<path d="M832.21 116.56V122.16" stroke="#006165" stroke-width="2" stroke-linecap="round" stroke-linejoin="round"/>
<path d="M830.01 146.77V151.37" stroke="#006165" stroke-width="2" stroke-linecap="round" stroke-linejoin="round"/>
<path d="M844.01 106.86V110.46" stroke="#006165" stroke-width="2" stroke-linecap="round" stroke-linejoin="round"/>
<path d="M855.71 98.16V101.86" stroke="#006165" stroke-width="2" stroke-linecap="round" stroke-linejoin="round"/>
<path d="M851.11 133.96V138.46" stroke="#006165" stroke-width="2" stroke-linecap="round" stroke-linejoin="round"/>
<path d="M847.51 153.65V160.85" stroke="#006165" stroke-width="2" stroke-linecap="round" stroke-linejoin="round"/>
<path d="M859.41 161.55V167.45" stroke="#006165" stroke-width="2" stroke-linecap="round" stroke-linejoin="round"/>
<path d="M857.31 123.26V129.96" stroke="#006165" stroke-width="2" stroke-linecap="round" stroke-linejoin="round"/>
<path d="M736.62 190.34L736.03 98.26L774.44 95.93L779.97 191.61C765.79 191.07 751.43 190.71 736.62 190.35V190.34Z" fill="#088D91"/>
<path d="M745.87 98.44L747.36 189.71" stroke="#006165" stroke-width="1.81" stroke-linecap="round" stroke-linejoin="round"/>
<path d="M766.03 110.78V118.91" stroke="#006165" stroke-width="1.81" stroke-linecap="round" stroke-linejoin="round"/>
<path d="M759.29 135.85V143.62" stroke="#006165" stroke-width="1.81" stroke-linecap="round" stroke-linejoin="round"/>
<path d="M767.06 159.42V165.74" stroke="#006165" stroke-width="1.81" stroke-linecap="round" stroke-linejoin="round"/>
<path d="M762.27 168.81V175.77" stroke="#006165" stroke-width="1.81" stroke-linecap="round" stroke-linejoin="round"/>
<path d="M742 189.25L739.66 130.28L683.56 136.27L681.03 187.29L742 189.25Z" fill="#03B1B7"/>
<path d="M683.56 148.19L739.39 142.2" stroke="#006165" stroke-width="1.81" stroke-linecap="round" stroke-linejoin="round"/>
<path d="M700.26 154.69V162.45" stroke="#006165" stroke-width="1.81" stroke-linecap="round" stroke-linejoin="round"/>
<path d="M729.99 149.34V154.94" stroke="#006165" stroke-width="1.81" stroke-linecap="round" stroke-linejoin="round"/>
<path d="M718.98 162.34V167.94" stroke="#006165" stroke-width="1.81" stroke-linecap="round" stroke-linejoin="round"/>
<path d="M727.28 168.94V174.44" stroke="#006165" stroke-width="1.81" stroke-linecap="round" stroke-linejoin="round"/>
<path d="M692.31 170.85V174.65" stroke="#006165" stroke-width="1.81" stroke-linecap="round" stroke-linejoin="round"/>
<path d="M924.61 179L919.81 89.5L954.31 97.3V178L924.61 179Z" fill="#029FA5"/>
<path d="M928.81 104.5V109.3" stroke="#006165" stroke-width="0.97" stroke-linecap="round" stroke-linejoin="round"/>
<path d="M943.91 113.8V117.8" stroke="#006165" stroke-width="0.97" stroke-linecap="round" stroke-linejoin="round"/>
<path d="M938.41 123.7V128" stroke="#006165" stroke-width="0.97" stroke-linecap="round" stroke-linejoin="round"/>
<path d="M945.71 144.8V150.2" stroke="#006165" stroke-width="0.97" stroke-linecap="round" stroke-linejoin="round"/>
<path d="M933.21 155.5V160.8" stroke="#006165" stroke-width="0.97" stroke-linecap="round" stroke-linejoin="round"/>
<path d="M941.21 163.2V166.6" stroke="#006165" stroke-width="0.97" stroke-linecap="round" stroke-linejoin="round"/>
<path d="M881.31 176.3L875.71 137.7L891.91 136.4V112.8L916.91 118.2L918.41 144.7L929.31 146.5L927.91 174.9L881.31 176.3Z" fill="#03B1B7"/>
<path d="M898.61 121.6V126.4" stroke="#006165" stroke-width="0.97" stroke-linecap="round" stroke-linejoin="round"/>
<path d="M885.21 144.1V148.4" stroke="#006165" stroke-width="0.97" stroke-linecap="round" stroke-linejoin="round"/>
<path d="M919.61 157.3V162.6" stroke="#006165" stroke-width="0.97" stroke-linecap="round" stroke-linejoin="round"/>
<path d="M901.61 154.8V158.8" stroke="#006165" stroke-width="0.97" stroke-linecap="round" stroke-linejoin="round"/>
<path d="M895.51 162.6V166.6" stroke="#006165" stroke-width="0.97" stroke-linecap="round" stroke-linejoin="round"/>
<path d="M910.11 134.6V140.8" stroke="#006165" stroke-width="0.97" stroke-linecap="round" stroke-linejoin="round"/>
<path d="M993.71 177.67L995.37 132.01H970.67L966.43 177.08L993.71 177.66V177.67Z" fill="#088D91"/>
<path d="M982.17 144.81V148.21" stroke="#006165" stroke-width="0.97" stroke-linecap="round" stroke-linejoin="round"/>
<path d="M985.97 153.71V157.81" stroke="#006165" stroke-width="0.97" stroke-linecap="round" stroke-linejoin="round"/>
<path d="M989.47 136.81V139.61" stroke="#006165" stroke-width="0.97" stroke-linecap="round" stroke-linejoin="round"/>
<path d="M976.27 137.51V141.71" stroke="#006165" stroke-width="0.97" stroke-linecap="round" stroke-linejoin="round"/>
<path d="M975.07 163.21V169.31" stroke="#006165" stroke-width="0.97" stroke-linecap="round" stroke-linejoin="round"/>
<path d="M213.99 154.23L215.29 121.53L237.49 125.53L240.39 153.83C228.89 153.93 222.29 154.13 213.99 154.23Z" fill="#088D91"/>
<path d="M219.69 145.43V149.53" stroke="#006165" stroke-width="0.97" stroke-linecap="round" stroke-linejoin="round"/>
<path d="M231.19 129.53V133.73" stroke="#006165" stroke-width="0.97" stroke-linecap="round" stroke-linejoin="round"/>
<path d="M177.28 155.85L177.88 109.8L202.37 111.37L205.27 155.65C194.47 155.65 187.17 155.65 177.27 155.85H177.28Z" fill="#088D91"/>
<path d="M187.98 115.55V118.85" stroke="#006165" stroke-width="0.97" stroke-linecap="round" stroke-linejoin="round"/>
<path d="M185.28 140.65V144.65" stroke="#006165" stroke-width="0.97" stroke-linecap="round" stroke-linejoin="round"/>
<path d="M197.88 132.45V136.75" stroke="#006165" stroke-width="0.97" stroke-linecap="round" stroke-linejoin="round"/>
<path d="M285.42 155.24L288.19 130.7L305.49 130.75L306.19 156.35L285.43 155.24H285.42Z" fill="#088D91"/>
<path d="M295.79 134.65V137.15" stroke="#006165" stroke-width="0.75" stroke-linecap="round" stroke-linejoin="round"/>
<path d="M291.89 148.75V151.85" stroke="#006165" stroke-width="0.75" stroke-linecap="round" stroke-linejoin="round"/>
<path d="M298.89 141.55V144.85" stroke="#006165" stroke-width="0.75" stroke-linecap="round" stroke-linejoin="round"/>
<path d="M-0.0200195 155.4C-0.0200195 155.4 253.52 139.25 459.67 170.1C727.98 210.25 840.33 159.62 1024.01 176.52V388.34H-1.95317e-05L-0.0200195 155.4Z" fill="#09D198"/>
<path d="M709.29 248.87L708.64 256.34H725.77L727.88 247.89L722.93 252.11L722.03 247.89L718.3 252.11L716.59 245.46L713.18 250.9L709.29 248.87Z" fill="#00996A"/>
<path d="M567.68 204.76L566.61 212.45H560.05V204.76L563.91 208.44L567.68 204.76Z" fill="#00996A"/>
<path d="M825.59 206.44L827.02 215.61H838.21L839.38 208.39L834.5 211.58L833.52 206.44L829.81 212.55L825.59 206.44Z" fill="#00996A"/>
<path d="M917.24 207.28H927.6L928.72 199.68L924.52 202.44L922.36 196.28L918.88 204L915.88 201L917.24 207.28Z" fill="#00996A"/>
<path d="M971.38 227.69V221.8L975.55 224.27L976.98 219.19L978.42 223.62L981.81 220.36L981.02 227.69H971.38Z" fill="#00996A"/>
<path d="M348.11 208.19L346.62 203.54L345.07 206.07L341.6 201.42L340.47 206.02L337.98 204.52L338.24 208.19H348.11Z" fill="#00996A"/>
<path d="M201.67 174.77H186.04V170.3L188.27 172.53L188.85 170.3L191.73 172.32L191.94 169.9L194.11 173.14L194.48 170.64L196.04 172.47L196.35 169.08L199.16 173.21L199.59 171.43L201.67 174.77Z" fill="#00996A"/>
<path d="M0 206.29C0 206.29 13.08 200.76 87.35 195.42C161.62 190.08 247.98 198.73 287.64 220.87C320.81 239.39 247.06 281.24 343.06 292.15C505.08 310.56 924.99 283.44 1023.99 325V576.05L0 576V206.29Z" fill="#EFD0B3"/>
<path d="M301.47 183.31L303.61 200.68M303.04 183.31L304.66 200.68M304.66 183.26L305.59 200.66M309.88 183.43L309.02 200.66M311.67 183.72L310.03 200.66M313.63 183.72L311.06 200.66M300.48 185.72L306.06 183.72M300.67 187.03L309.89 183.72M300.86 188.34L313.97 183.62M301.08 189.62L315.12 184.57M301.28 190.96L314.84 186.1M301.47 192.25L314.53 187.56M314.24 189.04L301.66 193.57M301.85 194.86L313.93 190.52M313.64 192L302.04 196.17M302.25 197.48L313.35 193.48M302.44 198.77L313.07 194.96M302.63 200.11L312.78 196.46M304.68 200.68L312.47 197.92M308.59 200.68L312.19 199.39M311.91 200.66H302.71L299.97 182.22L315.48 182.79L311.91 200.66Z" stroke="#1A5A4A" stroke-width="0.25" stroke-linecap="round" stroke-linejoin="round"/>
<path d="M306.19 183.86L306.62 200.66H308.12L308.28 183.93L306.19 183.86Z" fill="#1A5A4A"/>
<path d="M301.37 191.87L313.69 191.7L314.07 189.7L301.14 190.15L301.37 191.87Z" fill="#1A5A4A"/>
<path d="M300.18 183.86L315.12 184.38L315.46 182.79L299.94 182.21L300.18 183.86Z" fill="#1A5A4A"/>
<path d="M241.81 193.18L249.25 192.49L256.04 192.66L260.03 191.97L292.55 192.88L291.15 193.52L294.03 193.6V194.83L286.84 195.49L285.81 195.96L284.33 196.65H281.82L251.78 195.74H249.27L251.61 194.68L241.81 194.41V193.18Z" fill="#00996A"/>
<path d="M288.59 193.55C286.79 186.56 289.21 171.61 289.21 171.61H293.2C293.2 171.61 290.79 185.89 292.58 192.88L291.1 193.54H288.59V193.55Z" fill="#4A4A53"/>
<path d="M291.89 171.61H289.18C289.18 171.61 286.77 186.58 288.56 193.55H291.07C291.07 193.55 290.48 188.77 290.68 182.5C290.78 179.18 291.39 174.7 291.89 171.62V171.61Z" fill="#5A5A63"/>
<path d="M288.59 193.55C287.78 188.58 286.82 187.07 285.41 187.07C285.41 187.07 287.11 185.79 289.08 187C291.07 188.23 291.07 193.55 291.07 193.55H288.58H288.59Z" fill="#5A5A63"/>
<path d="M284.33 196.65H282.9V190.72L280.12 186.49V183.51L287.14 183.66L290.66 183.34L291.08 193.58C290.27 188.61 289.31 187.1 287.9 187.1C287.11 187.1 286 188.01 285.86 190.37C285.76 191.92 285.79 195.96 285.79 195.96L284.34 196.65" fill="#4A4A53"/>
<path d="M284.33 196.65H281.82L281.65 192.39C281.65 190.86 281.21 190.25 280.91 189.78L279.61 187.66C279.31 187.17 279.12 186.6 279.09 186.04L278.89 183.48H281.4L281.55 185.87C281.6 186.46 281.77 187.03 282.07 187.52L283.4 189.69C283.7 190.16 284.14 190.67 284.14 192.28L284.34 196.66L284.33 196.65Z" fill="#5A5A63"/>
<path d="M256.04 192.66C254.24 185.67 256.66 170.72 256.66 170.72H260.65C260.65 170.72 258.24 185 260.03 191.99L258.55 192.65H256.04V192.66Z" fill="#4A4A53"/>
<path d="M259.37 170.7H256.66C256.66 170.7 254.25 185.67 256.04 192.64H258.55C258.55 192.64 257.96 187.86 258.16 181.59C258.26 178.27 258.85 173.79 259.37 170.71V170.7Z" fill="#5A5A63"/>
<path d="M256.04 192.66C255.23 187.69 254.27 186.18 252.86 186.18C252.86 186.18 254.56 184.9 256.53 186.11C258.52 187.34 258.52 192.66 258.52 192.66H256.03H256.04Z" fill="#5A5A63"/>
<path d="M251.78 195.74H250.35V189.81L247.57 185.58V182.6L254.59 182.75L258.11 182.43L258.53 192.67C257.72 187.7 256.76 186.19 255.35 186.19C254.56 186.19 253.45 187.1 253.31 189.46C253.21 191.01 253.21 192.71 253.26 195.05L251.78 195.74Z" fill="#4A4A53"/>
<path d="M251.78 195.74H249.27L249.1 191.48C249.1 189.95 248.66 189.34 248.36 188.87L247.06 186.75C246.76 186.26 246.57 185.69 246.54 185.13L246.34 182.57H248.85L249 184.96C249.05 185.55 249.22 186.12 249.52 186.61L250.85 188.78C251.15 189.25 251.59 189.76 251.59 191.37L251.79 195.75L251.78 195.74Z" fill="#5A5A63"/>
<path d="M241.81 181.43L285.96 182.59L294.03 181.85L249.25 180.74L241.81 181.43Z" fill="#CCCCCC"/>
<path d="M285.96 183.82V182.59L294.03 181.85V183.08L285.96 183.82Z" fill="#B3B3B3"/>
<path d="M241.81 182.67V181.43L285.96 182.59V183.82L241.81 182.67Z" fill="#E6E6E6"/>
<path d="M247.28 180.94L292.06 182.03V183.26" stroke="#999999" stroke-width="0.13" stroke-miterlimit="10"/>
<path d="M244.13 181.21L288.91 182.32V183.55" stroke="#999999" stroke-width="0.13" stroke-miterlimit="10"/>
<path d="M252.47 177.1L294.38 178.21L295.41 169.07L253.51 167.99L252.47 177.1Z" fill="#CCCCCC"/>
<path d="M295.68 178.01L294.38 178.21L295.41 169.07L296.69 168.9L295.68 178.01Z" fill="#B3B3B3"/>
<path d="M296.69 168.9L254.79 167.72L253.51 167.99L295.41 169.07L296.69 168.9Z" fill="#F2F2F2"/>
<path d="M296.37 171.93L295.07 172.2L253.16 171.02" stroke="#999999" stroke-width="0.26" stroke-miterlimit="10"/>
<path d="M296 175.11L294.7 175.38L252.79 174.17" stroke="#999999" stroke-width="0.26" stroke-miterlimit="10"/>
<path d="M173.62 237.56L100.99 177.42V170.64L173.62 230.77" fill="#C62403"/>
<path d="M214.61 230.76H173.62V237.55H214.61V230.76Z" fill="#C45641"/>
<path d="M100.99 170.64H141.42L214.62 230.77H173.62L100.99 170.64Z" fill="#AD100D"/>
<path d="M208.49 222.37H203.45V225.36H208.49V222.37Z" fill="#F5856F"/>
<path d="M189.67 205.74H184.44V208.73H189.67V205.74Z" fill="#F5856F"/>
<path d="M172.35 190.43H168.5V193.42H172.35V190.43Z" fill="#F5856F"/>
<path d="M154.98 175.12H151.13V178.11H154.98V175.12Z" fill="#F5856F"/>
<path d="M214.61 237.54L146.55 177.42V170.64L214.61 230.75" fill="#DC2C09"/>
<path d="M146.55 243.83L141.41 245.16L141.42 170.64H146.55V243.83Z" fill="#DD6C39"/>
<path d="M141.41 170.69H133.04V245.16H141.41V170.69Z" fill="#F67E48"/>
<path d="M114.6 243.83L109.47 245.16L109.48 170.64H114.6V243.83Z" fill="#DD6C39"/>
<path d="M109.47 170.69H101.1V245.16H109.47V170.69Z" fill="#F67E48"/>
<path d="M141.99 170.64H100.99L32.74 241.84H73.74L141.99 170.64Z" fill="#F04E4A"/>
<path d="M73.18 241.84H32.18V248.63H73.18V241.84Z" fill="#F5856F"/>
<path d="M73.18 248.63L141.42 177.42V170.64L73.18 241.84" fill="#DC2C09"/>
<path d="M146.54 170.64H141.42V177.42H146.54V170.64Z" fill="#C62404"/>
<path d="M146.54 167.28H141.42V170.64H146.54V167.28Z" fill="#E7715B"/>
<path d="M100.99 170.64V167.28H141.42L141.43 170.64" fill="#F5856F"/>
<path d="M83.25 228.34H42.25V231.33H83.25V228.34Z" fill="#F5856F"/>
<path d="M83.25 228.34L85.16 226.34V229.33L83.25 231.33V228.34Z" fill="#E7715B"/>
<path d="M85.16 226.34H44.16L42.25 228.33H83.25L85.16 226.34Z" fill="#F79B89"/>
<path d="M99.19 211.71H58.19V214.7H99.19V211.71Z" fill="#F5856F"/>
<path d="M99.19 211.71L101.1 209.71V212.7L99.19 214.69V211.71Z" fill="#E7715B"/>
<path d="M101.1 209.71H60.1L58.19 211.7L99.19 211.69L101.1 209.71Z" fill="#F79B89"/>
<path d="M113.84 196.41H72.84V199.4H113.84V196.41Z" fill="#F5856F"/>
<path d="M113.84 196.41L115.75 194.41V197.4L113.84 199.4V196.41Z" fill="#E7715B"/>
<path d="M115.75 194.41H74.76L72.84 196.4L113.84 196.39L115.75 194.41Z" fill="#F79B89"/>
<path d="M129.01 180.61H88.01V183.6H129.01V180.61Z" fill="#F5856F"/>
<path d="M129 180.61L130.92 178.61V181.6L129.01 183.59L129 180.61Z" fill="#E7715B"/>
<path d="M130.92 178.61H89.92L88.01 180.59H129.01L130.92 178.61Z" fill="#F79B89"/>
<path d="M254.62 263.8V366.27C254.62 366.9 256.69 367.41 259.25 367.41C261.81 367.41 263.88 366.9 263.88 366.27V263.8H254.62Z" fill="#106F50"/>
<path d="M263.89 263.8C263.89 264.43 261.82 264.96 259.26 264.96C256.7 264.96 254.63 264.43 254.63 263.8C254.63 263.17 256.7 262.68 259.26 262.68C261.82 262.68 263.89 263.17 263.89 263.8Z" fill="#1F9F75"/>
<path d="M276.12 333.67L266.76 333.45L254.5 328.54H263.82L276.12 333.67Z" fill="#07593E"/>
<path d="M277.69 321.06H268.43V329.7H277.69V321.06Z" fill="#1F9F75"/>
<path d="M268.43 329.7L254.62 323.83V315.19L268.43 321.06V329.7Z" fill="#267C60"/>
<path d="M268.43 321.09L254.62 315.19H263.88L277.69 321.06L268.43 321.09Z" fill="#48B08E"/>
<path d="M275.38 310.55C272.91 310.55 271.1 312.26 270.9 314.72C270.75 316.57 271.25 317.88 272.26 318.77H262.99C260.16 317.62 260.79 314.4 260.79 314.4C262 310.22 266.11 310.56 266.11 310.56H275.38V310.55Z" fill="#1E6850"/>
<path d="M266.12 310.56L254.62 305.67V315.2L263 318.78C261.99 317.9 261.5 316.58 261.64 314.73C261.84 312.27 263.65 310.56 266.12 310.56Z" fill="#07593E"/>
<path d="M268.43 302.94L254.62 297.05H263.88L277.69 302.92L268.43 302.94Z" fill="#48B08E"/>
<path d="M275.38 292.4C272.91 292.4 271.1 294.11 270.9 296.57C270.75 298.42 271.25 299.73 272.26 300.62H262.99C260.16 299.47 260.79 296.25 260.79 296.25C262 292.07 266.11 292.41 266.11 292.41H275.38V292.4Z" fill="#1E6850"/>
<path d="M266.12 292.41L254.62 287.52V297.05L263 300.63C261.99 299.75 261.5 298.43 261.64 296.58C261.84 294.12 263.65 292.41 266.12 292.41Z" fill="#07593E"/>
<path d="M277.69 284.75H268.43V293.39H277.69V284.75Z" fill="#1F9F75"/>
<path d="M268.43 293.39L254.62 287.52V278.88L268.43 284.75V293.39Z" fill="#267C60"/>
<path d="M268.43 284.78L254.62 278.88H263.88L277.69 284.75L268.43 284.78Z" fill="#48B08E"/>
<path d="M81.08 277.51V379.98C81.08 380.61 83.15 381.12 85.71 381.12C88.27 381.12 90.34 380.61 90.34 379.98V277.51H81.08Z" fill="#106F50"/>
<path d="M90.34 277.51C90.34 278.14 88.27 278.67 85.71 278.67C83.15 278.67 81.08 278.14 81.08 277.51C81.08 276.88 83.15 276.39 85.71 276.39C88.27 276.39 90.34 276.88 90.34 277.51Z" fill="#1F9F75"/>
<path d="M102.58 347.38L93.21 347.16L80.96 342.24H90.28L102.58 347.38Z" fill="#07593E"/>
<path d="M104.14 334.77H94.88V343.41H104.14V334.77Z" fill="#1F9F75"/>
<path d="M94.88 343.41L81.08 337.54V328.89L94.88 334.76V343.41Z" fill="#267C60"/>
<path d="M94.88 334.79L81.08 328.89L90.34 328.9L104.15 334.77L94.88 334.79Z" fill="#48B08E"/>
<path d="M101.84 324.25C99.37 324.25 97.56 325.96 97.36 328.42C97.21 330.27 97.71 331.58 98.72 332.47H89.45C86.62 331.32 87.25 328.1 87.25 328.1C88.46 323.92 92.57 324.26 92.57 324.26H101.84V324.25Z" fill="#1E6850"/>
<path d="M92.58 324.26L81.08 319.37V328.9L89.46 332.48C88.45 331.6 87.96 330.28 88.1 328.43C88.3 325.97 90.11 324.26 92.58 324.26Z" fill="#07593E"/>
<path d="M285.26 310.84L80.45 325.6V334.18L285.26 319.42C287.64 319.42 289.72 317.51 289.72 315.13C289.72 312.75 287.64 310.84 285.26 310.84Z" fill="#48B08E"/>
<path d="M268.43 311.56L254.62 305.69V297.05L268.43 302.92V311.56Z" fill="#267C60"/>
<path d="M277.69 302.92H268.43V311.56H277.69V302.92Z" fill="#1F9F75"/>
<path d="M80.45 334.2C82.8248 334.2 84.75 332.275 84.75 329.9C84.75 327.525 82.8248 325.6 80.45 325.6C78.0752 325.6 76.15 327.525 76.15 329.9C76.15 332.275 78.0752 334.2 80.45 334.2Z" fill="#8BCDB7"/>
<path d="M104.14 316.62H94.88V325.26H104.14V316.62Z" fill="#1F9F75"/>
<path d="M94.88 325.27L81.08 319.4V310.75L94.88 316.62V325.27Z" fill="#267C60"/>
<path d="M94.88 316.65L81.08 310.75H90.34L104.15 316.62L94.88 316.65Z" fill="#48B08E"/>
<path d="M101.84 306.11C99.37 306.11 97.56 307.82 97.36 310.28C97.21 312.13 97.71 313.44 98.72 314.33H89.45C86.62 313.18 87.25 309.96 87.25 309.96C88.46 305.78 92.57 306.12 92.57 306.12H101.84V306.11Z" fill="#1E6850"/>
<path d="M92.58 306.12L81.08 301.23V310.76L89.46 314.34C88.45 313.46 87.96 312.14 88.1 310.29C88.3 307.83 90.11 306.12 92.58 306.12Z" fill="#07593E"/>
<path d="M104.14 298.46H94.88V307.1H104.14V298.46Z" fill="#1F9F75"/>
<path d="M94.88 307.1L81.08 301.23V292.58L94.88 298.46V307.1Z" fill="#267C60"/>
<path d="M94.88 298.48L81.08 292.58L90.34 292.59L104.15 298.46L94.88 298.48Z" fill="#48B08E"/>
<path d="M105.86 340.61V299.76C105.86 299.76 106.02 292.96 101.51 291.9L90.28 287.22H80.96L93.22 292.12C93.22 292.12 96.53 292.83 96.53 299.76V340.5C96.53 346.33 93.21 347.15 93.21 347.15L102.58 347.37C106.01 346.67 105.86 340.6 105.86 340.6V340.61Z" fill="#207B5D"/>
<path d="M279.4 326.9V286.05C279.4 286.05 279.56 279.25 275.05 278.19L263.82 273.51H254.5L266.76 278.41C266.76 278.41 270.07 279.12 270.07 286.05V326.79C270.07 332.62 266.75 333.44 266.75 333.44L276.12 333.66C279.55 332.96 279.4 326.89 279.4 326.89V326.9Z" fill="#207B5D"/>
<path d="M892.44 385.74L756.4 385.81L749.94 385.69L750.44 295.52C751 274.32 777.22 257.2 796.8 257.42C796.8 257.42 859.98 261.38 892.44 298.94V385.74Z" fill="#07593E"/>
<path d="M993.16 397.67L857.12 397.74L851.52 397.77L852.8 290.13C843.11 269.49 826.18 255.87 800.69 250.53L936.65 250.48C967.82 250.48 993.17 272.77 993.17 298.96V397.66L993.16 397.67Z" fill="#106F50"/>
<path d="M844.97 397.71V299.42C844.97 277.87 826.99 262.54 800.68 262.54C774.4 262.54 756.39 277.87 756.39 299.42V385.81L744.24 385.72V299.04C744.24 272.85 769.51 250.54 800.68 250.54C831.85 250.54 857.12 272.85 857.12 299.04V397.74L844.97 397.71Z" fill="#1F9F75"/>
<path d="M878.27 421.93C877.97 418.55 874.4 416.42 871 416.93C866.68 417.58 865.04 421.53 864.83 423.29L826.39 418.14C826.75 415.29 825.24 410.25 821.04 409.63C817.35 409.09 814.14 410.71 813.61 413.98C813.16 416.76 815.02 417.93 814.64 420.01C814.26 422.09 812.31 423.3 812.4 426.29C812.5 429.59 815.66 431.39 819.16 431.48C821.62 431.55 824.07 429.2 825.14 426.63L863.8 431.89C864.06 435.89 866.8 438.54 870.16 438.97C873.52 439.4 875.93 437.73 876.63 434.49C877.17 432.01 875.18 429.64 875.64 428.08C876.24 426.25 878.61 425.75 878.28 421.93H878.27Z" fill="white"/>
</g>
<defs>
<linearGradient id="paint0_linear_36_13512" x1="512" y1="150.34" x2="512" y2="47.12" gradientUnits="userSpaceOnUse">
<stop stop-color="#FFF3AB"/>
<stop offset="0.48" stop-color="#FFF29B"/>
<stop offset="0.51" stop-color="#FFF198"/>
<stop offset="0.78" stop-color="#FFF089"/>
<stop offset="1" stop-color="#FFF084"/>
</linearGradient>
<clipPath id="clip0_36_13512">
<rect width="1024" height="576" fill="white"/>
</clipPath>
</defs>
</svg>
