<svg width="80" height="82" viewBox="0 0 80 82" fill="none" xmlns="http://www.w3.org/2000/svg">
<ellipse cx="40" cy="62" rx="35" ry="20" fill="#D7E19B"/>
<ellipse cx="40" cy="59" rx="35" ry="20" fill="#872CDE"/>
<ellipse cx="40" cy="39" rx="35" ry="34" fill="#B272EF"/>
<path fill-rule="evenodd" clip-rule="evenodd" d="M37.7439 45.5772C38.3633 45.5051 38.9882 45.5051 39.6069 45.5772C47.2192 46.4615 53.4749 48.177 58.0436 49.7554C64.8358 46.3832 60.87 41.5165 60.87 41.5165C59.0625 39.7143 56.661 39.4456 54.3334 39.8318C57.1248 36.1329 53.9853 33.5163 53.9853 33.5163C50.8143 32.7187 48.5361 34.4712 46.9308 36.9165C47.3631 21.7261 39.7398 22.0003 39.7398 22.0003C32.8887 22.6363 32.5057 34.1669 32.7442 39.9046C31.0792 35.3129 28.0651 30.3532 23.1195 32.6676C23.1195 32.6676 19.7292 36.0069 23.1442 40.0935C17.0372 41.0625 19.3839 48.3316 19.7313 49.3174C24.5426 47.8678 30.8339 46.3797 37.7439 45.5772" fill="white"/>
</svg>
