<svg width="208" height="75" viewBox="0 0 218 85" fill="none" xmlns="http://www.w3.org/2000/svg">
<path d="M41.6075 85C18.2616 85 0 68.5965 0 46.165C0 23.4302 18.6283 5 41.6075 5C64.6946 5 84 23.5312 84 46.165C84 68.5127 65.0816 85 41.6075 85Z" fill="#EC7000"/>
<rect x="30" y="8" width="188" height="71" rx="35.5" fill="#EC7000"/>
<path fill-rule="evenodd" clip-rule="evenodd" d="M38.368 50.32C38.9227 50.32 39.3866 50.5067 39.76 50.88C40.1333 51.2534 40.32 51.6854 40.32 52.176C40.32 52.7094 40.1333 53.1467 39.76 53.488C39.3866 53.8294 38.9227 54 38.368 54H27.648C27.0933 54 26.6293 53.8134 26.256 53.44C25.8826 53.0667 25.696 52.6027 25.696 52.048V33.552C25.696 32.9974 25.8826 32.5334 26.256 32.16C26.6293 31.7867 27.0933 31.6 27.648 31.6H38.368C38.9227 31.6 39.3866 31.776 39.76 32.128C40.1333 32.48 40.32 32.9334 40.32 33.488C40.32 34.0214 40.1387 34.4534 39.776 34.784C39.4133 35.1147 38.944 35.28 38.368 35.28H29.696V40.72H36.928C37.4827 40.72 37.9466 40.896 38.32 41.248C38.6933 41.6 38.88 42.0534 38.88 42.608C38.88 43.1414 38.6987 43.5734 38.336 43.904C37.9733 44.2347 37.504 44.4 36.928 44.4H29.696V50.32H38.368ZM51.2 54.32C49.664 54.32 48.2987 54.128 47.104 53.744C45.9093 53.36 44.7893 52.7094 43.744 51.792C43.168 51.28 42.88 50.7147 42.88 50.096C42.88 49.6054 43.0613 49.1734 43.424 48.8C43.7867 48.4267 44.224 48.24 44.736 48.24C45.1413 48.24 45.504 48.368 45.824 48.624C46.6773 49.328 47.5093 49.84 48.32 50.16C49.1307 50.48 50.0906 50.64 51.2 50.64C52.3947 50.64 53.424 50.3734 54.288 49.84C55.152 49.3067 55.584 48.6454 55.584 47.856C55.584 46.896 55.1573 46.144 54.304 45.6C53.4506 45.056 52.096 44.6454 50.24 44.368C45.568 43.6854 43.232 41.5094 43.232 37.84C43.232 36.496 43.584 35.328 44.288 34.336C44.992 33.344 45.952 32.5867 47.168 32.064C48.384 31.5414 49.7386 31.28 51.232 31.28C52.576 31.28 53.84 31.4827 55.024 31.888C56.208 32.2934 57.1946 32.8267 57.984 33.488C58.6027 33.9787 58.912 34.544 58.912 35.184C58.912 35.6747 58.7307 36.1067 58.368 36.48C58.0053 36.8534 57.5787 37.04 57.088 37.04C56.768 37.04 56.48 36.944 56.224 36.752C55.6693 36.304 54.896 35.8934 53.904 35.52C52.912 35.1467 52.0213 34.96 51.232 34.96C49.888 34.96 48.848 35.2107 48.112 35.712C47.376 36.2134 47.008 36.8694 47.008 37.68C47.008 38.5974 47.3866 39.2907 48.144 39.76C48.9013 40.2294 50.0906 40.6134 51.712 40.912C53.5467 41.232 55.0133 41.6427 56.112 42.144C57.2107 42.6454 58.0373 43.328 58.592 44.192C59.1467 45.056 59.424 46.2027 59.424 47.632C59.424 48.976 59.0453 50.1547 58.288 51.168C57.5306 52.1814 56.5227 52.96 55.264 53.504C54.0053 54.048 52.6507 54.32 51.2 54.32Z" fill="#EF705E"/>
<path fill-rule="evenodd" clip-rule="evenodd" d="M38.368 48.32C38.9227 48.32 39.3866 48.5067 39.76 48.88C40.1333 49.2534 40.32 49.6854 40.32 50.176C40.32 50.7094 40.1333 51.1467 39.76 51.488C39.3866 51.8294 38.9227 52 38.368 52H27.648C27.0933 52 26.6293 51.8134 26.256 51.44C25.8826 51.0667 25.696 50.6027 25.696 50.048V31.552C25.696 30.9974 25.8826 30.5334 26.256 30.16C26.6293 29.7867 27.0933 29.6 27.648 29.6H38.368C38.9227 29.6 39.3866 29.776 39.76 30.128C40.1333 30.48 40.32 30.9334 40.32 31.488C40.32 32.0214 40.1387 32.4534 39.776 32.784C39.4133 33.1147 38.944 33.28 38.368 33.28H29.696V38.72H36.928C37.4827 38.72 37.9466 38.896 38.32 39.248C38.6933 39.6 38.88 40.0534 38.88 40.608C38.88 41.1414 38.6987 41.5734 38.336 41.904C37.9733 42.2347 37.504 42.4 36.928 42.4H29.696V48.32H38.368ZM51.2 52.32C49.664 52.32 48.2987 52.128 47.104 51.744C45.9093 51.36 44.7893 50.7094 43.744 49.792C43.168 49.28 42.88 48.7147 42.88 48.096C42.88 47.6054 43.0613 47.1734 43.424 46.8C43.7867 46.4267 44.224 46.24 44.736 46.24C45.1413 46.24 45.504 46.368 45.824 46.624C46.6773 47.328 47.5093 47.84 48.32 48.16C49.1307 48.48 50.0906 48.64 51.2 48.64C52.3947 48.64 53.424 48.3734 54.288 47.84C55.152 47.3067 55.584 46.6454 55.584 45.856C55.584 44.896 55.1573 44.144 54.304 43.6C53.4506 43.056 52.096 42.6454 50.24 42.368C45.568 41.6854 43.232 39.5094 43.232 35.84C43.232 34.496 43.584 33.328 44.288 32.336C44.992 31.344 45.952 30.5867 47.168 30.064C48.384 29.5414 49.7386 29.28 51.232 29.28C52.576 29.28 53.84 29.4827 55.024 29.888C56.208 30.2934 57.1946 30.8267 57.984 31.488C58.6027 31.9787 58.912 32.544 58.912 33.184C58.912 33.6747 58.7307 34.1067 58.368 34.48C58.0053 34.8534 57.5787 35.04 57.088 35.04C56.768 35.04 56.48 34.944 56.224 34.752C55.6693 34.304 54.896 33.8934 53.904 33.52C52.912 33.1467 52.0213 32.96 51.232 32.96C49.888 32.96 48.848 33.2107 48.112 33.712C47.376 34.2134 47.008 34.8694 47.008 35.68C47.008 36.5974 47.3866 37.2907 48.144 37.76C48.9013 38.2294 50.0906 38.6134 51.712 38.912C53.5467 39.232 55.0133 39.6427 56.112 40.144C57.2107 40.6454 58.0373 41.328 58.592 42.192C59.1467 43.056 59.424 44.2027 59.424 45.632C59.424 46.976 59.0453 48.1547 58.288 49.168C57.5306 50.1814 56.5227 50.96 55.264 51.504C54.0053 52.048 52.6507 52.32 51.2 52.32Z" fill="white"/>
<path d="M103.85 55.32C102.357 55.32 101.013 55.1387 99.818 54.776C98.6233 54.392 97.482 53.7307 96.394 52.792C96.1167 52.5573 95.9033 52.2907 95.754 51.992C95.6047 51.6933 95.53 51.3947 95.53 51.096C95.53 50.6053 95.7007 50.1787 96.042 49.816C96.4047 49.432 96.8527 49.24 97.386 49.24C97.7913 49.24 98.154 49.368 98.474 49.624C99.2847 50.2853 100.085 50.7867 100.874 51.128C101.685 51.4693 102.677 51.64 103.85 51.64C104.639 51.64 105.365 51.5227 106.026 51.288C106.687 51.032 107.221 50.7013 107.626 50.296C108.031 49.8693 108.234 49.3893 108.234 48.856C108.234 48.216 108.042 47.672 107.658 47.224C107.274 46.776 106.687 46.4027 105.898 46.104C105.109 45.784 104.106 45.5387 102.89 45.368C101.738 45.1973 100.725 44.9413 99.85 44.6C98.9753 44.2373 98.2393 43.7893 97.642 43.256C97.066 42.7013 96.6287 42.0613 96.33 41.336C96.0313 40.5893 95.882 39.7573 95.882 38.84C95.882 37.4533 96.234 36.2693 96.938 35.288C97.6633 34.3067 98.634 33.56 99.85 33.048C101.066 32.536 102.41 32.28 103.882 32.28C105.269 32.28 106.549 32.4933 107.722 32.92C108.917 33.3253 109.887 33.848 110.634 34.488C111.253 34.9787 111.562 35.544 111.562 36.184C111.562 36.6533 111.381 37.08 111.018 37.464C110.655 37.848 110.229 38.04 109.738 38.04C109.418 38.04 109.13 37.944 108.874 37.752C108.533 37.4533 108.074 37.176 107.498 36.92C106.922 36.6427 106.314 36.4187 105.674 36.248C105.034 36.056 104.437 35.96 103.882 35.96C102.965 35.96 102.186 36.0773 101.546 36.312C100.927 36.5467 100.458 36.8667 100.138 37.272C99.818 37.6773 99.658 38.1467 99.658 38.68C99.658 39.32 99.8393 39.8533 100.202 40.28C100.586 40.6853 101.13 41.016 101.834 41.272C102.538 41.5067 103.381 41.72 104.362 41.912C105.642 42.1467 106.762 42.424 107.722 42.744C108.703 43.064 109.514 43.48 110.154 43.992C110.794 44.4827 111.274 45.112 111.594 45.88C111.914 46.6267 112.074 47.544 112.074 48.632C112.074 50.0187 111.69 51.2133 110.922 52.216C110.154 53.2187 109.141 53.9867 107.882 54.52C106.645 55.0533 105.301 55.32 103.85 55.32ZM124.416 37.56C125.952 37.56 127.114 37.8907 127.904 38.552C128.714 39.2133 129.269 40.0987 129.568 41.208C129.866 42.296 130.016 43.512 130.016 44.856V53.048C130.016 53.6027 129.834 54.072 129.472 54.456C129.109 54.8187 128.65 55 128.096 55C127.541 55 127.082 54.8187 126.72 54.456C126.357 54.072 126.176 53.6027 126.176 53.048V44.856C126.176 44.152 126.09 43.5227 125.92 42.968C125.749 42.392 125.44 41.9333 124.992 41.592C124.544 41.2507 123.904 41.08 123.072 41.08C122.261 41.08 121.568 41.2507 120.992 41.592C120.416 41.9333 119.978 42.392 119.68 42.968C119.402 43.5227 119.264 44.152 119.264 44.856V53.048C119.264 53.6027 119.082 54.072 118.72 54.456C118.357 54.8187 117.898 55 117.344 55C116.789 55 116.33 54.8187 115.968 54.456C115.605 54.072 115.424 53.6027 115.424 53.048V33.272C115.424 32.7173 115.605 32.2587 115.968 31.896C116.33 31.512 116.789 31.32 117.344 31.32C117.898 31.32 118.357 31.512 118.72 31.896C119.082 32.2587 119.264 32.7173 119.264 33.272V41.208L118.784 41.112C118.976 40.7493 119.242 40.3653 119.584 39.96C119.925 39.5333 120.341 39.1387 120.832 38.776C121.322 38.4133 121.866 38.1253 122.464 37.912C123.061 37.6773 123.712 37.56 124.416 37.56ZM148.03 37.56C148.584 37.56 149.043 37.7413 149.406 38.104C149.768 38.4667 149.95 38.936 149.95 39.512V53.048C149.95 53.6027 149.768 54.072 149.406 54.456C149.043 54.8187 148.584 55 148.03 55C147.475 55 147.016 54.8187 146.654 54.456C146.291 54.072 146.11 53.6027 146.11 53.048V51.48L146.814 51.768C146.814 52.0453 146.664 52.3867 146.366 52.792C146.067 53.176 145.662 53.56 145.15 53.944C144.638 54.328 144.03 54.6587 143.326 54.936C142.643 55.192 141.896 55.32 141.086 55.32C139.614 55.32 138.28 54.9467 137.086 54.2C135.891 53.432 134.942 52.3867 134.238 51.064C133.555 49.72 133.214 48.184 133.214 46.456C133.214 44.7067 133.555 43.1707 134.238 41.848C134.942 40.504 135.88 39.4587 137.054 38.712C138.227 37.944 139.528 37.56 140.958 37.56C141.875 37.56 142.718 37.6987 143.486 37.976C144.254 38.2533 144.915 38.6053 145.47 39.032C146.046 39.4587 146.483 39.896 146.782 40.344C147.102 40.7707 147.262 41.1333 147.262 41.432L146.11 41.848V39.512C146.11 38.9573 146.291 38.4987 146.654 38.136C147.016 37.752 147.475 37.56 148.03 37.56ZM141.566 51.8C142.504 51.8 143.326 51.5653 144.03 51.096C144.734 50.6267 145.278 49.9867 145.662 49.176C146.067 48.3653 146.27 47.4587 146.27 46.456C146.27 45.432 146.067 44.5147 145.662 43.704C145.278 42.8933 144.734 42.2533 144.03 41.784C143.326 41.3147 142.504 41.08 141.566 41.08C140.648 41.08 139.838 41.3147 139.134 41.784C138.43 42.2533 137.875 42.8933 137.47 43.704C137.086 44.5147 136.894 45.432 136.894 46.456C136.894 47.4587 137.086 48.3653 137.47 49.176C137.875 49.9867 138.43 50.6267 139.134 51.096C139.838 51.5653 140.648 51.8 141.566 51.8ZM156.031 55C155.477 55 155.018 54.8187 154.655 54.456C154.293 54.072 154.111 53.6027 154.111 53.048V39.832C154.111 39.2773 154.293 38.8187 154.655 38.456C155.018 38.072 155.477 37.88 156.031 37.88C156.586 37.88 157.045 38.072 157.407 38.456C157.77 38.8187 157.951 39.2773 157.951 39.832V42.84L157.727 40.696C157.962 40.184 158.261 39.736 158.623 39.352C159.007 38.9467 159.434 38.616 159.903 38.36C160.373 38.0827 160.874 37.88 161.407 37.752C161.941 37.624 162.474 37.56 163.007 37.56C163.647 37.56 164.181 37.7413 164.607 38.104C165.055 38.4667 165.279 38.8933 165.279 39.384C165.279 40.088 165.098 40.6 164.735 40.92C164.373 41.2187 163.978 41.368 163.551 41.368C163.146 41.368 162.773 41.2933 162.431 41.144C162.111 40.9947 161.738 40.92 161.311 40.92C160.927 40.92 160.533 41.016 160.127 41.208C159.743 41.3787 159.381 41.656 159.039 42.04C158.719 42.424 158.453 42.904 158.239 43.48C158.047 44.0347 157.951 44.696 157.951 45.464V53.048C157.951 53.6027 157.77 54.072 157.407 54.456C157.045 54.8187 156.586 55 156.031 55ZM175.172 55.32C173.358 55.32 171.78 54.9467 170.436 54.2C169.113 53.432 168.089 52.3973 167.364 51.096C166.66 49.7947 166.308 48.3227 166.308 46.68C166.308 44.76 166.692 43.128 167.46 41.784C168.249 40.4187 169.273 39.3733 170.532 38.648C171.79 37.9227 173.124 37.56 174.532 37.56C175.62 37.56 176.644 37.784 177.604 38.232C178.585 38.68 179.449 39.2987 180.196 40.088C180.942 40.856 181.529 41.752 181.956 42.776C182.404 43.8 182.628 44.888 182.628 46.04C182.606 46.552 182.404 46.968 182.02 47.288C181.636 47.608 181.188 47.768 180.676 47.768H168.452L167.492 44.568H179.236L178.532 45.208V44.344C178.489 43.7253 178.265 43.1707 177.86 42.68C177.476 42.1893 176.985 41.8053 176.388 41.528C175.812 41.2293 175.193 41.08 174.532 41.08C173.892 41.08 173.294 41.1653 172.74 41.336C172.185 41.5067 171.705 41.7947 171.3 42.2C170.894 42.6053 170.574 43.1493 170.34 43.832C170.105 44.5147 169.988 45.3787 169.988 46.424C169.988 47.576 170.222 48.5573 170.692 49.368C171.182 50.1573 171.801 50.7653 172.548 51.192C173.316 51.5973 174.126 51.8 174.98 51.8C175.769 51.8 176.398 51.736 176.868 51.608C177.337 51.48 177.71 51.3307 177.988 51.16C178.286 50.968 178.553 50.808 178.788 50.68C179.172 50.488 179.534 50.392 179.876 50.392C180.345 50.392 180.729 50.552 181.028 50.872C181.348 51.192 181.508 51.5653 181.508 51.992C181.508 52.568 181.209 53.0907 180.612 53.56C180.057 54.0293 179.278 54.4453 178.276 54.808C177.273 55.1493 176.238 55.32 175.172 55.32Z" fill="white"/>
<path d="M40.8947 82.8947C17.9322 82.8947 0 66.4837 0 44.2516C0 21.8364 16.142 3.54861 37.3197 2.30436C63.8453 0.74591 81.7895 18.7737 81.7895 43.1477C81.7895 65.5431 63.6579 82.8947 40.8947 82.8947Z" fill="#EBF6F5"/>
<path d="M40.8947 80.6842C17.9322 80.6842 0 64.2732 0 42.0411C0 19.6259 16.142 1.3381 37.3197 0.0938546C63.8453 -1.4646 81.7895 16.5631 81.7895 40.9372C81.7895 63.3326 63.6579 80.6842 40.8947 80.6842Z" fill="white"/>
<path fill-rule="evenodd" clip-rule="evenodd" d="M40.8948 76.2632C61.0386 76.2632 77.3684 61.0574 77.3684 40.9385C77.3684 20.8195 63.1663 3.00658 37.579 4.50985C18.7895 5.61375 4.42108 21.9234 4.42108 42.0424C4.42108 62.1613 20.7509 76.2632 40.8948 76.2632Z" fill="#008575"/>
<path fill-rule="evenodd" clip-rule="evenodd" d="M9.89471 59.4328C16.4992 66.9655 26.5076 71.4572 37.711 71.4572C57.5988 71.4572 73.7211 56.195 73.7211 36.0012C73.7211 28.5267 71.8 21.3692 68.099 15.3947C73.935 22.0774 76.9947 31.0055 76.9947 40.4387C76.9947 60.6325 60.8725 75.8947 40.9847 75.8947C27.7287 75.8947 16.1457 69.6064 9.89471 59.4328H9.89471Z" fill="#006256"/>
<path fill-rule="evenodd" clip-rule="evenodd" d="M12.6751 63.7947C7.50143 58.0221 4.39471 50.4431 4.39471 41.7256C4.39471 21.7619 18.7305 5.57818 37.4772 4.4828C53.5569 3.54326 65.1302 10.2077 71.4947 20.2585C64.7672 12.7224 54.389 8.07486 40.7855 8.86972C22.0387 9.9651 7.70297 26.1488 7.70297 46.1125C7.70297 52.7696 9.51469 58.7629 12.6751 63.7947Z" fill="#05B8A2"/>
<path fill-rule="evenodd" clip-rule="evenodd" d="M21.5896 15.6676C22.3533 16.3705 23.5915 16.3705 24.3552 15.6676C25.6856 14.443 27.2529 13.7217 29.1155 13.4768C30.1847 13.3362 30.9276 12.4244 30.7748 11.4403C30.6221 10.4563 29.6316 9.77245 28.5624 9.91303C25.8621 10.2681 23.5184 11.3467 21.5896 13.1221C20.826 13.825 20.826 14.9647 21.5896 15.6676ZM19.5502 19.7947C20.6302 19.7947 21.5058 18.9888 21.5058 17.9948C21.5058 17.0007 20.6302 16.1948 19.5502 16.1948C18.4702 16.1948 17.5947 17.0007 17.5947 17.9948C17.5947 18.9888 18.4702 19.7947 19.5502 19.7947Z" fill="#6CE0D3"/>
<ellipse cx="60.4947" cy="67.0948" rx="3.3" ry="1.1" transform="rotate(-31 60.4947 67.0948)" fill="#008575"/>
<path d="M24 24.2188L37.7564 29.6094C15.1769 47.0469 31.3526 60.4688 42.2628 65C33.7244 56.375 43.6068 42.8125 49.6154 37.1094L54.359 49.7656L61 20L24 24.2188Z" fill="white"/>
</svg>
