<svg width="343" height="83" viewBox="0 0 343 83" fill="none" xmlns="http://www.w3.org/2000/svg">
<rect y="8" width="343" height="75" fill="black" fill-opacity="0.44"/>
<rect x="9" width="330" height="75" fill="#D9D9D9"/>
<circle cx="327.5" cy="14.5" r="7.5" fill="#918A8A"/>
<circle cx="327.5" cy="61.5" r="7.5" fill="#918A8A"/>
<circle cx="21.5" cy="14.5" r="7.5" fill="#918A8A"/>
<circle cx="21.5" cy="61.5" r="7.5" fill="#918A8A"/>
<path d="M105.074 22.256C105.81 22.256 106.514 22.544 107.186 23.12C107.858 23.664 108.194 24.416 108.194 25.376C108.194 25.664 108.146 25.984 108.05 26.336L98.5938 54.176C98.4018 54.752 98.0498 55.2 97.5378 55.52C97.0578 55.808 96.5458 55.968 96.0018 56C95.4578 56 94.9138 55.84 94.3698 55.52C93.8578 55.2 93.4578 54.736 93.1698 54.128L86.0658 38L86.4978 38.288L79.4898 54.128C79.2018 54.736 78.7858 55.2 78.2418 55.52C77.7298 55.84 77.2018 56 76.6578 56C76.1458 55.968 75.6338 55.808 75.1218 55.52C74.6098 55.2 74.2578 54.752 74.0658 54.176L64.6098 26.336C64.5138 25.984 64.4658 25.664 64.4658 25.376C64.4658 24.416 64.8018 23.664 65.4738 23.12C66.1778 22.544 66.8978 22.256 67.6338 22.256C68.2418 22.256 68.8018 22.416 69.3138 22.736C69.8578 23.056 70.2258 23.52 70.4178 24.128L78.0498 47.264L76.9938 47.216L83.8098 30.848C84.0658 30.272 84.4338 29.824 84.9138 29.504C85.3938 29.152 85.9378 28.992 86.5458 29.024C87.1538 28.992 87.6978 29.152 88.1778 29.504C88.6578 29.824 89.0098 30.272 89.2338 30.848L95.4738 46.496L94.7058 46.976L102.242 24.128C102.434 23.52 102.802 23.056 103.346 22.736C103.89 22.416 104.466 22.256 105.074 22.256ZM118.099 53.072C118.099 53.904 117.795 54.608 117.187 55.184C116.579 55.728 115.875 56 115.075 56C114.179 56 113.459 55.728 112.915 55.184C112.371 54.608 112.099 53.904 112.099 53.072V25.328C112.099 24.496 112.387 23.808 112.963 23.264C113.539 22.688 114.275 22.4 115.171 22.4C115.939 22.4 116.611 22.688 117.187 23.264C117.795 23.808 118.099 24.496 118.099 25.328V53.072ZM150.326 22.4C151.094 22.4 151.718 22.656 152.198 23.168C152.678 23.68 152.918 24.32 152.918 25.088V53.072C152.918 53.904 152.63 54.608 152.054 55.184C151.51 55.728 150.822 56 149.99 56C149.574 56 149.142 55.936 148.694 55.808C148.278 55.648 147.958 55.44 147.734 55.184L128.87 31.232L130.118 30.464V53.312C130.118 54.08 129.862 54.72 129.35 55.232C128.87 55.744 128.23 56 127.43 56C126.662 56 126.038 55.744 125.558 55.232C125.078 54.72 124.838 54.08 124.838 53.312V25.328C124.838 24.496 125.11 23.808 125.654 23.264C126.23 22.688 126.934 22.4 127.766 22.4C128.214 22.4 128.678 22.496 129.158 22.688C129.638 22.848 129.99 23.104 130.214 23.456L148.502 46.784L147.686 47.36V25.088C147.686 24.32 147.926 23.68 148.406 23.168C148.886 22.656 149.526 22.4 150.326 22.4ZM175.495 56.48C173.063 56.48 170.791 56.032 168.679 55.136C166.567 54.24 164.711 53.008 163.111 51.44C161.511 49.84 160.247 48 159.319 45.92C158.423 43.84 157.975 41.6 157.975 39.2C157.975 36.8 158.423 34.56 159.319 32.48C160.247 30.4 161.511 28.576 163.111 27.008C164.711 25.408 166.567 24.16 168.679 23.264C170.791 22.368 173.063 21.92 175.495 21.92C176.999 21.92 178.455 22.08 179.863 22.4C181.271 22.72 182.567 23.2 183.751 23.84C184.231 24.096 184.583 24.448 184.807 24.896C185.063 25.312 185.191 25.744 185.191 26.192C185.191 26.96 184.935 27.648 184.423 28.256C183.911 28.864 183.255 29.168 182.455 29.168C182.199 29.168 181.927 29.136 181.639 29.072C181.383 29.008 181.127 28.912 180.871 28.784C180.071 28.432 179.223 28.16 178.327 27.968C177.431 27.776 176.487 27.68 175.495 27.68C173.415 27.68 171.511 28.208 169.783 29.264C168.087 30.288 166.727 31.68 165.703 33.44C164.711 35.168 164.215 37.088 164.215 39.2C164.215 41.28 164.711 43.2 165.703 44.96C166.727 46.72 168.087 48.128 169.783 49.184C171.511 50.208 173.415 50.72 175.495 50.72C176.455 50.72 177.511 50.624 178.663 50.432C179.815 50.24 180.759 49.984 181.495 49.664L181.063 51.104V42.896L181.879 43.616H176.551C175.719 43.616 175.015 43.344 174.439 42.8C173.895 42.256 173.623 41.568 173.623 40.736C173.623 39.904 173.895 39.216 174.439 38.672C175.015 38.128 175.719 37.856 176.551 37.856H184.423C185.255 37.856 185.943 38.144 186.487 38.72C187.031 39.264 187.303 39.952 187.303 40.784V50.96C187.303 51.6 187.143 52.128 186.823 52.544C186.535 52.96 186.199 53.296 185.815 53.552C184.343 54.448 182.727 55.168 180.967 55.712C179.239 56.224 177.415 56.48 175.495 56.48ZM196.053 56C195.157 56 194.357 55.728 193.653 55.184C192.949 54.608 192.597 53.904 192.597 53.072V25.328C192.597 24.496 192.869 23.808 193.413 23.264C193.989 22.688 194.693 22.4 195.525 22.4H209.349C211.013 22.4 212.565 22.848 214.005 23.744C215.477 24.608 216.661 25.824 217.557 27.392C218.453 28.928 218.901 30.704 218.901 32.72C218.901 33.936 218.645 35.12 218.133 36.272C217.653 37.424 216.981 38.464 216.117 39.392C215.285 40.32 214.341 41.04 213.285 41.552L213.333 40.448C214.229 40.928 214.965 41.504 215.541 42.176C216.149 42.816 216.613 43.52 216.933 44.288C217.285 45.024 217.493 45.824 217.557 46.688C217.685 47.488 217.765 48.192 217.797 48.8C217.861 49.408 217.957 49.92 218.085 50.336C218.245 50.752 218.533 51.072 218.949 51.296C219.653 51.712 220.085 52.32 220.245 53.12C220.437 53.888 220.261 54.576 219.717 55.184C219.365 55.6 218.917 55.872 218.373 56C217.829 56.096 217.285 56.096 216.741 56C216.197 55.872 215.749 55.712 215.397 55.52C214.853 55.2 214.309 54.736 213.765 54.128C213.221 53.488 212.773 52.64 212.421 51.584C212.101 50.528 211.941 49.168 211.941 47.504C211.941 46.96 211.845 46.464 211.653 46.016C211.461 45.536 211.189 45.136 210.837 44.816C210.485 44.464 210.037 44.208 209.493 44.048C208.949 43.856 208.309 43.76 207.573 43.76H197.877L198.597 42.656V53.072C198.597 53.904 198.373 54.608 197.925 55.184C197.477 55.728 196.853 56 196.053 56ZM197.925 38.816H209.109C209.685 38.816 210.245 38.56 210.789 38.048C211.333 37.504 211.781 36.784 212.133 35.888C212.485 34.96 212.661 33.952 212.661 32.864C212.661 31.456 212.277 30.288 211.509 29.36C210.773 28.4 209.973 27.92 209.109 27.92H198.021L198.597 26.384V39.968L197.925 38.816ZM237.406 29.936L227.038 54.32C226.814 54.928 226.462 55.408 225.982 55.76C225.534 56.08 225.038 56.24 224.494 56.24C223.63 56.24 222.99 56 222.574 55.52C222.158 55.04 221.95 54.448 221.95 53.744C221.95 53.456 221.998 53.152 222.094 52.832L234.046 24.128C234.302 23.488 234.686 22.992 235.198 22.64C235.742 22.288 236.318 22.144 236.926 22.208C237.502 22.208 238.03 22.384 238.51 22.736C239.022 23.056 239.39 23.52 239.614 24.128L251.422 52.256C251.582 52.672 251.662 53.056 251.662 53.408C251.662 54.272 251.374 54.96 250.798 55.472C250.254 55.984 249.646 56.24 248.974 56.24C248.398 56.24 247.87 56.064 247.39 55.712C246.942 55.36 246.59 54.88 246.334 54.272L236.014 30.224L237.406 29.936ZM228.526 48.464L231.166 42.944H244.126L245.038 48.464H228.526ZM264.231 56C263.335 56 262.599 55.728 262.023 55.184C261.447 54.608 261.159 53.904 261.159 53.072V25.232H267.399V53.072C267.399 53.904 267.095 54.608 266.487 55.184C265.911 55.728 265.159 56 264.231 56ZM253.623 27.92C252.791 27.92 252.087 27.664 251.511 27.152C250.967 26.64 250.695 25.968 250.695 25.136C250.695 24.304 250.967 23.648 251.511 23.168C252.087 22.656 252.791 22.4 253.623 22.4H274.935C275.767 22.4 276.455 22.656 276.999 23.168C277.575 23.68 277.863 24.352 277.863 25.184C277.863 26.016 277.575 26.688 276.999 27.2C276.455 27.68 275.767 27.92 274.935 27.92H253.623Z" fill="black"/>
</svg>
