<svg width="343" height="83" viewBox="0 0 343 83" fill="none" xmlns="http://www.w3.org/2000/svg">
<rect y="8" width="343" height="75" fill="black" fill-opacity="0.44"/>
<rect x="9" width="330" height="75" fill="#D9D9D9"/>
<circle cx="327.5" cy="14.5" r="7.5" fill="#918A8A"/>
<circle cx="327.5" cy="61.5" r="7.5" fill="#918A8A"/>
<circle cx="21.5" cy="14.5" r="7.5" fill="#918A8A"/>
<circle cx="21.5" cy="61.5" r="7.5" fill="#918A8A"/>
<path d="M98.3414 37.856C99.1734 37.856 99.8614 38.144 100.405 38.72C100.949 39.264 101.221 39.952 101.221 40.784V50.96C101.221 52.08 100.725 52.944 99.7334 53.552C96.5974 55.504 93.1574 56.48 89.4134 56.48C86.2454 56.48 83.3174 55.712 80.6294 54.176C77.9414 52.608 75.8134 50.512 74.2454 47.888C72.6774 45.232 71.8934 42.336 71.8934 39.2C71.8934 36.064 72.6774 33.184 74.2454 30.56C75.8134 27.904 77.9414 25.808 80.6294 24.272C83.3174 22.704 86.2454 21.92 89.4134 21.92C92.5814 21.92 95.3334 22.56 97.6694 23.84C98.1494 24.096 98.5014 24.432 98.7254 24.848C98.9814 25.264 99.1094 25.712 99.1094 26.192C99.1094 26.992 98.8374 27.696 98.2934 28.304C97.7814 28.88 97.1414 29.168 96.3734 29.168C95.8934 29.168 95.3654 29.04 94.7894 28.784C93.0614 28.048 91.2694 27.68 89.4134 27.68C87.3654 27.68 85.4774 28.208 83.7494 29.264C82.0214 30.288 80.6454 31.68 79.6214 33.44C78.6294 35.2 78.1334 37.12 78.1334 39.2C78.1334 41.28 78.6294 43.2 79.6214 44.96C80.6454 46.72 82.0214 48.128 83.7494 49.184C85.4774 50.208 87.3654 50.72 89.4134 50.72C90.3094 50.72 91.2694 50.64 92.2934 50.48C93.3174 50.32 94.2134 50.112 94.9814 49.856V43.616H90.4694C89.6374 43.616 88.9334 43.344 88.3574 42.8C87.8134 42.256 87.5414 41.568 87.5414 40.736C87.5414 39.904 87.8134 39.216 88.3574 38.672C88.9334 38.128 89.6374 37.856 90.4694 37.856H98.3414ZM132.867 51.296C133.283 51.552 133.603 51.888 133.827 52.304C134.083 52.72 134.211 53.152 134.211 53.6C134.211 54.176 134.019 54.704 133.635 55.184C133.155 55.76 132.419 56.048 131.427 56.048C130.659 56.048 129.955 55.872 129.315 55.52C127.011 54.208 125.859 51.536 125.859 47.504C125.859 46.352 125.475 45.44 124.707 44.768C123.971 44.096 122.899 43.76 121.491 43.76H112.515V53.072C112.515 53.936 112.275 54.64 111.795 55.184C111.347 55.728 110.739 56 109.971 56C109.043 56 108.227 55.728 107.523 55.184C106.851 54.608 106.515 53.904 106.515 53.072V25.328C106.515 24.496 106.787 23.808 107.331 23.264C107.907 22.688 108.611 22.4 109.443 22.4H123.267C124.931 22.4 126.499 22.848 127.971 23.744C129.443 24.64 130.611 25.872 131.475 27.44C132.371 29.008 132.819 30.768 132.819 32.72C132.819 34.32 132.387 35.888 131.523 37.424C130.659 38.928 129.539 40.128 128.163 41.024C130.179 42.432 131.283 44.32 131.475 46.688C131.571 47.2 131.619 47.696 131.619 48.176C131.747 49.168 131.875 49.888 132.003 50.336C132.131 50.752 132.419 51.072 132.867 51.296ZM123.027 38.816C123.603 38.816 124.163 38.544 124.707 38C125.251 37.456 125.699 36.736 126.051 35.84C126.403 34.912 126.579 33.92 126.579 32.864C126.579 31.968 126.403 31.152 126.051 30.416C125.699 29.648 125.251 29.04 124.707 28.592C124.163 28.144 123.603 27.92 123.027 27.92H112.515V38.816H123.027ZM169.432 39.2C169.432 42.368 168.728 45.28 167.32 47.936C165.912 50.56 163.96 52.64 161.464 54.176C159 55.712 156.216 56.48 153.112 56.48C150.008 56.48 147.208 55.712 144.712 54.176C142.248 52.64 140.312 50.56 138.904 47.936C137.528 45.28 136.84 42.368 136.84 39.2C136.84 36.032 137.528 33.136 138.904 30.512C140.312 27.856 142.248 25.76 144.712 24.224C147.208 22.688 150.008 21.92 153.112 21.92C156.216 21.92 159 22.688 161.464 24.224C163.96 25.76 165.912 27.856 167.32 30.512C168.728 33.136 169.432 36.032 169.432 39.2ZM163.192 39.2C163.192 37.056 162.76 35.12 161.896 33.392C161.032 31.632 159.832 30.24 158.296 29.216C156.76 28.192 155.032 27.68 153.112 27.68C151.16 27.68 149.416 28.192 147.88 29.216C146.376 30.208 145.192 31.584 144.328 33.344C143.496 35.104 143.08 37.056 143.08 39.2C143.08 41.344 143.496 43.296 144.328 45.056C145.192 46.816 146.376 48.208 147.88 49.232C149.416 50.224 151.16 50.72 153.112 50.72C155.032 50.72 156.76 50.208 158.296 49.184C159.832 48.16 161.032 46.784 161.896 45.056C162.76 43.296 163.192 41.344 163.192 39.2ZM212.003 22.256C212.771 22.256 213.475 22.56 214.115 23.168C214.787 23.744 215.123 24.48 215.123 25.376C215.123 25.664 215.075 25.984 214.979 26.336L205.523 54.176C205.331 54.72 204.995 55.152 204.515 55.472C204.035 55.792 203.507 55.968 202.931 56C202.355 56 201.811 55.84 201.299 55.52C200.787 55.2 200.387 54.736 200.099 54.128L193.283 38.624L186.419 54.128C186.131 54.736 185.731 55.2 185.219 55.52C184.707 55.84 184.163 56 183.587 56C183.011 55.968 182.483 55.792 182.003 55.472C181.523 55.152 181.187 54.72 180.995 54.176L171.539 26.336C171.443 25.984 171.395 25.664 171.395 25.376C171.395 24.48 171.715 23.744 172.355 23.168C173.027 22.56 173.763 22.256 174.563 22.256C175.203 22.256 175.779 22.432 176.291 22.784C176.803 23.104 177.155 23.552 177.347 24.128L184.499 45.824L190.739 30.848C190.995 30.272 191.363 29.824 191.843 29.504C192.323 29.152 192.867 28.992 193.475 29.024C194.083 28.992 194.611 29.152 195.059 29.504C195.539 29.824 195.907 30.272 196.163 30.848L202.067 45.68L209.171 24.128C209.363 23.552 209.715 23.104 210.227 22.784C210.771 22.432 211.363 22.256 212.003 22.256ZM237.556 50.384C238.388 50.384 239.076 50.656 239.62 51.2C240.196 51.712 240.484 52.384 240.484 53.216C240.484 54.016 240.196 54.688 239.62 55.232C239.076 55.744 238.388 56 237.556 56H221.956C221.124 56 220.42 55.728 219.844 55.184C219.3 54.608 219.028 53.904 219.028 53.072V25.328C219.028 24.496 219.316 23.808 219.892 23.264C220.468 22.688 221.204 22.4 222.1 22.4C222.9 22.4 223.588 22.688 224.164 23.264C224.74 23.808 225.028 24.496 225.028 25.328V50.384H237.556ZM271.326 25.232C271.326 25.84 271.102 26.448 270.654 27.056L252.414 50.48H267.726C268.59 50.48 269.294 50.736 269.838 51.248C270.382 51.728 270.654 52.384 270.654 53.216C270.654 54.016 270.366 54.688 269.79 55.232C269.246 55.744 268.558 56 267.726 56H246.654C245.822 56 245.102 55.712 244.494 55.136C243.886 54.56 243.582 53.904 243.582 53.168C243.582 52.56 243.806 51.952 244.254 51.344L262.446 27.92H248.574C247.71 27.92 247.006 27.664 246.462 27.152C245.918 26.64 245.646 25.968 245.646 25.136C245.646 24.336 245.918 23.68 246.462 23.168C247.038 22.656 247.742 22.4 248.574 22.4H268.206C268.974 22.4 269.678 22.672 270.318 23.216C270.99 23.76 271.326 24.432 271.326 25.232Z" fill="black"/>
</svg>
