<svg width="125" height="130" viewBox="0 0 85 89" fill="none" xmlns="http://www.w3.org/2000/svg">
<path d="M42.5 88.348C65.9721 88.348 85 70.2501 85 47.9252C85 25.6002 65.9721 7.5023 42.5 7.5023C19.0279 7.5023 0 25.6002 0 47.9252C0 70.2501 19.0279 88.348 42.5 88.348Z" fill="#924806"/>
<path d="M42.5 81C65.9721 81 85 62.8675 85 40.5C85 18.1325 65.9721 0 42.5 0C19.0279 0 0 18.1325 0 40.5C0 62.8675 19.0279 81 42.5 81Z" fill="#EC7000"/>
<path d="M67.3956 40.1722C66.2503 38.1126 65.0739 36.326 63.8661 34.7751C65.1615 33.4227 65.9312 31.5431 65.7873 29.0927C65.4681 23.5839 60.9811 23.1621 60.9811 23.1621C58.1963 22.5541 55.0861 23.4847 53.5529 26.512C52.5141 26.0777 51.4878 25.7552 50.499 25.5132C51.1624 23.3668 52.0948 18.7948 50.3676 13.2984C47.3826 4.25367 40.8555 5.22143 40.8305 7.72766C41.3123 11.0093 47.0571 5.99067 49.3476 15.0789C50.4803 19.7998 49.9233 23.739 49.6041 25.3209C49.116 25.2217 48.6342 25.141 48.1648 25.079C48.2211 23.2303 48.0271 19.7377 46.3625 15.5131C43.8781 9.19169 36.913 8.68921 37.2384 11.6793C37.5638 15.023 42.7266 10.3952 45.4113 17.1446C46.7505 20.538 46.8569 22.7961 46.8882 24.9487C45.5427 24.8432 44.3036 24.8556 43.196 24.9177C43.002 23.7886 42.47 22.2688 41.0495 21.2018C38.5213 19.3035 36.2371 20.6993 35.7114 21.2018C33.7026 23.1311 33.6964 25.6559 34.1532 27.3805C30.023 29.5083 25.4609 33.1746 20.7173 38.9253C18.064 40.4638 16.2429 41.6983 14.9976 42.6288C13.2078 42.604 12 42.5854 12 44.1921C12.0125 44.8683 12.219 45.5258 12.5883 46.0904C13.0701 46.8658 13.6521 47.573 14.3154 48.1934C14.5595 48.4105 14.8662 48.5284 15.1791 48.5594C17.0001 49.8001 20.029 51.2765 25.0291 52.8895C33.7965 55.8982 36.7816 56.959 37.8517 61.2642C38.2397 62.8461 39.6289 63.9938 41.2685 64C41.3061 64 41.3374 64 41.3749 64C49.5165 64 57.0699 61.5 63.2966 57.2319C68.8599 53.4168 70.6309 46.0594 67.3705 40.1846L67.3956 40.1722ZM37.4512 23.466C39.46 23.2737 40.5426 24.043 41.0495 25.0914C39.2472 25.3457 37.301 25.9102 35.2421 26.8594C35.2171 25.5628 35.5175 23.6584 37.4574 23.4723L37.4512 23.466ZM42.3199 63.3858C42.2823 63.3858 42.2448 63.3858 42.2135 63.3858C40.5739 63.3858 39.1846 62.232 38.7966 60.6563C37.7328 56.3572 34.7415 55.2902 25.9803 52.2877C25.148 52.021 24.3783 51.7542 23.6523 51.4937C24.5347 51.2579 25.6048 50.8051 26.531 49.9366C28.1518 48.3795 29.0655 46.841 28.6399 46.4998C28.2144 46.1586 28.1393 46.7728 27.9453 47.0271C27.7513 47.2814 26.1931 49.8745 23.4521 50.6252C22.8638 50.7058 22.2756 50.7368 21.6873 50.743C19.3969 49.8249 17.7323 48.975 16.5245 48.2058C17.6509 47.6785 19.1153 46.7169 19.7161 45.2033C20.0853 45.2963 20.467 45.3894 20.8801 45.501C26.7062 47.0209 42.9582 39.5084 51.1686 62.3747C48.3275 63.0322 45.3675 63.3858 42.3261 63.3858H42.3199ZM37.6452 39.434C38.0519 40.867 38.8842 41.8471 39.7416 41.7603C40.8305 41.6548 41.5501 39.8992 41.3499 37.8335C41.1496 35.7739 40.1108 34.1858 39.0219 34.2912C38.9844 34.2912 38.9468 34.316 38.9155 34.3222C39.097 34.192 39.2722 34.0741 39.4287 33.9748C40.1796 33.4848 41.0495 33.1994 41.9444 33.1622C45.5302 33.0319 48.4151 35.2032 48.4151 35.2032H48.4214C49.5165 37.2441 47.2637 39.7131 45.6866 41.0965C44.8356 41.8409 43.7967 42.3496 42.6766 42.5544C39.0782 43.2119 37.0194 42.4179 36.0181 41.7727C35.4799 41.4315 35.1607 40.8422 35.167 40.2094C35.1733 37.9699 36.6188 36.2081 38.0019 35.0295C37.6201 35.6188 37.3886 36.5059 37.3886 37.5171C37.5138 38.6523 37.4136 38.1002 37.6514 39.4278L37.6452 39.434ZM52.4828 29.6014C49.9483 28.7391 43.4838 27.1882 37.3761 30.8979C21.8438 41.0407 22.8013 38.2863 22.8013 38.2863C22.8013 38.2863 28.8965 33.5654 31.6813 30.7924C39.2597 23.4785 48.872 25.11 53.3089 27.0083C52.9271 27.7465 52.6455 28.6026 52.4828 29.6014V29.6014ZM62.7208 32.0828C62.3078 35.3396 59.8297 36.2578 57.9898 36.5183L53.9722 32.8024C54.0598 32.1696 54.235 31.5493 54.4854 30.9599C56.0874 27.0827 58.3716 26.0529 61.0813 27.3184C61.0813 27.3184 63.2465 28.0194 62.7208 32.0828Z" fill="#562B04"/>
<path d="M36 76.5C27.3333 76.6667 8.8 70.6 4 45C7 53.1667 17.6 70.9 36 76.5Z" fill="#CD6405"/>
<path d="M47 6.01246C58.6667 5.67912 81.5 11.9125 79.5 39.5125C77 30.1791 67 10.4125 47 6.01246Z" fill="#F09441"/>
</svg>
