<svg width="208" height="75" viewBox="0 0 218 85" fill="none" xmlns="http://www.w3.org/2000/svg">
<path d="M41.6075 85C18.2616 85 0 68.5965 0 46.165C0 23.4302 18.6283 5 41.6075 5C64.6946 5 84 23.5312 84 46.165C84 68.5127 65.0816 85 41.6075 85Z" fill="#EC7000"/>
<rect x="30" y="8" width="188" height="71" rx="35.5" fill="#EC7000"/>
<path fill-rule="evenodd" clip-rule="evenodd" d="M38.368 50.32C38.9227 50.32 39.3866 50.5067 39.76 50.88C40.1333 51.2534 40.32 51.6854 40.32 52.176C40.32 52.7094 40.1333 53.1467 39.76 53.488C39.3866 53.8294 38.9227 54 38.368 54H27.648C27.0933 54 26.6293 53.8134 26.256 53.44C25.8826 53.0667 25.696 52.6027 25.696 52.048V33.552C25.696 32.9974 25.8826 32.5334 26.256 32.16C26.6293 31.7867 27.0933 31.6 27.648 31.6H38.368C38.9227 31.6 39.3866 31.776 39.76 32.128C40.1333 32.48 40.32 32.9334 40.32 33.488C40.32 34.0214 40.1387 34.4534 39.776 34.784C39.4133 35.1147 38.944 35.28 38.368 35.28H29.696V40.72H36.928C37.4827 40.72 37.9466 40.896 38.32 41.248C38.6933 41.6 38.88 42.0534 38.88 42.608C38.88 43.1414 38.6987 43.5734 38.336 43.904C37.9733 44.2347 37.504 44.4 36.928 44.4H29.696V50.32H38.368ZM51.2 54.32C49.664 54.32 48.2987 54.128 47.104 53.744C45.9093 53.36 44.7893 52.7094 43.744 51.792C43.168 51.28 42.88 50.7147 42.88 50.096C42.88 49.6054 43.0613 49.1734 43.424 48.8C43.7867 48.4267 44.224 48.24 44.736 48.24C45.1413 48.24 45.504 48.368 45.824 48.624C46.6773 49.328 47.5093 49.84 48.32 50.16C49.1307 50.48 50.0906 50.64 51.2 50.64C52.3947 50.64 53.424 50.3734 54.288 49.84C55.152 49.3067 55.584 48.6454 55.584 47.856C55.584 46.896 55.1573 46.144 54.304 45.6C53.4506 45.056 52.096 44.6454 50.24 44.368C45.568 43.6854 43.232 41.5094 43.232 37.84C43.232 36.496 43.584 35.328 44.288 34.336C44.992 33.344 45.952 32.5867 47.168 32.064C48.384 31.5414 49.7386 31.28 51.232 31.28C52.576 31.28 53.84 31.4827 55.024 31.888C56.208 32.2934 57.1946 32.8267 57.984 33.488C58.6027 33.9787 58.912 34.544 58.912 35.184C58.912 35.6747 58.7307 36.1067 58.368 36.48C58.0053 36.8534 57.5787 37.04 57.088 37.04C56.768 37.04 56.48 36.944 56.224 36.752C55.6693 36.304 54.896 35.8934 53.904 35.52C52.912 35.1467 52.0213 34.96 51.232 34.96C49.888 34.96 48.848 35.2107 48.112 35.712C47.376 36.2134 47.008 36.8694 47.008 37.68C47.008 38.5974 47.3866 39.2907 48.144 39.76C48.9013 40.2294 50.0906 40.6134 51.712 40.912C53.5467 41.232 55.0133 41.6427 56.112 42.144C57.2107 42.6454 58.0373 43.328 58.592 44.192C59.1467 45.056 59.424 46.2027 59.424 47.632C59.424 48.976 59.0453 50.1547 58.288 51.168C57.5306 52.1814 56.5227 52.96 55.264 53.504C54.0053 54.048 52.6507 54.32 51.2 54.32Z" fill="#EF705E"/>
<path fill-rule="evenodd" clip-rule="evenodd" d="M38.368 48.32C38.9227 48.32 39.3866 48.5067 39.76 48.88C40.1333 49.2534 40.32 49.6854 40.32 50.176C40.32 50.7094 40.1333 51.1467 39.76 51.488C39.3866 51.8294 38.9227 52 38.368 52H27.648C27.0933 52 26.6293 51.8134 26.256 51.44C25.8826 51.0667 25.696 50.6027 25.696 50.048V31.552C25.696 30.9974 25.8826 30.5334 26.256 30.16C26.6293 29.7867 27.0933 29.6 27.648 29.6H38.368C38.9227 29.6 39.3866 29.776 39.76 30.128C40.1333 30.48 40.32 30.9334 40.32 31.488C40.32 32.0214 40.1387 32.4534 39.776 32.784C39.4133 33.1147 38.944 33.28 38.368 33.28H29.696V38.72H36.928C37.4827 38.72 37.9466 38.896 38.32 39.248C38.6933 39.6 38.88 40.0534 38.88 40.608C38.88 41.1414 38.6987 41.5734 38.336 41.904C37.9733 42.2347 37.504 42.4 36.928 42.4H29.696V48.32H38.368ZM51.2 52.32C49.664 52.32 48.2987 52.128 47.104 51.744C45.9093 51.36 44.7893 50.7094 43.744 49.792C43.168 49.28 42.88 48.7147 42.88 48.096C42.88 47.6054 43.0613 47.1734 43.424 46.8C43.7867 46.4267 44.224 46.24 44.736 46.24C45.1413 46.24 45.504 46.368 45.824 46.624C46.6773 47.328 47.5093 47.84 48.32 48.16C49.1307 48.48 50.0906 48.64 51.2 48.64C52.3947 48.64 53.424 48.3734 54.288 47.84C55.152 47.3067 55.584 46.6454 55.584 45.856C55.584 44.896 55.1573 44.144 54.304 43.6C53.4506 43.056 52.096 42.6454 50.24 42.368C45.568 41.6854 43.232 39.5094 43.232 35.84C43.232 34.496 43.584 33.328 44.288 32.336C44.992 31.344 45.952 30.5867 47.168 30.064C48.384 29.5414 49.7386 29.28 51.232 29.28C52.576 29.28 53.84 29.4827 55.024 29.888C56.208 30.2934 57.1946 30.8267 57.984 31.488C58.6027 31.9787 58.912 32.544 58.912 33.184C58.912 33.6747 58.7307 34.1067 58.368 34.48C58.0053 34.8534 57.5787 35.04 57.088 35.04C56.768 35.04 56.48 34.944 56.224 34.752C55.6693 34.304 54.896 33.8934 53.904 33.52C52.912 33.1467 52.0213 32.96 51.232 32.96C49.888 32.96 48.848 33.2107 48.112 33.712C47.376 34.2134 47.008 34.8694 47.008 35.68C47.008 36.5974 47.3866 37.2907 48.144 37.76C48.9013 38.2294 50.0906 38.6134 51.712 38.912C53.5467 39.232 55.0133 39.6427 56.112 40.144C57.2107 40.6454 58.0373 41.328 58.592 42.192C59.1467 43.056 59.424 44.2027 59.424 45.632C59.424 46.976 59.0453 48.1547 58.288 49.168C57.5306 50.1814 56.5227 50.96 55.264 51.504C54.0053 52.048 52.6507 52.32 51.2 52.32Z" fill="white"/>
<path d="M101.469 32.6C103.005 32.6 104.37 32.888 105.565 33.464C106.759 34.04 107.762 34.8507 108.573 35.896C109.405 36.92 110.023 38.1147 110.429 39.48C110.855 40.824 111.069 42.264 111.069 43.8C111.069 45.8693 110.695 47.7573 109.949 49.464C109.202 51.1493 108.114 52.4933 106.685 53.496C105.277 54.4987 103.538 55 101.469 55H93.8208C93.2661 55 92.7968 54.8187 92.4128 54.456C92.0501 54.072 91.8688 53.6027 91.8688 53.048V34.552C91.8688 33.9973 92.0501 33.5387 92.4128 33.176C92.7968 32.792 93.2661 32.6 93.8208 32.6H101.469ZM101.149 51.32C102.493 51.32 103.591 50.9787 104.445 50.296C105.298 49.592 105.917 48.6747 106.301 47.544C106.706 46.392 106.909 45.144 106.909 43.8C106.909 42.7973 106.791 41.848 106.557 40.952C106.343 40.0347 106.002 39.2347 105.533 38.552C105.063 37.848 104.466 37.2933 103.741 36.888C103.015 36.4827 102.151 36.28 101.149 36.28H95.5488L95.8688 35.992V51.672L95.6768 51.32H101.149ZM122.578 55.32C120.764 55.32 119.186 54.9467 117.842 54.2C116.519 53.432 115.495 52.3973 114.77 51.096C114.066 49.7947 113.714 48.3227 113.714 46.68C113.714 44.76 114.098 43.128 114.866 41.784C115.655 40.4187 116.679 39.3733 117.938 38.648C119.196 37.9227 120.53 37.56 121.938 37.56C123.026 37.56 124.05 37.784 125.01 38.232C125.991 38.68 126.855 39.2987 127.602 40.088C128.348 40.856 128.935 41.752 129.362 42.776C129.81 43.8 130.034 44.888 130.034 46.04C130.012 46.552 129.81 46.968 129.426 47.288C129.042 47.608 128.594 47.768 128.082 47.768H115.858L114.898 44.568H126.642L125.938 45.208V44.344C125.895 43.7253 125.671 43.1707 125.266 42.68C124.882 42.1893 124.391 41.8053 123.794 41.528C123.218 41.2293 122.599 41.08 121.938 41.08C121.298 41.08 120.7 41.1653 120.146 41.336C119.591 41.5067 119.111 41.7947 118.706 42.2C118.3 42.6053 117.98 43.1493 117.746 43.832C117.511 44.5147 117.394 45.3787 117.394 46.424C117.394 47.576 117.628 48.5573 118.098 49.368C118.588 50.1573 119.207 50.7653 119.954 51.192C120.722 51.5973 121.532 51.8 122.386 51.8C123.175 51.8 123.804 51.736 124.274 51.608C124.743 51.48 125.116 51.3307 125.394 51.16C125.692 50.968 125.959 50.808 126.194 50.68C126.578 50.488 126.94 50.392 127.282 50.392C127.751 50.392 128.135 50.552 128.434 50.872C128.754 51.192 128.914 51.5653 128.914 51.992C128.914 52.568 128.615 53.0907 128.018 53.56C127.463 54.0293 126.684 54.4453 125.682 54.808C124.679 55.1493 123.644 55.32 122.578 55.32ZM137.396 53.048C137.396 53.6027 137.204 54.072 136.82 54.456C136.458 54.8187 135.999 55 135.444 55C134.911 55 134.463 54.8187 134.1 54.456C133.738 54.072 133.556 53.6027 133.556 53.048V33.272C133.556 32.7173 133.738 32.2587 134.1 31.896C134.484 31.512 134.954 31.32 135.508 31.32C136.063 31.32 136.511 31.512 136.852 31.896C137.215 32.2587 137.396 32.7173 137.396 33.272V53.048ZM149.453 55.32C147.639 55.32 146.061 54.9467 144.717 54.2C143.394 53.432 142.37 52.3973 141.645 51.096C140.941 49.7947 140.589 48.3227 140.589 46.68C140.589 44.76 140.973 43.128 141.741 41.784C142.53 40.4187 143.554 39.3733 144.813 38.648C146.071 37.9227 147.405 37.56 148.813 37.56C149.901 37.56 150.925 37.784 151.885 38.232C152.866 38.68 153.73 39.2987 154.477 40.088C155.223 40.856 155.81 41.752 156.237 42.776C156.685 43.8 156.909 44.888 156.909 46.04C156.887 46.552 156.685 46.968 156.301 47.288C155.917 47.608 155.469 47.768 154.957 47.768H142.733L141.773 44.568H153.517L152.813 45.208V44.344C152.77 43.7253 152.546 43.1707 152.141 42.68C151.757 42.1893 151.266 41.8053 150.669 41.528C150.093 41.2293 149.474 41.08 148.813 41.08C148.173 41.08 147.575 41.1653 147.021 41.336C146.466 41.5067 145.986 41.7947 145.581 42.2C145.175 42.6053 144.855 43.1493 144.621 43.832C144.386 44.5147 144.269 45.3787 144.269 46.424C144.269 47.576 144.503 48.5573 144.973 49.368C145.463 50.1573 146.082 50.7653 146.829 51.192C147.597 51.5973 148.407 51.8 149.261 51.8C150.05 51.8 150.679 51.736 151.149 51.608C151.618 51.48 151.991 51.3307 152.269 51.16C152.567 50.968 152.834 50.808 153.069 50.68C153.453 50.488 153.815 50.392 154.157 50.392C154.626 50.392 155.01 50.552 155.309 50.872C155.629 51.192 155.789 51.5653 155.789 51.992C155.789 52.568 155.49 53.0907 154.893 53.56C154.338 54.0293 153.559 54.4453 152.557 54.808C151.554 55.1493 150.519 55.32 149.453 55.32ZM160.303 38.2H167.887C168.399 38.2 168.826 38.3707 169.167 38.712C169.509 39.0533 169.679 39.48 169.679 39.992C169.679 40.4827 169.509 40.8987 169.167 41.24C168.826 41.56 168.399 41.72 167.887 41.72H160.303C159.791 41.72 159.365 41.5493 159.023 41.208C158.682 40.8667 158.511 40.44 158.511 39.928C158.511 39.4373 158.682 39.032 159.023 38.712C159.365 38.3707 159.791 38.2 160.303 38.2ZM163.727 34.2C164.282 34.2 164.73 34.392 165.071 34.776C165.434 35.1387 165.615 35.5973 165.615 36.152V50.392C165.615 50.6907 165.669 50.936 165.775 51.128C165.903 51.32 166.063 51.4587 166.255 51.544C166.469 51.6293 166.693 51.672 166.927 51.672C167.183 51.672 167.418 51.6293 167.631 51.544C167.845 51.4373 168.09 51.384 168.367 51.384C168.666 51.384 168.933 51.5227 169.167 51.8C169.423 52.0773 169.551 52.4613 169.551 52.952C169.551 53.5493 169.221 54.04 168.559 54.424C167.919 54.808 167.226 55 166.479 55C166.031 55 165.53 54.968 164.975 54.904C164.442 54.8187 163.93 54.6373 163.439 54.36C162.97 54.0613 162.575 53.6133 162.255 53.016C161.935 52.4187 161.775 51.5973 161.775 50.552V36.152C161.775 35.5973 161.957 35.1387 162.319 34.776C162.703 34.392 163.173 34.2 163.727 34.2ZM180.953 55.32C179.139 55.32 177.561 54.9467 176.217 54.2C174.894 53.432 173.87 52.3973 173.145 51.096C172.441 49.7947 172.089 48.3227 172.089 46.68C172.089 44.76 172.473 43.128 173.241 41.784C174.03 40.4187 175.054 39.3733 176.313 38.648C177.571 37.9227 178.905 37.56 180.313 37.56C181.401 37.56 182.425 37.784 183.385 38.232C184.366 38.68 185.23 39.2987 185.977 40.088C186.723 40.856 187.31 41.752 187.737 42.776C188.185 43.8 188.409 44.888 188.409 46.04C188.387 46.552 188.185 46.968 187.801 47.288C187.417 47.608 186.969 47.768 186.457 47.768H174.233L173.273 44.568H185.017L184.313 45.208V44.344C184.27 43.7253 184.046 43.1707 183.641 42.68C183.257 42.1893 182.766 41.8053 182.169 41.528C181.593 41.2293 180.974 41.08 180.313 41.08C179.673 41.08 179.075 41.1653 178.521 41.336C177.966 41.5067 177.486 41.7947 177.081 42.2C176.675 42.6053 176.355 43.1493 176.121 43.832C175.886 44.5147 175.769 45.3787 175.769 46.424C175.769 47.576 176.003 48.5573 176.473 49.368C176.963 50.1573 177.582 50.7653 178.329 51.192C179.097 51.5973 179.907 51.8 180.761 51.8C181.55 51.8 182.179 51.736 182.649 51.608C183.118 51.48 183.491 51.3307 183.769 51.16C184.067 50.968 184.334 50.808 184.569 50.68C184.953 50.488 185.315 50.392 185.657 50.392C186.126 50.392 186.51 50.552 186.809 50.872C187.129 51.192 187.289 51.5653 187.289 51.992C187.289 52.568 186.99 53.0907 186.393 53.56C185.838 54.0293 185.059 54.4453 184.057 54.808C183.054 55.1493 182.019 55.32 180.953 55.32Z" fill="white"/>
<path d="M40.8947 82.8947C17.9322 82.8947 0 66.4837 0 44.2516C0 21.8364 16.142 3.54861 37.3197 2.30436C63.8453 0.74591 81.7895 18.7737 81.7895 43.1477C81.7895 65.5431 63.6579 82.8947 40.8947 82.8947Z" fill="#EBF6F5"/>
<path d="M40.8947 80.6842C17.9322 80.6842 0 64.2732 0 42.0411C0 19.6259 16.142 1.3381 37.3197 0.0938546C63.8453 -1.4646 81.7895 16.5631 81.7895 40.9372C81.7895 63.3326 63.6579 80.6842 40.8947 80.6842Z" fill="white"/>
<path fill-rule="evenodd" clip-rule="evenodd" d="M40.8948 76.2632C61.0386 76.2632 77.3684 61.0574 77.3684 40.9385C77.3684 20.8195 63.1663 3.00658 37.579 4.50985C18.7895 5.61375 4.42108 21.9234 4.42108 42.0424C4.42108 62.1613 20.7509 76.2632 40.8948 76.2632Z" fill="#008575"/>
<path fill-rule="evenodd" clip-rule="evenodd" d="M9.89471 59.4328C16.4992 66.9655 26.5076 71.4572 37.711 71.4572C57.5988 71.4572 73.7211 56.195 73.7211 36.0012C73.7211 28.5267 71.8 21.3692 68.099 15.3947C73.935 22.0774 76.9947 31.0055 76.9947 40.4387C76.9947 60.6325 60.8725 75.8947 40.9847 75.8947C27.7287 75.8947 16.1457 69.6064 9.89471 59.4328H9.89471Z" fill="#006256"/>
<path fill-rule="evenodd" clip-rule="evenodd" d="M12.6751 63.7947C7.50143 58.0221 4.39471 50.4431 4.39471 41.7256C4.39471 21.7619 18.7305 5.57818 37.4772 4.4828C53.5569 3.54326 65.1302 10.2077 71.4947 20.2585C64.7672 12.7224 54.389 8.07486 40.7855 8.86972C22.0387 9.9651 7.70297 26.1488 7.70297 46.1125C7.70297 52.7696 9.51469 58.7629 12.6751 63.7947Z" fill="#05B8A2"/>
<ellipse cx="60.4947" cy="67.0948" rx="3.3" ry="1.1" transform="rotate(-31 60.4947 67.0948)" fill="#008575"/>
<path d="M24 24.5478H56.9717V28.7166H24V24.5478Z" fill="white"/>
<path fill-rule="evenodd" clip-rule="evenodd" d="M25.5159 31.559L29.8743 60.1724H51.4764L55.8347 31.559H25.5159ZM28.6035 34.2119L32.1537 57.5195H49.197L52.7472 34.2119H28.6035Z" fill="white"/>
<path fill-rule="evenodd" clip-rule="evenodd" d="M39.7279 55.2456L39.7279 35.9174L41.2438 35.9174L41.2438 55.2456L39.7279 55.2456Z" fill="white"/>
<path fill-rule="evenodd" clip-rule="evenodd" d="M35.5999 55.1015L33.2444 35.9174L34.749 35.7326L37.1045 54.9168L35.5999 55.1015Z" fill="white"/>
<path fill-rule="evenodd" clip-rule="evenodd" d="M45.331 55.1015L47.6865 35.9174L46.1819 35.7326L43.8264 54.9168L45.331 55.1015Z" fill="white"/>
<path fill-rule="evenodd" clip-rule="evenodd" d="M31 19H49V26H46V22H34V26H31V19Z" fill="white"/>
</svg>
