<svg width="125" height="130" viewBox="0 0 85 89" fill="none" xmlns="http://www.w3.org/2000/svg">
<path d="M42.5 88.348C65.9721 88.348 85 70.2501 85 47.9252C85 25.6002 65.9721 7.5023 42.5 7.5023C19.0279 7.5023 0 25.6002 0 47.9252C0 70.2501 19.0279 88.348 42.5 88.348Z" fill="#924806"/>
<path d="M42.5 81C65.9721 81 85 62.8675 85 40.5C85 18.1325 65.9721 0 42.5 0C19.0279 0 0 18.1325 0 40.5C0 62.8675 19.0279 81 42.5 81Z" fill="#EC7000"/>
<path d="M42.4889 32.8183C47.3486 32.8183 51.3013 36.7598 51.3069 41.6195C51.3069 46.4736 47.3486 50.4431 42.5057 50.4487C37.6628 50.4487 33.6933 46.4848 33.6933 41.6307C33.6933 36.7654 37.6292 32.8183 42.4945 32.8127L42.4889 32.8183Z" fill="#562B04"/>
<path d="M69.62 26.587C68.7522 25.2321 67.4533 24.5602 65.8464 24.549C63.0359 24.5322 60.2253 24.5602 57.4148 24.521C57.0676 24.521 56.6421 24.3307 56.3902 24.0843C54.7945 22.5279 53.2269 22.2367 51.6761 20.6355C50.5899 19.5158 49.3134 18.9783 47.7345 19.0007C44.2521 19.0455 40.7753 19.0287 37.2929 19.0063C35.798 18.9951 34.5831 19.5158 33.5473 20.6019C31.9797 22.2535 30.3673 22.5559 28.7436 24.1515C28.5253 24.3699 28.139 24.521 27.8254 24.521C25.0149 24.549 22.2043 24.5322 19.3937 24.5378C16.5216 24.5378 14.6516 26.4022 14.6516 29.2632C14.6516 38.0252 14.6516 46.7872 14.6516 55.5492C14.6516 58.203 15.7602 59.6867 18.2964 60.4481C18.3356 60.4593 18.3636 60.4985 18.4028 60.5265H66.6023C67.8004 60.1738 68.8978 59.6363 69.564 58.5277C69.8887 57.9847 70.0903 57.3688 70.3478 56.7809V28.2946C70.1071 27.7235 69.9447 27.102 69.62 26.587V26.587ZM42.4941 53.7744C35.6693 53.7744 30.1377 48.2205 30.1377 41.3844C30.1377 34.554 35.6917 28.9944 42.5053 28.9944C49.3246 28.9944 54.8617 34.554 54.8561 41.3956C54.8561 48.2373 49.319 53.78 42.4885 53.7744H42.4941ZM64.9842 34.0893C63.0191 34.0893 61.429 32.4992 61.429 30.5341C61.429 28.5689 63.0191 26.9789 64.9842 26.9789C66.9494 26.9789 68.5394 28.5689 68.5394 30.5341C68.5394 32.4992 66.9494 34.0893 64.9842 34.0893Z" fill="#562B04"/>
<path d="M36 76.5C27.3333 76.6667 8.8 70.6 4 45C7 53.1667 17.6 70.9 36 76.5Z" fill="#CD6405"/>
<path d="M47 6.01246C58.6667 5.67912 81.5 11.9125 79.5 39.5125C77 30.1791 67 10.4125 47 6.01246Z" fill="#F2AA68"/>
</svg>
