<svg width="99" height="92" viewBox="0 0 99 92" fill="none" xmlns="http://www.w3.org/2000/svg">
<g clip-path="url(#clip0_36_7459)">
<path d="M0 21.9319L16.755 86.4304L42.116 64.7702L63.369 92L80.0691 77.1319L99 88.5156L90.077 24.4043L71.7739 5.77335L50.8561 22.5161L29.402 0L0 21.9319Z" fill="#EFEADA"/>
<path d="M29.402 0L42.116 64.7702L63.369 92L50.8561 22.5161L29.402 0Z" fill="#BCB6AA"/>
<path d="M6.60081 24.0647L18.7785 72.8868L40.3424 55.8724L30.5234 5.77335L6.60081 24.0647Z" fill="#BFBBB2"/>
<path d="M61.0469 82.0834L51.7277 26.8495L30.5234 5.77335L40.3424 55.8724L61.0469 82.0834Z" fill="#B2AC9E"/>
<path d="M78.7709 67.0931L71.7739 8.53098L51.7277 26.8495L61.0469 82.0834L78.7709 67.0931Z" fill="#C9C4B8"/>
<path d="M51.3193 31.441L47.8208 30.7618V27.1755H43.4386L43.3045 22.1493L36.9414 22.91L38.3737 28.4388L36.2466 28.7852L39.5622 41.867L42.2013 40.067L41.7381 38.2603H42.7742H43.7311H47.8208L51.7277 42.2405L51.3193 31.441Z" fill="#96938C"/>
<path d="M71.7739 5.77335L80.0691 77.1319L99 88.5156L90.077 24.4043L71.7739 5.77335Z" fill="#BCB6AA"/>
<path d="M94.8737 82.0834L88.1327 24.8458L71.7739 8.53098L78.7709 67.0931L94.8737 82.0834Z" fill="#B2AC9E"/>
<path d="M54.702 44.4955C54.702 44.4955 48.5522 27.8411 36.9475 41.867L40.3363 55.8792L61.0468 82.0902L54.702 44.5023V44.4955Z" fill="#A39F95"/>
<path d="M49.7834 37.6218C48.924 36.997 47.9549 36.5351 46.8761 36.3449C46.9249 39.3335 46.3093 47.1716 38.1177 44.5363L39.3976 51.0703C39.3976 51.0703 49.3568 47.8033 49.7834 37.6286V37.6218Z" fill="#C9C4B8"/>
<path d="M36.9536 41.867L14.7741 56.8301L18.7785 72.8868L40.3424 55.8724L36.9536 41.867Z" fill="#C9C4B8"/>
<path d="M91.4606 53.1148C88.9799 54.0453 87.7731 57.3735 87.7731 57.3735C86.609 61.5643 80.5446 60.3756 80.5446 60.3756C79.5694 60.4504 78.7587 60.7696 78.0761 61.2518L78.7709 67.0931L85.3596 73.2264L89.1994 73.6951L92.8868 65.2117L91.4606 53.1216V53.1148Z" fill="#C9C4B8"/>
<path d="M87.0295 74.7819L93.6182 71.4605L91.8019 56.0626C89.1018 57.0611 89.8881 60.6066 89.8881 60.6066C89.114 64.6547 83.3177 62.9974 83.3177 62.9974C80.447 63.0518 79.8253 65.7754 79.8131 68.0644L87.0234 74.7819H87.0295Z" fill="#B2AC9E"/>
<path d="M52.13 29.2403L56.561 24.1394L61.0469 25.2194L65.2524 16.6544L70.3416 22.1493L72.9137 18.0468L74.4313 30.7482L53.4099 36.8068L52.13 29.2403Z" fill="#B2AC9E"/>
<path d="M94.8737 82.0834L93.1062 67.0727C92.454 68.2681 91.101 69.253 88.4558 69.3481C88.4558 69.3481 84.2198 68.1323 83.8724 71.8408L94.8737 82.0834Z" fill="#A39F95"/>
<path d="M21.8625 31.115C22.4842 29.4033 23.9043 28.2283 24.849 26.7068C25.6719 25.3824 26.1351 23.7794 26.1473 22.1697C26.1595 20.7841 25.8791 19.2694 26.5373 18.0944C26.9457 17.3608 27.6466 16.9057 28.2927 16.4303C29.4873 15.5609 30.5905 14.5421 31.5718 13.3942C31.6937 13.2515 31.8095 13.1089 31.9253 12.9663L30.5173 5.78015L19.6013 14.1277C18.3457 16.6816 17.3401 19.3985 16.3893 22.1085C15.9687 23.3108 15.5482 24.5333 14.8655 25.5793C13.9818 26.931 12.7201 27.9091 11.6901 29.1181C10.5077 30.5105 9.66047 32.2153 9.06926 34.022L12.8298 49.1074C14.189 48.4893 15.3958 47.389 16.5356 46.3226C18.7175 44.2714 21.0397 41.9485 21.5151 38.8105C21.8991 36.2634 20.9849 33.5194 21.8503 31.1218L21.8625 31.115Z" fill="#D3CDC5"/>
<path d="M21.2774 24.0103C21.96 22.1832 21.3384 20.1252 21.1616 18.1623C21.0702 17.1638 21.1068 16.1178 21.5151 15.2213C22.4903 13.0613 25.1111 12.5927 26.5922 10.8267C27.2505 10.0388 27.6344 8.99963 27.7076 7.93326L7.64915 23.2632L7.29564 26.8698L11.6169 44.2035C12.6836 43.4088 13.5795 42.322 14.2134 41.0723C15.2556 39.0142 15.5969 36.5555 15.3349 34.2054C15.2191 33.2001 14.9996 32.1813 15.1764 31.1897C15.475 29.5392 16.7855 28.3845 18.0471 27.454C19.3088 26.5234 20.6862 25.5657 21.2713 24.0103H21.2774Z" fill="#C9C4B8"/>
<path d="M10.0384 37.8528C10.398 37.7713 10.7454 37.6219 11.0745 37.3162C11.623 36.7932 11.9522 36.0461 12.1838 35.2853C12.5434 34.0899 12.7079 32.8266 12.6653 31.5632C12.5739 29.0365 11.684 26.2993 12.8176 24.1122C13.7197 22.3666 15.6518 21.5719 16.6575 19.9011C17.3523 18.7464 17.5168 17.2725 17.2913 15.9005L6.60691 24.0715L10.0445 37.8596L10.0384 37.8528Z" fill="#B2AC9E"/>
<path d="M88.7422 30.0418L88.2729 26.0684L83.3238 21.5855L79.1854 25.8103L73.9132 17.4151L73.0965 19.575L74.6995 33.0235L88.7422 30.0418Z" fill="#96938C"/>
<path d="M77.9847 60.4911L77.6129 57.3803C75.3151 57.489 73.0783 57.5569 71.4448 57.7403C73.3099 54.1268 76.7596 45.0933 66.6603 41.867C69.4944 38.1584 66.3982 35.1427 66.3982 35.1427C62.0099 32.1813 55.726 35.2921 53.3794 36.6574L53.8061 39.0482C61.9733 35.6929 62.8936 37.88 62.8936 37.88C65.6607 40.5017 58.7491 43.2933 54.7995 44.6178L55.4212 48.1226C58.999 46.9883 61.6076 45.7996 63.4726 44.6246C65.7887 45.1612 73.9559 47.8848 66.4287 58.5282C58.5906 60.2534 63.6189 62.6782 63.6189 62.6782C64.4783 65.1302 61.2297 65.9316 58.3468 66.0539L58.9807 69.8236C78.3869 68.5806 68.7082 64.1249 68.7082 64.1249C66.0996 61.5371 73.706 60.7356 77.9847 60.4979V60.4911Z" fill="#EFEADA"/>
<path d="M77.3386 55.0981L77.7531 58.5621C78.9903 58.338 94.6117 55.3562 88.2364 46.7913C88.2364 46.7913 81.3125 38.4709 89.4675 36.1615L88.9312 31.6108L88.7422 30.035C83.4701 30.6938 76.0404 33.1187 80.8493 41.8602C80.8493 41.8602 89.5407 54.0114 77.3386 55.0913V55.0981Z" fill="#C9C4B8"/>
<path d="M13.9696 53.8823L29.3959 43.1031L28.311 40.1214L24.1176 35.1427L22.795 41.5817L18.0288 35.8966V44.3393L11.9887 35.1427V45.949L13.9696 53.8823Z" fill="#96938C"/>
<path d="M20.6923 43.0216L24.331 53.0944L33.0894 47.4569L28.9205 36.8068L20.6923 43.0216Z" fill="#A39F95"/>
<path d="M15.664 60.396L22.3745 56.0626L19.0162 47.3618L13.2687 51.0636L15.664 60.396Z" fill="#B2AC9E"/>
<path d="M18.6322 51.0636L21.6919 59.1666L29.3959 53.8755L26.4581 46.6962L27.7015 45.7521L26.6288 43.7008L16.5904 50.1126L17.2487 51.865L18.6322 51.0636Z" fill="#96938C"/>
<path d="M38.1177 44.5295C36.6549 44.4752 35.1921 44.5091 33.7659 44.8623C31.7546 45.3582 29.7981 46.5739 28.762 48.5573C27.2444 51.4779 28.0306 55.2951 26.7689 58.3652C25.8547 60.6066 23.9775 62.1416 22.1795 63.5816C20.6435 64.8041 18.9918 66.0675 17.2365 66.7603L18.7663 72.8936L32.2544 62.2503C32.2788 62.0397 32.3092 61.836 32.3214 61.6186C32.4921 59.0172 31.8034 56.1577 33.0284 53.9299C33.7598 52.5986 35.0763 51.7768 36.4355 51.3964C37.3985 51.1315 38.392 51.0636 39.3855 51.0568L38.1055 44.5227L38.1177 44.5295Z" fill="#EFEADA"/>
</g>
<defs>
<clipPath id="clip0_36_7459">
<rect width="99" height="92" fill="white"/>
</clipPath>
</defs>
</svg>
