<svg width="343" height="83" viewBox="0 0 343 83" fill="none" xmlns="http://www.w3.org/2000/svg">
<rect y="8" width="343" height="75" fill="black" fill-opacity="0.44"/>
<rect x="9" width="330" height="75" fill="#D9D9D9"/>
<circle cx="327.5" cy="14.5" r="7.5" fill="#918A8A"/>
<circle cx="327.5" cy="61.5" r="7.5" fill="#918A8A"/>
<circle cx="21.5" cy="14.5" r="7.5" fill="#918A8A"/>
<circle cx="21.5" cy="61.5" r="7.5" fill="#918A8A"/>
<path d="M122.42 51.296C122.836 51.552 123.156 51.888 123.38 52.304C123.636 52.72 123.764 53.152 123.764 53.6C123.764 54.176 123.572 54.704 123.188 55.184C122.708 55.76 121.972 56.048 120.98 56.048C120.212 56.048 119.508 55.872 118.868 55.52C116.564 54.208 115.412 51.536 115.412 47.504C115.412 46.352 115.028 45.44 114.26 44.768C113.524 44.096 112.452 43.76 111.044 43.76H102.068V53.072C102.068 53.936 101.828 54.64 101.348 55.184C100.9 55.728 100.292 56 99.5238 56C98.5958 56 97.7798 55.728 97.0758 55.184C96.4038 54.608 96.0678 53.904 96.0678 53.072V25.328C96.0678 24.496 96.3398 23.808 96.8838 23.264C97.4598 22.688 98.1638 22.4 98.9958 22.4H112.82C114.484 22.4 116.052 22.848 117.524 23.744C118.996 24.64 120.164 25.872 121.028 27.44C121.924 29.008 122.372 30.768 122.372 32.72C122.372 34.32 121.94 35.888 121.076 37.424C120.212 38.928 119.092 40.128 117.716 41.024C119.732 42.432 120.836 44.32 121.028 46.688C121.124 47.2 121.172 47.696 121.172 48.176C121.3 49.168 121.428 49.888 121.556 50.336C121.684 50.752 121.972 51.072 122.42 51.296ZM112.58 38.816C113.156 38.816 113.716 38.544 114.26 38C114.804 37.456 115.252 36.736 115.604 35.84C115.956 34.912 116.132 33.92 116.132 32.864C116.132 31.968 115.956 31.152 115.604 30.416C115.252 29.648 114.804 29.04 114.26 28.592C113.716 28.144 113.156 27.92 112.58 27.92H102.068V38.816H112.58ZM158.984 39.2C158.984 42.368 158.28 45.28 156.872 47.936C155.464 50.56 153.512 52.64 151.016 54.176C148.552 55.712 145.768 56.48 142.664 56.48C139.56 56.48 136.76 55.712 134.264 54.176C131.8 52.64 129.864 50.56 128.456 47.936C127.08 45.28 126.392 42.368 126.392 39.2C126.392 36.032 127.08 33.136 128.456 30.512C129.864 27.856 131.8 25.76 134.264 24.224C136.76 22.688 139.56 21.92 142.664 21.92C145.768 21.92 148.552 22.688 151.016 24.224C153.512 25.76 155.464 27.856 156.872 30.512C158.28 33.136 158.984 36.032 158.984 39.2ZM152.744 39.2C152.744 37.056 152.312 35.12 151.448 33.392C150.584 31.632 149.384 30.24 147.848 29.216C146.312 28.192 144.584 27.68 142.664 27.68C140.712 27.68 138.968 28.192 137.432 29.216C135.928 30.208 134.744 31.584 133.88 33.344C133.048 35.104 132.632 37.056 132.632 39.2C132.632 41.344 133.048 43.296 133.88 45.056C134.744 46.816 135.928 48.208 137.432 49.232C138.968 50.224 140.712 50.72 142.664 50.72C144.584 50.72 146.312 50.208 147.848 49.184C149.384 48.16 150.584 46.784 151.448 45.056C152.312 43.296 152.744 41.344 152.744 39.2ZM187.534 24.032C188.526 24.544 189.022 25.36 189.022 26.48C189.022 27.152 188.782 27.808 188.302 28.448C187.79 29.12 187.134 29.456 186.334 29.456C185.79 29.456 185.246 29.312 184.702 29.024C183.134 28.288 181.438 27.92 179.614 27.92C177.374 27.92 175.422 28.4 173.758 29.36C172.094 30.288 170.814 31.616 169.918 33.344C169.022 35.04 168.574 36.992 168.574 39.2C168.574 42.976 169.582 45.84 171.598 47.792C173.646 49.744 176.318 50.72 179.614 50.72C181.566 50.72 183.262 50.352 184.702 49.616C185.278 49.36 185.79 49.232 186.238 49.232C187.07 49.232 187.774 49.584 188.35 50.288C188.83 50.896 189.07 51.552 189.07 52.256C189.07 52.768 188.942 53.232 188.686 53.648C188.43 54.064 188.062 54.384 187.582 54.608C185.086 55.856 182.43 56.48 179.614 56.48C176.478 56.48 173.598 55.824 170.974 54.512C168.35 53.168 166.254 51.2 164.686 48.608C163.118 46.016 162.334 42.88 162.334 39.2C162.334 35.936 163.07 33.008 164.542 30.416C166.046 27.824 168.11 25.808 170.734 24.368C173.358 22.896 176.318 22.16 179.614 22.16C182.462 22.16 185.102 22.784 187.534 24.032ZM219.356 51.008C219.548 51.264 219.708 51.584 219.836 51.968C219.964 52.32 220.028 52.656 220.028 52.976C220.028 53.84 219.692 54.56 219.02 55.136C218.38 55.712 217.628 56 216.764 56C216.348 56 215.948 55.904 215.564 55.712C215.18 55.52 214.86 55.248 214.604 54.896L204.188 41.168L199.628 45.536V53.072C199.628 53.936 199.34 54.64 198.764 55.184C198.22 55.728 197.5 56 196.604 56C195.74 56 195.02 55.728 194.444 55.184C193.9 54.608 193.628 53.904 193.628 53.072V25.328C193.628 24.496 193.916 23.808 194.492 23.264C195.068 22.688 195.804 22.4 196.7 22.4C197.564 22.4 198.268 22.672 198.812 23.216C199.356 23.76 199.628 24.464 199.628 25.328V38.384L214.988 23.264C215.724 22.528 216.508 22.16 217.34 22.16C218.076 22.16 218.7 22.464 219.212 23.072C219.724 23.68 219.98 24.32 219.98 24.992C219.98 25.664 219.692 26.288 219.116 26.864L208.652 36.848L219.356 51.008ZM249.826 25.232C249.826 25.872 249.65 26.464 249.298 27.008L239.266 41.36V53.072C239.266 53.904 238.994 54.608 238.45 55.184C237.906 55.728 237.25 56 236.482 56C235.682 56 234.994 55.728 234.418 55.184C233.874 54.608 233.602 53.904 233.602 53.072V40.688L223.618 27.44C223.042 26.672 222.754 25.92 222.754 25.184C222.754 24.352 223.074 23.664 223.714 23.12C224.386 22.544 225.09 22.256 225.826 22.256C226.722 22.256 227.506 22.704 228.178 23.6L236.626 35.264L244.546 23.696C245.218 22.736 246.018 22.256 246.946 22.256C247.714 22.256 248.386 22.544 248.962 23.12C249.538 23.696 249.826 24.4 249.826 25.232Z" fill="black"/>
</svg>
