<svg width="125" height="130" viewBox="0 0 85 89" fill="none" xmlns="http://www.w3.org/2000/svg">
<path d="M42.5 88.348C65.9721 88.348 85 70.2501 85 47.9252C85 25.6002 65.9721 7.5023 42.5 7.5023C19.0279 7.5023 0 25.6002 0 47.9252C0 70.2501 19.0279 88.348 42.5 88.348Z" fill="#924806"/>
<path d="M42.5 81C65.9721 81 85 62.8675 85 40.5C85 18.1325 65.9721 0 42.5 0C19.0279 0 0 18.1325 0 40.5C0 62.8675 19.0279 81 42.5 81Z" fill="#EC7000"/>
<path d="M27.0392 47.0918C28.0535 47.814 29.2193 48.2692 30.4376 48.4209C30.5891 48.4573 30.7465 48.3541 30.7815 48.1963C30.7815 48.1903 30.7815 48.1842 30.7815 48.1781V46.6549C30.7815 46.5638 30.7232 46.4789 30.6416 46.4425C30.2394 46.2301 29.126 45.6171 28.9861 45.1802C28.8171 44.6461 28.6947 43.7237 29.2601 43.3474C29.8255 42.9711 32.6876 42.9954 33.253 43.3838C33.8185 43.7722 33.7252 44.7007 33.5445 45.2348C33.4046 45.6657 32.3087 46.2725 31.9123 46.4668C31.8307 46.5032 31.7724 46.5881 31.7666 46.6852V48.2085C31.7899 48.3723 31.9415 48.4816 32.0989 48.4573C32.0989 48.4573 32.1047 48.4573 32.1105 48.4573C33.3172 48.3238 34.4771 47.8868 35.4856 47.1829C35.5847 47.1161 35.7071 47.104 35.8178 47.1465L35.8995 47.1829C36.016 47.2193 36.086 47.3467 36.051 47.4681C36.0393 47.5106 36.0102 47.5531 35.9811 47.5834C34.6579 48.7183 32.9849 49.3312 31.2711 49.3069C29.5399 49.2827 27.8728 48.6454 26.5379 47.4984C26.4446 47.4013 26.4446 47.2435 26.5379 47.1525C26.5612 47.1282 26.5904 47.11 26.6195 47.0979L26.7186 47.0615C26.8294 47.019 26.9518 47.0311 27.0509 47.104L27.0392 47.0918Z" fill="#562B04"/>
<path d="M42.7254 37.1755C41.9384 37.1148 41.1981 38.2132 40.9475 39.7183C40.8892 40.7136 40.8892 40.2281 40.8892 41.4054C41.0116 42.7041 41.5421 43.6691 42.2474 43.7237C43.1392 43.7965 43.967 42.3825 44.0952 40.5801C44.2293 38.7716 43.6114 37.2483 42.7254 37.1816V37.1755Z" fill="#562B04"/>
<path d="M65.8552 37.4546C68.2626 36.872 70.3786 36.4048 70.7517 36.4533C71.7018 36.5686 79.5245 36.5686 77.7349 31.2766C75.6831 25.6691 63.3545 26.9071 57.677 27.7932C58.8136 25.4931 59.5714 23.2598 59.7055 21.8276C60.2243 15.4068 57.1698 15.2369 56.278 15.5828C55.6135 15.8195 55.0189 16.2261 54.4885 16.7359C54.2378 16.9301 54.0163 17.2214 53.7132 17.5795C53.072 18.4169 52.5241 19.3273 52.0752 20.2922C51.2125 22.2039 50.7986 23.721 50.6004 24.7103C47.9773 23.9759 45.2202 23.6118 42.7078 23.3569C41.3263 23.2173 39.9332 23.2173 38.5575 23.3448C38.1961 20.2861 36.5873 16.833 34.926 15.6678C32.9149 14.2598 31.5568 15.2733 30.8106 16.8998C30.0878 19.5336 30.4084 22.3374 31.6442 24.7042C24.521 21.0204 13.4457 19.6004 12.3207 23.5875C11.6154 26.0879 12.3207 28.133 13.7838 29.7898C10.572 30.0326 8.1529 31.0946 8.01883 33.2369C7.85562 35.9132 9.38284 37.9401 11.6212 39.4755C8.91651 39.8821 7.48838 41.3204 7.00457 43.311C6.75975 48.9125 16.4127 52.2928 21.9737 53.7675C24.1421 57.9853 27.2316 63.0102 29.2834 63.4168C29.3475 63.4289 32.0872 63.9144 33.3988 64.0662C35.4681 64.3089 37.5549 64.4242 39.6417 64.3817C42.0783 64.3332 44.5207 64.0722 46.899 63.4836C48.1231 63.1801 49.3297 62.7917 50.4955 62.2941C51.0784 62.0453 52.8155 61.1471 54.5467 60.6009C55.9807 60.1457 59.0293 57.7182 60.5274 57.8214C62.2645 57.9428 64.0074 58.0035 65.7503 57.9306C67.2659 57.8699 68.8222 57.7304 70.2737 57.257C71.218 56.9475 72.3255 56.4134 72.6636 55.3514C73.5729 52.4688 70.2504 49.8471 66.4381 47.8686C71.8883 47.7776 77.7874 46.8005 77.6358 42.959C77.4901 39.2813 71.183 37.928 65.8669 37.4486L65.8552 37.4546ZM71.83 31.0885C72.378 30.9914 72.8501 31.6833 72.6403 32.5693C72.4304 33.4493 71.696 33.3279 71.3987 33.2065C71.1014 33.0912 70.2795 31.3677 71.83 31.0885V31.0885ZM66.1059 32.2659C66.1933 31.4951 66.4964 30.7123 67.126 30.7123C67.9537 30.7123 68.0703 31.5558 68.047 32.3812C68.0236 33.2065 67.9595 33.9226 67.126 33.9651C66.2866 34.0076 66.0243 33.0366 66.1059 32.2659ZM39.3619 51.1033C39.3619 51.1033 39.3211 51.1033 39.2978 51.1033C39.3211 51.0547 39.3444 51.0123 39.3678 50.9637V51.1033H39.3619ZM41.6294 34.9847C41.5129 34.8511 41.4138 34.6873 41.3555 34.4992C41.1456 33.868 41.3555 33.2004 41.8568 33.0184C42.2998 32.8606 42.8244 33.1398 43.0809 33.6859C43.1392 33.0305 43.5647 32.5147 44.0893 32.5389C44.5557 32.5572 44.9404 33.0427 44.9812 33.6495C45.1969 33.0609 45.6923 32.721 46.1645 32.8606C46.6658 33.0002 46.9806 33.6556 46.8057 34.2989C46.7474 34.5174 46.6425 34.7055 46.5084 34.8633C47.6334 35.9799 48.3737 37.8613 48.3737 39.9914C48.3737 43.4142 46.4734 46.1876 44.1301 46.1876C41.7868 46.1876 39.8866 43.4142 39.8866 39.9914C39.8866 37.928 40.5744 36.1074 41.6353 34.9786L41.6294 34.9847ZM52.9263 22.8229C53.8764 20.9598 54.7683 20.4985 55.4211 20.9051C56.074 21.3117 56.0157 22.6529 55.2929 24.0852C54.9606 24.7588 54.6633 25.4446 54.3894 26.1425C53.6374 25.7723 52.8505 25.4506 52.0402 25.1715C52.1801 24.5949 52.4424 23.7757 52.9263 22.8229V22.8229ZM32.5652 19.9706C34.0108 19.5397 34.9726 22.3677 35.369 23.8606C34.5413 24.0488 33.7252 24.2733 32.9266 24.5403C32.4078 23.5633 30.9214 20.4621 32.5652 19.9706V19.9706ZM19.3681 26.5612C19.5896 26.0939 20.0734 24.7224 21.1227 25.3414C21.7755 25.7298 21.8338 26.7554 20.8079 27.6657C20.4698 28.1573 20.5106 29.0191 19.3739 28.9462C18.3655 28.303 19.1524 27.0285 19.3739 26.5612H19.3681ZM14.9904 24.7406C15.2294 24.777 15.4743 25.129 15.311 25.8026C15.1245 26.5855 15.0138 26.7372 14.7514 26.7129C14.4891 26.6947 14.0053 26.8282 13.9703 25.8026C13.9354 24.777 14.7514 24.6981 14.9904 24.7406ZM10.5312 35.1424C9.45862 34.8026 10.2922 32.5511 11.4755 33.073C12.1692 33.3764 11.9477 35.5612 10.5312 35.1424ZM10.7469 44.3791C10.5778 44.9981 10.3155 45.077 9.51691 45.0406C8.71832 44.9981 9.16134 42.8862 9.96575 42.8498C10.7643 42.8073 11.0092 43.4142 10.7469 44.3791ZM13.3525 45.0952C13.1135 46.4728 11.2132 46.6063 11.5105 45.0952C11.8078 43.5841 12.6063 43.3535 12.9619 43.4263C13.3175 43.4991 13.5448 43.9968 13.3525 45.0952ZM14.2676 35.2638C14.2676 35.2638 13.8771 36.5807 13.2592 36.5019C12.6413 36.423 12.6238 36.0346 12.6413 35.1424C12.6588 34.2503 13.0727 33.6435 13.7022 33.783C14.3318 33.9226 14.3726 34.6266 14.2618 35.2638H14.2676ZM16.1271 45.8235C16.1271 46.8066 15.6608 47.2436 15.0079 47.1889C14.3551 47.1343 14.2676 46.6427 14.4308 45.4047C14.5941 44.1667 15.0837 43.7176 15.6958 43.8147C16.3078 43.9118 16.1213 44.4459 16.1213 45.8235H16.1271ZM16.8907 36.3926C16.8907 36.3926 16.4244 37.7642 15.6025 37.5882C14.7806 37.4122 14.973 36.7143 15.1012 35.8646C15.2294 35.0089 15.894 34.22 16.6284 34.5841C17.3629 34.9543 17.258 35.5309 16.8907 36.3926V36.3926ZM16.8499 27.6718C16.2787 27.3016 16.8616 26.4277 16.9432 25.9665C17.0656 25.2261 17.188 24.5889 17.9108 24.7345C18.6336 24.8802 18.5462 25.396 18.4704 26.2517C18.4063 26.9678 17.5844 28.1391 16.8499 27.6718V27.6718ZM31.8366 55.0844C27.0042 54.6656 25.069 51.959 24.8708 48.3784C24.8708 48.4027 24.8708 48.4209 24.8708 48.4452C24.8649 48.4452 24.8533 48.433 24.8475 48.433C24.8475 48.3541 24.8475 48.2631 24.8183 48.1478C24.83 48.1539 24.8416 48.1599 24.8591 48.1721C24.8591 48.0325 24.8533 47.8929 24.8533 47.7533C24.8533 46.661 25.0282 45.6171 25.3837 44.6704C23.8973 43.7662 22.9239 41.369 23.0871 38.6198C23.2036 36.6232 23.8973 34.8876 24.8708 33.8134C24.7425 33.6556 24.6434 33.4553 24.5852 33.2187C24.4336 32.5632 24.6551 31.9078 25.1273 31.7561C25.5353 31.6286 25.99 31.9381 26.1882 32.4965C26.2639 31.835 26.6895 31.3555 27.1616 31.4102C27.5813 31.4587 27.9019 31.9624 27.9019 32.5693C28.1292 31.9988 28.6014 31.6833 29.0094 31.8532C29.4525 32.017 29.7206 32.7028 29.5107 33.34C29.4525 33.51 29.3708 33.6617 29.2776 33.7952C30.2744 34.9604 30.8631 36.9267 30.7349 39.1114C30.7057 39.5969 30.6416 40.0642 30.5542 40.5072C30.9622 40.4405 31.3877 40.398 31.8366 40.3798C36.2492 40.2463 39.5193 42.9954 39.8516 47.4438C39.9274 48.4391 39.8516 49.756 39.4552 50.7574L39.3678 50.8181V50.8363H39.3619L39.2687 51.0972C39.2687 51.0972 39.257 51.0972 39.2512 51.0972C38.1028 53.6886 35.4331 55.4 31.8366 55.0844V55.0844ZM68.6299 52.9118C69.5101 53.0149 69.6033 54.0102 69.341 54.5989C69.0904 55.1633 68.6007 55.1936 68.2685 55.1633C67.9362 55.1329 67.5981 54.9145 67.5748 54.2894C67.5515 53.6643 67.7497 52.8025 68.6299 52.9057V52.9118ZM61.8564 30.9307C62.7483 30.7911 62.9407 31.5679 63.0281 32.3083C63.1738 33.5039 63.3487 34.3839 62.4568 34.4749C61.565 34.5659 61.4251 33.9226 61.326 32.9031C61.2269 31.8835 60.9646 31.0703 61.8564 30.9307ZM62.5151 53.4215C62.3344 53.7553 61.7224 55.0055 60.6032 54.3561C59.9445 53.9313 60.7431 52.3049 60.7431 52.3049C61.361 51.0123 61.5533 50.8484 62.5151 51.17C63.4769 51.4917 62.6958 53.0878 62.5151 53.4276V53.4215ZM62.486 44.8403C61.6349 44.5915 61.8564 44.0696 61.9555 43.0682C62.0546 42.0669 62.0546 40.7864 63.0164 40.932C63.9782 41.0777 64.2464 41.6542 64.0074 43.0682C63.8675 43.9239 63.337 45.0891 62.486 44.8403V44.8403ZM65.657 54.0891C65.3073 54.7324 64.8584 54.9509 64.328 54.6839C63.7975 54.4168 63.8092 53.7068 64.258 52.9361C64.7069 52.1653 65.179 52.0015 65.657 52.4141C66.1583 52.8511 66.0068 53.4458 65.657 54.083V54.0891ZM68.4375 43.2564C68.1286 44.4519 67.4058 44.2881 67.1376 44.2152C66.8753 44.1424 66.3973 43.754 66.6771 42.5767C66.7995 42.0608 66.8287 41.2537 67.6681 41.3265C68.5075 41.3993 68.7464 42.0669 68.4375 43.2624V43.2564ZM71.8708 43.9361C71.7659 44.0453 71.6377 44.1181 71.4978 44.1606C71.0606 44.2759 70.6176 44.0028 70.5068 43.5477C70.3553 42.8801 70.8857 42.1579 71.5386 42.3157C72.4304 42.5342 72.2497 43.4931 71.8708 43.9422V43.9361Z" fill="#562B04"/>
<path d="M25.9317 35.367C25.1448 35.3063 24.4045 36.4047 24.1538 37.9098C24.0955 38.9051 24.0956 38.4196 24.0956 39.5969C24.218 40.8956 24.7484 41.8606 25.4537 41.9152C26.3456 41.988 27.1733 40.574 27.3016 38.7716C27.4356 36.9631 26.8177 35.4398 25.9317 35.3731V35.367Z" fill="#562B04"/>
<path d="M36 76.5C27.3333 76.6667 8.8 70.6 4 45C7 53.1667 17.6 70.9 36 76.5Z" fill="#CD6405"/>
<path d="M47 6.01246C58.6667 5.67912 81.5 11.9125 79.5 39.5125C77 30.1791 67 10.4125 47 6.01246Z" fill="#F09441"/>
</svg>
