<svg width="125" height="130" viewBox="0 0 85 89" fill="none" xmlns="http://www.w3.org/2000/svg">
<path d="M42.5 88.348C65.9721 88.348 85 70.2501 85 47.9252C85 25.6002 65.9721 7.5023 42.5 7.5023C19.0279 7.5023 0 25.6002 0 47.9252C0 70.2501 19.0279 88.348 42.5 88.348Z" fill="#924806"/>
<path d="M42.5 81C65.9721 81 85 62.8675 85 40.5C85 18.1325 65.9721 0 42.5 0C19.0279 0 0 18.1325 0 40.5C0 62.8675 19.0279 81 42.5 81Z" fill="#EC7000"/>
<path d="M36 76.5C27.3333 76.6667 8.8 70.6 4 45C7 53.1667 17.6 70.9 36 76.5Z" fill="#CD6405"/>
<path d="M47 6.01246C58.6667 5.67912 81.5 11.9125 79.5 39.5125C77 30.1791 67 10.4125 47 6.01246Z" fill="#F09441"/>
<g clip-path="url(#clip0_31_1507)">
<path d="M70.3946 26.2775L65.207 40.7793L67.412 42.0875L73 27.5153L70.3946 26.2775Z" fill="#562B04"/>
<path d="M15.5532 25.6616L13 26.565L16.766 39.4066L19.3772 38.9607L15.5532 25.6616Z" fill="#562B04"/>
<path d="M68.3694 25.3154L52.9981 18C52.9981 18 40.3424 40.2748 27.8259 21.3321L18.1064 24.7581L22.0174 38.5032L27.8259 37.5059C27.8259 37.5059 26.648 51.7789 20.4159 62.7198C20.4159 62.7198 49.9458 76.9928 60.7679 65.5767C60.7679 65.5767 62.4159 44.6453 60.7679 37.2712L63.3037 39.2775L68.3694 25.3154V25.3154Z" fill="#562B04"/>
<path d="M28.5861 21.0916C35.8511 23.7784 43.824 22.3353 52.2901 18C52.2901 18 46.3482 25.9549 39.4081 26.1895C39.4081 26.1895 32.2882 28.5244 28.5861 21.0916V21.0916Z" fill="#562B04"/>
</g>
<defs>
<clipPath id="clip0_31_1507">
<rect width="60" height="52" fill="white" transform="translate(13 18)"/>
</clipPath>
</defs>
</svg>
