<svg width="104" height="115" viewBox="0 0 104 115" fill="none" xmlns="http://www.w3.org/2000/svg">
<path d="M7.45098 14.4559L3.7142 92.8819C3.62794 94.6922 5.13288 96.1746 6.94156 96.0581C17.2622 95.3932 50.097 93.7674 90.9031 96.6854C96.6048 97.0876 101.729 97.4696 102.344 81.8863C102.959 66.303 104.746 17.5251 97.7294 12.9143C91.6432 8.9265 67.5242 8.0803 53.188 8.20291C38.2289 8.32953 11.1657 10.2048 7.45098 14.4559Z" fill="#45633B"/>
<path d="M4.71235 14.3865V89.9542C4.71235 92.3617 6.81982 94.2429 9.21721 94.0222C19.9033 93.038 48.8902 91.0603 88.5183 93.8065C94.3365 94.2042 100.155 96.4801 100.783 81.0696C101.41 65.659 103.234 17.4217 96.0736 12.8619C89.863 8.91836 65.251 8.08154 50.6219 8.20279C35.357 8.328 8.50304 10.1825 4.71235 14.3865Z" fill="#CDBBAD"/>
<path d="M3.93839 14.6303L4.71833 92.2149C4.71833 92.2149 38.9716 88.7917 89.5378 92.2149C95.356 92.6035 99.3807 94.8268 100.009 79.7723C100.636 64.7179 102.46 17.5953 95.2996 13.141C89.0891 9.28853 64.4771 8.47105 49.8479 8.5895C34.583 8.71181 7.72908 10.5235 3.93839 14.6303Z" fill="#EBE1D7"/>
<path d="M57.3425 89.5414C57.3425 88.9891 57.7902 88.5437 58.3425 88.5437H80.8829C81.4239 88.5437 81.8668 88.9743 81.8825 89.5151C82.015 94.0922 82.0974 96.9387 82.2373 101.772C82.35 105.662 82.0757 111.196 81.9334 113.691C81.8958 114.35 81.2381 114.785 80.6142 114.568L69.9272 110.847C69.7143 110.773 69.4825 110.773 69.2696 110.847L58.6713 114.537C58.0214 114.764 57.3425 114.284 57.3425 113.595C57.3425 111.057 57.3425 105.614 57.3425 101.772C57.3425 97.7099 57.3425 91.8574 57.3425 89.5414Z" fill="#EC7000"/>
<path d="M61.4065 88.2635H78.2655C78.2655 88.2635 78.2655 88.2635 78.2655 88.2635C78.2657 88.2637 78.2659 88.2639 78.266 88.2641C78.266 88.2642 78.266 88.2644 78.266 88.2646L78.5363 99.2362C78.619 102.595 78.4265 107.349 78.3146 109.7L70.5816 106.535C70.0961 106.336 69.552 106.336 69.0666 106.535L61.4065 109.67L61.4065 109.657V109.643V109.629V109.614V109.6V109.586V109.572V109.558V109.543V109.529V109.514V109.5V109.485V109.471V109.456V109.441V109.426V109.412V109.397V109.382V109.367V109.352V109.337V109.321V109.306V109.291V109.276V109.26V109.245V109.23V109.214V109.199V109.183V109.167V109.152V109.136V109.12V109.104V109.089V109.073V109.057V109.041V109.025V109.009V108.992V108.976V108.96V108.944V108.927V108.911V108.895V108.878V108.862V108.845V108.828V108.812V108.795V108.778V108.762V108.745V108.728V108.711V108.694V108.677V108.66V108.643V108.626V108.609V108.592V108.574V108.557V108.54V108.522V108.505V108.487V108.47V108.452V108.435V108.417V108.399V108.382V108.364V108.346V108.328V108.311V108.293V108.275V108.257V108.239V108.221V108.203V108.184V108.166V108.148V108.13V108.111V108.093V108.075V108.056V108.038V108.019V108.001V107.982V107.964V107.945V107.927V107.908V107.889V107.87V107.852V107.833V107.814V107.795V107.776V107.757V107.738V107.719V107.7V107.681V107.662V107.642V107.623V107.604V107.585V107.565V107.546V107.527V107.507V107.488V107.468V107.449V107.429V107.41V107.39V107.37V107.351V107.331V107.311V107.291V107.272V107.252V107.232V107.212V107.192V107.172V107.152V107.132V107.112V107.092V107.072V107.052V107.032V107.012V106.991V106.971V106.951V106.931V106.91V106.89V106.87V106.849V106.829V106.808V106.788V106.767V106.747V106.726V106.706V106.685V106.664V106.644V106.623V106.602V106.581V106.561V106.54V106.519V106.498V106.477V106.457V106.436V106.415V106.394V106.373V106.352V106.331V106.31V106.289V106.267V106.246V106.225V106.204V106.183V106.162V106.14V106.119V106.098V106.077V106.055V106.034V106.013V105.991V105.97V105.948V105.927V105.906V105.884V105.863V105.841V105.82V105.798V105.776V105.755V105.733V105.712V105.69V105.668V105.647V105.625V105.603V105.581V105.56V105.538V105.516V105.494V105.473V105.451V105.429V105.407V105.385V105.363V105.341V105.319V105.297V105.276V105.254V105.232V105.21V105.188V105.166V105.143V105.121V105.099V105.077V105.055V105.033V105.011V104.989V104.967V104.944V104.922V104.9V104.878V104.856V104.834V104.811V104.789V104.767V104.745V104.722V104.7V104.678V104.655V104.633V104.611V104.588V104.566V104.544V104.521V104.499V104.477V104.454V104.432V104.409V104.387V104.365V104.342V104.32V104.297V104.275V104.252V104.23V104.207V104.185V104.162V104.14V104.117V104.095V104.072V104.05V104.027V104.005V103.982V103.96V103.937V103.915V103.892V103.869V103.847V103.824V103.802V103.779V103.757V103.734V103.711V103.689V103.666V103.644V103.621V103.598V103.576V103.553V103.531V103.508V103.485V103.463V103.44V103.417V103.395V103.372V103.35V103.327V103.304V103.282V103.259V103.236V103.214V103.191V103.169V103.146V103.123V103.101V103.078V103.056V103.033V103.01V102.988V102.965V102.943V102.92V102.897V102.875V102.852V102.83V102.807V102.784V102.762V102.739V102.717V102.694V102.671V102.649V102.626V102.604V102.581V102.559V102.536V102.514V102.491V102.469V102.446V102.424V102.401V102.379V102.356V102.334V102.311V102.289V102.266V102.244V102.221V102.199V102.176V102.154V102.132V102.109V102.087V102.064V102.042V102.02V101.997V101.975V101.953V101.93V101.908V101.886V101.863V101.841V101.819V101.797V101.774V101.752V101.73V101.708V101.685V101.663V101.641V101.619V101.597V101.574V101.552V101.53V101.508V101.486V101.464V101.442V101.42V101.398V101.376V101.354V101.332V101.31V101.288V101.266V101.244V101.222V101.2V101.178V101.156V101.134V101.112V101.091V101.069V101.047V101.025V101.003V100.982V100.96V100.938V100.916V100.895V100.873V100.851V100.83V100.808V100.787V100.765V100.743V100.722V100.7V100.679V100.657V100.636V100.615V100.593V100.572V100.55V100.529V100.508V100.486V100.465V100.444V100.422V100.401V100.38V100.359V100.338V100.316V100.295V100.274V100.253V100.232V100.211V100.19V100.169V100.148V100.127V100.106V100.085V100.064V100.044V100.023V100.002V99.9812V99.9604V99.9397V99.919V99.8983V99.8777V99.857V99.8364V99.8159V99.7953V99.7748V99.7543V99.7338V99.7134V99.693V99.6726V99.6522V99.6319V99.6116V99.5913V99.5711V99.5508V99.5306V99.5105V99.4903V99.4702V99.4502V99.4301V99.4101V99.3901V99.3701V99.3502V99.3303V99.3104V99.2906V99.2708V99.251V99.2312V99.2115V99.1903V99.1691V99.1478V99.1265V99.1052V99.0838V99.0624V99.041V99.0195V98.998V98.9765V98.9549V98.9333V98.9117V98.89V98.8683V98.8465V98.8248V98.803V98.7811V98.7593V98.7374V98.7154V98.6935V98.6715V98.6495V98.6274V98.6053V98.5832V98.5611V98.5389V98.5167V98.4945V98.4722V98.4499V98.4276V98.4052V98.3829V98.3605V98.338V98.3156V98.2931V98.2706V98.248V98.2254V98.2028V98.1802V98.1576V98.1349V98.1122V98.0895V98.0667V98.044V98.0211V97.9983V97.9755V97.9526V97.9297V97.9068V97.8838V97.8609V97.8379V97.8148V97.7918V97.7687V97.7457V97.7225V97.6994V97.6763V97.6531V97.6299V97.6067V97.5834V97.5602V97.5369V97.5136V97.4903V97.4669V97.4436V97.4202V97.3968V97.3734V97.3499V97.3265V97.303V97.2795V97.256V97.2325V97.2089V97.1854V97.1618V97.1382V97.1146V97.0909V97.0673V97.0436V97.0199V96.9962V96.9725V96.9488V96.925V96.9013V96.8775V96.8537V96.8299V96.8061V96.7823V96.7584V96.7345V96.7107V96.6868V96.6629V96.639V96.615V96.5911V96.5672V96.5432V96.5192V96.4952V96.4712V96.4472V96.4232V96.3992V96.3751V96.3511V96.327V96.3029V96.2789V96.2548V96.2307V96.2065V96.1824V96.1583V96.1342V96.11V96.0859V96.0617V96.0375V96.0134V95.9892V95.965V95.9408V95.9166V95.8924V95.8681V95.8439V95.8197V95.7955V95.7712V95.747V95.7227V95.6985V95.6742V95.6499V95.6257V95.6014V95.5771V95.5528V95.5285V95.5043V95.48V95.4557V95.4314V95.4071V95.3828V95.3585V95.3342V95.3099V95.2856V95.2612V95.2369V95.2126V95.1883V95.164V95.1397V95.1154V95.0911V95.0668V95.0424V95.0181V94.9938V94.9695V94.9452V94.9209V94.8966V94.8723V94.848V94.8237V94.7994V94.7751V94.7508V94.7266V94.7023V94.678V94.6537V94.6295V94.6052V94.5809V94.5567V94.5324V94.5082V94.484V94.4597V94.4355V94.4113V94.3871V94.3629V94.3387V94.3145V94.2903V94.2661V94.2419V94.2178V94.1936V94.1695V94.1453V94.1212V94.0971V94.0729V94.0488V94.0247V94.0006V93.9766V93.9525V93.9284V93.9044V93.8804V93.8563V93.8323V93.8083V93.7843V93.7603V93.7364V93.7124V93.6885V93.6645V93.6406V93.6167V93.5928V93.5689V93.5451V93.5212V93.4974V93.4736V93.4497V93.4259V93.4022V93.3784V93.3546V93.3309V93.3072V93.2835V93.2598V93.2361V93.2125V93.1888V93.1652V93.1416V93.118V93.0944V93.0709V93.0473V93.0238V93.0003V92.9768V92.9534V92.9299V92.9065V92.8831V92.8597V92.8363V92.813V92.7896V92.7663V92.743V92.7198V92.6965V92.6733V92.6501V92.6269V92.6038V92.5806V92.5575V92.5344V92.5113V92.4883V92.4652V92.4422V92.4193V92.3963V92.3734V92.3505V92.3276V92.3047V92.2819V92.2591V92.2363V92.2135V92.1908V92.1681V92.1454V92.1227V92.1001V92.0775V92.0549V92.0323V92.0098V91.9873V91.9648V91.9424V91.92V91.8976V91.8752V91.8529V91.8306V91.8083V91.7861V91.7639V91.7417V91.7195V91.6974V91.6753V91.6532V91.6312V91.6092V91.5872V91.5652V91.5433V91.5215V91.4996V91.4778V91.456V91.4342V91.4125V91.3908V91.3692V91.3476V91.326V91.3044V91.2829V91.2614V91.24V91.2185V91.1972V91.1758V91.1545V91.1332V91.112V91.0908V91.0696V91.0485V91.0274V91.0063V90.9853V90.9643V90.9433V90.9224V90.9015V90.8807V90.8599V90.8391V90.8184V90.7977V90.7771V90.7564V90.7359V90.7153V90.6948V90.6744V90.654V90.6336V90.6133V90.593V90.5727V90.5525V90.5324V90.5122V90.4921V90.4721V90.4521V90.4321V90.4122V90.3923V90.3725V90.3527V90.333V90.3133V90.2936V90.274V90.2544V90.2349V90.2154V90.196V90.1766V90.1572V90.1379V90.1187V90.0995V90.0803V90.0612V90.0421V90.0231V90.0041V89.9852V89.9663V89.9475V89.9287V89.9099V89.8912V89.8726V89.854V89.8354V89.8169V89.7985V89.7801V89.7617V89.7434V89.7252V89.707V89.6888V89.6707V89.6526V89.6346V89.6167V89.5988V89.5809V89.5631V89.5454V89.5277V89.5101V89.4925V89.4749V89.4575V89.44V89.4227V89.4053V89.3881V89.3709V89.3537V89.3366V89.3195V89.3025V89.2856V89.2687V89.2519V89.2351V89.2184V89.2017V89.1851V89.1686V89.1521V89.1356V89.1192V89.1029V89.0866V89.0704V89.0543V89.0382V89.0222V89.0062V88.9903V88.9744V88.9586V88.9429V88.9272V88.9116V88.896V88.8805V88.8651V88.8497V88.8344V88.8191V88.8039V88.7888V88.7737V88.7587V88.7437V88.7288V88.714V88.6992V88.6845V88.6699V88.6553V88.6408V88.6264V88.612V88.5976V88.5834V88.5692V88.5551V88.541V88.527V88.5131V88.4992V88.4854V88.4717V88.458V88.4444V88.4309V88.4174V88.404V88.3906V88.3774V88.3642V88.351V88.338V88.325V88.312V88.2992V88.2864V88.2737L61.4065 88.2635ZM61.4044 88.2636C61.4044 88.2636 61.4047 88.2636 61.4052 88.2635C61.405 88.2637 61.405 88.2637 61.4053 88.2635C61.4055 88.2632 61.4056 88.2631 61.4056 88.2632C61.4056 88.2632 61.4055 88.2632 61.4053 88.2633L61.4044 88.2636C61.4044 88.2636 61.4044 88.2636 61.4044 88.2636Z" stroke="#EEC458" stroke-width="2"/>
<path d="M3.15546 9.01606V89.0465C3.15546 89.0465 36.1405 85.5154 86.3192 89.0465C92.0928 89.4473 97.8665 91.7407 98.4896 76.2117C99.1125 60.6826 100.922 12.0746 93.8166 7.47979C87.6537 3.50591 63.2303 2.66266 48.7132 2.78484C33.5653 2.91102 6.9171 4.77978 3.15546 9.01606Z" fill="url(#paint0_linear_36_7487)"/>
<path d="M3.15555 84.2765C3.15555 84.2765 2.19967 85.6885 2.1955 87.0501C2.19127 88.4264 3.92361 90.2505 3.92361 90.2505C3.92361 90.2505 36.4343 88.249 87.0596 88.5436C92.8846 88.5771 94.9366 89.6104 96.0886 87.0501C97.2407 84.4898 98.0087 82.4092 93.0164 82.1429C86.7987 81.8113 63.5004 81.4926 48.8541 81.5028C33.5714 81.5134 6.95068 83.923 3.15555 84.2765Z" fill="#2C4722" stroke="#2C4722" stroke-width="4"/>
<path d="M2.07416 93.2507C2.07416 93.2507 2.04333 91.8321 2.0432 90.464C2.04306 89.0813 1.93536 89.3503 2.07416 87.6307C2.21297 85.9111 3.14752 89.2595 4.78036 88.9635C4.96824 88.9299 5.03442 87.8916 5.07158 90.464C5.10873 93.0364 5.13351 95.1269 4.97249 95.3944C4.77194 95.7275 4.02049 96.0477 3.5481 96.0374C3.05518 96.0269 2.19657 93.6059 2.07416 93.2507Z" fill="#2C4722" stroke="#2C4722" stroke-width="4"/>
<path d="M2.77136 7.68101C2.77136 7.68101 1.94126 9.58971 2.00331 10.8814C2.06789 12.2255 3.15538 14.0817 3.15538 14.0817C3.15538 14.0817 12.9479 12.3273 30.4209 10.0041C47.8938 7.68101 73.8152 10.0041 73.8152 10.0041C73.8152 10.0041 96.0413 13.9933 96.6645 13.2283C97.2405 10.668 99.0451 7.70035 95.8964 6.40084C89.1761 3.62719 63.8307 2.13368 50.1979 2.13368C33.301 1.0669 6.22754 6.70568 2.77136 7.68101Z" fill="#2C4722" stroke="#2C4722" stroke-width="4"/>
<path fill-rule="evenodd" clip-rule="evenodd" d="M22.7243 27.2567C26.024 24.2369 24.5037 16.8052 24.5037 16.8052C24.5037 16.8052 41.1792 14.2809 51.926 14.2951C62.5196 14.3091 78.9545 16.8052 78.9545 16.8052C78.9545 16.8052 77.4342 24.2369 80.7339 27.2567C84.6289 30.8213 95.3253 28.317 95.3253 28.317C95.3253 28.317 96.4888 40.1253 96.4725 47.763C96.4565 55.2383 95.3253 66.7907 95.3253 66.7907C95.3253 66.7907 84.5537 64.5154 80.7339 68.1539C77.5972 71.1418 78.9545 78.3025 78.9545 78.3025H24.5037C24.5037 78.3025 25.8611 71.1418 22.7243 68.1539C18.9045 64.5154 8.13288 66.7907 8.13288 66.7907V28.317C8.13288 28.317 18.8293 30.8213 22.7243 27.2567ZM77.8868 29.2258C82.0581 33.5049 94.6136 29.2258 94.6136 29.2258C94.6136 29.2258 95.7228 40.4714 95.7044 47.763C95.6865 54.8924 94.6136 65.8818 94.6136 65.8818C94.6136 65.8818 82.0581 61.6028 77.8868 65.8818C74.4256 69.4325 77.8868 77.6966 77.8868 77.6966H25.5714C25.5714 77.6966 29.0326 69.4325 25.5714 65.8818C21.4001 61.6028 8.84465 65.8818 8.84465 65.8818V29.2258C8.84465 29.2258 21.4001 33.5049 25.5714 29.2258C29.0326 25.6751 25.5714 17.4111 25.5714 17.4111C25.5714 17.4111 41.6015 15.1183 51.926 15.1318C62.0972 15.1451 77.8868 17.4111 77.8868 17.4111C77.8868 17.4111 74.4256 25.6751 77.8868 29.2258Z" fill="#BFA858"/>
<path d="M21.3875 21.9748C21.1239 25.0111 18.4382 26.8455 14.367 26.8455C10.2959 26.8455 6.99552 25.0737 6.99552 22.8881C6.99552 20.7024 8.45361 16.8051 12.5248 16.8051C16.5959 16.8051 21.7007 18.3676 21.3875 21.9748Z" stroke="#BFA858" stroke-width="2"/>
<path d="M22.5248 73.1328C22.2612 70.0965 19.5755 68.2621 15.5044 68.2621C11.4332 68.2621 8.13288 70.0339 8.13288 72.2195C8.13288 74.4052 9.59097 78.3024 13.6621 78.3024C17.7333 78.3024 22.8381 76.7399 22.5248 73.1328Z" stroke="#BFA858" stroke-width="2"/>
<path d="M80.1753 22.3932C80.4389 25.4295 83.1246 27.2639 87.1958 27.2639C91.2669 27.2639 94.5672 25.4921 94.5672 23.3064C94.5672 21.1208 93.1092 17.2235 89.038 17.2235C84.9668 17.2235 79.8621 18.786 80.1753 22.3932Z" stroke="#BFA858" stroke-width="2"/>
<path d="M80.9337 72.7144C81.2042 69.6781 83.9606 67.8437 88.1389 67.8437C92.3172 67.8437 95.7044 69.6155 95.7044 71.8012C95.7044 73.9868 94.2079 77.8841 90.0296 77.8841C85.8513 77.8841 80.6122 76.3216 80.9337 72.7144Z" stroke="#BFA858" stroke-width="2"/>
<path d="M19.1179 21.9126C18.9514 23.6837 17.2552 24.7538 14.6839 24.7538C12.1127 24.7538 10.0282 23.7203 10.0282 22.4453C10.0282 21.1703 10.9491 18.8969 13.5204 18.8969C16.0917 18.8969 19.3157 19.8084 19.1179 21.9126Z" fill="#2C4722"/>
<path d="M20.2549 73.195C20.0814 71.4239 18.3146 70.3538 15.6362 70.3538C12.9578 70.3538 10.7865 71.3873 10.7865 72.6623C10.7865 73.9373 11.7458 76.2107 14.4242 76.2107C17.1026 76.2107 20.4609 75.2992 20.2549 73.195Z" fill="#2C4722"/>
<path d="M82.4446 22.128C82.6111 24.0257 84.3074 25.1722 86.8786 25.1722C89.4499 25.1722 91.5343 24.0648 91.5343 22.6988C91.5343 21.3327 90.6134 18.8969 88.0421 18.8969C85.4709 18.8969 82.2468 19.8735 82.4446 22.128Z" fill="#325227"/>
<path d="M83.582 72.9796C83.7485 71.0819 85.4447 69.9354 88.016 69.9354C90.5872 69.9354 92.6717 71.0428 92.6717 72.4088C92.6717 73.7749 91.7508 76.2107 89.1795 76.2107C86.6082 76.2107 83.3842 75.2341 83.582 72.9796Z" fill="#325227"/>
<path d="M18.729 41.7296C18.729 41.4393 18.8379 41.1899 19.0556 40.9813C19.2823 40.7636 19.5544 40.5913 19.8719 40.4643C20.1893 40.3283 20.5204 40.2285 20.865 40.165C21.2097 40.0924 21.5045 40.0562 21.7493 40.0562C21.9942 40.0562 22.2391 40.097 22.484 40.1786C22.738 40.2602 22.9602 40.3781 23.1507 40.5323C23.3411 40.6774 23.4862 40.8679 23.586 41.1037C23.6949 41.3305 23.7311 41.5935 23.6949 41.8928C23.6495 42.3554 23.4953 42.7635 23.2323 43.1173C22.9783 43.471 22.6609 43.7703 22.2799 44.0152C21.9081 44.251 21.4999 44.4324 21.0555 44.5594C20.6201 44.6773 20.1984 44.7363 19.7902 44.7363C19.7902 45.0719 19.8038 45.4074 19.831 45.743C19.8583 46.0696 19.8855 46.4006 19.9127 46.7362C19.949 47.0718 19.9807 47.4074 20.0079 47.743C20.0351 48.0695 20.0487 48.4005 20.0487 48.7361C20.0487 48.8359 20.0397 48.9311 20.0215 49.0218C20.0034 49.1035 19.9217 49.167 19.7766 49.2123L19.5045 48.9538C19.5045 48.9447 19.4909 48.8178 19.4637 48.5729C19.4365 48.328 19.3957 48.0105 19.3413 47.6205C19.2959 47.2305 19.2415 46.7906 19.178 46.3008C19.1236 45.802 19.0692 45.3031 19.0147 44.8043C18.9603 44.3054 18.9059 43.8247 18.8515 43.3622C18.8061 42.8996 18.7653 42.5005 18.729 42.1649C18.729 42.1559 18.729 42.1332 18.729 42.0969C18.729 42.0606 18.729 42.0198 18.729 41.9745C18.729 41.9291 18.729 41.8838 18.729 41.8384C18.729 41.7931 18.729 41.7568 18.729 41.7296ZM19.4909 42.2193C19.4909 42.4098 19.4909 42.5867 19.4909 42.7499C19.5 42.9132 19.5136 43.0719 19.5317 43.2261C19.5589 43.3803 19.5907 43.539 19.627 43.7023C19.6632 43.8656 19.7131 44.0515 19.7766 44.2601C20.0578 44.2147 20.3934 44.1286 20.7834 44.0016C21.1734 43.8746 21.5453 43.7023 21.899 43.4846C22.2618 43.2669 22.5656 43.0175 22.8105 42.7363C23.0554 42.4461 23.1779 42.1241 23.1779 41.7704C23.1779 41.5799 23.1325 41.4121 23.0418 41.267C22.9511 41.1128 22.8332 40.9858 22.6881 40.8861C22.552 40.7863 22.3978 40.7092 22.2255 40.6548C22.0532 40.6004 21.8854 40.5731 21.7221 40.5731C21.4591 40.5731 21.1915 40.6049 20.9194 40.6684C20.6564 40.7319 20.4161 40.8316 20.1984 40.9677C19.9898 41.1037 19.8174 41.2761 19.6814 41.4847C19.5544 41.6933 19.4909 41.9382 19.4909 42.2193Z" fill="#EFCB50"/>
<path d="M25.7498 39.8793L26.1035 44.3417C26.167 44.2873 26.2486 44.2057 26.3484 44.0968C26.4481 43.988 26.5661 43.8882 26.7021 43.7975C26.8382 43.6978 26.9878 43.6161 27.1511 43.5526C27.3143 43.4801 27.4912 43.4483 27.6817 43.4574C28.0535 43.4937 28.3483 43.6433 28.566 43.9064C28.7927 44.1694 28.9605 44.4914 29.0694 44.8723C29.1873 45.2533 29.2644 45.6705 29.3007 46.124C29.3369 46.5684 29.346 46.9947 29.3279 47.4028C29.3188 47.811 29.2961 48.1738 29.2598 48.4912C29.2326 48.8087 29.21 49.0264 29.1918 49.1443L28.702 49.0763C28.702 48.9946 28.702 48.8677 28.702 48.6953C28.7111 48.5139 28.7202 48.3053 28.7292 48.0695C28.7383 47.8246 28.7429 47.5706 28.7429 47.3076C28.7429 47.0446 28.7429 46.7997 28.7429 46.5729C28.7519 46.3371 28.7519 46.1285 28.7429 45.9471C28.7429 45.7657 28.7383 45.6387 28.7292 45.5662C28.7383 45.3122 28.6884 45.0673 28.5796 44.8315C28.4708 44.5957 28.3256 44.4188 28.1442 44.3009C27.9628 44.1739 27.7452 44.1331 27.4912 44.1785C27.2372 44.2147 26.9651 44.3916 26.6749 44.7091C26.4209 45.09 26.235 45.4664 26.1171 45.8383C25.9992 46.2011 25.9221 46.5639 25.8858 46.9267C25.8495 47.2804 25.8359 47.6477 25.845 48.0287C25.8541 48.4005 25.8541 48.7951 25.845 49.2123L25.3144 49.1307C25.3416 49.0309 25.3597 48.8495 25.3688 48.5865C25.387 48.3144 25.4006 47.9924 25.4096 47.6205C25.4187 47.2396 25.4232 46.8178 25.4232 46.3553C25.4323 45.8927 25.4323 45.4165 25.4232 44.9267C25.4232 44.4279 25.4187 43.929 25.4096 43.4302C25.4006 42.9313 25.387 42.4552 25.3688 42.0017C25.3597 41.5482 25.3461 41.1309 25.328 40.75C25.3189 40.3691 25.3099 40.0562 25.3008 39.8113L25.7498 39.8793Z" fill="#EFCB50"/>
<path d="M31.1379 46.7226C31.1379 46.514 31.156 46.2736 31.1923 46.0015C31.2286 45.7204 31.2875 45.4392 31.3692 45.158C31.4508 44.8769 31.5506 44.6002 31.6685 44.3281C31.7954 44.056 31.9451 43.8157 32.1174 43.6071C32.2898 43.3894 32.4893 43.217 32.7161 43.0901C32.9428 42.954 33.1968 42.886 33.4779 42.886C33.7682 42.886 34.0357 42.9858 34.2806 43.1853C34.5346 43.3848 34.7477 43.6433 34.9201 43.9608C35.1015 44.2782 35.2375 44.632 35.3282 45.022C35.4189 45.412 35.4552 45.7929 35.4371 46.1648C35.4371 46.709 35.3327 47.1942 35.1241 47.6205C34.9155 48.0468 34.648 48.3915 34.3214 48.6545C34.004 48.9175 33.6593 49.0944 33.2875 49.1851C32.9247 49.2758 32.58 49.2531 32.2535 49.1171C31.936 48.972 31.6685 48.7044 31.4508 48.3144C31.2422 47.9244 31.1379 47.3938 31.1379 46.7226ZM31.6413 46.777C31.6685 47.3303 31.7637 47.7566 31.927 48.0559C32.0902 48.3552 32.2852 48.5547 32.512 48.6545C32.7478 48.7452 33.0018 48.7452 33.2739 48.6545C33.546 48.5638 33.7999 48.4051 34.0357 48.1783C34.2716 47.9425 34.4711 47.6523 34.6344 47.3076C34.8067 46.9539 34.9019 46.5593 34.9201 46.124C34.9382 45.7975 34.911 45.48 34.8384 45.1716C34.7749 44.8632 34.6797 44.5911 34.5527 44.3553C34.4348 44.1104 34.2852 43.92 34.1038 43.7839C33.9314 43.6388 33.7319 43.5662 33.5051 43.5662C33.2875 43.5662 33.0925 43.6207 32.9201 43.7295C32.7478 43.8383 32.5891 43.988 32.444 44.1785C32.3079 44.3599 32.19 44.5685 32.0902 44.8043C31.9905 45.0401 31.9043 45.2759 31.8317 45.5118C31.7682 45.7476 31.7184 45.9789 31.6821 46.2056C31.6549 46.4233 31.6413 46.6138 31.6413 46.777Z" fill="#EFCB50"/>
<path d="M38.9749 44.2737C38.8933 44.2465 38.7799 44.2374 38.6348 44.2465C38.4987 44.2465 38.3491 44.2556 38.1858 44.2737C38.0316 44.2828 37.882 44.2964 37.7368 44.3145C37.5917 44.3327 37.4693 44.3417 37.3695 44.3417C37.3242 44.3417 37.2924 44.2782 37.2743 44.1513C37.2652 44.0152 37.2471 43.8338 37.2198 43.6071L39.1382 43.471C39.1654 43.1536 39.1835 42.9268 39.1926 42.7908C39.2016 42.6547 39.2016 42.5413 39.1926 42.4506C39.1926 42.3509 39.188 42.242 39.179 42.1241C39.179 41.9971 39.179 41.8021 39.179 41.5391C39.4148 41.5028 39.5917 41.4937 39.7096 41.5119C39.8365 41.521 39.9227 41.5527 39.9681 41.6071C40.0134 41.6615 40.0315 41.7432 40.0225 41.852C40.0225 41.9518 40.0089 42.0788 39.9817 42.233C39.9635 42.3871 39.9454 42.5731 39.9272 42.7908C39.9182 43.0084 39.9272 43.2533 39.9545 43.5254L41.5871 43.471V44.1377C41.5145 44.1377 41.4011 44.1422 41.2469 44.1513C41.0927 44.1603 40.9249 44.1694 40.7435 44.1785C40.5712 44.1875 40.408 44.1966 40.2538 44.2057C40.1086 44.2147 39.9998 44.2329 39.9272 44.2601C39.8547 44.5866 39.7776 44.9358 39.696 45.3077C39.6143 45.6795 39.5599 46.0469 39.5327 46.4097C39.5055 46.7725 39.5146 47.1126 39.5599 47.4301C39.6053 47.7384 39.7186 47.9969 39.9 48.2055C40.0814 48.4051 40.3399 48.5457 40.6755 48.6273C41.0111 48.6999 41.4555 48.6726 42.0088 48.5457C41.9907 48.6817 41.9362 48.7951 41.8455 48.8858C41.7639 48.9674 41.6641 49.0354 41.5462 49.0899C41.4374 49.1352 41.3195 49.1715 41.1925 49.1987C41.0655 49.2168 40.9522 49.2259 40.8524 49.2259C40.3898 49.2259 40.0225 49.1443 39.7504 48.981C39.4783 48.8087 39.2742 48.5865 39.1382 48.3144C39.0021 48.0423 38.9159 47.7339 38.8797 47.3892C38.8434 47.0355 38.8298 46.6772 38.8388 46.3144C38.857 45.9516 38.8842 45.5934 38.9205 45.2397C38.9568 44.8859 38.9749 44.5639 38.9749 44.2737Z" fill="#EFCB50"/>
<path d="M43.7236 46.7226C43.7236 46.514 43.7417 46.2736 43.778 46.0015C43.8143 45.7204 43.8732 45.4392 43.9549 45.158C44.0365 44.8769 44.1363 44.6002 44.2542 44.3281C44.3812 44.056 44.5308 43.8157 44.7031 43.6071C44.8755 43.3894 45.075 43.217 45.3018 43.0901C45.5285 42.954 45.7825 42.886 46.0636 42.886C46.3539 42.886 46.6214 42.9858 46.8663 43.1853C47.1203 43.3848 47.3334 43.6433 47.5058 43.9608C47.6872 44.2782 47.8232 44.632 47.9139 45.022C48.0046 45.412 48.0409 45.7929 48.0228 46.1648C48.0228 46.709 47.9184 47.1942 47.7098 47.6205C47.5012 48.0468 47.2337 48.3915 46.9071 48.6545C46.5897 48.9175 46.245 49.0944 45.8732 49.1851C45.5104 49.2758 45.1657 49.2531 44.8392 49.1171C44.5217 48.972 44.2542 48.7044 44.0365 48.3144C43.8279 47.9244 43.7236 47.3938 43.7236 46.7226ZM44.227 46.777C44.2542 47.3303 44.3494 47.7566 44.5127 48.0559C44.6759 48.3552 44.8709 48.5547 45.0977 48.6545C45.3335 48.7452 45.5875 48.7452 45.8596 48.6545C46.1317 48.5638 46.3856 48.4051 46.6214 48.1783C46.8573 47.9425 47.0568 47.6523 47.2201 47.3076C47.3924 46.9539 47.4876 46.5593 47.5058 46.124C47.5239 45.7975 47.4967 45.48 47.4241 45.1716C47.3606 44.8632 47.2654 44.5911 47.1384 44.3553C47.0205 44.1104 46.8709 43.92 46.6895 43.7839C46.5171 43.6388 46.3176 43.5662 46.0908 43.5662C45.8732 43.5662 45.6782 43.6207 45.5058 43.7295C45.3335 43.8383 45.1748 43.988 45.0297 44.1785C44.8936 44.3599 44.7757 44.5685 44.6759 44.8043C44.5762 45.0401 44.49 45.2759 44.4174 45.5118C44.3539 45.7476 44.3041 45.9789 44.2678 46.2056C44.2406 46.4233 44.227 46.6138 44.227 46.777Z" fill="#EFCB50"/>
<path d="M58.4861 40.7364C58.8217 40.7364 59.1119 40.8362 59.3568 41.0357C59.6108 41.2262 59.8284 41.4847 60.0098 41.8112C60.2003 42.1377 60.359 42.5141 60.486 42.9404C60.613 43.3667 60.7173 43.8157 60.7989 44.2873C60.8806 44.7499 60.944 45.2215 60.9894 45.7022C61.0347 46.1739 61.0665 46.6183 61.0846 47.0355C61.1028 47.4527 61.1118 47.8291 61.1118 48.1647C61.1209 48.5003 61.1254 48.7633 61.1254 48.9538H60.7989L60.2819 46.0832C60.2366 46.0378 60.1323 46.0106 59.969 46.0015C59.8148 45.9925 59.6289 45.997 59.4112 46.0151C59.2026 46.0333 58.9713 46.0605 58.7174 46.0968C58.4725 46.124 58.2367 46.1467 58.0099 46.1648C57.7922 46.1739 57.5927 46.1784 57.4113 46.1784C57.2299 46.1693 57.0984 46.1376 57.0167 46.0832V48.9538H56.3229C56.3229 48.9266 56.3229 48.8767 56.3229 48.8042C56.332 48.7225 56.3365 48.6409 56.3365 48.5593C56.3365 48.4776 56.341 48.4005 56.3501 48.328C56.3592 48.2554 56.3637 48.2055 56.3637 48.1783C56.4181 47.6523 56.4589 47.1217 56.4861 46.5865C56.5224 46.0423 56.5632 45.5163 56.6086 45.0084C56.6539 44.5005 56.7129 44.0152 56.7855 43.5526C56.8671 43.0901 56.9805 42.6728 57.1256 42.301C57.2707 41.92 57.4521 41.5981 57.6698 41.335C57.8875 41.0629 58.1596 40.8634 58.4861 40.7364ZM58.7038 41.3622C58.4679 41.3622 58.2684 41.4484 58.1051 41.6207C57.9509 41.784 57.824 42.0017 57.7242 42.2738C57.6244 42.5368 57.5473 42.8316 57.4929 43.1581C57.4385 43.4846 57.4022 43.8066 57.3841 44.124C57.3659 44.4324 57.3523 44.7227 57.3433 44.9948C57.3433 45.2578 57.3433 45.4619 57.3433 45.607C57.7877 45.607 58.2412 45.5752 58.7038 45.5118C59.1663 45.4392 59.6017 45.3666 60.0098 45.2941C60.0189 45.2578 60.0234 45.1988 60.0234 45.1172C60.0325 45.0356 60.037 44.9449 60.037 44.8451C60.0461 44.7453 60.0507 44.6501 60.0507 44.5594C60.0597 44.4687 60.0643 44.4098 60.0643 44.3825C60.0643 44.0832 60.0461 43.7975 60.0098 43.5254C59.9826 43.2533 59.9191 42.9903 59.8194 42.7363C59.7287 42.4733 59.5926 42.2284 59.4112 42.0017C59.2389 41.7749 59.0031 41.5618 58.7038 41.3622Z" fill="#EFCB50"/>
<path d="M63.2348 38.6412C63.3617 38.6594 63.4706 38.6957 63.5613 38.7501C63.6611 38.7954 63.7381 38.8816 63.7926 39.0086C63.7926 39.1809 63.7971 39.4213 63.8062 39.7296C63.8243 40.0289 63.8379 40.3781 63.847 40.7772C63.8651 41.1763 63.8833 41.6071 63.9014 42.0697C63.9195 42.5323 63.9377 42.9994 63.9558 43.471C63.974 43.9426 63.9876 44.4098 63.9966 44.8723C64.0148 45.3349 64.0284 45.7657 64.0375 46.1648C64.0556 46.5639 64.0692 46.9176 64.0783 47.226C64.0873 47.5344 64.0964 47.7702 64.1055 47.9334C64.1055 47.9516 64.1009 47.9833 64.0919 48.0287C64.0919 48.074 64.0873 48.1284 64.0783 48.1919C64.0783 48.2554 64.0737 48.3189 64.0647 48.3824C64.0647 48.4368 64.0647 48.4776 64.0647 48.5049C64.0556 48.5593 64.0511 48.6273 64.0511 48.7089C64.0511 48.7815 64.042 48.854 64.0239 48.9266C64.0057 48.9992 63.974 49.0672 63.9286 49.1307C63.8923 49.1851 63.8288 49.2168 63.7381 49.2259L63.5069 48.9402C63.4978 48.9311 63.4842 48.7633 63.466 48.4368C63.457 48.1012 63.4388 47.6704 63.4116 47.1444C63.3935 46.6092 63.3753 46.0106 63.3572 45.3485C63.3391 44.6773 63.3164 44.0016 63.2892 43.3214C63.271 42.6411 63.2529 41.9881 63.2348 41.3622C63.2166 40.7364 63.203 40.1967 63.1939 39.7432C63.1939 39.707 63.1939 39.6344 63.1939 39.5256C63.203 39.4167 63.2076 39.3079 63.2076 39.199C63.2166 39.0811 63.2212 38.9723 63.2212 38.8725C63.2302 38.7637 63.2348 38.6866 63.2348 38.6412Z" fill="#EFCB50"/>
<path d="M66.5141 40.3419C66.5504 40.6684 66.5867 41.0312 66.6229 41.4303C66.6683 41.8203 66.7046 42.2239 66.7318 42.6411C66.759 43.0493 66.7771 43.4619 66.7862 43.8792C66.7953 44.2873 66.7907 44.6728 66.7726 45.0356C66.9177 44.9086 67.0492 44.7998 67.1671 44.7091C67.2941 44.6093 67.4166 44.5231 67.5345 44.4506C67.6615 44.378 67.7839 44.3236 67.9018 44.2873C68.0288 44.251 68.1739 44.2329 68.3372 44.2329C68.6637 44.2329 68.963 44.3145 69.2351 44.4778C69.5072 44.632 69.7385 44.8406 69.929 45.1036C70.1194 45.3576 70.2645 45.6433 70.3643 45.9607C70.4732 46.2691 70.5276 46.5729 70.5276 46.8723C70.5094 47.3802 70.4051 47.7883 70.2147 48.0967C70.0242 48.396 69.7702 48.6273 69.4528 48.7906C69.1444 48.9538 68.7771 49.0491 68.3508 49.0763C67.9336 49.1035 67.4937 49.0989 67.0311 49.0627V48.4232C67.1944 48.5683 67.344 48.6545 67.4801 48.6817C67.6161 48.6999 67.7794 48.7089 67.9698 48.7089C68.2692 48.7089 68.5412 48.6636 68.7861 48.5729C69.031 48.4822 69.2396 48.3552 69.412 48.1919C69.5934 48.0196 69.7294 47.8155 69.8201 47.5797C69.9199 47.3439 69.9698 47.0854 69.9698 46.8042C69.9698 46.5593 69.9562 46.3417 69.929 46.1512C69.9017 45.9607 69.8383 45.7884 69.7385 45.6342C69.6478 45.48 69.5117 45.3349 69.3303 45.1988C69.1489 45.0537 68.904 44.9131 68.5957 44.7771C68.5775 44.768 68.5367 44.7635 68.4732 44.7635C68.4097 44.7544 68.3644 44.7499 68.3372 44.7499C68.1921 44.7499 68.0469 44.7952 67.9018 44.8859C67.7567 44.9676 67.6252 45.0764 67.5073 45.2124C67.3894 45.3394 67.2896 45.4845 67.208 45.6478C67.1263 45.802 67.0674 45.9471 67.0311 46.0832C67.013 46.192 66.9857 46.387 66.9495 46.6682C66.9223 46.9403 66.886 47.2351 66.8406 47.5525C66.8043 47.87 66.7726 48.1693 66.7454 48.4504C66.7182 48.7316 66.6955 48.9266 66.6774 49.0354L66.2556 48.9538L65.9835 40.3419H66.5141Z" fill="#EFCB50"/>
<path d="M72.3376 43.9336C72.3376 43.8882 72.3648 43.8429 72.4192 43.7975C72.4827 43.7522 72.5553 43.7159 72.6369 43.6887C72.7276 43.6615 72.8138 43.6433 72.8954 43.6343C72.977 43.6252 73.036 43.6388 73.0723 43.6751C73.1267 44.7998 73.231 45.6977 73.3852 46.3689C73.5484 47.031 73.7298 47.5162 73.9294 47.8246C74.138 48.133 74.3602 48.2917 74.596 48.3008C74.8318 48.3008 75.0631 48.201 75.2899 48.0015C75.5166 47.7929 75.7252 47.5117 75.9157 47.158C76.1152 46.8042 76.274 46.4233 76.3919 46.0151C76.5189 45.607 76.5959 45.1988 76.6232 44.7907C76.6504 44.3825 76.6141 44.0197 76.5143 43.7023L77.3306 43.6071C77.3397 43.7431 77.3624 43.9699 77.3986 44.2873C77.444 44.5957 77.4893 44.9494 77.5347 45.3485C77.5891 45.7385 77.6481 46.1467 77.7116 46.5729C77.775 46.9992 77.8295 47.3983 77.8748 47.7702C77.9202 48.133 77.961 48.4459 77.9973 48.7089C78.0335 48.9629 78.0517 49.1216 78.0517 49.1851H77.4667L76.8272 46.8314C76.7003 47.1489 76.5461 47.4527 76.3647 47.743C76.1833 48.0332 75.9837 48.2872 75.766 48.5049C75.5574 48.7225 75.3352 48.8949 75.0994 49.0218C74.8636 49.1398 74.6278 49.1896 74.3919 49.1715C74.1652 49.1443 73.943 49.0354 73.7253 48.845C73.5076 48.6545 73.3035 48.3552 73.1131 47.947C72.9317 47.5298 72.7729 46.9947 72.6369 46.3417C72.5008 45.6886 72.4011 44.8859 72.3376 43.9336Z" fill="#EFCB50"/>
<path d="M79.7529 43.9064C79.8617 43.9064 79.9796 43.9336 80.1066 43.988C80.2336 44.0424 80.3243 44.1513 80.3787 44.3145C80.4512 44.0061 80.5601 43.7567 80.7052 43.5662C80.8594 43.3758 81.0317 43.2443 81.2222 43.1717C81.4217 43.0991 81.6258 43.0765 81.8344 43.1037C82.0521 43.1218 82.2516 43.1853 82.433 43.2941C82.6235 43.403 82.7868 43.5436 82.9228 43.7159C83.0679 43.8882 83.1677 44.0878 83.2221 44.3145C83.3219 44.0333 83.4534 43.7749 83.6167 43.539C83.789 43.2941 83.9749 43.0901 84.1745 42.9268C84.3831 42.7635 84.5962 42.6502 84.8139 42.5867C85.0407 42.5232 85.2493 42.5277 85.4397 42.6003C85.6393 42.6638 85.8116 42.8089 85.9567 43.0356C86.1109 43.2533 86.2198 43.5708 86.2832 43.988C86.3014 44.1059 86.3241 44.2828 86.3513 44.5186C86.3785 44.7453 86.4057 45.0038 86.4329 45.2941C86.4692 45.5843 86.5055 45.8927 86.5417 46.2192C86.5871 46.5367 86.6234 46.8405 86.6506 47.1307C86.6869 47.421 86.7186 47.684 86.7458 47.9198C86.773 48.1466 86.7957 48.3144 86.8138 48.4232C86.8138 48.5139 86.8093 48.6137 86.8002 48.7225C86.7912 48.8314 86.7685 48.9266 86.7322 49.0082C86.705 49.0808 86.6551 49.1307 86.5826 49.1579C86.5191 49.176 86.4193 49.1352 86.2832 49.0354C86.2832 48.9266 86.2696 48.7497 86.2424 48.5049C86.2152 48.26 86.188 47.9788 86.1608 47.6613C86.1336 47.3348 86.0973 46.9947 86.052 46.641C86.0157 46.2782 85.9749 45.938 85.9295 45.6206C85.8932 45.3031 85.8615 45.022 85.8343 44.7771C85.8071 44.5322 85.7799 44.3599 85.7527 44.2601C85.6166 43.8429 85.4715 43.5526 85.3173 43.3894C85.1722 43.2261 85.0225 43.1536 84.8683 43.1717C84.7232 43.1898 84.5826 43.2851 84.4466 43.4574C84.3105 43.6297 84.1881 43.8474 84.0792 44.1104C83.9704 44.3735 83.8661 44.6682 83.7663 44.9948C83.6756 45.3122 83.6031 45.6297 83.5486 45.9471C83.5033 46.2646 83.4715 46.5639 83.4534 46.845C83.4443 47.1262 83.4625 47.3575 83.5078 47.5389L82.9772 47.6477C83.0044 46.777 82.9727 46.065 82.882 45.5118C82.8004 44.9494 82.6825 44.5186 82.5283 44.2193C82.3831 43.92 82.2154 43.7431 82.0249 43.6887C81.8344 43.6252 81.6439 43.6615 81.4535 43.7975C81.2721 43.9336 81.1043 44.1603 80.9501 44.4778C80.7959 44.7952 80.678 45.1807 80.5964 45.6342C80.5238 46.0786 80.4966 46.582 80.5147 47.1444C80.5329 47.7067 80.6281 48.3098 80.8004 48.9538H80.2834C80.2834 48.9538 80.2698 48.8677 80.2426 48.6953C80.2245 48.523 80.1973 48.3053 80.161 48.0423C80.1338 47.7702 80.102 47.4663 80.0658 47.1307C80.0295 46.7861 79.9932 46.4414 79.9569 46.0968C79.9206 45.743 79.8844 45.4074 79.8481 45.09C79.8118 44.7635 79.7801 44.4868 79.7529 44.2601C79.7529 44.2329 79.7529 44.1739 79.7529 44.0832C79.7529 43.9835 79.7529 43.9245 79.7529 43.9064Z" fill="#EFCB50"/>
<rect x="47.2596" y="60.5114" width="9.82382" height="6.29732" fill="#EEC458"/>
<path d="M51.7412 61.8499C52.7434 61.8499 53.5586 62.6628 53.5598 63.6651C53.5598 64.6662 52.7434 65.4848 51.7446 65.486C50.7459 65.486 49.9272 64.6685 49.9272 63.6674C49.9272 62.664 50.7389 61.8499 51.7423 61.8488L51.7412 61.8499Z" fill="#2C4722"/>
<path d="M57.3366 60.5647C57.1576 60.2853 56.8897 60.1467 56.5583 60.1444C55.9787 60.141 55.399 60.1467 54.8194 60.1386C54.7478 60.1386 54.6601 60.0994 54.6081 60.0486C54.279 59.7276 53.9557 59.6675 53.6359 59.3373C53.4119 59.1064 53.1486 58.9955 52.823 59.0001C52.1048 59.0094 51.3877 59.0059 50.6695 59.0013C50.3612 58.999 50.1106 59.1064 49.897 59.3304C49.5737 59.671 49.2412 59.7334 48.9063 60.0624C48.8613 60.1075 48.7816 60.1386 48.7169 60.1386C48.1373 60.1444 47.5577 60.141 46.978 60.1421C46.3857 60.1421 46 60.5266 46 61.1167C46 62.9237 46 64.7308 46 66.5379C46 67.0852 46.2286 67.3912 46.7517 67.5482C46.7598 67.5505 46.7655 67.5586 46.7736 67.5644H56.7142C56.9613 67.4916 57.1876 67.3808 57.325 67.1521C57.392 67.0401 57.4336 66.9131 57.4867 66.7919V60.9169C57.437 60.7991 57.4036 60.671 57.3366 60.5647V60.5647ZM51.7422 66.1718C50.3346 66.1718 49.1938 65.0264 49.1938 63.6165C49.1938 62.2078 50.3393 61.0612 51.7445 61.0612C53.1509 61.0612 54.2929 62.2078 54.2917 63.6188C54.2917 65.0298 53.1497 66.173 51.741 66.1718H51.7422ZM56.3805 62.112C55.9752 62.112 55.6473 61.7841 55.6473 61.3788C55.6473 60.9735 55.9752 60.6455 56.3805 60.6455C56.7858 60.6455 57.1137 60.9735 57.1137 61.3788C57.1137 61.7841 56.7858 62.112 56.3805 62.112Z" fill="#2C4722"/>
<path d="M16.322 55.3497C16.322 55.3497 38.3131 53.8499 52.42 53.8562C66.377 53.8624 88.1339 55.3497 88.1339 55.3497" stroke="#325227" stroke-width="3" stroke-linecap="round" stroke-linejoin="round"/>
<defs>
<linearGradient id="paint0_linear_36_7487" x1="3.15546" y1="46.2987" x2="99.1607" y2="46.2987" gradientUnits="userSpaceOnUse">
<stop stop-color="#45633B"/>
<stop offset="1" stop-color="#67915A"/>
</linearGradient>
</defs>
</svg>
