<svg width="125" height="130" viewBox="0 0 85 89" fill="none" xmlns="http://www.w3.org/2000/svg">
<path d="M42.5 88.348C65.9721 88.348 85 70.2501 85 47.9252C85 25.6002 65.9721 7.5023 42.5 7.5023C19.0279 7.5023 0 25.6002 0 47.9252C0 70.2501 19.0279 88.348 42.5 88.348Z" fill="#924806"/>
<path d="M42.5 81C65.9721 81 85 62.8675 85 40.5C85 18.1325 65.9721 0 42.5 0C19.0279 0 0 18.1325 0 40.5C0 62.8675 19.0279 81 42.5 81Z" fill="#EC7000"/>
<path d="M36 76.5C27.3333 76.6667 8.8 70.6 4 45C7 53.1667 17.6 70.9 36 76.5Z" fill="#CD6405"/>
<path d="M47 6.01246C58.6667 5.67912 81.5 11.9125 79.5 39.5125C77 30.1791 67 10.4125 47 6.01246Z" fill="#F09441"/>
<g clip-path="url(#clip0_31_1506)">
<path d="M69.2566 35.1548L42.839 16.6965L16.7616 35.1487L15 32.6945L42.8269 13L71 32.6884L69.2566 35.1548Z" fill="#562B04"/>
<path d="M42.833 19.1085L22.1496 33.7075V66.994H32.227C31.5953 64.5638 31.249 61.8985 31.249 59.1005C31.249 47.8543 36.8679 44.797 43.7927 44.797C50.7175 44.797 56.3364 47.8543 56.3364 59.1005C56.3364 61.8985 55.9901 64.5638 55.3584 66.994H63.5102V33.7075L42.833 19.1085ZM43.6773 39.2734C40.0752 39.2734 37.1534 36.3729 37.1534 32.797C37.1534 29.2211 40.0752 26.3206 43.6773 26.3206C45.2992 26.3206 46.7813 26.9116 47.9233 27.8884C47.3645 27.6894 46.7631 27.5688 46.1314 27.5688C43.2217 27.5688 40.8588 29.9085 40.8588 32.803C40.8588 35.6975 43.2156 38.0372 46.1314 38.0372C46.7631 38.0372 47.3645 37.9226 47.9233 37.7176C46.7813 38.6884 45.2992 39.2854 43.6773 39.2854V39.2734Z" fill="#562B04"/>
</g>
<defs>
<clipPath id="clip0_31_1506">
<rect width="56" height="54" fill="white" transform="translate(15 13)"/>
</clipPath>
</defs>
</svg>
