<svg width="125" height="130" viewBox="0 0 85 89" fill="none" xmlns="http://www.w3.org/2000/svg">
<path d="M42.5 88.348C65.9721 88.348 85 70.2501 85 47.9252C85 25.6002 65.9721 7.5023 42.5 7.5023C19.0279 7.5023 0 25.6002 0 47.9252C0 70.2501 19.0279 88.348 42.5 88.348Z" fill="#924806"/>
<path d="M42.5 81C65.9721 81 85 62.8675 85 40.5C85 18.1325 65.9721 0 42.5 0C19.0279 0 0 18.1325 0 40.5C0 62.8675 19.0279 81 42.5 81Z" fill="#EC7000"/>
<path d="M36 76.5C27.3333 76.6667 8.8 70.6 4 45C7 53.1667 17.6 70.9 36 76.5Z" fill="#CD6405"/>
<path d="M47 6.01246C58.6667 5.67912 81.5 11.9125 79.5 39.5125C77 30.1791 67 10.4125 47 6.01246Z" fill="#F09441"/>
<path fill-rule="evenodd" clip-rule="evenodd" d="M47.5921 26.4856C51.7154 23.3652 52.8164 17.1083 49.7779 13V13.0054C48.8182 16.0566 46.5393 17.7749 44.2266 19.5186C43.9901 19.6969 43.7532 19.8756 43.5173 20.0559C42.1879 21.0731 41.4551 22.4895 41.2833 23.9888C40.2563 21.8853 38.7448 20.0067 36.7116 18.3392C34.8586 19.7716 34.1732 21.1464 34.6553 22.4636C38.3739 24.0346 40.8619 26.5881 41.8172 30.4049C41.6553 30.2645 41.4934 30.1228 41.3315 29.9811C41.1696 29.8394 41.0077 29.6977 40.8457 29.5573C35.7617 25.1521 27.8496 25.1899 22.8357 29.6707C19.5489 32.6075 17.919 36.3001 17.9999 40.4786C18.1834 49.8126 23.111 56.8361 30.9475 62.1267C34.3207 64.4049 38.1958 64.4535 42.0007 62.672C42.2706 62.5478 42.7239 62.5316 42.983 62.6612C47.8565 65.0365 52.2983 64.1404 56.2112 60.8689C60.8959 56.9549 64.2798 52.1556 66.0878 46.4817C67.3615 42.4868 67.3615 38.4757 65.6885 34.551V34.5564C61.9159 25.719 50.7548 23.5002 43.5551 30.1296C43.4534 30.224 43.3321 30.3038 43.1782 30.4051C43.1033 30.4544 43.0208 30.5087 42.929 30.5722C42.8914 29.9094 42.8232 29.2627 42.7239 28.632C43.0249 28.8008 43.376 28.7754 43.8195 28.5424C44.1945 28.3453 44.5789 28.1594 44.9631 27.9737C45.8839 27.5284 46.8038 27.0836 47.5921 26.4856ZM61.1711 43.7231C61.1711 44.711 61.8134 45.51 62.6013 45.51C63.3893 45.51 64.0316 44.711 64.0316 43.7231C64.0316 42.7352 63.3893 41.9362 62.6013 41.9362C61.8134 41.9362 61.1711 42.7352 61.1711 43.7231ZM62.5474 40.3004C63.4217 40.7215 64.1179 40.3382 64.0855 39.4205H64.0801C64.0639 38.8482 64.01 38.276 63.9182 37.6929C63.4811 34.8749 62.2829 32.4024 59.8434 30.5938C59.3307 30.2105 58.791 29.8866 58.1919 29.6275C56.9236 29.0876 55.5312 30.1242 55.7686 31.4144C56.4649 35.2042 58.8234 38.5135 62.5474 40.3004Z" fill="#562B04"/>
</svg>
