<svg width="125" height="130" viewBox="0 0 85 89" fill="none" xmlns="http://www.w3.org/2000/svg">
<path d="M42.5 88.348C65.9721 88.348 85 70.2501 85 47.9252C85 25.6002 65.9721 7.5023 42.5 7.5023C19.0279 7.5023 0 25.6002 0 47.9252C0 70.2501 19.0279 88.348 42.5 88.348Z" fill="#924806"/>
<path d="M42.5 81C65.9721 81 85 62.8675 85 40.5C85 18.1325 65.9721 0 42.5 0C19.0279 0 0 18.1325 0 40.5C0 62.8675 19.0279 81 42.5 81Z" fill="#EC7000"/>
<path d="M62.3034 42.029C62.1626 41.069 61.977 40.1154 61.7466 39.1745C64.0059 34.8577 68.0443 24.2596 61.1834 12.4599C61.1834 12.4599 56.7929 7.03693 40.4533 17.0946C40.4533 17.0946 45.5799 19.6186 50.8216 19.7267C50.5976 20.9155 50.3032 22.3269 49.932 23.7001C49.1703 24.1388 48.5047 24.7301 47.9799 25.4421L48.4087 23.2678C48.4919 22.8292 48.5495 22.3078 48.0503 22.1044C47.8775 22.0345 47.6919 22.0281 47.5127 22.0853C46.3351 22.4477 45.4007 23.3314 44.735 24.3486C44.4278 24.8509 44.1526 25.3722 43.903 25.9062C41.759 22.2443 38.6293 19.3579 34.61 17.1582C33.0228 16.2936 31.2372 16.1473 29.6243 16.5987C26.6419 16.9993 21.9313 18.9002 15 24.9399C15 24.9399 20.3121 26.542 25.3106 25.7854C26.3218 27.2286 27.9219 28.3984 29.0739 29.441C27.7875 30.7825 26.7443 32.5181 25.9186 34.6733C25.1314 36.7141 25.9506 41.3424 23.9474 42.2452C22.9938 42.6712 22.2578 43.1734 21.6817 43.7011C22.5586 43.771 23.557 43.9999 24.5746 44.5466C27.2691 45.9835 29.1635 49.0669 30.2067 53.7016L28.9587 53.9813C28.0051 49.7344 26.3282 46.9434 23.9858 45.6783C22.5778 44.9217 21.1953 44.8899 20.2801 44.998C19.2689 45.7037 18.2449 46.7082 17.4577 47.8907C16.0496 50.0078 14.904 52.5826 16.056 54.3437C16.7216 55.3355 17.9569 55.7741 19.1025 55.4372L19.4033 55.3545C19.5377 55.7551 19.6977 56.1619 19.8833 56.5688C20.9905 56.6006 21.9441 56.6324 22.3474 56.6324C23.685 56.6324 27.8963 56.6896 31.7812 56.1111C33.5412 55.7932 34.9812 55.3545 36.1781 54.8586L36.7285 52.0232C36.6901 51.0949 37.3749 48.1832 38.1301 48.7299C39.3589 49.283 40.4085 50.1667 41.1574 51.273C42.0022 50.2494 42.3222 49.5691 42.7958 49.8552C43.4038 50.4338 40.8502 54.9222 34.1108 56.4989C34.1108 56.4989 29.4899 57.9611 20.1905 57.1728C22.1106 60.7648 26.3154 64.0771 34.3796 63.8991C38.4629 63.8101 37.8101 67.2368 38.7957 68.6101C38.7957 68.6101 44.4854 71.3629 54.1944 62.2398C56.3769 60.1926 59.1482 58.3108 60.9146 55.9013C62.681 53.4981 63.5194 50.3384 62.8666 47.4075C62.4762 45.6783 62.5594 43.7964 62.297 42.0227L62.3034 42.029ZM19.0321 52.5572C18.9873 52.5 18.9489 52.4428 18.9105 52.3855C18.8849 52.341 18.8529 52.2965 18.8273 52.2457C17.7777 50.3829 19.2113 47.789 19.8641 46.7782C20.0369 46.5048 20.1585 46.3458 20.1585 46.3458C21.7713 47.8907 19.0257 52.5572 19.0257 52.5572H19.0321ZM24.8754 52.8496C22.2834 51.4764 23.1474 46.7718 23.1474 46.7718C25.253 47.4902 24.8754 52.8496 24.8754 52.8496ZM27.7363 38.6532C27.7363 38.7104 27.7299 38.7612 27.7235 38.8057C27.7235 38.7549 27.7299 38.704 27.7363 38.6532ZM31.2692 43.771C30.1619 43.7583 29.3619 43.237 28.8115 42.5376C28.9971 42.6648 29.1955 42.7474 29.4067 42.7665C30.5203 42.8492 31.5572 41.2026 31.7236 39.0855C31.89 36.9684 31.1219 35.1883 30.0083 35.1056C29.1507 35.0421 28.3315 36.0148 27.9347 37.4389C28.2163 36.1038 28.7923 34.5335 29.8099 33.5226C30.0915 33.4527 31.2628 33.192 33.2084 33.2619C33.7588 33.974 34.2644 35.3409 34.322 37.9602C34.3988 39.4796 34.0788 43.8028 31.282 43.7774L31.2692 43.771ZM29.9571 28.6209C29.4067 27.5592 28.6387 26.3958 27.5699 25.2705C30.0339 24.4567 32.178 22.8546 33.2404 19.9174C35.4164 20.9282 37.6437 22.6702 39.1285 25.7473C35.2436 25.7981 32.2484 26.7009 29.9507 28.6209H29.9571ZM42.9558 48.4566C40.7734 48.3103 39.6789 46.0025 39.3269 44.038C39.6149 45.0362 40.1589 45.7228 40.8374 45.7737C41.951 45.8563 42.9878 44.2097 43.1542 42.0926C43.3206 39.9755 42.5526 38.1954 41.439 38.1128C40.6518 38.0556 39.9029 38.8757 39.4741 40.109C39.9349 38.0365 40.959 36.2119 42.5014 35.4235C43.8262 35.9576 45.2407 36.606 46.7383 37.4134C47.2695 38.6214 47.5383 40.0963 47.5127 41.3806C47.3911 46.5048 45.0486 48.5964 42.9558 48.4566V48.4566ZM59.9418 34.5398C58.3353 31.7488 55.9737 29.7271 53.1256 28.3666L53.7144 27.3367C53.8488 27.165 53.9 26.9425 53.8616 26.7263C53.7656 26.542 53.5992 26.4085 53.4008 26.3449L52.0696 25.7727C52.364 25.3913 52.62 24.978 52.8248 24.5393C52.876 24.4313 52.908 24.3232 52.9144 24.2024C52.9528 23.6811 52.5624 23.2233 52.0312 23.1852C51.9608 23.1852 51.884 23.1852 51.8136 23.1852C52.1592 22.1298 52.428 20.9473 52.5304 19.6694C54.9817 19.4469 57.3305 18.5632 59.0778 16.5161C61.2922 19.9428 63.9163 26.1732 59.9418 34.5335V34.5398Z" fill="#562B04"/>
<path d="M36 76.5C27.3333 76.6667 8.8 70.6 4 45C7 53.1667 17.6 70.9 36 76.5Z" fill="#CD6405"/>
<path d="M47 6.01246C58.6667 5.67912 81.5 11.9125 79.5 39.5125C77 30.1791 67 10.4125 47 6.01246Z" fill="#F09441"/>
</svg>
