<svg width="92" height="138" viewBox="0 0 92 138" fill="none" xmlns="http://www.w3.org/2000/svg">
<path d="M4.20346 107.29C7.77315 109.025 60.8077 106.74 76.0167 107.131C70.4973 104.523 51.0969 103.299 38.9787 103.315C13.9206 103.352 4.20346 107.29 4.20346 107.29Z" fill="#A09468"/>
<path d="M4.20346 106.165C7.77315 107.899 60.8077 105.615 76.0167 106.005C70.4973 103.397 51.0969 102.173 38.9787 102.192C13.9206 102.226 4.20346 106.165 4.20346 106.165Z" fill="#B8A686"/>
<path d="M39.562 103.977C39.562 103.977 47.3272 109.145 52.2314 113.204C52.2314 113.204 61.5974 109.029 67.3809 105.16C67.3809 105.16 53.4725 103.305 39.562 103.977Z" fill="#E4DAC7"/>
<path d="M19.8807 7.16083C19.8807 7.16083 24.1124 3.31931 28.3101 1.29114C28.3101 1.29114 34.4212 4.86469 37.2502 5.84413C37.2502 5.85339 27.5438 6.32 19.8807 7.16083Z" fill="#CDBEA3"/>
<path d="M42.9145 5.62252C42.9145 5.62252 49.7368 1.09956 56.6398 0C57.0464 0.565948 58.9325 4.50219 59.3731 6.65508L42.9145 5.62252Z" fill="#E4DAC7"/>
<path d="M49.5067 5.08215C49.5067 5.08215 59.773 1.64256 67.3978 1.98444C67.7341 2.60121 69.1431 6.76611 69.3284 8.96293L49.5067 5.08215Z" fill="#EBE4D6"/>
<path d="M84.4481 101.594C87.4813 102.023 91.6621 99.309 91.9112 97.5257C92.1239 95.3059 90.2976 90.7875 86.5322 89.2513C82.2067 87.2879 76.2338 86.9159 71.1039 86.9551V100.157C76.0167 100.254 79.68 100.727 84.4481 101.594Z" fill="#3EAD5B"/>
<path d="M84.0202 100.38C86.6107 100.736 90.1805 98.4792 90.3935 96.9961C90.5828 95.1482 89.0162 91.3898 85.7998 90.1148C82.1067 88.4816 77.0042 88.1721 72.6236 88.2042V99.1838C76.8192 99.2554 79.9481 99.6596 84.0202 100.38Z" stroke="#73C387" stroke-width="1.08" stroke-linecap="round" stroke-linejoin="round"/>
<path d="M86.5064 86.1371C88.8712 87.0218 91.1318 85.6751 91.7172 82.0069C92.4091 77.6548 90.7637 74.1529 87.643 72.7809C83.3199 70.7017 77.7727 70.533 72.6426 70.5746V84.5201C77.1257 84.2707 82.132 84.4532 86.5064 86.1371Z" fill="#E77749"/>
<path d="M72.632 83.1248C77.1129 82.8825 82.8198 83.3073 86.4958 84.8806C88.4009 85.592 90.225 84.4832 90.6955 81.5193C91.2554 78.013 89.927 75.197 87.4132 74.0836C83.6307 72.3466 76.9255 71.6397 72.632 71.806" stroke="#EEA07F" stroke-width="1.08" stroke-linecap="round" stroke-linejoin="round"/>
<path d="M90.7254 44.6362C85.7935 42.7607 79.78 42.2548 73.771 42.5411V28.5958C79.5311 28.3971 85.4975 29.0068 90.6317 30.8018L90.7254 44.6362Z" fill="#2C9EC8"/>
<path d="M73.771 29.8259C78.5966 29.6596 84.974 30.2024 89.2759 31.7064L89.3547 42.9006C85.2209 41.3275 78.8072 40.9048 73.771 41.145" stroke="#5EC3CF" stroke-width="1.08" stroke-linecap="round" stroke-linejoin="round"/>
<path d="M85.9403 25.9573C83.2517 25.1465 78.9797 24.6406 74.6118 24.7191L74.2988 10.8591C79.3203 10.7044 85.4037 12.0303 87.922 13.2893C91.1595 14.9063 92.6944 16.9021 91.7004 18.0964C90.8297 19.1428 88.4924 18.6531 88.2115 19.5147C87.9304 20.3763 90.34 22.6632 90.34 25.5207C90.338 27.1146 88.2583 26.6573 85.9403 25.9573Z" fill="#D04554"/>
<path d="M74.3222 11.9776C79.1584 11.7466 84.8142 13.031 86.8981 13.9804C89.8781 15.3364 91.4279 16.8679 90.4168 17.6764C89.6951 18.2492 87.4218 18.0414 87.0961 19.1317C86.6574 20.5962 88.6011 22.1785 89.2246 24.7057C89.6013 26.2602 87.0961 25.4287 85.2207 24.8466C83.0431 24.1721 78.1452 23.747 74.6012 23.8464" stroke="#E37682" stroke-width="1.08" stroke-linecap="round" stroke-linejoin="round"/>
<path d="M21.3984 130.121L19.6338 129.842C19.4522 129.814 19.2797 129.737 19.1314 129.62C18.983 129.503 18.8632 129.348 18.7823 129.17L17.9926 127.435C17.8991 127.229 17.7544 127.056 17.575 126.935C17.3956 126.814 17.1885 126.75 16.9773 126.75C16.766 126.75 16.559 126.814 16.3795 126.935C16.2001 127.056 16.0554 127.229 15.9619 127.435L15.1743 129.17C15.0929 129.348 14.9729 129.502 14.8246 129.619C14.6764 129.736 14.5042 129.813 14.3229 129.842L12.5583 130.121C12.348 130.152 12.1498 130.246 11.9865 130.393C11.8232 130.54 11.7012 130.734 11.6346 130.952C11.568 131.171 11.5594 131.405 11.6098 131.629C11.6602 131.852 11.7676 132.056 11.9197 132.217L13.1968 133.566C13.3285 133.705 13.427 133.876 13.4837 134.066C13.5405 134.255 13.5538 134.457 13.5225 134.654L13.2224 136.559C13.1865 136.786 13.2097 137.018 13.2893 137.23C13.3689 137.443 13.5017 137.627 13.6727 137.762C13.8437 137.897 14.0461 137.977 14.2569 137.993C14.4677 138.01 14.6786 137.962 14.8657 137.855L16.443 136.957C16.6066 136.861 16.7894 136.812 16.9751 136.812C17.1608 136.812 17.3436 136.861 17.5073 136.957L19.0846 137.855C19.2715 137.962 19.4821 138.01 19.6927 137.993C19.9033 137.977 20.1055 137.897 20.2764 137.762C20.4473 137.628 20.5801 137.444 20.6599 137.232C20.7397 137.02 20.7632 136.788 20.7279 136.562L20.4256 134.654C20.3953 134.457 20.4091 134.256 20.4657 134.066C20.5224 133.877 20.6204 133.705 20.7513 133.566L22.0285 132.217C22.1796 132.056 22.2863 131.853 22.3367 131.631C22.3871 131.408 22.379 131.174 22.3134 130.957C22.2479 130.739 22.1275 130.545 21.9658 130.397C21.8041 130.25 21.6075 130.154 21.3984 130.121Z" fill="#DFCD3D"/>
<path d="M16.9304 132.875L22.2966 130.91C22.2276 130.701 22.1074 130.518 21.949 130.379C21.7906 130.241 21.6001 130.151 21.3984 130.122L19.6337 129.842C19.4676 129.816 19.3091 129.75 19.1697 129.648L16.9304 132.875Z" fill="#C7B111"/>
<path d="M16.9305 132.876V126.754C16.7271 126.761 16.5294 126.828 16.3587 126.948C16.1879 127.068 16.0508 127.237 15.9619 127.436L15.1744 129.17C15.0999 129.334 14.993 129.478 14.8614 129.591L16.9305 132.876Z" fill="#C7B111"/>
<path d="M16.9304 132.876L13.7183 137.791C13.8872 137.915 14.0842 137.987 14.2879 137.998C14.4916 138.01 14.6943 137.961 14.8741 137.856L16.4514 136.958C16.5992 136.872 16.7629 136.823 16.9304 136.817V132.876Z" fill="#C7B111"/>
<path d="M11.6301 131.004C11.5737 131.217 11.5718 131.442 11.6247 131.656C11.6776 131.87 11.7832 132.064 11.9303 132.217L13.2074 133.566C13.3296 133.696 13.4228 133.854 13.4799 134.028L16.9325 132.885L11.6301 131.004Z" fill="#C7B111"/>
<path d="M16.9304 132.876L20.3106 137.727C20.4729 137.592 20.5982 137.412 20.6733 137.206C20.7483 137.001 20.7701 136.776 20.7363 136.558L20.4341 134.65C20.4062 134.471 20.4149 134.287 20.4596 134.112L16.9304 132.876Z" fill="#C7B111"/>
<path d="M16.9773 118.36C16.2123 118.36 15.4645 118.606 14.8285 119.067C14.1924 119.528 13.6967 120.184 13.404 120.951C13.1112 121.717 13.0346 122.561 13.1839 123.376C13.3331 124.19 13.7015 124.938 14.2424 125.525C14.7833 126.112 15.4725 126.511 16.2227 126.673C16.973 126.835 17.7506 126.752 18.4574 126.435C19.1641 126.117 19.7681 125.579 20.1931 124.889C20.6181 124.198 20.845 123.387 20.845 122.557C20.8452 122.006 20.7454 121.46 20.5511 120.95C20.3568 120.441 20.072 119.978 19.7128 119.588C19.3536 119.199 18.9271 118.889 18.4577 118.679C17.9883 118.468 17.4852 118.359 16.9773 118.36ZM16.9773 125.832C16.3797 125.833 15.7954 125.641 15.2983 125.281C14.8013 124.921 14.4138 124.409 14.1849 123.81C13.9561 123.211 13.8961 122.552 14.0125 121.916C14.129 121.28 14.4167 120.695 14.8393 120.237C15.2619 119.778 15.8003 119.466 16.3864 119.339C16.9725 119.213 17.58 119.278 18.132 119.527C18.684 119.775 19.1557 120.195 19.4875 120.735C19.8192 121.274 19.9961 121.908 19.9956 122.557C19.9956 123.426 19.6776 124.259 19.1116 124.873C18.5455 125.487 17.7778 125.832 16.9773 125.832Z" fill="#DFCD3D"/>
<path d="M18.8163 102.189H15.1381C14.8348 102.189 14.5889 102.456 14.5889 102.785V120.545C14.5889 120.874 14.8348 121.14 15.1381 121.14H18.8163C19.1196 121.14 19.3655 120.874 19.3655 120.545V102.785C19.3655 102.456 19.1196 102.189 18.8163 102.189Z" fill="#2C2C96"/>
<path opacity="0.7" d="M19.3656 106.992V102.794C19.3667 102.715 19.3533 102.637 19.3262 102.564C19.2991 102.49 19.2589 102.423 19.2078 102.367C19.1566 102.311 19.0957 102.266 19.0285 102.235C18.9613 102.205 18.8892 102.189 18.8164 102.189H15.1381C15.0653 102.189 14.9932 102.205 14.926 102.235C14.8588 102.266 14.7979 102.311 14.7468 102.367C14.6956 102.423 14.6554 102.49 14.6283 102.564C14.6012 102.637 14.5878 102.715 14.5889 102.794V107.627C14.5889 107.627 17.7265 107.17 19.3656 106.992Z" fill="black"/>
<path d="M2.53452 13.4462V105.744C2.53452 105.744 29.5807 101.672 70.7247 105.744C75.4588 106.206 80.1929 108.851 80.7039 90.942C81.2146 73.0326 82.6983 16.9736 76.8722 11.6745C71.8189 7.09147 51.7929 6.11896 39.8896 6.25987C27.4691 6.40539 5.61888 8.56061 2.53452 13.4462Z" fill="url(#paint0_linear_31_1795)"/>
<path d="M3.17531 105.312C4.99741 104.506 12.835 102.363 41.8949 102.06C53.2425 101.942 67.7895 103.691 71.1677 104.211C77.6024 105.199 78.2432 101.293 78.7029 95.8669C79.5162 86.2388 79.9375 72.499 80.076 56.918C80.1717 46.329 80.2271 26.8651 78.6178 18.2095C77.9642 14.696 76.0635 12.6655 74.7267 11.827C70.0735 8.95798 59.0474 7.69444 41.8949 7.59972C24.6126 7.505 9.66335 10.0275 3.17744 13.6611" stroke="#6F0707" stroke-width="5.42" stroke-linecap="round" stroke-linejoin="round"/>
<path d="M2.53457 14.0426C1.22547 12.2778 2.3728 10.2473 5.40609 8.84281C8.38615 7.47066 19.3294 4.50232 41.8949 4.50232C60.9417 4.50232 71.8254 6.81231 75.5908 9.05993C78.3112 10.6908 80.3333 12.421 81.2551 18.0481C82.2833 24.3267 82.7815 42.0352 82.7815 57.3295C82.7815 70.3694 82.1194 91.5475 80.9614 100.36C80.2377 105.879 78.62 107.895 72.0042 107.008C66.4358 106.262 53.7534 105.322 41.8949 105.306C29.3041 105.292 23.0992 105.976 16.477 106.599C9.94856 107.214 6.60237 107.773 3.78407 107.738C2.52818 107.722 2.35364 106.692 2.53457 105.745C2.7006 104.881 12.835 102.363 41.8949 102.06C53.2425 101.942 67.7895 103.691 71.1677 104.211C77.6024 105.2 78.2432 101.293 78.7029 95.8672C79.5162 86.2391 79.9375 72.4993 80.0758 56.9185C80.1717 46.3293 80.2271 26.8654 78.6178 18.2098C77.9642 14.6963 76.0635 12.6658 74.7267 11.8273C70.0735 8.95828 59.0474 7.69474 41.8949 7.60002C24.6126 7.5053 8.98216 9.98625 2.53457 14.0426Z" fill="url(#paint1_linear_31_1795)"/>
<path d="M9.3887 14.2942L7.13237 20.2217L11.6472 18.8149L9.3887 14.2942Z" stroke="#5E0617" stroke-width="7.58" stroke-linecap="round" stroke-linejoin="round"/>
<path d="M9.3887 14.2942L7.13237 20.2217L11.6472 18.8149L9.3887 14.2942Z" stroke="url(#paint2_linear_31_1795)" stroke-width="2.17" stroke-linecap="round" stroke-linejoin="round"/>
<path d="M74.103 20.0692L69.3286 18.9673V13.7883L74.103 14.8879V20.0692Z" stroke="#5E0617" stroke-width="7.58" stroke-linecap="round" stroke-linejoin="round"/>
<path d="M74.103 20.0692L69.3286 18.9673V13.7883L74.103 14.8879V20.0692Z" stroke="url(#paint3_linear_31_1795)" stroke-width="2.17" stroke-linecap="round" stroke-linejoin="round"/>
<path d="M72.083 99.9952L69.2434 96.3707L72.083 93.8322L74.9225 97.4564L72.083 99.9952Z" stroke="#5E0617" stroke-width="7.58" stroke-linecap="round" stroke-linejoin="round"/>
<path d="M72.083 99.9952L69.2434 96.3707L72.083 93.8322L74.9225 97.4564L72.083 99.9952Z" stroke="url(#paint4_linear_31_1795)" stroke-width="2.17" stroke-linecap="round" stroke-linejoin="round"/>
<path d="M11.0371 98.6311C11.9891 97.5519 12.0221 95.9098 11.1109 94.9632C10.1997 94.0165 8.68934 94.1239 7.73737 95.2031C6.78542 96.2824 6.75239 97.9244 7.66358 98.8711C8.57479 99.8178 10.0852 99.7103 11.0371 98.6311Z" stroke="#5E0617" stroke-width="7.58" stroke-linecap="round" stroke-linejoin="round"/>
<path d="M11.0371 98.6311C11.9891 97.5519 12.0221 95.9098 11.1109 94.9632C10.1997 94.0165 8.68934 94.1239 7.73737 95.2031C6.78542 96.2824 6.75239 97.9244 7.66358 98.8711C8.57479 99.8178 10.0852 99.7103 11.0371 98.6311Z" stroke="url(#paint5_linear_31_1795)" stroke-width="2.17" stroke-linecap="round" stroke-linejoin="round"/>
<path d="M73.8156 90.8474C73.8156 90.8474 66.9571 89.8032 65.8078 97.7772C50.2689 96.2549 33.2507 96.2829 15.5447 97.7772C14.3953 89.794 7.53473 90.8474 7.53473 90.8474V23.414C7.53473 23.414 14.772 24.4558 15.913 16.484C29.3361 12.2683 52.5253 11.603 65.8078 16.484C66.9571 24.4651 73.8156 23.414 73.8156 23.414C75.6506 45.1094 75.4569 67.6389 73.8156 90.8474Z" stroke="url(#paint6_linear_31_1795)" stroke-width="2" stroke-linecap="round" stroke-linejoin="round"/>
<path d="M70.4248 87.1193C70.4248 87.1193 64.2773 86.1768 63.2491 93.3815C49.3279 92.0095 34.0382 92.0325 18.1713 93.3815C17.1411 86.1768 10.9958 87.1193 10.9958 87.1193V26.2531C10.9958 26.2531 17.5115 27.1932 18.5417 19.9885C30.5684 16.1839 51.348 15.5833 63.2428 19.9885C64.2708 27.1932 70.4183 26.2531 70.4183 26.2531C72.0531 45.9873 71.8999 66.297 70.4248 87.1193Z" stroke="url(#paint7_linear_31_1795)" stroke-width="2.17" stroke-linecap="round" stroke-linejoin="round"/>
<path d="M40.839 22.3347V33.5704H52.1208C52.1164 28.2136 47.0675 22.3347 40.839 22.3347Z" fill="#0D0750"/>
<path d="M42.5249 24.7196C42.6895 24.7196 42.8229 24.5748 42.8229 24.3962C42.8229 24.2176 42.6895 24.0728 42.5249 24.0728C42.3604 24.0728 42.2269 24.2176 42.2269 24.3962C42.2269 24.5748 42.3604 24.7196 42.5249 24.7196Z" fill="#746FA0"/>
<path d="M43.5148 27.6756C43.6793 27.6756 43.8128 27.5308 43.8128 27.3522C43.8128 27.1736 43.6793 27.0288 43.5148 27.0288C43.35 27.0288 43.2168 27.1736 43.2168 27.3522C43.2168 27.5308 43.35 27.6756 43.5148 27.6756Z" fill="#746FA0"/>
<path d="M46.8056 26.983C46.9702 26.983 47.1036 26.8382 47.1036 26.6596C47.1036 26.4811 46.9702 26.3362 46.8056 26.3362C46.6411 26.3362 46.5076 26.4811 46.5076 26.6596C46.5076 26.8382 46.6411 26.983 46.8056 26.983Z" fill="#746FA0"/>
<path d="M46.8056 30.5127C46.9702 30.5127 47.1036 30.3679 47.1036 30.1893C47.1036 30.0105 46.9702 29.8659 46.8056 29.8659C46.6411 29.8659 46.5076 30.0105 46.5076 30.1893C46.5076 30.3679 46.6411 30.5127 46.8056 30.5127Z" fill="#746FA0"/>
<path d="M49.5067 31.9908C49.6715 31.9908 49.8047 31.846 49.8047 31.6675C49.8047 31.4889 49.6715 31.3441 49.5067 31.3441C49.3421 31.3441 49.2087 31.4889 49.2087 31.6675C49.2087 31.846 49.3421 31.9908 49.5067 31.9908Z" fill="#746FA0"/>
<path d="M40.839 28.4915V33.5736H45.9371C45.9371 31.1503 43.6553 28.4915 40.839 28.4915Z" fill="#C9C8CC"/>
<path d="M40.839 22.3347V33.5704H29.5573C29.5638 28.2136 34.6128 22.3347 40.839 22.3347Z" fill="#3FC1EF"/>
<path d="M34.5193 26.6063L36.6819 31.4089L38.5593 29.5402L34.5193 26.6063Z" fill="#E3C517"/>
<path d="M32.0606 30.8473L36.2668 33.6285L36.9202 30.9582L32.0606 30.8473Z" fill="#E3C517"/>
<path d="M38.6424 24.1436L38.323 29.4774L40.8072 28.8675L38.6424 24.1436Z" fill="#E3C517"/>
<path d="M40.839 24.6454L39.5663 29.1728H40.839V24.6454Z" fill="#F5D900"/>
<path d="M36.4755 25.9175L37.5205 30.5122L39.7065 29.0939L36.4755 25.9175Z" fill="#F5D900"/>
<path d="M32.4289 33.5712L36.601 32.1877V33.5712H32.4289Z" fill="#F5D900"/>
<path d="M33.6017 28.8361L37.8356 29.9679L36.5287 32.3428L33.6017 28.8361Z" fill="#F5D900"/>
<path d="M40.839 28.4915V33.5736H35.7431C35.7431 31.1503 38.025 28.4915 40.839 28.4915Z" fill="#F6820C"/>
<path d="M29.5638 33.5704C29.5638 28.2576 34.6128 22.3347 40.8453 22.3347C47.0781 22.3347 52.1271 28.2136 52.1271 33.5704H29.5638Z" stroke="url(#paint8_linear_31_1795)" stroke-width="1.62" stroke-linecap="round" stroke-linejoin="round"/>
<path d="M27.5989 35.371C27.5989 27.1475 33.5272 20.4808 40.839 20.4808C48.1509 20.4808 54.0811 27.1475 54.0811 35.371H27.5989Z" stroke="url(#paint9_linear_31_1795)" stroke-width="1.62" stroke-linecap="round" stroke-linejoin="round"/>
<path d="M19.091 39.7322C19.8935 41.0606 20.2574 42.6961 20.4916 44.2438C20.7364 45.8608 20.8407 47.5653 20.5895 49.1802C20.4959 49.7876 20.3766 50.8895 19.5848 50.707C19.1846 50.6147 19.0143 51.2822 19.4167 51.3771C21.2089 51.7928 21.3133 49.0299 21.3516 47.7319C21.4068 45.7871 21.1791 43.8451 20.6768 41.9777C20.4514 41.0624 20.1028 40.1882 19.6423 39.3835C19.4294 39.0117 18.8653 39.3581 19.091 39.7322Z" fill="url(#paint10_linear_31_1795)"/>
<path d="M20.5193 50.7849C22.682 51.4017 25.2895 50.3622 26.3879 48.2208C26.7746 47.4341 27.0066 46.5688 27.0689 45.6799C27.1757 44.7162 27.0967 43.7393 26.837 42.8109C26.5683 41.9212 26.1282 41.1042 25.5457 40.4141C24.9632 39.7236 24.2518 39.1762 23.4589 38.8075C22.4562 38.3749 21.3537 38.2941 20.3064 38.5767C19.2591 38.8467 18.1374 39.4151 17.8926 40.6556C17.8074 41.0899 18.4226 41.2771 18.5077 40.8405C18.7057 39.8331 19.6444 39.4543 20.4746 39.2235C21.3033 39.0036 22.1722 39.0413 22.9821 39.332C24.4359 39.8588 25.6173 41.2216 26.1516 42.767C26.4113 43.5714 26.5141 44.4258 26.4539 45.2755C26.4344 46.0862 26.265 46.8843 25.9558 47.6226C25.7115 48.1648 25.3696 48.6488 24.9503 49.0454C24.5309 49.4422 24.0427 49.7439 23.5142 49.9324C23.0049 50.1212 22.4727 50.227 21.9348 50.2467C21.5142 50.2757 21.0919 50.2336 20.6832 50.1219C20.6032 50.1029 20.5196 50.118 20.4496 50.164C20.3796 50.2101 20.3285 50.2835 20.307 50.369C20.2854 50.4548 20.2949 50.546 20.3337 50.6244C20.3724 50.7026 20.4373 50.7617 20.515 50.7894L20.5193 50.7849Z" fill="url(#paint11_linear_31_1795)"/>
<path d="M32.0948 49.3413C31.5137 49.198 31.3434 48.2579 31.3135 47.7243C31.2685 46.923 31.2798 46.1191 31.3475 45.3196C31.3668 45.0885 31.3901 44.8783 31.4178 44.659C31.4689 44.4543 31.4896 44.2423 31.4795 44.0308C31.3976 43.7565 31.2316 43.521 31.0092 43.363C30.5631 43.0548 30.0254 42.9442 29.5062 43.0535C28.572 43.213 27.929 44.0538 27.6758 45.003C27.3778 46.1235 27.399 47.7105 28.227 48.5789C29.1104 49.5031 30.6963 49.272 31.2817 48.094C31.4754 47.7013 30.924 47.3523 30.7303 47.7452C30.6255 47.94 30.4802 48.1055 30.306 48.2289C30.1319 48.3523 29.9338 48.4299 29.7271 48.4556C29.5207 48.4814 29.3113 48.4545 29.1159 48.3774C28.9206 48.3003 28.7445 48.1748 28.6016 48.0109C27.9632 47.2485 28.0482 45.8509 28.3547 44.9615C28.6209 44.1832 29.2063 43.6841 29.9639 43.7118C30.1596 43.7157 30.3518 43.7654 30.5282 43.8574C30.6014 43.8979 30.6688 43.9502 30.7281 44.0122C30.7573 44.0449 30.7838 44.0804 30.8069 44.1183C30.8303 44.1876 30.843 44.1947 30.8411 44.1416L30.824 44.2548C30.7168 44.9792 30.6563 45.711 30.6431 46.4446C30.6303 47.1677 30.5961 47.9784 30.8156 48.6691C30.9921 49.2281 31.3475 49.8681 31.918 50.0111C32.3183 50.1084 32.4906 49.4406 32.0883 49.3413H32.0948Z" fill="url(#paint12_linear_31_1795)"/>
<path d="M35.5048 42.8645C35.7414 43.7414 35.8477 44.6538 35.8197 45.567C35.8197 46.3547 35.8197 47.2511 35.3261 47.8885C34.9002 48.4454 34.07 48.7479 33.5764 48.1196C33.3145 47.7847 33.2314 47.3042 33.1719 46.8838C33.1095 46.3476 33.0895 45.8067 33.1121 45.2668C33.1271 44.4122 33.3251 42.8527 32.2181 42.6703C31.8158 42.6033 31.6436 43.271 32.05 43.338C32.546 43.4211 32.4993 44.1027 32.4906 44.5136C32.4778 45.105 32.4523 45.6964 32.4906 46.2877C32.5376 47.2279 32.6843 48.3944 33.4911 48.9397C34.1979 49.4156 35.1175 49.1152 35.6752 48.5146C36.2329 47.9141 36.42 47.02 36.4562 46.1515C36.5053 45.0151 36.4562 43.7746 36.1285 42.6865C35.9987 42.2661 35.3813 42.4556 35.5133 42.8713L35.5048 42.8645Z" fill="url(#paint13_linear_31_1795)"/>
<path d="M31.865 53.6958C32.1948 54.4578 33.1292 54.7096 33.8296 54.5041C34.3258 54.3253 34.7561 53.9789 35.0577 53.5154C35.8583 52.3883 36.122 50.8775 36.2774 49.5008C36.4073 48.2987 36.467 47.0888 36.4562 45.8786C36.4562 45.7868 36.4227 45.6987 36.3627 45.6336C36.303 45.5688 36.2218 45.5322 36.137 45.5322C36.0524 45.5322 35.971 45.5688 35.9113 45.6336C35.8513 45.6987 35.8178 45.7868 35.8178 45.8786C35.8178 47.6043 35.7645 49.3761 35.3728 51.0576C35.1599 51.9815 34.8089 53.0443 34.0765 53.5985C33.587 53.9752 32.7079 54.0144 32.4162 53.3352C32.2417 52.9334 31.6903 53.2845 31.865 53.6863V53.6958Z" fill="url(#paint14_linear_31_1795)"/>
<path d="M42.4695 49.3251C41.846 48.8009 41.6415 47.8767 41.5266 47.0728C41.3895 46.0543 41.3594 45.0221 41.4372 43.996C41.5138 42.9628 41.6972 41.9424 41.9843 40.9537C42.1269 40.4687 42.5974 38.4891 43.3763 39.0504C43.7213 39.2975 44.0405 38.697 43.7001 38.452C42.9954 37.9438 42.2226 38.5652 41.9034 39.2606C41.53 40.1124 41.2539 41.0107 41.0816 41.9356C40.6832 43.808 40.6461 45.75 40.9732 47.6388C41.1392 48.5282 41.4734 49.3575 42.1481 49.9235C42.2204 49.9656 42.3047 49.9761 42.384 49.9528C42.463 49.9295 42.5309 49.8744 42.5738 49.7988C42.6148 49.7191 42.6256 49.6252 42.6042 49.5369C42.5827 49.4485 42.5307 49.3727 42.4589 49.3251H42.4695Z" fill="url(#paint15_linear_31_1795)"/>
<path d="M41.3628 43.5296C40.7412 42.7902 39.6427 42.6331 38.8084 42.9704C37.8525 43.3539 37.2032 44.3866 37.0076 45.4443C36.8286 46.4054 36.9585 47.5374 37.627 48.2558C37.8441 48.4746 38.1045 48.637 38.388 48.7303C38.6718 48.8236 38.9713 48.8453 39.264 48.7938C40.277 48.6762 41.0115 47.9277 41.4522 46.9622C41.6352 46.5648 41.0838 46.2137 40.9007 46.6132C40.5899 47.2924 40.1325 47.8929 39.4256 48.0686C39.2158 48.1162 39.0004 48.1293 38.787 48.1078C38.6027 48.1042 38.4232 48.0433 38.2697 47.9324C37.7142 47.5442 37.5567 46.7473 37.58 46.0843C37.6142 45.2111 38.006 44.271 38.7041 43.7975C39.3618 43.3515 40.3772 43.3792 40.9178 44.0284C41.1965 44.3588 41.648 43.8668 41.3712 43.5387L41.3628 43.5296Z" fill="url(#paint16_linear_31_1795)"/>
<path d="M42.8294 43.848C43.3062 43.9196 43.4127 44.4786 43.4572 44.9199C43.5035 45.4349 43.5199 45.9526 43.5064 46.4697C43.496 47.3986 43.4206 48.3254 43.2806 49.2417C43.2125 49.6759 43.8277 49.8655 43.8959 49.4242C44.0708 48.3149 44.1549 47.191 44.1469 46.0655C44.1469 45.1092 44.1725 43.3583 42.9997 43.1803C42.9193 43.1581 42.8342 43.1696 42.7612 43.2122C42.6882 43.2551 42.6328 43.3262 42.6059 43.4114C42.5842 43.5 42.5955 43.5947 42.6372 43.6744C42.6791 43.7544 42.748 43.8132 42.8294 43.8386V43.848Z" fill="url(#paint17_linear_31_1795)"/>
<path d="M46.748 43.8896C46.3224 43.1643 45.358 42.9934 44.6642 43.333C44.0065 43.654 43.6317 44.3886 43.5189 45.1348C43.4984 45.2221 43.509 45.3144 43.5483 45.3936C43.5878 45.4728 43.6533 45.533 43.7319 45.562C43.8135 45.5863 43.901 45.5743 43.9747 45.5288C44.0484 45.4835 44.1026 45.4082 44.1255 45.3196C44.165 44.9897 44.2727 44.6739 44.4406 44.3954C44.5577 44.2098 44.7179 44.0611 44.9046 43.9636L44.975 43.929C44.8983 43.9659 45.0005 43.929 45.0048 43.929C45.0737 43.9016 45.145 43.8815 45.2176 43.8689C45.2395 43.8705 45.2616 43.8705 45.2836 43.8689C45.3211 43.8666 45.3587 43.8666 45.3963 43.8689C45.4556 43.8684 45.5148 43.8736 45.5731 43.8851C45.6998 43.9087 45.822 43.9547 45.935 44.0213C45.9856 44.0503 46.0328 44.0862 46.0754 44.1275C46.1164 44.1636 46.1516 44.2064 46.1797 44.2545C46.2226 44.334 46.2927 44.3915 46.3749 44.4148C46.4568 44.4378 46.544 44.4247 46.6172 44.3782C46.6902 44.3317 46.7432 44.2556 46.7647 44.1664C46.7861 44.0775 46.7738 43.9829 46.7309 43.9034L46.748 43.8896Z" fill="url(#paint18_linear_31_1795)"/>
<path d="M46.9482 47.5557C47.585 47.5789 48.2161 47.4184 48.777 47.0906C49.3378 46.7625 49.8085 46.2791 50.1412 45.6893C50.6202 44.7952 50.5115 43.2106 49.3152 43.1738C48.0593 43.1345 47.1207 44.4143 46.7972 45.6085C46.4736 46.8027 46.5416 48.4289 47.3995 49.3251C47.671 49.5933 47.9984 49.7863 48.3535 49.8872C48.7086 49.9881 49.081 49.9944 49.4388 49.9049C49.9772 49.7894 50.6585 49.443 50.8905 48.8678C51.0521 48.4637 50.5031 48.1102 50.339 48.5191C50.1752 48.928 49.7623 49.101 49.4154 49.2121C49.1793 49.2859 48.9314 49.3036 48.6886 49.2636C48.4457 49.2239 48.2135 49.1274 48.0082 48.981C47.2718 48.4197 47.1952 47.2022 47.3057 46.3175C47.4272 45.352 47.9784 44.2247 48.8982 43.9314C49.1981 43.8344 49.5857 43.7973 49.7197 44.1622C49.8218 44.5165 49.7936 44.8998 49.6409 45.2318C49.1641 46.3222 48.0147 46.872 46.9545 46.849C46.5438 46.849 46.5438 47.5418 46.9545 47.5418L46.9482 47.5557Z" fill="url(#paint19_linear_31_1795)"/>
<path d="M55.6417 49.3413C55.0604 49.198 54.89 48.2579 54.8604 47.7243C54.8153 46.923 54.8267 46.1191 54.8944 45.3196C54.9136 45.0885 54.937 44.8783 54.9647 44.659C55.0155 44.4543 55.0365 44.2423 55.0264 44.0308C54.9442 43.7565 54.7782 43.521 54.5559 43.363C54.11 43.0548 53.572 42.9442 53.0531 43.0535C52.1186 43.213 51.4759 44.0538 51.2224 45.003C50.9244 46.1235 50.9459 47.7105 51.7739 48.5789C52.6573 49.5031 54.2429 49.272 54.8284 48.094C55.022 47.7013 54.4708 47.3523 54.2772 47.7452C54.1721 47.94 54.0269 48.1055 53.8529 48.2289C53.6787 48.3523 53.4805 48.4299 53.274 48.4556C53.0676 48.4814 52.8582 48.4545 52.6628 48.3774C52.4675 48.3003 52.2913 48.1748 52.1485 48.0109C51.5226 47.2485 51.5951 45.8509 51.9016 44.9615C52.1697 44.1832 52.7529 43.6841 53.5108 43.7118C53.7069 43.716 53.9001 43.7657 54.077 43.8574C54.1497 43.8979 54.2164 43.9502 54.275 44.0122C54.3041 44.0449 54.3304 44.0804 54.3538 44.1183C54.3793 44.1876 54.3899 44.1947 54.3877 44.1416L54.3709 44.2548C54.2637 44.9792 54.2032 45.711 54.1899 46.4446C54.1769 47.1677 54.143 47.9784 54.3622 48.6691C54.539 49.2281 54.8944 49.8681 55.467 50.0111C55.8672 50.1084 56.0375 49.4406 55.6352 49.3413H55.6417Z" fill="url(#paint20_linear_31_1795)"/>
<path d="M56.2078 43.8485C56.4993 43.9178 56.5759 44.373 56.6164 44.6409C56.6773 45.1881 56.6937 45.74 56.6653 46.2903C56.6703 47.4373 56.5836 48.5829 56.4056 49.7136C56.3311 50.1502 56.9484 50.3374 57.0209 49.8984C57.2321 48.558 57.3268 47.1994 57.3039 45.8399C57.3039 45.0221 57.3699 43.4166 56.3779 43.1811C55.9777 43.0862 55.8055 43.7539 56.2078 43.8485Z" fill="url(#paint21_linear_31_1795)"/>
<path d="M63.5175 52.1363C63.0915 51.9839 62.8788 51.4064 62.7979 50.9813C62.7001 50.4678 62.6531 49.9444 62.6574 49.4197C62.6403 48.1863 62.7362 46.9573 62.7745 45.7238C62.7979 44.9662 62.7639 44.0237 61.9677 43.7466C61.0715 43.4323 60.2307 44.0791 59.839 44.9155C59.6343 45.374 59.4984 45.8652 59.4367 46.3706C59.3218 47.1282 59.2558 47.8929 59.1878 48.6576C59.1495 49.101 59.7879 49.0963 59.8263 48.6576C59.9118 47.8271 59.9388 46.9907 59.9072 46.1557C59.8711 45.4028 59.7879 44.5989 59.2963 44.0213C59.0992 43.7845 58.8397 43.6187 58.5533 43.5466C58.2669 43.4744 57.9667 43.499 57.6935 43.6172C57.1358 43.8483 56.8166 44.4211 56.6631 45.0287C56.641 45.1173 56.652 45.2122 56.6942 45.2922C56.7364 45.3719 56.806 45.4305 56.8879 45.4548C56.9696 45.4788 57.057 45.4668 57.1307 45.4211C57.2042 45.3756 57.2582 45.2998 57.2806 45.2111C57.3871 44.7884 57.5935 44.3541 58.0105 44.2292C58.4748 44.0883 58.8621 44.4187 59.0558 44.8645C59.2835 45.4119 59.2686 46.0796 59.2835 46.6686C59.2857 47.3329 59.2536 47.997 59.1878 48.6576H59.8263C59.8838 48.02 59.9371 47.3824 60.0243 46.7494C60.0681 46.3139 60.1611 45.8856 60.3011 45.4744C60.4242 45.1042 60.6465 44.7824 60.9395 44.5505C61.1992 44.3633 61.6719 44.2454 61.9378 44.4833C62.1508 44.6796 62.1508 45.0702 62.1508 45.3497C62.1508 45.8117 62.1231 46.2598 62.1019 46.7126C62.0229 47.8378 62.0065 48.9669 62.053 50.0945C62.119 51.0992 62.3339 52.4482 63.3534 52.8087C63.7451 52.9473 63.9133 52.2772 63.5237 52.141L63.5175 52.1363Z" fill="url(#paint22_linear_31_1795)"/>
<path d="M20.3064 56.7914C20.3279 56.6163 20.3861 56.4487 20.4767 56.3017C20.524 56.2204 20.5837 56.1485 20.6534 56.0892C20.7236 56.0291 20.6534 56.0683 20.7342 56.0476C20.7901 56.0322 20.8487 56.0322 20.9045 56.0476C20.9792 56.0662 21.0509 56.0965 21.1174 56.1376C21.6666 56.4957 21.7007 57.4845 21.756 58.0941C21.9281 59.9184 21.901 61.7584 21.6751 63.5759C21.5812 64.4635 21.439 65.3443 21.2494 66.2138C21.1536 66.6457 21.7688 66.8305 21.8645 66.3963C22.2874 64.4421 22.5017 62.4416 22.5031 60.4343C22.5196 59.3754 22.4484 58.3169 22.2903 57.2719C22.1689 56.5187 21.9029 55.6411 21.1472 55.4008C20.3128 55.1397 19.7466 55.9783 19.6572 56.7867C19.6103 57.228 20.2511 57.2257 20.2957 56.7867L20.3064 56.7914Z" fill="url(#paint23_linear_31_1795)"/>
<path d="M28.5421 67.8512C27.9268 67.0473 27.9461 65.7723 27.963 64.795C27.9885 63.3859 28.1504 61.9815 28.2207 60.5723C28.2846 59.2534 28.3079 57.8513 27.9227 56.5807C27.7413 55.9666 27.4086 55.4181 26.9608 54.9946C26.5127 54.5711 25.9664 54.289 25.381 54.1784C23.7356 53.9104 22.0944 55.1831 21.6517 56.895C21.6319 56.9823 21.6444 57.0748 21.6863 57.1525C21.7283 57.2304 21.7966 57.2874 21.8766 57.3114C21.9567 57.3355 22.0422 57.3245 22.115 57.2814C22.1879 57.2382 22.2424 57.1658 22.2669 57.0798C22.6245 55.6937 23.991 54.6035 25.3321 54.8691C25.9348 54.9983 26.4765 55.353 26.8625 55.8714C27.1405 56.2618 27.3313 56.7164 27.4202 57.1998C27.6927 58.4333 27.6332 59.7407 27.5587 60.9998C27.4778 62.3234 27.333 63.6447 27.3224 64.9707C27.3224 66.1257 27.3819 67.417 28.0887 68.3409C28.3525 68.6852 28.8018 68.1932 28.5421 67.8512Z" fill="url(#paint24_linear_31_1795)"/>
<path d="M30.611 60.221C29.2764 60.9464 28.9485 62.8936 29.1444 64.3537C29.2465 65.1205 29.5701 65.9498 30.2918 66.241C31.0133 66.532 31.8669 66.1323 32.3458 65.548C33.1676 64.5339 33.3718 62.8915 33.1121 61.6024C32.9312 60.7153 32.3501 59.7684 31.4092 59.8076C30.6154 59.84 30.0107 60.7778 30.4472 61.5585C30.9517 62.4594 32.1266 62.3995 32.8695 61.9328C33.7337 61.3898 34.1659 60.3598 34.3935 59.348C34.4894 58.9159 33.8741 58.731 33.7763 59.1653C33.6209 59.8583 33.3824 60.5676 32.8864 61.0641C32.4735 61.48 31.7903 61.7686 31.2559 61.4547C31.0432 61.3321 30.8558 61.0897 30.9685 60.8217C31.0401 60.6803 31.1586 60.5744 31.3 60.5253C31.4414 60.4764 31.5949 60.4881 31.7286 60.5582C32.2714 60.7893 32.4757 61.5077 32.5373 62.0829C32.6376 63.0345 32.5118 64.199 31.9541 64.9749C31.6412 65.4115 31.009 65.8136 30.4896 65.5895C30.0066 65.3817 29.8235 64.7163 29.7597 64.2034C29.6105 63.0254 29.8469 61.4016 30.9281 60.8147C31.2964 60.616 30.9729 60.0178 30.6067 60.2165L30.611 60.221Z" fill="url(#paint25_linear_31_1795)"/>
<path d="M34.8491 61.5017C35.5152 61.4986 36.1796 61.433 36.8351 61.3054C37.3736 61.2013 37.9717 61.0743 38.3485 60.5985C38.6188 60.2636 38.1676 59.7715 37.8973 60.1088C37.5844 60.4968 37.0459 60.5707 36.6031 60.6492C36.0235 60.7553 35.4369 60.8086 34.8491 60.8086C34.7645 60.8086 34.6833 60.8452 34.6234 60.9101C34.5634 60.9752 34.5299 61.0633 34.5299 61.155C34.5299 61.2471 34.5634 61.3352 34.6234 61.4C34.6833 61.4651 34.7645 61.5017 34.8491 61.5017Z" fill="url(#paint26_linear_31_1795)"/>
<path d="M37.3013 67.8768C36.8501 68.1608 36.5415 65.8138 36.5159 65.5182C36.4531 64.5783 36.4702 63.6343 36.567 62.6978C36.6499 61.7253 36.7797 60.7574 36.8563 59.7849C36.9267 58.9485 37.0693 57.9368 36.767 57.1446C36.4776 56.3961 35.5836 55.8903 34.9023 56.3867C34.5617 56.6341 34.8811 57.2346 35.2237 56.9852C35.3458 56.9078 35.4885 56.8775 35.6284 56.8994C35.7682 56.9211 35.8973 56.9938 35.9944 57.1052C36.2796 57.394 36.2986 57.879 36.2967 58.2764C36.2736 59.2246 36.2025 60.171 36.0837 61.1109C35.8836 62.9911 35.6581 64.9153 36.0539 66.7864C36.1247 67.2758 36.2808 67.7464 36.5138 68.1725C36.6282 68.3655 36.8058 68.5043 37.0105 68.5613C37.2155 68.6183 37.4326 68.589 37.6186 68.4797C37.6884 68.4316 37.7383 68.3563 37.7581 68.269C37.7776 68.1819 37.7653 68.0899 37.7236 68.0123C37.6819 67.9349 37.6142 67.8779 37.5347 67.8533C37.4552 67.829 37.37 67.8389 37.297 67.8813L37.3013 67.8768Z" fill="url(#paint27_linear_31_1795)"/>
<path d="M38.3314 64.1297C38.9915 64.1535 39.6453 63.9867 40.2264 63.6468C40.8075 63.3067 41.2951 62.8052 41.6393 62.194C42.1354 61.2698 42.0311 59.6322 40.788 59.5906C39.496 59.5491 38.5273 60.8565 38.1825 62.0784C37.8378 63.3004 37.8995 64.9914 38.7615 65.943C39.0402 66.2319 39.3803 66.4416 39.7516 66.5537C40.1231 66.6656 40.5141 66.6766 40.8901 66.5851C41.4543 66.4721 42.1674 66.1231 42.4206 65.5087C42.5825 65.1022 42.0332 64.7488 41.8694 65.1576C41.7054 65.5665 41.2647 65.7697 40.9029 65.8737C40.656 65.9529 40.396 65.9733 40.1409 65.9336C39.886 65.8936 39.642 65.7945 39.4256 65.6429C38.6422 65.0536 38.5572 63.7509 38.6848 62.8175C38.8212 61.8128 39.3917 60.6531 40.3495 60.3436C40.6516 60.2466 41.0626 60.2003 41.2158 60.5747C41.2744 60.7598 41.2987 60.9558 41.2874 61.1511C41.2761 61.3464 41.2293 61.5375 41.1498 61.7135C40.6644 62.8685 39.4468 63.4505 38.3295 63.4343C38.2447 63.4343 38.1635 63.4709 38.1035 63.536C38.0438 63.6008 38.0101 63.6889 38.0101 63.7809C38.0101 63.8727 38.0438 63.9608 38.1035 64.0259C38.1635 64.091 38.2447 64.1273 38.3295 64.1273L38.3314 64.1297Z" fill="url(#paint28_linear_31_1795)"/>
<path d="M42.31 56.2921C42.3575 56.2526 42.4081 56.2178 42.4611 56.188C42.5377 56.1397 42.4611 56.188 42.4994 56.1674C42.5329 56.1551 42.5671 56.1452 42.6015 56.1373C42.5719 56.1373 42.6015 56.1373 42.6526 56.1373C42.7037 56.1373 42.6526 56.1373 42.6952 56.1373C42.7518 56.1478 42.8053 56.1731 42.8506 56.2113C43.0532 56.41 43.2038 56.6633 43.2869 56.9457C43.4534 57.4155 43.5719 57.9033 43.6403 58.4011C43.7702 59.3893 43.815 60.3883 43.7745 61.3856C43.7504 62.4065 43.6793 63.4246 43.5615 64.4395C43.5006 64.9893 43.3886 65.531 43.2274 66.0564C43.1065 66.5487 42.8812 67.0036 42.5697 67.3845C42.2717 67.6941 42.7229 68.1817 43.0209 67.8742C43.3397 67.5004 43.5813 67.057 43.7297 66.5738C43.9205 66.053 44.0568 65.5106 44.1363 64.9568C44.2915 63.8191 44.3811 62.6719 44.4045 61.5218C44.4522 60.4047 44.3994 59.2853 44.2469 58.1794C44.1192 57.3546 43.9084 56.2529 43.27 55.696C43.0874 55.5368 42.8603 55.4503 42.6261 55.4503C42.3919 55.4503 42.1648 55.5368 41.9821 55.696C41.6564 55.9572 41.9821 56.5601 42.3057 56.2944L42.31 56.2921Z" fill="url(#paint29_linear_31_1795)"/>
<path d="M43.5659 64.9639C43.7215 65.366 43.9588 65.725 44.2599 66.0138C44.5611 66.3025 44.9183 66.514 45.3052 66.6319C45.6921 66.75 46.0986 66.772 46.4944 66.6959C46.8902 66.6198 47.265 66.4481 47.591 66.1929C48.4041 65.4999 48.6936 64.3056 48.6108 63.2246C48.5744 62.6528 48.4072 62.0999 48.1244 61.616C47.8415 61.1318 47.452 60.7321 46.9909 60.4526C46.0265 59.8821 44.6386 60.2215 43.9128 61.0926C43.636 61.4228 44.0875 61.9124 44.364 61.5822C44.6358 61.2743 44.9817 61.0549 45.3623 60.9493C45.7432 60.8434 46.1434 60.8555 46.5182 60.9838C47.2889 61.2957 47.8167 62.1689 47.9487 63.0212C48.0805 63.8737 47.921 64.9155 47.3101 65.5485C47.1159 65.7341 46.8883 65.8742 46.6418 65.9597C46.3951 66.0452 46.1349 66.0742 45.8774 66.0449C45.0366 66.0081 44.4512 65.4282 44.1171 64.6222C43.9468 64.2157 43.3977 64.5668 43.5637 64.971L43.5659 64.9639Z" fill="url(#paint30_linear_31_1795)"/>
<path d="M50.8967 60.221C49.5621 60.9464 49.2364 62.8936 49.4301 64.3537C49.5325 65.1205 49.856 65.9498 50.5775 66.241C51.299 66.532 52.1548 66.1323 52.6315 65.548C53.4554 64.5339 53.6575 62.8915 53.3978 61.6024C53.2191 60.7153 52.6358 59.7684 51.6951 59.8076C50.9032 59.84 50.2986 60.7778 50.7351 61.5585C51.2374 62.4594 52.4145 62.3995 53.1574 61.9328C54.0194 61.3898 54.4537 60.3598 54.6795 59.348C54.7751 58.9159 54.1601 58.731 54.0642 59.1653C53.9088 59.8583 53.6684 60.5676 53.1724 61.0641C52.7614 61.48 52.076 61.7686 51.5419 61.4547C51.3289 61.3321 51.1415 61.0897 51.2545 60.8217C51.3265 60.6806 51.4458 60.5749 51.5872 60.526C51.7288 60.4769 51.8825 60.4887 52.0165 60.5582C52.5592 60.7893 52.7635 61.5077 52.8233 62.0829C52.9254 63.0345 52.7977 64.199 52.24 64.9749C51.9271 65.4115 51.295 65.8136 50.7775 65.5895C50.2945 65.3817 50.1114 64.7163 50.0475 64.2034C49.8962 63.0254 50.1347 61.4016 51.214 60.8147C51.5821 60.616 51.2586 60.0178 50.8926 60.2165L50.8967 60.221Z" fill="url(#paint31_linear_31_1795)"/>
<path d="M55.8799 60.221C54.5453 60.9464 54.2196 62.8936 54.4133 64.3537C54.5154 65.1205 54.839 65.9498 55.5607 66.241C56.2822 66.532 57.138 66.1323 57.6147 65.548C58.4386 64.5339 58.6407 62.8915 58.381 61.6024C58.2023 60.7153 57.619 59.7684 56.6783 59.8076C55.8864 59.84 55.2818 60.7778 55.7183 61.5585C56.2206 62.4594 57.3977 62.3995 58.1406 61.9328C59.0026 61.3898 59.4369 60.3598 59.6624 59.348C59.7583 58.9159 59.143 58.731 59.0474 59.1653C58.892 59.8583 58.6513 60.5676 58.1556 61.0641C57.7446 61.48 57.0592 61.7686 56.5248 61.4547C56.3121 61.3321 56.1247 61.0897 56.2377 60.8217C56.3097 60.6806 56.4287 60.5749 56.5704 60.526C56.712 60.4769 56.8655 60.4887 56.9997 60.5582C57.5424 60.7893 57.7467 61.5077 57.8065 62.0829C57.9086 63.0345 57.7807 64.199 57.2232 64.9749C56.9103 65.4115 56.2801 65.8136 55.7607 65.5895C55.2777 65.3817 55.0946 64.7163 55.0307 64.2034C54.8794 63.0254 55.1179 61.4016 56.1972 60.8147C56.5653 60.616 56.2418 60.0178 55.8756 60.2165L55.8799 60.221Z" fill="url(#paint32_linear_31_1795)"/>
<path d="M59.0474 56.2929C59.092 56.2563 59.1389 56.2231 59.1878 56.1935C59.2346 56.1635 59.2517 56.1635 59.2261 56.1726C59.2596 56.1598 59.2936 56.1488 59.3283 56.1402C59.2878 56.152 59.456 56.1402 59.4071 56.1402C59.4789 56.1444 59.5468 56.1765 59.5986 56.2304C60.0775 56.6045 60.2563 57.6578 60.3584 58.2793C60.494 59.2547 60.5297 60.2432 60.4649 61.2269C60.422 62.2434 60.3225 63.2565 60.1669 64.2599C60.0052 65.3087 59.7605 66.5699 59.1026 67.39C58.8366 67.7249 59.2857 68.217 59.554 67.8797C60.2245 67.0342 60.548 65.8447 60.7333 64.7681C60.9233 63.6444 61.0455 62.5088 61.0992 61.3679C61.1775 60.2502 61.1317 59.1263 60.9631 58.0207C60.8248 57.2259 60.6013 56.1564 59.9498 55.6529C59.7684 55.5177 59.5516 55.4492 59.3314 55.4581C59.1115 55.4667 58.9 55.5522 58.7279 55.7015C58.4003 55.9624 58.7173 56.5653 59.0493 56.2997L59.0474 56.2929Z" fill="url(#paint33_linear_31_1795)"/>
<path d="M63.1043 59.6325C63.1698 60.273 63.0185 60.9174 62.6786 61.4458C62.2529 62.1041 61.5463 62.3281 60.8289 62.2798C60.76 62.2821 60.6938 62.3085 60.6398 62.355C60.5858 62.4016 60.547 62.4656 60.5292 62.5378C60.5111 62.6099 60.5152 62.6866 60.5403 62.7561C60.5656 62.8256 60.6109 62.8845 60.6692 62.9242C61.3033 63.2714 61.8544 63.7728 62.2804 64.3895C62.7061 65.0063 62.9947 65.7216 63.1236 66.4792C63.2067 66.9158 63.8217 66.731 63.7408 66.2967C63.4216 64.6196 62.4317 63.0628 60.9908 62.3258L60.8289 62.9726C61.2693 63.023 61.7142 62.9516 62.1223 62.7655C62.5307 62.5794 62.8889 62.2842 63.164 61.9077C63.6112 61.2557 63.8176 60.4458 63.7429 59.6372C63.7025 59.1982 63.0619 59.1935 63.1043 59.6372V59.6325Z" fill="url(#paint34_linear_31_1795)"/>
<path d="M61.7528 73.2221H19.885V85.6568H61.7528V73.2221Z" stroke="url(#paint35_linear_31_1795)" stroke-width="1.62" stroke-linecap="round" stroke-linejoin="round"/>
<path d="M59.6347 75.5691H22.0029V83.3052H59.6347V75.5691Z" fill="white"/>
<g style="mix-blend-mode:multiply" opacity="0.15">
<g style="mix-blend-mode:multiply" opacity="0.8">
<path d="M52.7912 105.548L55.3157 102.968L55.5287 99.0525L58.3916 99.4476L59.6325 96.2899L62.6126 95.583L60.3456 97.32L59.6369 101.108L57.2358 100.646V103.317L56.1714 105.708C55.0987 105.645 53.9748 105.604 52.7912 105.548Z" fill="black"/>
</g>
</g>
<defs>
<linearGradient id="paint0_linear_31_1795" x1="2.53452" y1="56.1995" x2="81.2551" y2="56.1995" gradientUnits="userSpaceOnUse">
<stop stop-color="#751A2C"/>
<stop offset="0.15" stop-color="#861E28"/>
<stop offset="0.33" stop-color="#942125"/>
<stop offset="0.57" stop-color="#9C2224"/>
<stop offset="1" stop-color="#9E2323"/>
</linearGradient>
<linearGradient id="paint1_linear_31_1795" x1="40.6815" y1="56.119" x2="1.86619" y2="56.119" gradientUnits="userSpaceOnUse">
<stop stop-color="#B04444"/>
<stop offset="1" stop-color="#8D3636"/>
</linearGradient>
<linearGradient id="paint2_linear_31_1795" x1="9.39084" y1="20.4665" x2="9.3758" y2="14.0447" gradientUnits="userSpaceOnUse">
<stop stop-color="#751A2C"/>
<stop offset="0.01" stop-color="#771A2C"/>
<stop offset="0.14" stop-color="#8C1F27"/>
<stop offset="0.27" stop-color="#9A2224"/>
<stop offset="0.39" stop-color="#9E2323"/>
<stop offset="0.57" stop-color="#992224"/>
<stop offset="0.79" stop-color="#8B1F27"/>
<stop offset="1" stop-color="#751A2C"/>
</linearGradient>
<linearGradient id="paint3_linear_31_1795" x1="71.7168" y1="19.5747" x2="72.9474" y2="14.1749" gradientUnits="userSpaceOnUse">
<stop stop-color="#9E2323"/>
<stop offset="0.19" stop-color="#881E28"/>
<stop offset="0.37" stop-color="#7A1B2B"/>
<stop offset="0.53" stop-color="#751A2C"/>
<stop offset="0.68" stop-color="#7D1C2A"/>
<stop offset="0.92" stop-color="#942125"/>
<stop offset="1" stop-color="#9E2323"/>
</linearGradient>
<linearGradient id="paint4_linear_31_1795" x1="72.083" y1="100.523" x2="73.3359" y2="94.1077" gradientUnits="userSpaceOnUse">
<stop stop-color="#9E2323"/>
<stop offset="0.53" stop-color="#751A2C"/>
<stop offset="0.81" stop-color="#912026"/>
<stop offset="1" stop-color="#9E2323"/>
</linearGradient>
<linearGradient id="paint5_linear_31_1795" x1="9.34936" y1="93.84" x2="9.99601" y2="99.4325" gradientUnits="userSpaceOnUse">
<stop stop-color="#9E2323"/>
<stop offset="0.1" stop-color="#942125"/>
<stop offset="0.36" stop-color="#7D1C2A"/>
<stop offset="0.53" stop-color="#751A2C"/>
<stop offset="0.77" stop-color="#881E28"/>
<stop offset="1" stop-color="#9E2323"/>
</linearGradient>
<linearGradient id="paint6_linear_31_1795" x1="41.3286" y1="98.0175" x2="41.3286" y2="12.8273" gradientUnits="userSpaceOnUse">
<stop stop-color="#7E6B2E"/>
<stop offset="0.29" stop-color="#A28A36"/>
<stop offset="0.34" stop-color="#A99038"/>
<stop offset="0.47" stop-color="#988134"/>
<stop offset="0.63" stop-color="#7E6B2E"/>
<stop offset="0.76" stop-color="#816E2F"/>
<stop offset="0.86" stop-color="#8A7631"/>
<stop offset="0.94" stop-color="#9A8335"/>
<stop offset="1" stop-color="#A99038"/>
</linearGradient>
<linearGradient id="paint7_linear_31_1795" x1="41.2924" y1="16.6552" x2="41.2924" y2="93.6335" gradientUnits="userSpaceOnUse">
<stop stop-color="#8B7625"/>
<stop offset="0.11" stop-color="#9B832F"/>
<stop offset="0.24" stop-color="#A58D36"/>
<stop offset="0.39" stop-color="#A99038"/>
<stop offset="0.42" stop-color="#A38B38"/>
<stop offset="0.51" stop-color="#907D37"/>
<stop offset="0.61" stop-color="#857436"/>
<stop offset="0.72" stop-color="#817136"/>
<stop offset="0.85" stop-color="#837336"/>
<stop offset="0.91" stop-color="#8B7836"/>
<stop offset="0.96" stop-color="#978237"/>
<stop offset="1" stop-color="#A99038"/>
</linearGradient>
<linearGradient id="paint8_linear_31_1795" x1="29.3913" y1="27.9527" x2="52.2889" y2="27.9527" gradientUnits="userSpaceOnUse">
<stop offset="0.13" stop-color="#A99038"/>
<stop offset="0.28" stop-color="#A58D37"/>
<stop offset="0.42" stop-color="#9A8333"/>
<stop offset="0.56" stop-color="#86722D"/>
<stop offset="0.7" stop-color="#6B5B24"/>
<stop offset="0.73" stop-color="#655622"/>
<stop offset="1" stop-color="#A99038"/>
</linearGradient>
<linearGradient id="paint9_linear_31_1795" x1="3190.62" y1="1820.56" x2="6528.43" y2="1820.56" gradientUnits="userSpaceOnUse">
<stop offset="0.13" stop-color="#A99038"/>
<stop offset="0.28" stop-color="#A58D37"/>
<stop offset="0.42" stop-color="#9A8333"/>
<stop offset="0.56" stop-color="#86722D"/>
<stop offset="0.7" stop-color="#6B5B24"/>
<stop offset="0.73" stop-color="#655622"/>
<stop offset="1" stop-color="#A99038"/>
</linearGradient>
<linearGradient id="paint10_linear_31_1795" x1="18.0926" y1="45.3225" x2="63.5471" y2="45.3225" gradientUnits="userSpaceOnUse">
<stop stop-color="#A99038"/>
<stop offset="0.13" stop-color="#A58C36"/>
<stop offset="0.27" stop-color="#998231"/>
<stop offset="0.33" stop-color="#907A2D"/>
<stop offset="0.41" stop-color="#9E8633"/>
<stop offset="0.5" stop-color="#A68E37"/>
<stop offset="0.66" stop-color="#A99038"/>
<stop offset="0.82" stop-color="#A98F35"/>
<stop offset="0.95" stop-color="#A98D2A"/>
<stop offset="1" stop-color="#A98B24"/>
</linearGradient>
<linearGradient id="paint11_linear_31_1795" x1="715.718" y1="2466.29" x2="2686.83" y2="2466.29" gradientUnits="userSpaceOnUse">
<stop stop-color="#A99038"/>
<stop offset="0.13" stop-color="#A58C36"/>
<stop offset="0.27" stop-color="#998231"/>
<stop offset="0.33" stop-color="#907A2D"/>
<stop offset="0.41" stop-color="#9E8633"/>
<stop offset="0.5" stop-color="#A68E37"/>
<stop offset="0.66" stop-color="#A99038"/>
<stop offset="0.82" stop-color="#A98F35"/>
<stop offset="0.95" stop-color="#A98D2A"/>
<stop offset="1" stop-color="#A98B24"/>
</linearGradient>
<linearGradient id="paint12_linear_31_1795" x1="391.645" y1="1454.44" x2="1420.21" y2="1454.44" gradientUnits="userSpaceOnUse">
<stop stop-color="#A99038"/>
<stop offset="0.13" stop-color="#A58C36"/>
<stop offset="0.27" stop-color="#998231"/>
<stop offset="0.33" stop-color="#907A2D"/>
<stop offset="0.41" stop-color="#9E8633"/>
<stop offset="0.5" stop-color="#A68E37"/>
<stop offset="0.66" stop-color="#A99038"/>
<stop offset="0.82" stop-color="#A98F35"/>
<stop offset="0.95" stop-color="#A98D2A"/>
<stop offset="1" stop-color="#A98B24"/>
</linearGradient>
<linearGradient id="paint13_linear_31_1795" x1="383.717" y1="1375.84" x2="1377.7" y2="1375.84" gradientUnits="userSpaceOnUse">
<stop stop-color="#A99038"/>
<stop offset="0.13" stop-color="#A58C36"/>
<stop offset="0.27" stop-color="#998231"/>
<stop offset="0.33" stop-color="#907A2D"/>
<stop offset="0.41" stop-color="#9E8633"/>
<stop offset="0.5" stop-color="#A68E37"/>
<stop offset="0.66" stop-color="#A99038"/>
<stop offset="0.82" stop-color="#A98F35"/>
<stop offset="0.95" stop-color="#A98D2A"/>
<stop offset="1" stop-color="#A98B24"/>
</linearGradient>
<linearGradient id="paint14_linear_31_1795" x1="381.585" y1="2004.66" x2="1369.5" y2="2004.66" gradientUnits="userSpaceOnUse">
<stop stop-color="#A99038"/>
<stop offset="0.13" stop-color="#A58C36"/>
<stop offset="0.27" stop-color="#998231"/>
<stop offset="0.33" stop-color="#907A2D"/>
<stop offset="0.41" stop-color="#9E8633"/>
<stop offset="0.5" stop-color="#A68E37"/>
<stop offset="0.66" stop-color="#A99038"/>
<stop offset="0.82" stop-color="#A98F35"/>
<stop offset="0.95" stop-color="#A98D2A"/>
<stop offset="1" stop-color="#A98B24"/>
</linearGradient>
<linearGradient id="paint15_linear_31_1795" x1="274.574" y1="2272.73" x2="935.022" y2="2272.73" gradientUnits="userSpaceOnUse">
<stop stop-color="#A99038"/>
<stop offset="0.13" stop-color="#A58C36"/>
<stop offset="0.27" stop-color="#998231"/>
<stop offset="0.33" stop-color="#907A2D"/>
<stop offset="0.41" stop-color="#9E8633"/>
<stop offset="0.5" stop-color="#A68E37"/>
<stop offset="0.66" stop-color="#A99038"/>
<stop offset="0.82" stop-color="#A98F35"/>
<stop offset="0.95" stop-color="#A98D2A"/>
<stop offset="1" stop-color="#A98B24"/>
</linearGradient>
<linearGradient id="paint16_linear_31_1795" x1="381.226" y1="1236.54" x2="1353.72" y2="1236.54" gradientUnits="userSpaceOnUse">
<stop stop-color="#A99038"/>
<stop offset="0.13" stop-color="#A58C36"/>
<stop offset="0.27" stop-color="#998231"/>
<stop offset="0.33" stop-color="#907A2D"/>
<stop offset="0.41" stop-color="#9E8633"/>
<stop offset="0.5" stop-color="#A68E37"/>
<stop offset="0.66" stop-color="#A99038"/>
<stop offset="0.82" stop-color="#A98F35"/>
<stop offset="0.95" stop-color="#A98D2A"/>
<stop offset="1" stop-color="#A98B24"/>
</linearGradient>
<linearGradient id="paint17_linear_31_1795" x1="159.957" y1="1350.84" x2="491.456" y2="1350.84" gradientUnits="userSpaceOnUse">
<stop stop-color="#A99038"/>
<stop offset="0.13" stop-color="#A58C36"/>
<stop offset="0.27" stop-color="#998231"/>
<stop offset="0.33" stop-color="#907A2D"/>
<stop offset="0.41" stop-color="#9E8633"/>
<stop offset="0.5" stop-color="#A68E37"/>
<stop offset="0.66" stop-color="#A99038"/>
<stop offset="0.82" stop-color="#A98F35"/>
<stop offset="0.95" stop-color="#A98D2A"/>
<stop offset="1" stop-color="#A98B24"/>
</linearGradient>
<linearGradient id="paint18_linear_31_1795" x1="290.442" y1="505.967" x2="987.93" y2="505.967" gradientUnits="userSpaceOnUse">
<stop stop-color="#A99038"/>
<stop offset="0.13" stop-color="#A58C36"/>
<stop offset="0.27" stop-color="#998231"/>
<stop offset="0.33" stop-color="#907A2D"/>
<stop offset="0.41" stop-color="#9E8633"/>
<stop offset="0.5" stop-color="#A68E37"/>
<stop offset="0.66" stop-color="#A99038"/>
<stop offset="0.82" stop-color="#A98F35"/>
<stop offset="0.95" stop-color="#A98D2A"/>
<stop offset="1" stop-color="#A98B24"/>
</linearGradient>
<linearGradient id="paint19_linear_31_1795" x1="371.814" y1="1412.95" x2="1290.37" y2="1412.95" gradientUnits="userSpaceOnUse">
<stop stop-color="#A99038"/>
<stop offset="0.13" stop-color="#A58C36"/>
<stop offset="0.27" stop-color="#998231"/>
<stop offset="0.33" stop-color="#907A2D"/>
<stop offset="0.41" stop-color="#9E8633"/>
<stop offset="0.5" stop-color="#A68E37"/>
<stop offset="0.66" stop-color="#A99038"/>
<stop offset="0.82" stop-color="#A98F35"/>
<stop offset="0.95" stop-color="#A98D2A"/>
<stop offset="1" stop-color="#A98B24"/>
</linearGradient>
<linearGradient id="paint20_linear_31_1795" x1="415.25" y1="1454.44" x2="1443.97" y2="1454.44" gradientUnits="userSpaceOnUse">
<stop stop-color="#A99038"/>
<stop offset="0.13" stop-color="#A58C36"/>
<stop offset="0.27" stop-color="#998231"/>
<stop offset="0.33" stop-color="#907A2D"/>
<stop offset="0.41" stop-color="#9E8633"/>
<stop offset="0.5" stop-color="#A68E37"/>
<stop offset="0.66" stop-color="#A99038"/>
<stop offset="0.82" stop-color="#A98F35"/>
<stop offset="0.95" stop-color="#A98D2A"/>
<stop offset="1" stop-color="#A98B24"/>
</linearGradient>
<linearGradient id="paint21_linear_31_1795" x1="156.428" y1="1452.44" x2="440.159" y2="1452.44" gradientUnits="userSpaceOnUse">
<stop stop-color="#A99038"/>
<stop offset="0.13" stop-color="#A58C36"/>
<stop offset="0.27" stop-color="#998231"/>
<stop offset="0.33" stop-color="#907A2D"/>
<stop offset="0.41" stop-color="#9E8633"/>
<stop offset="0.5" stop-color="#A68E37"/>
<stop offset="0.66" stop-color="#A99038"/>
<stop offset="0.82" stop-color="#A98F35"/>
<stop offset="0.95" stop-color="#A98D2A"/>
<stop offset="1" stop-color="#A98B24"/>
</linearGradient>
<linearGradient id="paint22_linear_31_1795" x1="592.879" y1="1986.83" x2="2107.51" y2="1986.83" gradientUnits="userSpaceOnUse">
<stop stop-color="#A99038"/>
<stop offset="0.13" stop-color="#A58C36"/>
<stop offset="0.27" stop-color="#998231"/>
<stop offset="0.33" stop-color="#907A2D"/>
<stop offset="0.41" stop-color="#9E8633"/>
<stop offset="0.5" stop-color="#A68E37"/>
<stop offset="0.66" stop-color="#A99038"/>
<stop offset="0.82" stop-color="#A98F35"/>
<stop offset="0.95" stop-color="#A98D2A"/>
<stop offset="1" stop-color="#A98B24"/>
</linearGradient>
<linearGradient id="paint23_linear_31_1795" x1="19.8849" y1="60.9909" x2="63.5471" y2="60.9909" gradientUnits="userSpaceOnUse">
<stop stop-color="#87732D"/>
<stop offset="0.03" stop-color="#8D782F"/>
<stop offset="0.13" stop-color="#9D8534"/>
<stop offset="0.24" stop-color="#A68D37"/>
<stop offset="0.39" stop-color="#A99038"/>
<stop offset="0.53" stop-color="#A98F35"/>
<stop offset="0.61" stop-color="#A98E2D"/>
<stop offset="0.68" stop-color="#A98A1E"/>
<stop offset="0.72" stop-color="#A98814"/>
<stop offset="0.73" stop-color="#A98919"/>
<stop offset="0.81" stop-color="#A98D2A"/>
<stop offset="0.9" stop-color="#A98F35"/>
<stop offset="1" stop-color="#A99038"/>
</linearGradient>
<linearGradient id="paint24_linear_31_1795" x1="607.904" y1="3852.99" x2="2039.16" y2="3852.99" gradientUnits="userSpaceOnUse">
<stop stop-color="#87732D"/>
<stop offset="0.03" stop-color="#8D782F"/>
<stop offset="0.13" stop-color="#9D8534"/>
<stop offset="0.24" stop-color="#A68D37"/>
<stop offset="0.39" stop-color="#A99038"/>
<stop offset="0.53" stop-color="#A98F35"/>
<stop offset="0.61" stop-color="#A98E2D"/>
<stop offset="0.68" stop-color="#A98A1E"/>
<stop offset="0.72" stop-color="#A98814"/>
<stop offset="0.73" stop-color="#A98919"/>
<stop offset="0.81" stop-color="#A98D2A"/>
<stop offset="0.9" stop-color="#A98F35"/>
<stop offset="1" stop-color="#A99038"/>
</linearGradient>
<linearGradient id="paint25_linear_31_1795" x1="475.354" y1="2070.73" x2="1564.83" y2="2070.73" gradientUnits="userSpaceOnUse">
<stop stop-color="#87732D"/>
<stop offset="0.03" stop-color="#8D782F"/>
<stop offset="0.13" stop-color="#9D8534"/>
<stop offset="0.24" stop-color="#A68D37"/>
<stop offset="0.39" stop-color="#A99038"/>
<stop offset="0.53" stop-color="#A98F35"/>
<stop offset="0.61" stop-color="#A98E2D"/>
<stop offset="0.68" stop-color="#A98A1E"/>
<stop offset="0.72" stop-color="#A98814"/>
<stop offset="0.73" stop-color="#A98919"/>
<stop offset="0.81" stop-color="#A98D2A"/>
<stop offset="0.9" stop-color="#A98F35"/>
<stop offset="1" stop-color="#A99038"/>
</linearGradient>
<linearGradient id="paint26_linear_31_1795" x1="362.377" y1="456.072" x2="1162.76" y2="456.072" gradientUnits="userSpaceOnUse">
<stop stop-color="#87732D"/>
<stop offset="0.03" stop-color="#8D782F"/>
<stop offset="0.13" stop-color="#9D8534"/>
<stop offset="0.24" stop-color="#A68D37"/>
<stop offset="0.39" stop-color="#A99038"/>
<stop offset="0.53" stop-color="#A98F35"/>
<stop offset="0.61" stop-color="#A98E2D"/>
<stop offset="0.68" stop-color="#A98A1E"/>
<stop offset="0.72" stop-color="#A98814"/>
<stop offset="0.73" stop-color="#A98919"/>
<stop offset="0.81" stop-color="#A98D2A"/>
<stop offset="0.9" stop-color="#A98F35"/>
<stop offset="1" stop-color="#A99038"/>
</linearGradient>
<linearGradient id="paint27_linear_31_1795" x1="287.679" y1="3405.44" x2="905.141" y2="3405.44" gradientUnits="userSpaceOnUse">
<stop stop-color="#87732D"/>
<stop offset="0.03" stop-color="#8D782F"/>
<stop offset="0.13" stop-color="#9D8534"/>
<stop offset="0.24" stop-color="#A68D37"/>
<stop offset="0.39" stop-color="#A99038"/>
<stop offset="0.53" stop-color="#A98F35"/>
<stop offset="0.61" stop-color="#A98E2D"/>
<stop offset="0.68" stop-color="#A98A1E"/>
<stop offset="0.72" stop-color="#A98814"/>
<stop offset="0.73" stop-color="#A98919"/>
<stop offset="0.81" stop-color="#A98D2A"/>
<stop offset="0.9" stop-color="#A98F35"/>
<stop offset="1" stop-color="#A99038"/>
</linearGradient>
<linearGradient id="paint28_linear_31_1795" x1="413.014" y1="1987.69" x2="1328.57" y2="1987.69" gradientUnits="userSpaceOnUse">
<stop stop-color="#87732D"/>
<stop offset="0.03" stop-color="#8D782F"/>
<stop offset="0.13" stop-color="#9D8534"/>
<stop offset="0.24" stop-color="#A68D37"/>
<stop offset="0.39" stop-color="#A99038"/>
<stop offset="0.53" stop-color="#A98F35"/>
<stop offset="0.61" stop-color="#A98E2D"/>
<stop offset="0.68" stop-color="#A98A1E"/>
<stop offset="0.72" stop-color="#A98814"/>
<stop offset="0.73" stop-color="#A98919"/>
<stop offset="0.81" stop-color="#A98D2A"/>
<stop offset="0.9" stop-color="#A98F35"/>
<stop offset="1" stop-color="#A99038"/>
</linearGradient>
<linearGradient id="paint29_linear_31_1795" x1="258.141" y1="3400.7" x2="786.183" y2="3400.7" gradientUnits="userSpaceOnUse">
<stop stop-color="#87732D"/>
<stop offset="0.03" stop-color="#8D782F"/>
<stop offset="0.13" stop-color="#9D8534"/>
<stop offset="0.24" stop-color="#A68D37"/>
<stop offset="0.39" stop-color="#A99038"/>
<stop offset="0.53" stop-color="#A98F35"/>
<stop offset="0.61" stop-color="#A98E2D"/>
<stop offset="0.68" stop-color="#A98A1E"/>
<stop offset="0.72" stop-color="#A98814"/>
<stop offset="0.73" stop-color="#A98919"/>
<stop offset="0.81" stop-color="#A98D2A"/>
<stop offset="0.9" stop-color="#A98F35"/>
<stop offset="1" stop-color="#A99038"/>
</linearGradient>
<linearGradient id="paint30_linear_31_1795" x1="471.324" y1="1864.67" x2="1515.7" y2="1864.67" gradientUnits="userSpaceOnUse">
<stop stop-color="#87732D"/>
<stop offset="0.03" stop-color="#8D782F"/>
<stop offset="0.13" stop-color="#9D8534"/>
<stop offset="0.24" stop-color="#A68D37"/>
<stop offset="0.39" stop-color="#A99038"/>
<stop offset="0.53" stop-color="#A98F35"/>
<stop offset="0.61" stop-color="#A98E2D"/>
<stop offset="0.68" stop-color="#A98A1E"/>
<stop offset="0.72" stop-color="#A98814"/>
<stop offset="0.73" stop-color="#A98919"/>
<stop offset="0.81" stop-color="#A98D2A"/>
<stop offset="0.9" stop-color="#A98F35"/>
<stop offset="1" stop-color="#A99038"/>
</linearGradient>
<linearGradient id="paint31_linear_31_1795" x1="495.578" y1="2070.73" x2="1584.89" y2="2070.73" gradientUnits="userSpaceOnUse">
<stop stop-color="#87732D"/>
<stop offset="0.03" stop-color="#8D782F"/>
<stop offset="0.13" stop-color="#9D8534"/>
<stop offset="0.24" stop-color="#A68D37"/>
<stop offset="0.39" stop-color="#A99038"/>
<stop offset="0.53" stop-color="#A98F35"/>
<stop offset="0.61" stop-color="#A98E2D"/>
<stop offset="0.68" stop-color="#A98A1E"/>
<stop offset="0.72" stop-color="#A98814"/>
<stop offset="0.73" stop-color="#A98919"/>
<stop offset="0.81" stop-color="#A98D2A"/>
<stop offset="0.9" stop-color="#A98F35"/>
<stop offset="1" stop-color="#A99038"/>
</linearGradient>
<linearGradient id="paint32_linear_31_1795" x1="500.563" y1="2070.73" x2="1589.88" y2="2070.73" gradientUnits="userSpaceOnUse">
<stop stop-color="#87732D"/>
<stop offset="0.03" stop-color="#8D782F"/>
<stop offset="0.13" stop-color="#9D8534"/>
<stop offset="0.24" stop-color="#A68D37"/>
<stop offset="0.39" stop-color="#A99038"/>
<stop offset="0.53" stop-color="#A98F35"/>
<stop offset="0.61" stop-color="#A98E2D"/>
<stop offset="0.68" stop-color="#A98A1E"/>
<stop offset="0.72" stop-color="#A98814"/>
<stop offset="0.73" stop-color="#A98919"/>
<stop offset="0.81" stop-color="#A98D2A"/>
<stop offset="0.9" stop-color="#A98F35"/>
<stop offset="1" stop-color="#A99038"/>
</linearGradient>
<linearGradient id="paint33_linear_31_1795" x1="272.528" y1="3404.57" x2="794.822" y2="3404.57" gradientUnits="userSpaceOnUse">
<stop stop-color="#87732D"/>
<stop offset="0.03" stop-color="#8D782F"/>
<stop offset="0.13" stop-color="#9D8534"/>
<stop offset="0.24" stop-color="#A68D37"/>
<stop offset="0.39" stop-color="#A99038"/>
<stop offset="0.53" stop-color="#A98F35"/>
<stop offset="0.61" stop-color="#A98E2D"/>
<stop offset="0.68" stop-color="#A98A1E"/>
<stop offset="0.72" stop-color="#A98814"/>
<stop offset="0.73" stop-color="#A98919"/>
<stop offset="0.81" stop-color="#A98D2A"/>
<stop offset="0.9" stop-color="#A98F35"/>
<stop offset="1" stop-color="#A99038"/>
</linearGradient>
<linearGradient id="paint34_linear_31_1795" x1="332.731" y1="2084.18" x2="997.297" y2="2084.18" gradientUnits="userSpaceOnUse">
<stop stop-color="#87732D"/>
<stop offset="0.03" stop-color="#8D782F"/>
<stop offset="0.13" stop-color="#9D8534"/>
<stop offset="0.24" stop-color="#A68D37"/>
<stop offset="0.39" stop-color="#A99038"/>
<stop offset="0.53" stop-color="#A98F35"/>
<stop offset="0.61" stop-color="#A98E2D"/>
<stop offset="0.68" stop-color="#A98A1E"/>
<stop offset="0.72" stop-color="#A98814"/>
<stop offset="0.73" stop-color="#A98919"/>
<stop offset="0.81" stop-color="#A98D2A"/>
<stop offset="0.9" stop-color="#A98F35"/>
<stop offset="1" stop-color="#A99038"/>
</linearGradient>
<linearGradient id="paint35_linear_31_1795" x1="3503.7" y1="4349.38" x2="11806.9" y2="4349.38" gradientUnits="userSpaceOnUse">
<stop offset="0.13" stop-color="#A99038"/>
<stop offset="0.28" stop-color="#A58D37"/>
<stop offset="0.42" stop-color="#9A8333"/>
<stop offset="0.56" stop-color="#86722D"/>
<stop offset="0.7" stop-color="#6B5B24"/>
<stop offset="0.73" stop-color="#655622"/>
<stop offset="1" stop-color="#A99038"/>
</linearGradient>
</defs>
</svg>
