<svg width="80" height="82" viewBox="0 0 80 82" fill="none" xmlns="http://www.w3.org/2000/svg">
<ellipse cx="40" cy="62" rx="35" ry="20" fill="#D7E19B"/>
<ellipse cx="40" cy="59" rx="35" ry="20" fill="#872CDE"/>
<ellipse cx="40" cy="39" rx="35" ry="34" fill="#B272EF"/>
<path fill-rule="evenodd" clip-rule="evenodd" d="M44.3979 34.7114C47.8984 34.4707 50.1197 34.2116 50.1197 34.2116C52.5493 34.0328 54.7802 33.6151 56.8308 33C57.2692 35.3533 59.5022 49.0045 52.3745 49.3206C52.3745 49.3206 48.2346 51.419 44.3979 34.7114ZM22 34.6245C26.4989 35.064 31.1525 35.1612 35.3479 35.0966C35.2113 36.2052 33.7279 47.1928 28.5742 47.5213C28.5742 47.5213 23.1448 47.0504 22 34.6245Z" fill="white"/>
</svg>
