<svg width="45" height="66" viewBox="0 0 45 66" fill="none" xmlns="http://www.w3.org/2000/svg">
<g opacity="0.8">
<path d="M29.8 35.5H15.8V59.5H29.8V35.5Z" fill="white"/>
<path d="M39.3 28.5V16.9C39.3 7.5 31.7 0 22.4 0C13.1 0 5.4 7.6 5.4 16.9V28.5H0V65.8H44.7V28.5H39.3ZM26 56H18.8L20.9 48.2C18.9 47.5 17.4 45.7 17.4 43.4C17.4 40.6 19.7 38.3 22.5 38.3C25.3 38.3 27.6 40.6 27.6 43.4C27.6 45.7 26.1 47.5 24.1 48.2L26 56ZM32.3 28.5H12.4V16.9C12.4 11.4 16.9 7 22.3 7C27.7 7 32.2 11.5 32.2 16.9V28.5H32.3Z" fill="#5E5E5E"/>
</g>
</svg>
