<svg width="1024" height="576" viewBox="0 0 1024 576" fill="none" xmlns="http://www.w3.org/2000/svg">
<g clip-path="url(#clip0_38_4635)">
<rect width="1024" height="576" fill="white"/>
<path d="M1024 0H0V576H1024V0Z" fill="#E2EFCE"/>
<path d="M0 30.96C0 30.96 85.09 -5.08999 96.14 62.62C96.14 62.62 115.56 47.99 145.93 51.43C162.26 53.28 175.66 65.43 175.32 79.4C175.32 79.4 216.38 51.46 253.17 64.96C272.94 72.21 282.8 85.15 284.8 102.53C284.8 102.53 311.46 66.26 358.56 68.11C399.7 69.73 403.29 107.85 403.29 107.85C403.29 107.85 432.26 58.15 489.76 55.15C528.75 53.11 555.24 70.76 563.54 92.77C563.54 92.77 587.79 46.3 637.78 41.41C666.01 38.65 690.73 51.56 697.17 71.18C697.17 71.18 714.81 41.76 749.16 35.81C764.15 33.22 786.49 40.42 790.5 55.83C799.84 46.14 829.73 17.06 874.67 17.06C908.83 17.06 928.15 36.38 932.52 53.75C932.52 53.75 948.12 26.47 973.57 17.4C994.61 9.90001 1014.25 16.17 1024 27.9V576H0V30.96Z" fill="#CBE9A2"/>
<path d="M0 379.19C0 379.19 41.56 351.21 94.04 354.91C140.66 358.19 159.1 383.74 161.13 408.8C161.13 408.8 217.18 357.45 288.26 377.24C323.48 387.24 343.12 416.43 341.44 464.66C341.44 464.66 364.58 442.19 408.64 446.33C458.81 451.05 460.84 491.38 460.84 491.38C460.84 491.38 476.61 440.62 535.77 424.14C578.93 412.11 604.49 429.54 611.46 435.59C611.46 435.59 638.47 379.39 690.6 365.88C747.84 351.05 764.75 385.51 764.75 385.51C764.75 385.51 793.91 339.43 853.31 327.27C897.02 318.32 931.56 332.59 943.45 361.95C970.01 331.11 1020.98 333.96 1024.01 351.7V576H0V379.19Z" fill="#C0E286"/>
<path d="M207.96 387.97C213.14 387.3 218.26 386.5 223.32 385.56C222.58 379.53 221.95 373.42 221.43 367.23L233.07 365.21C233.4 371.26 233.95 377.23 234.72 383.14C239.67 381.97 244.57 380.65 249.43 379.16L250.98 391.86C246.31 393.24 241.54 394.51 236.68 395.67C237.67 400.81 238.82 405.88 240.12 410.89L228.16 414.69C227.05 409.24 226.05 403.74 225.16 398.18C219.98 399.18 214.73 400.06 209.4 400.83L207.95 388L207.96 387.97Z" fill="#A8D7E8"/>
<path d="M411.28 485.45C419.06 483.84 427.77 481.66 437.4 478.92L439.1 489.03C434.49 489.62 430.03 490.36 425.72 491.25C417.49 492.96 409.84 495.22 402.77 498.02L400.95 487.33C404.2 486.82 407.64 486.19 411.27 485.44L411.28 485.45ZM426.7 477.32C418.85 478.95 410.03 481.12 400.22 483.82L398.84 474.75C403.47 474.12 407.94 473.36 412.25 472.47C420.42 470.77 428.05 468.59 435.14 465.91L436.67 475.45C433.52 475.97 430.2 476.59 426.69 477.32H426.7Z" fill="#91DDA4"/>
<path d="M553.76 451.6C568.13 435.69 581.22 418.75 593.03 400.78L601.92 407.4C590.01 426.53 576.53 443.79 561.49 459.17L553.76 451.61V451.6Z" fill="#EEB9BE"/>
<path d="M857.61 380.84L868.26 374.08L876.23 388.36C880.57 384.89 884.75 381.42 888.77 377.95L897.52 388.47C892.35 391.79 887.19 395.25 882.05 398.84L892.61 417.77L881.39 422.54C878.7 416.67 875.86 410.98 872.87 405.46C867.63 409.3 862.43 413.3 857.27 417.46L851.16 406.76C856.66 402.99 861.95 399.2 867.06 395.38C864.06 390.37 860.91 385.52 857.61 380.83V380.84Z" fill="#F4C1AC"/>
<path d="M975.54 318.96L972.56 368.83L932.79 366.45L935.77 316.58L975.54 318.96ZM986.82 306.43L926.07 302.8L921.51 378.98L982.26 382.61L986.82 306.43Z" fill="#91DDA4"/>
<path d="M338.27 423.6C348.36 423.6 356.57 431.81 356.57 441.9C356.57 451.99 348.36 460.2 338.27 460.2C328.18 460.2 319.97 451.99 319.97 441.9C319.97 431.81 328.18 423.6 338.27 423.6ZM338.27 413.6C322.64 413.6 309.97 426.27 309.97 441.9C309.97 457.53 322.64 470.2 338.27 470.2C353.9 470.2 366.57 457.53 366.57 441.9C366.57 426.27 353.9 413.6 338.27 413.6Z" fill="#F4C1AC"/>
<path d="M773.85 353.54L779.65 388.82L744.37 394.62L738.57 359.34L773.85 353.54ZM781.63 342.71L727.75 351.56L736.6 405.44L790.48 396.59L781.63 342.71Z" fill="#A8D7E8"/>
<path d="M64.75 345.48L90.25 375.12L55.15 382.66L64.75 345.48ZM58.36 318.05L37.24 399.85L114.45 383.26L58.35 318.05H58.36Z" fill="#EEB9BE"/>
<path d="M160.38 424.23L166.65 419.12L172.81 427.61C175.31 425.07 177.71 422.54 180.01 420.03L186.38 426.06C183.34 428.57 180.32 431.16 177.31 433.84L185.48 445.09L178.7 448.98C176.54 445.45 174.3 442.04 171.98 438.75C168.93 441.6 165.93 444.54 162.96 447.58L158.26 441.23C161.47 438.41 164.56 435.59 167.52 432.77C165.23 429.81 162.85 426.96 160.4 424.23H160.38Z" fill="#91DDA4"/>
<path d="M718.96 431.72C715.06 432.49 711.18 433.17 707.33 433.75C708.08 437.84 708.74 441.93 709.3 446L700.03 446.29C699.71 442.48 699.26 438.66 698.68 434.84C695 435.23 691.37 435.52 687.78 435.7L685.74 426.47C689.49 426.31 693.24 426.03 696.97 425.63C696.05 421.33 694.97 417.03 693.71 412.73L702.32 411.28C703.48 415.72 704.55 420.13 705.51 424.52C709.27 423.93 713.03 423.23 716.81 422.42L718.96 431.72Z" fill="#91DDA4"/>
<path opacity="0.4" d="M1024 0H0V576H1024V0Z" fill="#E2EFCE"/>
</g>
<defs>
<clipPath id="clip0_38_4635">
<rect width="1024" height="576" fill="white"/>
</clipPath>
</defs>
</svg>
