<svg width="1024" height="576" viewBox="0 0 1024 576" fill="none" xmlns="http://www.w3.org/2000/svg">
<g clip-path="url(#clip0_56_6655)">
<rect width="1024" height="576" fill="white"/>
<path d="M1024 0H0V576H1024V0Z" fill="#1E0938"/>
<path d="M0 322.19C0 322.19 184.75 381.25 403.94 273.21C641.12 156.3 797.02 134.8 1024 198.25V138.8C1024 138.8 780.61 0 359.86 109.28C162.91 171.22 0 126.05 0 126.05V322.2V322.19Z" fill="#1E1151"/>
<path d="M1024 454.64C908.86 405.17 722.38 373.02 511.91 373.02C301.44 373.02 115.16 405.14 0 454.56V576H1024V454.64Z" fill="url(#paint0_linear_56_6655)"/>
<path d="M951.93 428.68C951.93 428.68 1023.43 477.24 923.7 517.18C850.27 546.59 727.25 561.97 513.62 561.51C395.57 561.26 150.41 554.46 69.03 520.48C-12.97 486.24 71.98 428.68 71.98 428.68C48.96 435.34 21.4 445.43 0 454.56V576H1024V454.64C1002.6 445.51 974.95 435.34 951.93 428.68Z" fill="#7FBECD"/>
<path d="M44.74 576C83.69 546.73 154.38 520.5 248.9 517.46C371.71 513.51 436.49 552.33 456.22 576H44.74Z" fill="#7FBECD"/>
<path d="M406.98 576H456.22C446.41 564.04 432.98 553.94 411.75 544.82C411.75 544.82 445.83 564.75 406.97 576H406.98Z" fill="#5A9BB5"/>
<path d="M98.07 576C82.87 561.84 129.42 538.63 157.05 528.69C112.27 536.35 67 559.09 44.74 576H98.07Z" fill="#5A9BB5"/>
<path d="M128.58 413.46C137.51 426.54 180.7 434.42 221.38 428.68C270.85 421.7 300.16 395.12 303.13 384.05C247.75 390.04 184.84 399.72 128.58 413.46Z" fill="#7FBECD"/>
<path d="M144.51 409.72C139.15 410.93 133.84 412.18 128.58 413.46C137.51 426.54 180.7 434.42 221.38 428.68C270.85 421.7 300.16 395.12 303.13 384.05C301.45 384.23 297.78 384.64 295.82 384.86C273.17 421.07 161.44 427.84 144.51 409.72Z" fill="#5A9BB5"/>
<path d="M819.35 425.77C826.56 439.54 808.04 457.15 755.06 465.01C672.58 477.24 634.69 452.59 633.68 437.08C632.67 421.57 667.73 406.66 711.99 403.78C756.25 400.9 809.38 406.75 819.34 425.77H819.35Z" fill="#7FBECD"/>
<path d="M671.88 410.22C656.67 416.6 642.35 427.62 645.19 437.49C649.48 452.43 702.74 464.48 770.11 450.83C814.92 441.75 817.59 423.08 807.5 415.31C813.09 418.22 817.21 421.7 819.35 425.78C826.56 439.55 808.04 457.16 755.06 465.02C672.58 477.25 634.69 452.6 633.68 437.09C633.01 426.74 648.4 416.65 671.87 410.23L671.88 410.22Z" fill="#5A9BB5"/>
<path d="M888.11 515.22C830.78 530.33 791.67 553.44 765.21 576H1024V505.65C989.71 498.08 940.74 501.35 888.11 515.22Z" fill="#7FBECD"/>
<path d="M990.94 501.8C1005.16 503.94 1013.95 508.06 1018.1 517C1022.86 527.25 1020 553.54 996.32 564.75C981 572.01 945.28 576 945.28 576H1024.01V505.66C1014 503.33 1001.95 502.01 990.94 501.81V501.8Z" fill="#5A9BB5"/>
<path d="M831.17 535.07C801.17 547.9 778.75 564.23 765.21 576H842.95C784.01 568.98 808.38 548.87 831.16 535.07H831.17Z" fill="#5A9BB5"/>
<path d="M765.91 371.78L760.4 388.84C760.4 388.84 763.24 389.21 766.41 389.64L776.34 373.39L765.91 371.79V371.78Z" fill="#666B6E"/>
<path d="M819.93 380.08L820.02 398C820.02 398 817.2 397.5 814.05 396.94L809.5 378.45L819.93 380.08Z" fill="#666B6E"/>
<path d="M798.16 376.74L793.32 393.55C793.32 393.55 790.22 393.11 787.09 392.59L787.72 375.13L798.16 376.73V376.74Z" fill="#666B6E"/>
<path d="M771.93 329C771.93 329 728.38 335.66 738.9 386.2C738.9 386.2 751.76 359.28 768.15 360.73L771.93 329.01V329Z" fill="#44689D"/>
<path d="M827.15 338.02C827.15 338.02 866.89 357.03 842.16 402.34C842.16 402.34 837.67 372.85 821.57 369.47L827.16 338.01L827.15 338.02Z" fill="#44689D"/>
<path d="M765.91 371.78C763.33 312.07 795.7 271.44 811 262.45C823.16 276.24 839.96 323.79 819.96 380.08L765.91 371.78Z" fill="#ACBABE"/>
<path d="M790.28 283.86C798.11 272.15 805.23 265.84 811 262.45C815.29 267.31 820.55 277 823.98 289.23C814.81 281.71 800.01 280.08 790.28 283.87V283.86Z" fill="#BE0F41"/>
<path d="M815.785 311.413C817.133 304.103 812.612 297.141 805.687 295.864C798.762 294.587 792.056 299.478 790.707 306.788C789.359 314.098 793.88 321.06 800.805 322.337C807.729 323.615 814.436 318.724 815.785 311.413Z" fill="#808689"/>
<path d="M812.382 310.785C813.365 305.457 810.071 300.384 805.025 299.453C799.98 298.523 795.093 302.087 794.11 307.415C793.127 312.744 796.421 317.817 801.467 318.748C806.512 319.678 811.399 316.113 812.382 310.785Z" fill="#D6E0E5"/>
<path d="M782.68 374.36L784.85 347.55C784.95 346.17 786.22 345.17 787.58 345.39L807.71 348.64C809.07 348.86 809.95 350.19 809.63 351.53L803.44 377.55L782.68 374.36Z" fill="#808689"/>
<path d="M786.08 374.88L787.94 351.35C788.02 350.35 788.93 349.62 789.93 349.78L804.54 352.14C805.53 352.3 806.17 353.26 805.94 354.24L800.62 377.12L786.08 374.89V374.88Z" fill="#5A5E60"/>
<path d="M782.68 374.36L774.59 390.77C774.59 390.77 794.53 393.74 806.19 395.61L803.44 377.55L782.68 374.36Z" fill="#979C9E"/>
<path d="M781.45 376.86L803.95 380.82L804.1 381.8L780.72 378.35L781.45 376.86Z" fill="#808689"/>
<path d="M779.15 381.54L804.68 385.65L804.93 387.24L778.52 382.81L779.15 381.54Z" fill="#808689"/>
<path d="M776.79 386.33L805.54 391.28L805.8 392.96L775.84 388.25L776.79 386.33Z" fill="#808689"/>
<path d="M872.17 250.66C887.728 250.66 900.34 238.048 900.34 222.49C900.34 206.932 887.728 194.32 872.17 194.32C856.612 194.32 844 206.932 844 222.49C844 238.048 856.612 250.66 872.17 250.66Z" fill="#591540"/>
<path d="M865.29 195.18C866.65 221.43 844.13 219.74 844.13 219.74C844.13 220.22 844.13 222.02 844.13 225.2C844.13 225.2 877.21 230.26 876.46 194.65C872.57 194.02 868.87 194.32 865.28 195.18H865.29Z" fill="#6D1653"/>
<path d="M891.02 201.55C877.52 205.35 880.2 223.6 870.52 231.86C857.83 242.7 846.39 233.83 846.39 233.83C848.3 237.84 850.48 240.94 852.96 243.08C856.23 244.62 862.21 245.17 866.46 243.41C873.77 240.37 876.62 236.42 879.8 227.88C887.4 207.46 898.78 213.21 898.78 213.21C896.44 207.55 893.85 203.72 891.03 201.56L891.02 201.55Z" fill="#6D1653"/>
<path d="M874.27 250.45C879.67 248.46 882.36 243.99 883.98 241.32C895.86 221.77 900.32 223.7 900.32 223.7C899.69 230.7 897.46 236.37 893.63 240.72C889.26 245.69 882.95 250.3 874.27 250.46V250.45Z" fill="#6D1653"/>
<path d="M896.29 237.05C891.95 241.46 879.37 243.44 868.44 237.93C842.29 221.5 856.75 198.91 856.75 198.91C847.36 205.06 842.18 216.52 844.58 228.18C847.72 243.42 862.6 253.1 877.86 250.08C891.47 247.39 896.29 237.04 896.29 237.04V237.05Z" fill="#4E0B34"/>
<path d="M884.03 241.24C884.03 241.24 884 241.29 883.98 241.32C882.36 243.99 879.67 248.47 874.27 250.45C875.14 250.43 875.98 250.36 876.81 250.26C877.16 250.2 877.51 250.15 877.87 250.08C880.54 249.55 882.87 248.72 884.9 247.74C888.41 245.91 891.31 243.37 893.64 240.71C894.63 239.58 895.52 238.36 896.29 237.05C894.01 239.37 889.43 241 884.03 241.24Z" fill="#601141"/>
<path d="M868.44 237.93C867.17 237.13 866.01 236.32 864.92 235.5C854.67 240.23 846.42 233.86 846.38 233.83C846.38 233.84 846.39 233.85 846.4 233.86C847.28 235.71 848.23 237.37 849.23 238.82C850.35 240.38 851.61 241.81 853.01 243.09C856.29 244.61 862.23 245.15 866.45 243.39C869.03 242.32 871.04 241.13 872.72 239.67C871.28 239.2 869.85 238.62 868.44 237.91V237.93Z" fill="#601141"/>
<path d="M844.15 225.2C844.47 225.25 849.5 225.95 855.51 224.74C854.37 222.52 853.64 220.33 853.23 218.2C848.51 220.04 844.2 219.73 844.14 219.73C844.14 219.76 844.14 219.79 844.14 219.82C844.14 220.38 844.14 222.08 844.14 224.97C844.14 225.04 844.15 225.12 844.16 225.19L844.15 225.2Z" fill="#601141"/>
<path d="M731.43 123.53C756.101 123.53 776.1 103.531 776.1 78.8599C776.1 54.1894 756.101 34.1899 731.43 34.1899C706.759 34.1899 686.76 54.1894 686.76 78.8599C686.76 103.531 706.759 123.53 731.43 123.53Z" fill="#055555"/>
<path d="M772.13 97.1599C772.13 97.1599 752 114.3 721.34 104.21C700.95 97.4999 696.01 76.8399 697.13 66.5899C698.7 52.1799 708.52 40.5199 708.52 40.5199C698.73 46.3699 691.17 55.9499 688.14 67.8799C682.08 91.7899 696.55 116.09 720.46 122.16C741.81 127.57 763.43 116.6 772.14 97.1599H772.13Z" fill="#00484A"/>
<path d="M704.27 114.33C704.27 114.33 732.51 109.44 758.03 114.75C743.43 126.79 717.88 126.44 704.27 114.33Z" fill="#005A5D"/>
<path d="M708.52 40.5199C708.52 40.5199 710.09 63.4799 758.03 42.9599C757.02 42.1999 756.07 41.5699 755.25 41.0499C738.54 47.6399 726.66 46.2799 720.45 43.4499C714.24 40.6199 716.87 36.6299 716.87 36.6299C714.02 37.6499 711.24 38.9499 708.53 40.5199H708.52Z" fill="#006964"/>
<path d="M702.52 44.83C702.52 44.83 694.4 68.29 717.31 67.37C740.22 66.45 753.58 43.62 771.01 58.16C771.87 59.74 772.8 61.79 773.7 64.38C751.81 51 738.33 77.11 715.47 78.86C690.23 80.79 688.83 65.46 688.83 65.46C691.17 57.67 695.55 50.72 702.52 44.83Z" fill="#006964"/>
<path d="M693.89 103.06C693.89 103.06 734.31 73.8099 774.73 89.8399C774.73 89.8399 772.43 99.7699 765.56 107.69C765.56 107.69 743.62 83.7099 696.83 107.12C695.92 106.03 694.94 104.67 693.88 103.06H693.89Z" fill="#006964"/>
<path d="M772.13 97.1599C772.13 97.1599 767.91 100.74 760.42 103.66C763.6 105.66 765.28 107.39 765.53 107.65C768.17 104.53 770.4 101.02 772.13 97.1699V97.1599Z" fill="#00484A"/>
<path d="M713.3 100.4C711 98.9199 708.99 97.2299 707.24 95.3999C699.01 99.3799 693.99 103 693.9 103.06C693.94 103.13 693.98 103.2 694.03 103.26C694.18 103.49 694.33 103.71 694.48 103.94C694.78 104.38 695.07 104.81 695.38 105.24C695.4 105.27 695.42 105.29 695.44 105.32C695.84 105.86 696.25 106.39 696.67 106.92C696.71 106.96 696.74 107.01 696.78 107.06C696.8 107.09 696.82 107.11 696.84 107.13C702.72 104.19 708.2 102 713.3 100.41V100.4Z" fill="#005A5D"/>
<path d="M697.68 76.41C696.96 72.71 696.83 69.29 697.13 66.6C697.69 61.46 699.3 56.67 701.14 52.64C701.3 48.38 702.51 44.84 702.51 44.84C702.51 44.84 702.51 44.84 702.5 44.85C702.1 45.19 701.7 45.54 701.32 45.88C695.65 51.04 691.26 57.71 688.82 65.47C688.83 65.59 689.54 72.5 697.68 76.41Z" fill="#005A5D"/>
<path d="M73.25 155.09C69.86 147.63 106.72 119.1 167.45 92.76C249.26 57.28 288.13 48.54 291.52 56.01L332.86 47.43C324.7 29.45 250.1 44.83 151.06 91.08C70.47 128.71 31.4 162.59 39.56 180.57L73.24 155.1L73.25 155.09Z" fill="#3A359E"/>
<path d="M151.06 91.07C70.47 128.7 31.4 162.58 39.56 180.56L53.95 169.68C42.77 151.53 106.02 115.27 162.56 88.33C270.29 37.01 324.9 37.23 327.45 48.54L332.86 47.42C324.7 29.44 250.1 44.82 151.06 91.07Z" fill="#2B2378"/>
<path d="M151.1 96C84.33 129.48 54.36 156.8 60 165.11L66.03 160.55C63.02 146.57 113.47 116.06 160.88 93.38C251.2 50.18 300.38 44.29 300.27 54.19L304.92 53.22C304.92 38.51 229.74 56.57 151.11 95.99L151.1 96Z" fill="#4C47A7"/>
<path d="M186.22 189.44C227.89 189.44 261.67 155.66 261.67 113.99C261.67 72.3202 227.89 38.54 186.22 38.54C144.55 38.54 110.77 72.3202 110.77 113.99C110.77 155.66 144.55 189.44 186.22 189.44Z" fill="#353190"/>
<path d="M194.58 38.9901C160.91 51.4101 150.23 96.8501 158.67 122.98C173.35 168.44 230.09 180.57 252.87 149.36C244.34 165.45 230 178.51 211.49 185.09C172.22 199.05 129.08 178.53 115.12 139.27C101.16 100 121.68 56.8601 160.94 42.9001C172.09 38.9401 183.56 37.7501 194.58 38.9901Z" fill="#2A2272"/>
<path d="M39.5699 180.57C47.7299 198.55 118.56 191.83 190.97 159C302.65 108.36 341.03 65.4101 332.87 47.4301L291.53 56.0101C294.92 63.4701 248.8 91.7101 188.53 119.07C128.25 146.43 76.6499 162.56 73.2599 155.1L39.5799 180.57H39.5699Z" fill="#3A359E"/>
<path d="M332.87 47.42L327.46 48.54C330.45 61.51 293.71 106.67 172.44 154.75C112.31 178.59 63.3499 182.33 53.9599 169.67L39.5699 180.55C47.7299 198.53 118.56 191.81 190.97 158.98C302.65 108.34 341.03 65.39 332.87 47.41V47.42Z" fill="#2B2378"/>
<path d="M304.91 53.2301L300.26 54.2001C300.18 63.6601 264.55 101.84 158.44 144.38C119.31 160.07 74.68 169.27 66.03 160.56L60 165.12C66.39 175.78 134.16 162.4 179.75 141.4C268.82 100.36 304.5 69.3601 304.91 53.2401V53.2301Z" fill="#4C47A7"/>
<path d="M80.13 371.15L80.61 378.68L75.57 383.16L80.68 384.22L82.3 392.16L86.62 386.13L92.05 386.76L90.22 381.66L93.22 374.93L85.94 376.89L80.13 371.15Z" fill="#3D4292"/>
<path d="M262.55 241.54L263.23 232.66L269.86 228.26L264.07 226.18L263.5 216.63L257.44 222.96L251.2 221.33L252.5 227.59L247.88 234.96L256.71 233.88L262.55 241.54Z" fill="#3D4292"/>
<path d="M786.94 185.43L792.34 190.1L792.02 196.48L796.13 193.73L802.57 197.91L801.37 190.98L805.39 187.73L800.73 185.59L798.18 179.09L794.67 185.31L786.94 185.43Z" fill="#3D4292"/>
<path d="M402.81 46.97L403.66 36.36L410.85 29.62L401.37 31.16L395.61 25.12L396.54 32.99L389.06 37.24L397.9 37.46L402.81 46.97Z" fill="#3D4292"/>
<path d="M62.17 52.9999L56.04 57.8999L63.28 58.2799L67 63.5899L68.58 58.8299L76.36 58.1599L71.06 53.3599L72.27 48.2399L67.19 49.4199L61.1 45.8099L62.17 52.9999Z" fill="#3D4292"/>
<path d="M103.43 228.32L98.52 235.48L103.43 242.64L108.34 235.48L103.43 228.32Z" fill="#3D4292"/>
<path d="M355.23 165.54L361.54 157.65L355.23 149.75L348.92 157.65L355.23 165.54Z" fill="#3D4292"/>
<path d="M303.14 325.66L298.47 334.28L303.14 342.9L307.8 334.28L303.14 325.66Z" fill="#3D4292"/>
<path d="M54.31 266.39L52.23 271.59L47.83 272.73L52.11 274.57L53.68 281.04L55.12 275.29L59.46 272.94L55.25 272.3L54.31 266.39Z" fill="#3D4292"/>
<path d="M177.68 306.04L180.93 301.42L175.86 302.61L172.22 299.69L172.08 303.29L166.84 305.31L171.46 307.57L171.65 311.34L174.92 309.51L179.85 310.79L177.68 306.04Z" fill="#3D4292"/>
<path d="M640.67 89.88L638.61 95.89L635.09 98.58L640.06 100.23L639.84 106.03L643.98 102.3L650.61 102.92L647.29 98.16L648.54 92.78L644.2 93.41L640.67 89.88Z" fill="#3D4292"/>
<path d="M593.03 39.49L588.78 45.42L593.03 51.35L597.28 45.42L593.03 39.49Z" fill="#3D4292"/>
<path d="M739.08 276.94L738.78 284.74L733.53 288.3L740.01 288.71L745.1 296.47L744.31 288.25L748.91 283.14L743.07 284.26L739.08 276.94Z" fill="#3D4292"/>
<path d="M903.81 127.7L899.42 132.63L903.81 137.55L908.2 132.63L903.81 127.7Z" fill="#3D4292"/>
<path d="M973.8 70.95L969.33 73.21L968.45 77.61L966.13 75.03L961.03 76.78L963.03 72.27L960.84 69.36L964.38 68.7L967.23 64.71L968.56 69.55L973.8 70.95Z" fill="#3D4292"/>
<path d="M833.21 54.68L835.77 47.13L841.17 45.57L835.93 42.76L834.02 33.25L832.23 41.63L826.91 44.94L832.07 46.01L833.21 54.68Z" fill="#3D4292"/>
<path d="M904.82 310.42L903.88 315.85L900.36 317.49L904.24 318.84L906.56 325.14L906.88 319.22L910.16 316.39L906.52 316.21L904.82 310.42Z" fill="#3D4292"/>
<path d="M946.98 270.59L943.12 277.74L946.98 284.88L950.85 277.74L946.98 270.59Z" fill="#3D4292"/>
<path d="M969.45 379.92L969.2 376.02L966.98 378.87H963.75L965.24 380.87L963.29 384.24L966.77 383.45L968.51 385.4L969.48 382.99L972.69 381.54L969.45 379.92Z" fill="#3D4292"/>
<path d="M619.01 255.97L615.27 262.46L619.01 268.94L622.76 262.46L619.01 255.97Z" fill="#3D4292"/>
<path d="M554.07 123.47L551.15 128.24L546.61 128.62L550.52 131.15L550.97 137.79L553.37 132.37L558.04 130.79L554 129.44L554.07 123.47Z" fill="#3D4292"/>
<path d="M692.61 228.81L691.45 224.08L694.99 220.57L690.82 220.56L688.71 215.71L685.89 220.11L681.51 220.41L683.5 223.42L681.81 228.1L687.4 225.91L692.61 228.81Z" fill="#3D4292"/>
</g>
<defs>
<linearGradient id="paint0_linear_56_6655" x1="0" y1="474.51" x2="1024" y2="474.51" gradientUnits="userSpaceOnUse">
<stop stop-color="#E0F5FC"/>
<stop offset="1" stop-color="#EEF9FF"/>
</linearGradient>
<clipPath id="clip0_56_6655">
<rect width="1024" height="576" fill="white"/>
</clipPath>
</defs>
</svg>
