<svg width="83" height="100" viewBox="0 0 83 100" fill="none" xmlns="http://www.w3.org/2000/svg">
<path d="M75.8634 71.0407C76.0427 70.8491 76.2177 70.6532 76.3926 70.4551C76.3948 70.4507 76.3992 70.4486 76.4014 70.4442C76.5807 70.2396 76.7579 70.0328 76.9306 69.8216C76.935 69.8173 76.9372 69.8129 76.9416 69.8086C77.4752 69.162 77.9804 68.4851 78.4572 67.7754C81.519 63.228 83.3539 57.3788 82.9427 49.8513C82.9427 49.8513 77.8732 53.2254 70.9732 57.0828C70.6736 57.2504 70.3717 57.418 70.0656 57.5878C70.0328 57.6052 70 57.6248 69.9671 57.6422C69.6282 57.8294 69.2848 58.0166 68.9371 58.206C68.8715 58.243 68.8037 58.2779 68.738 58.3149C68.4275 58.4825 68.1147 58.6523 67.7976 58.8199C67.7517 58.8438 67.7058 58.87 67.6598 58.8939C67.3012 59.0855 66.9403 59.277 66.5751 59.4664C64.5411 60.5309 62.4219 61.5888 60.2808 62.5815C60.0206 62.7034 59.7581 62.8231 59.4957 62.9428C59.4126 62.9798 59.3295 63.019 59.2464 63.056C58.9008 63.2128 58.5531 63.3673 58.2054 63.5197C58.1726 63.5349 58.1397 63.548 58.1069 63.5632C57.7942 63.7004 57.4793 63.8353 57.1665 63.9703C57.0834 64.0051 57.0003 64.0421 56.9172 64.077C56.6373 64.1967 56.3551 64.3142 56.0752 64.4296C55.4453 64.6908 54.8155 64.9412 54.1922 65.1828C53.9691 60.4873 53.1555 56.125 52.2348 51.7103C50.7826 46.4097 49.501 41.6795 47.7886 37.6828C52.6853 38.1312 59.7756 38.2705 60.6461 35.6322C61.4881 33.0875 58.4153 30.7713 54.8942 29.0255C59.9265 28.9471 65.3788 28.0829 65.2388 24.6914C65.1054 21.4436 59.277 20.2507 54.3649 19.8218C56.5913 19.3103 58.5422 18.8967 58.8899 18.938C59.7669 19.0404 66.9928 19.0404 65.3416 14.3667C63.4455 9.4122 52.0554 10.5071 46.8153 11.293C47.8651 9.26417 48.565 7.28978 48.6874 6.02721C49.1686 0.358726 46.3473 0.204173 45.5228 0.513285C44.8295 0.75056 44.2172 1.17722 43.6726 1.71708C43.6267 1.76061 43.5829 1.8085 43.5348 1.85857C43.3839 2.01748 43.2374 2.18509 43.0974 2.36142C42.6513 2.89257 42.1898 3.64575 41.643 4.6754C40.8404 6.36462 40.4577 7.70338 40.274 8.57847C37.8507 7.92977 35.3007 7.6076 32.9824 7.38121C31.7052 7.25713 30.4214 7.25931 29.1508 7.37033C28.8183 4.66669 27.3312 1.60388 25.7937 0.582938C23.9347 -0.649152 22.6794 0.241176 21.9905 1.68007C21.1485 4.72329 21.9905 7.16135 22.7515 8.56759C16.1795 5.31757 5.95086 4.06588 4.90765 7.58583C4.25373 9.79532 4.90764 11.5999 6.25922 13.0649C3.29144 13.2804 1.05631 14.2165 0.933833 16.1081C0.780742 18.47 2.19574 20.2616 4.26028 21.6156C1.76489 21.9769 0.450501 23.2482 0.00434911 25.0005C-0.225288 29.9463 8.69338 32.9329 13.8285 34.239C13.8679 34.3109 13.9051 34.3827 13.9444 34.4524C13.9532 34.4807 13.9641 34.5111 13.9729 34.5394C16.7985 42.498 16.2648 47.7246 15.2391 53.1688C13.9707 54.8994 12.4726 56.8259 10.9001 58.587C5.34943 64.8149 1.73427 65.9012 3.82288 69.4908C5.57031 72.4926 8.68026 72.3881 13.8241 68.9378C14.0297 73.6115 15.0576 77.8977 17.5246 81.3284C17.7892 81.6963 18.0691 82.0533 18.3666 82.4016C18.3688 82.4038 18.3709 82.4059 18.3731 82.4103C18.4694 82.5235 18.5678 82.6345 18.6684 82.7455C18.6771 82.7564 18.6881 82.7651 18.6968 82.776C18.7909 82.8783 18.8849 82.9806 18.9811 83.0808C19.0074 83.1091 19.0358 83.1352 19.062 83.1613C19.143 83.244 19.2239 83.3289 19.3092 83.4095C19.3179 83.4182 19.3289 83.4269 19.3376 83.4356C20.9691 90.8194 22.9768 99.4898 27.5127 99.5855C33.4876 99.7118 32.4444 93.9171 32.3635 87.6282C32.4969 87.6282 32.6303 87.6238 32.7659 87.6216C32.7878 87.6216 32.8097 87.6216 32.8315 87.6216C33.2624 87.6086 33.702 87.5846 34.1525 87.5498C34.1765 87.5498 34.2028 87.5455 34.2268 87.5433C34.4499 87.5259 34.6752 87.5041 34.9026 87.4823C34.9223 87.4823 34.9398 87.478 34.9595 87.4758C35.4253 87.4279 35.9043 87.367 36.3964 87.2973C36.4248 87.2929 36.451 87.2886 36.4795 87.2864C36.7244 87.2516 36.9716 87.2146 37.2209 87.1732C37.234 87.1732 37.2449 87.1689 37.2581 87.1667C37.3127 87.158 37.3674 87.1493 37.4221 87.1406C37.0262 92.6654 37.4571 99.9317 42.5266 99.9991C46.0696 100.047 48.5475 98.1488 51.4956 83.9254C51.5699 83.908 51.6399 83.8884 51.7143 83.8709C51.8367 83.4726 51.9527 83.0764 52.0642 82.6846C52.8406 82.5387 53.6563 82.3711 54.5071 82.1774C54.5093 82.1774 54.5115 82.1774 54.5137 82.1774C54.752 82.1229 54.9948 82.0664 55.2398 82.0076C55.2419 82.0076 55.2441 82.0076 55.2463 82.0076C55.9833 81.8291 56.7422 81.631 57.5142 81.4133C59.2354 80.9257 61.0332 80.3292 62.8418 79.6C63.616 79.2887 64.3903 78.9535 65.1623 78.5921C65.9343 78.2308 66.7041 77.8433 67.4652 77.4275C69.7834 76.1649 72.0251 74.6455 74.0525 72.817C74.234 72.6537 74.4134 72.4861 74.5927 72.3163C74.6299 72.2793 74.6692 72.2444 74.7064 72.2074C74.8858 72.0355 75.0629 71.8613 75.2379 71.685C75.2466 71.6763 75.2554 71.6676 75.2619 71.6589C75.4347 71.4826 75.6053 71.3041 75.7759 71.1234C75.7999 71.0994 75.8218 71.0733 75.8459 71.0494L75.8634 71.0407Z" fill="#777777"/>
</svg>
