<svg width="78" height="83" viewBox="0 0 78 83" fill="none" xmlns="http://www.w3.org/2000/svg">
<path d="M0 31.5008C0 32.0557 0.182209 32.5949 0.479964 33.0626C1.0177 33.9106 1.51544 34.4587 1.8843 34.7944C2.08651 34.9778 2.3376 35.083 2.59981 35.1076C4.08192 36.1279 6.53507 37.3451 10.5837 38.6697C20.2118 42.0259 21.254 42.4465 21.4606 50.5193C21.0384 51.0295 20.6207 51.5262 20.2074 51.9334C18.3742 53.7458 14.6745 57.1288 16.881 59.0754C18.1009 60.1517 19.8896 59.3999 21.4562 58.1156C21.6162 61.8701 22.5005 64.9086 24.1471 67.3027C23.9338 68.9852 24.5293 71.2384 26.2403 74.0912C31.4354 82.0096 27.8557 82.7882 31.2954 82.7166C34.1997 82.6562 35.3263 75.8946 35.6062 73.7891C36.1529 73.8965 36.7128 73.9927 37.2906 74.0777C40.2526 80.2755 38.3194 82.9292 40.8103 82.9985C44.2145 83.0925 46.0432 78.6556 50.0563 68.4728C52.0828 69.3544 54.8581 70.1017 56.2914 68.4684C56.9935 67.6204 56.1158 66.7724 56.1158 66.7724C56.1158 66.7724 58.9245 68.1149 62.2243 67.231C64.5774 66.6292 66.2262 65.1099 64.5774 63.7674C67.3505 63.5034 72.2302 61.1518 70.0548 58.1111C70.0548 58.1111 72.2657 56.5203 73.319 53.4795C74.3722 50.4388 73.3545 48.4586 72.6524 48.2125C70.617 47.6106 70.4414 53.4683 62.2265 59.5901C57.8157 62.8769 54.8292 64.3134 51.0584 65.0674C51.1029 64.8213 51.1362 64.5841 51.1606 64.3581C51.3451 63.8346 51.5117 63.2931 51.6606 62.7337C51.6606 62.7337 51.6606 62.7315 51.6628 62.7315C51.8206 62.3601 52.2717 59.9503 52.2717 59.5901C52.5072 57.7889 52.5783 55.8468 52.4761 53.7793C52.5116 53.4191 52.2428 50.6939 52.2028 50.5686C52.2028 50.5686 52.1983 50.5686 52.1917 50.5686C52.0183 49.197 51.7717 47.7807 51.4562 46.3241C51.4362 46.2279 51.4117 46.1249 51.3895 46.0265C51.3895 46.022 51.3873 46.0153 51.3851 46.0108C51.2784 45.5275 51.1562 45.0241 51.0251 44.5117C50.9651 44.2768 50.9029 44.0396 50.8407 43.8024C50.8095 43.6861 50.7807 43.572 50.7496 43.4579C50.6496 43.0909 50.5473 42.724 50.4385 42.3526C52.7161 41.2271 55.0537 38.5936 55.0537 38.5936C55.8447 41.471 58.0868 42.5114 59.5333 42.8873C60.2755 43.0797 61.0599 42.8269 61.5621 42.2429C62.2954 41.3882 62.1954 38.2871 62.1954 38.2871C63.262 40.5603 66.2328 41.6388 68.0971 42.1042C69.146 42.366 70.1703 41.5336 70.0881 40.4507C69.9481 38.6204 68.8971 36.5866 68.8971 36.5866C71.8591 40.9251 77.3098 41.9453 77.3098 41.9453C80.3451 38.1103 72.3857 30.2277 72.3857 30.2277C68.886 26.0995 65.0885 24.9338 61.4999 25.303C63.0109 24.6855 63.4353 22.316 61.7176 21.3427C59.9666 20.3515 58.0823 19.7809 58.0823 19.7809C50.1696 16.5992 46.0099 23.1662 44.3123 27.046C44.1412 26.7551 43.9678 26.471 43.7923 26.1935C43.7367 26.104 43.679 26.0123 43.6167 25.9161C43.5923 25.8758 43.5656 25.8355 43.5412 25.7952C43.419 25.6051 43.2857 25.4037 43.1435 25.1934C43.1346 25.1799 43.1257 25.1687 43.1168 25.1553C42.8146 24.7078 42.4768 24.2201 42.1191 23.7099C43.1568 22.5979 43.7723 21.0563 43.6523 19.047C43.3834 14.5027 39.7504 14.1559 39.7504 14.1559C37.4994 13.6569 34.9885 14.4132 33.7375 16.8856C33.0486 16.5858 32.2087 16.2949 31.2532 16.0622C31.7887 14.2812 32.5265 10.5245 31.1355 6.02043C28.7134 -1.43931 23.4116 -0.642775 23.3938 1.42465C23.7871 4.12976 28.449 -0.00733096 30.3111 7.48821C31.2199 11.3501 30.7866 14.5788 30.5266 15.9011C30.1489 15.825 29.7556 15.7602 29.3511 15.7065C29.3934 14.176 29.2312 11.3121 27.889 7.84173C25.8714 2.62842 20.2185 2.2212 20.4807 4.67794C20.7429 7.43451 24.9404 3.61738 27.1158 9.18422C28.2023 11.9744 28.2912 13.8337 28.3157 15.6013C27.8846 15.57 27.4424 15.5543 26.9913 15.5566C26.4003 15.5476 25.8403 15.5633 25.3203 15.5924C25.1626 14.6593 24.7315 13.4063 23.5805 12.5315C21.5295 10.972 19.6741 12.1153 19.2452 12.5315C17.6165 14.1201 17.6098 16.2032 17.9787 17.624C14.6234 19.3804 10.9259 22.3988 7.06836 27.1422C4.90852 28.4131 3.42419 29.4334 2.41538 30.2053C0.973261 30.1896 0 30.1762 0 31.5008ZM54.5382 27.762C54.5382 27.762 54.5559 27.7732 54.5626 27.7799C54.5582 27.7821 54.5537 27.7844 54.5515 27.7866C54.5426 27.7709 54.5382 27.762 54.5382 27.762ZM59.2311 25.7393C58.6267 25.0994 57.9823 24.6497 57.9823 24.6497C58.7601 25.0613 59.5667 25.3008 60.3377 25.4261C60.3977 25.435 60.4555 25.4417 60.5133 25.4462C60.0822 25.5245 59.6533 25.6207 59.2311 25.7393V25.7393Z" fill="#777777"/>
</svg>
