<svg width="78" height="90" viewBox="0 0 78 90" fill="none" xmlns="http://www.w3.org/2000/svg">
<path d="M73.1015 36.9213L77.7914 30.4115C78.1218 29.9511 78.0531 29.3188 77.6318 28.9399L70.8463 22.8641C70.5492 22.5975 70.4028 22.2054 70.4561 21.8111L71.414 14.6514C71.4384 14.4707 71.19 14.3936 71.1058 14.5544L66.4535 23.514C66.2184 23.9656 66.3603 24.5229 66.7817 24.8093L72.1679 28.3407C72.8265 28.7725 72.7533 29.755 72.0371 30.0877L65.9435 32.9053C65.1163 32.6409 64.2382 32.4052 63.298 32.2047C60.1115 31.524 55.8273 32.8414 50.9466 35.0466C50.8956 35.0686 50.8491 35.0906 50.8003 35.1127C50.7138 35.1523 50.6273 35.192 50.5408 35.2316C50.5408 35.2316 50.5386 35.2316 50.5364 35.2338C50.4787 35.2603 50.4189 35.2889 50.3612 35.3153C48.0617 36.3992 46.7489 37.2804 45.4983 37.8444C44.8064 37.1438 43.64 35.0818 43.5779 33.1057C43.4915 30.308 43.1965 27.8693 42.6688 25.7478C44.7333 21.8243 48.4453 12.1245 42.1654 1.33212C42.1654 1.33212 38.1562 -3.61798 23.2414 5.56626C23.2414 5.56626 27.9181 7.87278 32.7056 7.96971C32.5038 9.04917 32.2333 10.3379 31.9007 11.587C31.2 11.9747 30.6146 12.5585 30.1134 13.1886C30.242 12.5299 30.3728 11.8712 30.5015 11.2103C30.5791 10.816 30.6323 10.3357 30.1733 10.1485C30.0181 10.0846 29.8429 10.0824 29.6832 10.1308C28.6055 10.4591 27.754 11.2698 27.1464 12.1972C26.8515 12.6466 26.6098 13.1247 26.3902 13.616C24.4344 10.274 21.5739 7.63926 17.9084 5.63675C16.4382 4.83266 14.7995 4.70489 13.3226 5.12566C10.5996 5.49576 6.30208 7.24273 0 12.7392C0 12.7392 4.84743 14.2042 9.411 13.5124C10.2182 14.6602 11.2626 16.2265 12.0808 17.7355C11.2471 18.8106 10.5441 20.1015 9.9565 21.626C9.23803 23.4875 9.98754 27.7195 8.15812 28.539C6.77663 29.158 5.88521 29.9423 5.31088 30.7353C4.23541 31.3786 3.09117 32.425 2.24853 33.6895C0.960173 35.6216 -0.0820457 37.9721 0.971258 39.5825C1.5722 40.5034 2.71421 40.8735 3.75199 40.5783L4.01586 40.5034C4.13782 40.8713 4.28419 41.2414 4.45494 41.6093C6.06483 45.0944 9.90993 48.4826 17.6866 48.3085C18.4982 48.2909 19.1058 48.4253 19.5671 48.6588C19.6402 48.6963 19.709 48.7359 19.7755 48.7778C19.791 48.7866 19.8043 48.7976 19.8198 48.8086C19.8686 48.8417 19.9152 48.8747 19.9595 48.9077C19.9795 48.9232 19.9972 48.9386 20.015 48.954C20.0527 48.9849 20.0904 49.0157 20.1259 49.0487C20.1458 49.0664 20.1636 49.084 20.1813 49.1038C20.2146 49.1369 20.2456 49.1699 20.2767 49.2029C20.2944 49.2228 20.3121 49.2426 20.3277 49.2624C20.3565 49.2977 20.3853 49.3329 20.4119 49.3682C20.4274 49.388 20.443 49.4078 20.4563 49.4277C20.4829 49.4651 20.5095 49.5048 20.5339 49.5444C20.545 49.5642 20.5583 49.5819 20.5716 49.6017C20.6004 49.6502 20.6292 49.6986 20.6558 49.7471C20.6625 49.7581 20.6691 49.7691 20.6758 49.7823C20.7091 49.844 20.7379 49.9057 20.7667 49.9674C20.7756 49.985 20.7822 50.0048 20.7911 50.0225C20.8111 50.0665 20.831 50.1106 20.8488 50.1568C20.8598 50.1833 20.8687 50.2097 20.8798 50.2361C20.8931 50.2736 20.9086 50.311 20.9219 50.3485C20.933 50.3793 20.9441 50.408 20.953 50.4388C20.9641 50.4741 20.9774 50.5071 20.9885 50.5424C20.9951 50.5622 21.0018 50.5798 21.0062 50.5996C20.8288 52.3158 20.9596 54.3822 21.4674 56.5014C21.4896 56.5918 21.5118 56.6821 21.5362 56.7724C21.5561 56.8539 21.5761 56.9332 21.5983 57.0147C21.6227 57.1051 21.647 57.1954 21.6737 57.2879C21.6981 57.3716 21.7225 57.4553 21.7469 57.5412C21.7735 57.6272 21.7978 57.7131 21.8245 57.799C21.8732 57.9532 21.922 58.1074 21.9752 58.2616C21.9996 58.3365 22.0263 58.4092 22.0529 58.4841C22.0883 58.5833 22.1238 58.6824 22.1593 58.7815C22.1881 58.8586 22.217 58.9379 22.248 59.015C22.2857 59.1164 22.3256 59.2155 22.3677 59.3168C22.3966 59.3873 22.4232 59.4578 22.4542 59.5261C22.5207 59.6869 22.5917 59.8478 22.6627 60.0086C22.6848 60.0571 22.707 60.1033 22.7292 60.1518C22.7868 60.2751 22.8445 60.3985 22.9044 60.5197C22.9354 60.5814 22.9665 60.643 22.9975 60.7047C23.0552 60.8193 23.1128 60.9316 23.1727 61.044C23.2015 61.0991 23.2326 61.1563 23.2614 61.2114C23.3501 61.3744 23.441 61.5375 23.5363 61.6983C23.5474 61.7181 23.5607 61.7379 23.5718 61.7578C23.6561 61.9009 23.7448 62.0441 23.8335 62.1851C23.8645 62.2358 23.8978 62.2865 23.9311 62.3371C24.0065 62.4539 24.0841 62.5684 24.1617 62.683C24.195 62.7315 24.226 62.7777 24.2592 62.8262C24.3679 62.9826 24.481 63.1368 24.5963 63.291C24.5963 63.291 24.5963 63.291 24.5963 63.2932C24.6096 63.3109 24.6251 63.3285 24.6384 63.3461L24.7227 63.8528C24.6517 64.1876 24.6606 64.5688 24.7693 65.005C25.011 65.9809 25.246 67.0846 25.4678 68.2654L25.552 68.7677C25.552 68.7677 25.5565 68.7699 25.5609 68.7721C26.3149 72.9049 26.9335 77.8461 27.3548 81.426C27.3726 81.5824 27.3903 81.7344 27.4081 81.8842C27.4081 81.8908 27.4081 81.8974 27.4103 81.904C27.4458 82.1992 27.4768 82.4856 27.5101 82.7588C27.5101 82.772 27.5123 82.783 27.5145 82.7962C27.5522 83.1267 27.5877 83.4373 27.621 83.7281C27.6431 83.9154 27.6631 84.0938 27.6831 84.2634C27.6853 84.2877 27.6875 84.3097 27.6919 84.3317C27.7629 84.9464 27.8205 85.442 27.8649 85.7791C26.1973 88.1186 26.5965 89.0858 31.781 89.0043C34.8167 88.9558 36.1516 89.0351 36.4443 84.5168C36.4864 83.8801 36.5064 83.1509 36.5064 82.3204C36.5064 82.3182 36.5064 82.3138 36.5064 82.3116C36.5064 82.175 36.5064 82.0362 36.5064 81.8952C36.5064 81.893 36.5064 81.8886 36.5064 81.8864C36.4997 80.6373 36.4532 79.1679 36.3756 77.4342C36.2558 74.8038 36.451 72.7528 36.8168 71.1535C36.8346 71.0984 36.8501 71.0477 36.8678 70.9949C37.8657 77.0773 37.8391 82.3028 38.307 85.5962C38.4777 86.8079 34.9187 90 40.9369 90C46.6491 90 46.8266 87.352 46.9175 82.0032C46.9175 81.99 46.9175 81.9767 46.9175 81.9613C46.9419 80.5514 46.9596 78.9564 47.0727 77.1742C47.3499 72.7881 46.8665 69.7061 46.7733 67.567C48.3322 67.3159 49.8756 67.0119 51.3724 66.666C51.4811 67.1793 51.5875 67.7124 51.6895 68.2632C51.7205 68.4306 51.7516 68.598 51.7826 68.7698C52.5366 72.9048 53.1552 77.8439 53.5766 81.426C53.5943 81.5758 53.6121 81.7234 53.6276 81.8688C53.6276 81.8842 53.632 81.9018 53.6342 81.9173C53.6653 82.1904 53.6963 82.4548 53.7251 82.7103C53.7296 82.7566 53.7362 82.8029 53.7406 82.8491C53.754 82.9593 53.7651 83.0694 53.7784 83.1774C53.7806 83.206 53.785 83.2346 53.7872 83.2611C53.7983 83.3536 53.8072 83.4439 53.8183 83.532C53.8338 83.6774 53.8515 83.8184 53.8671 83.9528C53.8671 83.9528 53.8671 83.955 53.8671 83.9572C53.8804 84.0718 53.8937 84.1841 53.9048 84.2921C53.9048 84.2965 53.9048 84.3031 53.9048 84.3075C53.9779 84.9353 54.0356 85.4376 54.0799 85.7813C52.4124 88.1209 52.8115 89.088 57.996 89.0065C61.4575 88.9514 62.7104 89.0615 62.7214 82.3204V82.3116C62.7214 82.175 62.7214 82.0362 62.7214 81.8952C62.7214 81.893 62.7214 81.8886 62.7214 81.8864C62.7214 81.7432 62.7215 81.5978 62.717 81.448C62.7037 80.2959 62.6594 78.9675 62.5906 77.4342C62.4709 74.8038 62.666 72.7528 63.0319 71.1535C63.1938 70.4397 63.3911 69.8163 63.6084 69.2721C63.7304 68.9659 63.859 68.6839 63.9943 68.424C65.4268 73.4754 65.5044 78.2317 65.7395 82.1045C65.7528 82.3248 65.7661 82.5407 65.7816 82.7566C65.7838 82.8029 65.7882 82.8491 65.7905 82.8954C65.8015 83.0672 65.8148 83.239 65.8281 83.4065C65.8326 83.4682 65.837 83.532 65.8437 83.5937C65.857 83.7501 65.8703 83.9065 65.8858 84.0586C65.8925 84.1202 65.8969 84.1819 65.9036 84.2436C65.9235 84.4485 65.9457 84.6512 65.9701 84.8516C65.9701 84.8538 65.9701 84.856 65.9701 84.8582C65.9745 84.8913 65.9745 84.9265 65.9745 84.964C65.9745 86.4488 62.7237 89.9978 68.5978 89.9978C72.8088 89.9978 74.2501 88.3213 74.6892 84.9442C74.7358 84.5807 74.7712 84.1995 74.7978 83.7964C74.7978 83.7854 74.7978 83.7744 74.8001 83.7656C74.8089 83.6422 74.8156 83.5144 74.8223 83.3866C74.8223 83.3448 74.8267 83.3007 74.8289 83.2567C74.8378 83.0716 74.8444 82.8844 74.8488 82.6905C74.8511 82.598 74.8533 82.5077 74.8555 82.4129C74.8555 82.3226 74.8577 82.2301 74.8599 82.1375C74.8599 82.0142 74.8622 81.8908 74.8622 81.763C74.871 79.8553 74.7779 77.6126 74.7336 75.0329C74.6027 67.2872 74.7336 62.8262 75.7847 60.643C75.8091 60.5902 75.8201 60.5373 75.8223 60.4844C76.3368 58.6097 81.4858 44.83 73.0904 36.9125L73.1015 36.9213Z" fill="#777777"/>
</svg>
