<svg width="87" height="103" viewBox="0 0 87 103" fill="none" xmlns="http://www.w3.org/2000/svg">
<path d="M86.9978 63.6982C86.9978 63.6982 81.1271 65.264 73.3757 66.6987C73.0357 66.7621 72.6914 66.8254 72.3449 66.8866C72.3122 66.8931 72.2773 66.8997 72.2447 66.904C71.8633 66.9717 71.4776 67.0394 71.0897 67.1071C71.0156 67.1202 70.9415 67.1333 70.8696 67.1442C70.5209 67.2032 70.1679 67.2643 69.8148 67.3211C69.7647 67.3299 69.7168 67.3386 69.6667 67.3452C69.2657 67.4107 68.8625 67.4762 68.4572 67.5395C66.1952 67.8955 63.8548 68.2143 61.5143 68.4654C61.2288 68.496 60.9434 68.5266 60.6579 68.555C60.5664 68.5637 60.477 68.5724 60.3855 68.5834C60.0085 68.6205 59.6293 68.6554 59.2523 68.6882C59.2174 68.6904 59.1847 68.6947 59.1499 68.6969C58.8077 68.7275 58.4678 68.7537 58.1278 68.7799C58.0363 68.7864 57.947 68.793 57.8554 68.7995C57.5525 68.8214 57.2496 68.8432 56.9489 68.8629C55.9704 68.9262 55.0007 68.9721 54.0462 69.0005C54.1726 62.8706 53.1941 57.4155 52.0479 51.8774C50.6009 46.5599 49.3239 41.8146 47.6176 37.8052C52.4968 38.255 59.5617 38.3948 60.4291 35.748C61.2681 33.1952 58.2063 30.8717 54.6978 29.1203C59.7121 29.0416 65.1448 28.1747 65.0054 24.7724C64.8724 21.5141 59.0649 20.3174 54.1704 19.8872C56.3888 19.374 58.3327 18.9591 58.6792 19.0006C59.553 19.1033 66.7531 19.1033 65.1078 14.4147C63.2184 9.4444 51.8692 10.5428 46.6478 11.3312C47.6938 9.2959 48.3912 7.31521 48.5132 6.04861C48.9926 0.36205 46.1815 0.207001 45.3599 0.517098C44.6691 0.75513 44.0589 1.18315 43.5163 1.72473C43.4706 1.76841 43.427 1.81427 43.3812 1.86449C43.2309 2.02391 43.0848 2.19206 42.9432 2.36895C42.4986 2.90179 42.0388 3.65737 41.494 4.6903C40.6943 6.38492 40.3129 7.72794 40.1298 8.60582C37.7153 7.95506 35.1744 7.63186 32.8644 7.40474C31.5918 7.28027 30.3126 7.28245 29.0465 7.39382C28.713 4.68157 27.2334 1.60899 25.7014 0.584798C23.8491 -0.651221 22.5982 0.241943 21.9118 1.68542C21.0728 4.73835 21.9118 7.18418 22.6701 8.5949C16.1217 5.33452 5.92956 4.07885 4.89009 7.61002C4.23851 9.82656 4.89008 11.6369 6.23683 13.1066C3.27966 13.3228 1.05253 14.2618 0.930492 16.1595C0.777948 18.5289 2.18788 20.3262 4.24504 21.6845C1.75858 22.047 0.448889 23.3223 0.00433355 25.0803C-0.224482 30.0418 8.66227 33.038 13.779 34.3482C13.8182 34.4203 13.8553 34.4924 13.8945 34.5622C13.9032 34.5906 13.9141 34.6212 13.9229 34.6496C16.7384 42.6335 16.2066 47.8767 15.1846 53.3384C13.9207 55.0745 12.4279 57.0071 10.8611 58.7738C5.33028 65.0216 1.72807 66.1113 3.8092 69.7124C5.55038 72.7238 8.6492 72.619 13.7747 69.1577C13.8575 71.0532 14.0754 72.8854 14.4655 74.6237C8.39423 79.2992 1.0765 84.9486 2.94625 89.1699C5.53513 95.0115 10.8698 90.6788 17.0565 87.8814C18.0415 86.8507 18.8086 85.3329 19.2248 83.6602C19.2292 83.6645 19.2357 83.6689 19.2401 83.6755C19.2924 83.7279 19.3469 83.7781 19.4013 83.8305C19.4602 83.8873 19.519 83.9441 19.58 84.0008C19.6955 84.1078 19.8132 84.2149 19.9331 84.3197C19.9352 84.3197 19.9374 84.3219 19.9396 84.324C20.1684 84.4463 20.3929 84.5664 20.6152 84.6822C20.6609 84.7062 20.7045 84.7302 20.7503 84.7521C20.966 84.8634 21.1796 84.9748 21.3909 85.0796C21.4324 85.0993 21.4716 85.1189 21.513 85.1408C21.7222 85.2456 21.9292 85.3461 22.1319 85.4443C22.145 85.4509 22.158 85.4574 22.1689 85.4618C22.3803 85.5622 22.5895 85.6605 22.7965 85.7544C22.8358 85.7719 22.8772 85.7915 22.9164 85.809C23.119 85.9007 23.3217 85.9903 23.5222 86.0754C23.5527 86.0885 23.5832 86.1016 23.6137 86.1147C23.8099 86.1977 24.0038 86.2763 24.1956 86.355C24.2108 86.3615 24.2283 86.3681 24.2435 86.3746C24.444 86.4532 24.6423 86.5297 24.8406 86.6017C24.8755 86.6148 24.9103 86.6279 24.9452 86.641C25.1413 86.7131 25.3375 86.7808 25.5314 86.8463C25.5532 86.8529 25.5728 86.8594 25.5946 86.866C25.7842 86.9293 25.9738 86.9883 26.1612 87.0472C26.1786 87.0516 26.1961 87.0581 26.2157 87.0647C26.4096 87.1236 26.6014 87.1782 26.7954 87.2307C26.8259 87.2394 26.8586 87.2481 26.8891 87.2569C27.083 87.3093 27.277 87.3573 27.4709 87.4032C27.4818 87.4054 27.4927 87.4075 27.5036 87.4097C27.6954 87.4534 27.8871 87.4949 28.0767 87.5342C28.0963 87.5386 28.1159 87.5429 28.1334 87.5451C28.3273 87.5844 28.5191 87.6194 28.7131 87.6499C28.7414 87.6543 28.7697 87.6587 28.7959 87.663C29.1925 87.7264 29.5891 87.7788 29.9901 87.8181C30.0118 87.8181 30.0336 87.8225 30.0532 87.8246C30.2494 87.8443 30.4477 87.8596 30.646 87.8727C30.67 87.8727 30.6961 87.8749 30.7223 87.877C31.1298 87.9011 31.5416 87.9142 31.96 87.9164C31.984 87.9164 32.0058 87.9164 32.0298 87.9164C32.2368 87.9164 32.4438 87.9142 32.6552 87.9076C32.677 87.9076 32.6988 87.9076 32.7206 87.9076C33.0998 87.8967 33.4833 87.8771 33.8777 87.8487C32.677 93.5265 31.7356 102.235 37.1553 102.936C40.8272 103.412 43.5904 101.563 48.6047 85.3351C48.5023 85.2347 48.3934 85.1364 48.28 85.0447C48.7507 85.1058 49.2389 85.1626 49.7379 85.2128C49.7401 85.2128 49.7423 85.2128 49.7445 85.2128C49.9885 85.2391 50.2348 85.2631 50.4832 85.2849C50.4832 85.2849 50.4876 85.2849 50.4897 85.2849C51.2438 85.3548 52.0217 85.4116 52.8237 85.4531C55.3668 85.5841 58.1278 85.5557 60.9499 85.2434C64.6 84.8394 68.3526 83.9594 71.8764 82.3303C71.9243 82.3084 71.9701 82.2866 72.018 82.2647C72.2425 82.1599 72.4669 82.0507 72.6892 81.9394C72.7001 81.935 72.7088 81.9284 72.7197 81.9241C72.9398 81.8127 73.1599 81.6991 73.3778 81.5812C73.4084 81.5659 73.4367 81.5485 73.4672 81.5332C73.6982 81.4087 73.927 81.2798 74.1558 81.1488C74.1602 81.1466 74.1645 81.1445 74.1667 81.1423C74.4021 81.0069 74.6352 80.8671 74.8662 80.723C74.8706 80.7208 74.8771 80.7164 74.8815 80.7142C75.5941 80.2731 76.2892 79.7927 76.9692 79.2751C81.3275 75.9471 84.9516 70.9855 87 63.707L86.9978 63.6982Z" fill="#EC7000"/>
</svg>
