<svg width="81" height="98" viewBox="0 0 81 98" fill="none" xmlns="http://www.w3.org/2000/svg">
<path d="M80.5537 63.9111L76.7717 55.6455C76.6062 55.2836 76.6304 54.8644 76.8336 54.5246L80.5603 48.3221C80.6552 48.1654 80.4587 47.9977 80.3174 48.1125L72.4997 54.5092C72.1045 54.8313 72.0117 55.3984 72.2833 55.8309L75.8003 61.2059C76.2308 61.8635 75.7716 62.7395 74.9856 62.7593L70.2632 62.8895C69.9828 62.3313 69.6759 61.7664 69.3381 61.1883C67.6911 58.3926 63.8318 56.1486 58.9151 54.0701C53.3205 51.7047 49.6776 48.7192 46.6265 44.2908C46.5646 44.3239 46.5006 44.357 46.4388 44.3901C45.1936 40.8023 43.434 34.6792 43.3876 33.1589C43.3015 30.3566 43.0079 27.914 42.4824 25.7891C44.5379 21.8593 48.2337 12.144 41.9812 1.33426C41.9812 1.33426 37.9896 -3.62379 23.1399 5.57519C23.1399 5.57519 27.7962 7.88541 32.5628 7.9825C32.3619 9.06369 32.0925 10.3545 31.7614 11.6056C31.0637 11.994 30.4808 12.5787 29.9819 13.2097C30.1099 12.55 30.2402 11.8902 30.3682 11.2283C30.4455 10.8333 30.4985 10.3523 30.0415 10.1647C29.8869 10.1008 29.7125 10.0986 29.5536 10.1471C28.4806 10.4759 27.6328 11.2879 27.0278 12.2168C26.7342 12.6669 26.4936 13.1458 26.275 13.6378C24.3277 10.2905 21.4797 7.65152 17.8302 5.6458C16.3664 4.84042 14.7348 4.71244 13.2644 5.13388C10.5533 5.50458 6.27456 7.25435 0 12.7596C0 12.7596 4.82623 14.2269 9.36988 13.5341C10.1735 14.6837 11.2134 16.2525 12.0281 17.764C11.1979 18.8408 10.4981 20.1338 9.91299 21.6607C9.19766 23.5252 9.9439 27.7639 8.12247 28.5848C6.74701 29.2048 5.85948 29.9903 5.28766 30.7847C4.21688 31.429 3.07765 32.4771 2.23868 33.7436C0.955953 35.6787 -0.0816874 38.0331 0.967016 39.646C1.56533 40.5684 2.70233 40.9391 3.73558 40.6434L3.99832 40.5684C4.11975 40.9369 4.26546 41.3076 4.43546 41.676C4.52156 41.8614 4.61208 42.0467 4.71143 42.2321C6.4578 45.5176 10.2795 48.5493 17.6116 48.3861C18.4196 48.3684 19.0246 48.503 19.4838 48.7369C19.5567 48.7744 19.6251 48.8141 19.6913 48.8561C19.7068 48.8649 19.72 48.8759 19.7355 48.8869C19.784 48.92 19.8304 48.9531 19.8746 48.9862C19.8944 49.0017 19.9121 49.0171 19.9298 49.0326C19.9673 49.0635 20.0048 49.0944 20.0402 49.1275C20.06 49.1451 20.0777 49.1628 20.0954 49.1826C20.1285 49.2157 20.1594 49.2488 20.1903 49.2819C20.208 49.3018 20.2256 49.3216 20.2411 49.3415C20.2698 49.3768 20.2985 49.4121 20.325 49.4474C20.3404 49.4673 20.3559 49.4871 20.3691 49.507C20.3956 49.5445 20.4221 49.5842 20.4486 49.6239C20.4597 49.6416 20.4729 49.6614 20.4839 49.6791C20.5126 49.7276 20.5413 49.7762 20.5678 49.8269C20.5744 49.838 20.5811 49.849 20.5855 49.86C20.6186 49.9218 20.6473 49.9836 20.676 50.0454C20.6848 50.063 20.6915 50.0829 20.7003 50.1005C20.7202 50.1447 20.74 50.1888 20.7577 50.2351C20.7687 50.2616 20.7776 50.2881 20.7886 50.3146C20.8041 50.3521 20.8173 50.3896 20.8306 50.4271C20.8416 50.458 20.8526 50.4867 20.8615 50.5176C20.8725 50.5507 20.8857 50.586 20.8968 50.6213C20.9078 50.6544 20.9189 50.6875 20.9277 50.7206C20.9365 50.7514 20.9476 50.7823 20.9564 50.8132C20.9674 50.8507 20.9785 50.8861 20.9895 50.9236C20.9961 50.9456 21.0028 50.9677 21.0094 50.992C21.0293 51.0648 21.0513 51.1376 21.0712 51.2104C21.0535 51.2589 21.0359 51.3097 21.0182 51.3582C20.9961 51.4178 20.9763 51.4774 20.9542 51.537C20.8946 51.7135 20.835 51.89 20.7798 52.0665C20.7732 52.0886 20.7665 52.1129 20.7599 52.1349C20.7113 52.2938 20.665 52.4549 20.6208 52.616C20.6054 52.6733 20.5899 52.7307 20.5745 52.7903C20.5391 52.9249 20.506 53.0595 20.4751 53.1941C20.4619 53.2492 20.4486 53.3066 20.4354 53.3618C20.3934 53.5493 20.3537 53.7369 20.3205 53.9244C20.2941 54.0701 20.272 54.2179 20.2521 54.3635C20.2455 54.4121 20.2411 54.4606 20.2344 54.5092C20.2234 54.6084 20.2124 54.7055 20.2036 54.8048C20.1991 54.8622 20.1947 54.9218 20.1903 54.9791C20.1837 55.0696 20.1793 55.1579 20.1749 55.2483C20.1726 55.3101 20.1704 55.3719 20.1704 55.4337C20.1704 55.5197 20.1682 55.608 20.1682 55.6941C20.1682 55.7558 20.1682 55.8198 20.1704 55.8816C20.1704 55.9677 20.1748 56.0537 20.1792 56.142C20.1815 56.2038 20.1859 56.2677 20.1903 56.3295C20.1969 56.4178 20.2035 56.5061 20.2124 56.5965C20.219 56.6561 20.2234 56.7179 20.23 56.7775C20.2411 56.8745 20.2543 56.9716 20.2676 57.0687C20.2742 57.1217 20.2808 57.1724 20.2874 57.2254C20.3095 57.371 20.3338 57.5166 20.3625 57.6601C20.3691 57.6954 20.378 57.7285 20.3846 57.7638C20.4199 59.1583 20.4243 60.7205 20.4022 62.3842L20.3824 63.1168C20.3824 63.1168 20.3868 63.1212 20.3912 63.1256C20.2897 69.1847 19.8878 76.3912 19.5699 81.5854C19.5589 81.7597 19.5478 81.9296 19.539 82.0995C19.5368 82.1502 19.5324 82.2032 19.5302 82.2539C19.5081 82.629 19.4838 82.9887 19.4617 83.3395C19.4551 83.4344 19.4507 83.5293 19.4441 83.622C19.4419 83.6595 19.4396 83.6948 19.4374 83.7301C19.4242 83.9265 19.4132 84.1184 19.4021 84.306C19.3977 84.3722 19.3933 84.4406 19.3889 84.5068C19.3513 85.1048 19.316 85.652 19.2873 86.133C19.2873 86.133 19.2873 86.1352 19.2873 86.1374C19.2432 86.8324 19.21 87.3995 19.1879 87.8099C17.0663 90.9277 17.2627 92.3686 22.3893 92.9798C25.8135 93.388 27.0256 93.7212 28.4121 84.0633C28.4121 84.0633 28.4121 84.0611 28.4121 84.0589C28.4408 83.8625 28.4695 83.6595 28.4982 83.4543C28.4982 83.4521 28.4982 83.4499 28.4982 83.4454C28.7455 81.6538 29.0016 79.5421 29.2776 77.0487C29.3571 76.3404 29.441 75.663 29.5337 75.0143C29.611 75.8021 30.0238 76.9715 30.8142 78.6463C31.0372 79.1163 31.2359 79.5421 31.4324 79.9172C31.4059 84.6745 31.0593 88.6837 31.1277 91.4772C31.1609 92.8121 27.2751 95.9189 33.2362 96.5367C36.0908 96.8324 37.6231 96.2477 38.5305 94.8531C38.5768 94.9127 38.6188 94.9723 38.6673 95.0341C43.1138 100.692 45.7897 97.4215 52.2895 92.106C53.3823 91.2124 54.3758 90.4136 55.2921 89.6987C55.7358 89.6855 56.2282 89.659 56.7801 89.6215C57.6743 89.0213 73.5815 82.9997 72.4047 69.957L80.1143 65.3255C80.6001 65.0342 80.7877 64.4253 80.5537 63.9089V63.9111ZM42.1049 88.719C41.968 88.8448 41.8333 88.9684 41.7009 89.0897C41.6722 89.1162 41.6435 89.1427 41.6148 89.1692C41.5088 89.2662 41.405 89.3655 41.3035 89.4604C41.2637 89.4979 41.2262 89.5332 41.1864 89.5707C41.0915 89.6612 40.9988 89.7517 40.9061 89.8421C40.8685 89.8797 40.831 89.915 40.7957 89.9525C40.672 90.076 40.5528 90.1974 40.4358 90.3187C40.4358 90.3187 40.4358 90.3187 40.4336 90.321C40.2989 90.4622 40.0627 90.557 39.7779 90.6365C39.7867 90.5703 39.7977 90.5019 39.8066 90.4335C39.822 90.3254 39.8375 90.2173 39.8507 90.1069C39.8596 90.0363 39.8706 89.9679 39.8794 89.8951C39.9015 89.7252 39.9236 89.5509 39.9457 89.3722C39.9567 89.2927 39.9655 89.2111 39.9766 89.1294C39.992 89.0037 40.0075 88.8757 40.0229 88.7477C40.0318 88.6683 40.0428 88.5866 40.0516 88.505C40.0715 88.3417 40.0914 88.174 40.1112 88.0063C40.2812 86.5765 40.4711 84.9768 40.7559 83.2138C40.9966 81.7354 41.1467 80.3894 41.2461 79.1648C41.7119 79.4274 42.1689 79.6789 42.6149 79.9172C45.1009 80.9675 46.8561 81.9516 48.1079 82.8607C46.0944 85.246 43.9087 87.0752 42.1027 88.7124L42.1049 88.719ZM29.6684 74.1008C29.8163 73.1542 29.9775 72.2716 30.1475 71.453C30.4742 71.731 30.8032 72.009 31.1365 72.2805C31.1763 72.735 31.2138 73.1873 31.2447 73.633C30.4477 73.5624 29.9134 73.6838 29.6684 74.1008Z" fill="#777777"/>
<path d="M51.636 49.5224C51.5918 49.5445 51.5454 49.5665 51.5013 49.5864C51.7309 49.4915 51.9517 49.3878 52.1614 49.2731C51.9936 49.3635 51.8192 49.4452 51.6382 49.5224H51.636Z" fill="#777777"/>
</svg>
