<svg width="74" height="86" viewBox="0 0 74 86" fill="none" xmlns="http://www.w3.org/2000/svg">
<path d="M73.3119 51.1257C76.3379 47.3247 68.4031 39.5121 68.4031 39.5121C64.9142 35.4206 61.1284 34.2653 57.5509 34.6312C59.0572 34.0191 59.4803 31.6707 57.768 30.706C56.0224 29.7236 54.1439 29.1581 54.1439 29.1581C48.8762 27.0536 45.2787 29.2557 42.9638 32.0965C42.904 31.7394 42.842 31.3913 42.7733 31.0498C42.7534 30.9478 42.7335 30.8391 42.7091 30.726C42.7002 30.6816 42.6914 30.6351 42.6825 30.5907C42.636 30.3712 42.5851 30.1361 42.5297 29.89C42.5252 29.8767 42.523 29.8611 42.5208 29.8456C42.4012 29.3245 42.2616 28.7501 42.111 28.1491C43.4733 27.4949 44.5964 26.293 45.2078 24.3925C46.5857 20.097 43.3338 18.4649 43.3338 18.4649C41.4199 17.1898 38.817 16.9835 36.768 18.8175C36.2363 18.2919 35.5585 17.7198 34.7544 17.1609C35.8908 15.7084 37.9221 12.504 38.2411 7.84037C38.662 0.0743367 33.4496 -1.10543 32.692 0.79949C32.0895 3.44065 37.9044 1.30067 36.9496 8.89816C36.4113 12.7945 34.8518 15.6219 34.1363 16.7507C33.8129 16.5444 33.4718 16.3426 33.1129 16.1475C33.6999 14.7482 34.5772 12.0427 34.5705 8.35263C34.5616 2.80642 29.4534 0.389234 28.8199 2.75541C28.0778 5.39879 33.3433 3.38521 33.3721 9.31507C33.3832 12.2844 32.8006 14.0363 32.1892 15.6774C31.7993 15.4933 31.3939 15.3181 30.973 15.1584C30.4259 14.9367 29.9009 14.7504 29.4069 14.5885C29.5952 13.6704 29.6417 12.3554 28.8863 11.1335C27.5373 8.9536 25.404 9.33725 24.8569 9.56788C22.7746 10.4483 22.0215 12.3687 21.8575 13.8168C18.1117 14.2271 13.5905 15.684 8.30944 18.6733C5.84837 19.0681 4.10058 19.4761 2.88887 19.8243C1.5509 19.2854 0.64932 18.9195 0.177485 20.1436C-0.0196667 20.6559 -0.0440381 21.2191 0.062291 21.7602C0.257228 22.7382 0.525265 23.4234 0.746783 23.867C0.868619 24.1109 1.06578 24.2972 1.29837 24.4147C2.3085 25.8938 4.15596 27.903 7.4433 30.5885C15.1832 37.1592 16.0072 37.9288 13.318 45.442C11.8272 45.2003 9.4126 46.6151 7.52526 47.1695C5.06862 47.8924 0.237289 49.1121 1.27178 51.8531C2.30628 54.594 7.7645 52.9796 9.95311 51.5005C10.3784 51.2144 10.8392 50.9061 11.3022 50.5824C8.69045 56.8671 8.81229 61.9343 11.6854 66.1965C10.4582 67.4184 9.62083 69.6759 9.46134 73.2019C9.41925 82.6089 6.02336 81.2673 8.91418 83.1146C11.8072 84.9618 17.7949 77.6726 17.7949 77.6726C17.7949 77.6726 19.855 75.812 20.8452 73.448C23.1025 74.2153 25.3022 74.4127 27.3866 74.0823C27.7455 76.311 29.356 78.3046 32.6167 80.2117C38.6022 83.7155 38.4316 87.0286 40.5515 85.7003C43.4335 83.8929 42.5097 79.2094 40.248 68.5516C41.5107 69.4564 42.9395 70.013 44.2243 69.3876C45.1923 68.8798 44.7072 67.7688 44.7072 67.7688C44.7072 67.7688 46.7806 70.0751 50.1544 70.5319C52.549 70.8845 54.6445 70.1261 53.6366 68.2633C56.2904 69.0838 61.6755 68.8044 60.8293 65.1875C60.8293 65.1875 63.4699 64.5799 65.5964 62.2026C67.723 59.8253 67.5391 57.6233 66.9854 57.1265C65.3395 55.796 62.9493 61.0871 53.0607 63.5376C47.7154 64.8615 44.4104 65.0234 40.6202 64.2494C40.7775 63.4711 40.9259 62.5929 40.9259 62.3889C40.9259 62.3889 40.4408 62.5862 39.712 62.9056C40.1661 61.8921 40.5825 60.8166 40.9613 59.679C41.1252 59.3574 41.8496 56.7429 41.8563 56.612C41.8563 56.612 41.8518 56.612 41.8452 56.6098C42.1752 55.2815 42.4544 53.8844 42.6825 52.4208C42.698 52.3232 42.7135 52.219 42.729 52.1192C42.729 52.1147 42.729 52.1125 42.729 52.1081C42.7911 51.7045 42.8487 51.2854 42.9018 50.8551C44.9509 54.7226 51.1202 47.8104 51.1202 47.8104C51.9088 50.6622 54.1439 51.6934 55.586 52.066C56.3259 52.2567 57.1078 52.0061 57.6085 51.4273C58.3395 50.5802 58.2398 47.5066 58.2398 47.5066C59.3031 49.7596 62.2648 50.8285 64.1233 51.2898C65.1689 51.5493 66.1901 50.7243 66.1081 49.651C65.9686 47.837 64.9208 45.8212 64.9208 45.8212C67.8736 50.1211 73.3075 51.1323 73.3075 51.1323L73.3119 51.1257ZM50.6151 37.0639C50.6151 37.0639 50.6328 37.075 50.6395 37.0816C50.6351 37.0839 50.6306 37.0861 50.6284 37.0883C50.6195 37.0728 50.6151 37.0639 50.6151 37.0639V37.0639ZM55.2936 35.0592C54.6911 34.425 54.0487 33.9792 54.0487 33.9792C54.824 34.3872 55.6281 34.6245 56.3968 34.7487C56.4566 34.7576 56.5142 34.7642 56.5718 34.7687C56.142 34.8463 55.7145 34.9417 55.2936 35.0592Z" fill="#EC7000"/>
</svg>
