<svg width="380" height="460" viewBox="0 0 380 460" fill="none" xmlns="http://www.w3.org/2000/svg">
<path d="M189.959 313.506L204.019 384.046C204.019 384.046 387.329 378.356 379.229 229.046C379.269 228.986 254.559 312.406 189.959 313.506Z" fill="#FCCB4F"/>
<path d="M263.019 373.986C253.559 376.676 244.599 378.656 236.659 380.106L206.209 311.806C213.057 310.531 219.824 308.861 226.479 306.806L263.019 373.986Z" fill="#A1227C"/>
<path d="M308.549 355.666C301.699 359.406 294.637 362.745 287.399 365.666L255.769 296.286C262.619 293.456 269.529 290.396 276.379 287.186L308.549 355.666Z" fill="#A1227C"/>
<path d="M358.749 311.366C353.026 319.861 346.286 327.626 338.679 334.486L304.169 273.326C311.419 269.516 318.439 265.676 325.079 261.936L358.749 311.366Z" fill="#A1227C"/>
<path d="M204.019 329.986C204.019 329.986 332.019 302.386 358.019 258.886C358.019 258.886 349.579 348.136 213.829 368.086L204.019 329.986Z" fill="#4F1851"/>
<path d="M17.5093 319.226C26.9393 335.516 45.0693 331.906 76.9293 306.566C108.029 278.466 102.709 228.906 102.709 228.906L86.4993 219.576C86.4993 219.576 69.3893 247.126 49.8593 269.136C24.4793 297.746 7.94928 302.736 17.5093 319.226Z" fill="url(#paint0_linear_31_1513)"/>
<path d="M125.819 457.486C155.089 458.106 147.529 427.486 147.999 396.366C140.449 376.776 107.689 356.716 86.8993 376.306C94.6693 411.466 103.639 456.986 125.819 457.486Z" fill="url(#paint1_linear_31_1513)"/>
<path d="M194.489 459.376C211.489 459.596 223.109 450.006 237.489 375.636C219.759 362.146 174.549 373.236 174.549 373.236C172.779 383.386 159.569 458.896 194.489 459.376Z" fill="url(#paint2_linear_31_1513)"/>
<path d="M69.4193 245.726C60.4193 299.036 55.8493 354.966 91.4893 386.116C137.489 410.896 156.559 405.256 236.489 385.286C254.899 324.876 248.029 281.806 238.849 237.556C220.209 169.196 207.699 121.446 140.679 111.066C73.6593 100.686 53.5193 128.836 63.8993 158.656C77.0893 195.986 74.2993 220.176 69.4193 245.726Z" fill="#DB4932"/>
<path d="M109.379 46.566C102.929 39.796 96.0193 25.796 100.569 7.70596C103.719 1.09596 109.459 -2.99404 117.959 2.70596C126.459 8.40596 134.609 27.706 133.539 41.326C124.259 43.736 109.379 46.566 109.379 46.566Z" fill="#DB4932"/>
<path d="M108.119 45.4659C103.949 40.2258 101.088 34.0666 99.7753 27.4995C98.4623 20.9324 98.7344 14.1468 100.569 7.70594C110.479 -1.73406 127.319 21.0759 125.259 41.2859L108.119 45.4659Z" fill="#FCCB4F"/>
<path d="M110.239 39.8659C110.239 39.8659 99.7793 22.4959 108.019 20.1359C116.259 17.7759 120.759 39.4559 120.759 39.4559L110.239 39.8659Z" fill="#4F1851"/>
<path d="M182.769 47.346C182.769 47.346 188.829 9.03598 208.179 2.34598C211.959 0.925976 224.859 1.63597 222.659 27.676C221.949 34.906 217.149 47.256 210.229 58.826C195.829 52.696 182.769 47.346 182.769 47.346Z" fill="#DB4932"/>
<path d="M183.399 44.676C183.399 44.676 183.679 35.786 190.399 21.466C192.307 17.5605 194.63 13.8725 197.329 10.466C200.699 6.57597 201.809 4.83597 208.329 6.40597C212.479 7.40597 220.329 13.796 215.019 29.846C208.639 46.526 204.079 54.156 204.079 54.156L183.399 44.676Z" fill="#FCCB4F"/>
<path d="M189.619 44.756C189.619 44.756 190.009 39.246 194.019 31.696C198.029 24.146 201.809 22.256 204.559 23.906C207.309 25.556 207.079 30.986 204.009 36.806C202.023 40.6628 200.29 44.6445 198.819 48.726L189.619 44.756Z" fill="#4F1851"/>
<path d="M63.8093 289.126C63.7293 290.126 63.6493 291.216 63.5893 292.256C62.8693 311.966 61.1293 344.546 80.1493 373.616C83.4347 378.206 87.24 382.4 91.4893 386.116C129.409 406.526 149.029 406.296 199.489 394.406C209.979 371.906 196.839 336.916 173.859 309.586C146.469 276.986 87.8893 269.056 63.8093 289.126Z" fill="url(#paint3_linear_31_1513)"/>
<path d="M172.469 351.616C190.179 357.986 201.709 343.546 209.739 303.616C215.399 262.076 179.389 227.616 179.389 227.616L161.019 230.986C161.019 230.986 165.699 263.076 164.959 292.486C163.949 330.696 154.529 345.166 172.469 351.616Z" fill="url(#paint4_linear_31_1513)"/>
<path d="M79.3293 160.856C79.3293 160.856 -1.43071 146.696 0.0192943 114.846C4.49929 97.146 28.0993 90.066 86.3893 114.846C85.156 130.334 82.7964 145.711 79.3293 160.856Z" fill="url(#paint5_linear_31_1513)"/>
<path d="M4.2893 73.9859C5.7093 51.8959 69.4193 58.1959 92.2893 74.9859C90.4193 89.8259 81.0193 117.436 81.0193 117.436C81.0193 117.436 1.9293 110.556 4.2893 73.9859Z" fill="url(#paint6_linear_31_1513)"/>
<path d="M217.859 90.066C217.859 90.066 297.269 87.546 298.329 113.426C299.509 142.216 213.329 131.366 213.329 131.366L217.859 90.066Z" fill="url(#paint7_linear_31_1513)"/>
<path d="M197.089 170.326C197.799 170.796 271.189 182.326 277.329 163.696C285.579 138.606 211.489 118.386 211.489 118.386L197.089 170.326Z" fill="url(#paint8_linear_31_1513)"/>
<path d="M211.279 52.306C233.689 48.726 289.769 42.306 298.799 65.996C306.349 87.466 273.309 87.466 269.299 86.996C266.779 86.696 245.849 91.636 230.679 95.336C231.019 78.986 224.639 61.356 211.279 52.306Z" fill="url(#paint9_linear_31_1513)"/>
<path d="M105.649 40.156C75.6493 24.626 27.3093 18.376 22.4593 34.836C16.3093 55.716 35.4593 68.746 55.6193 76.506C64.1493 62.476 83.0193 48.186 105.649 40.156Z" fill="url(#paint10_linear_31_1513)"/>
<path d="M105.649 40.156C75.6493 24.626 27.3093 18.376 22.4593 34.836C16.3093 55.716 35.4593 68.746 55.6193 76.506C64.1493 62.476 83.0193 48.186 105.649 40.156Z" fill="url(#paint11_linear_31_1513)"/>
<path d="M150.839 33.896C191.689 37.896 248.299 48.296 226.589 127.116C206.189 201.186 109.069 183.506 93.4893 180.566C77.9093 177.626 50.2593 165.346 51.0193 87.466C55.7293 61.986 104.279 29.326 150.839 33.896Z" fill="#DB4932"/>
<path d="M55.0993 92.3459C58.5093 65.6059 78.2293 56.1559 108.749 72.8359C132.349 86.0559 167.889 49.4759 188.989 83.3759C210.759 118.376 198.659 162.056 100.729 140.486C100.729 140.486 48.6493 142.216 55.0993 92.3459Z" fill="#4F1851"/>
<path d="M93.0193 68.316C91.2793 67.636 89.2793 68.906 88.3293 71.226C88.3293 68.766 86.9793 66.716 85.2093 66.526C83.2093 66.316 81.4093 68.256 81.0893 70.936C80.2693 68.676 78.3493 67.416 76.6193 67.936C74.6193 68.556 73.6793 71.206 74.3293 73.866C74.9793 76.526 77.0993 78.136 79.0593 77.516C79.7471 77.2238 80.3393 76.7448 80.7688 76.1333C81.1983 75.5218 81.4479 74.8021 81.4893 74.056C81.6982 74.6586 82.0609 75.1961 82.5415 75.6153C83.0222 76.0345 83.604 76.3209 84.2293 76.446C85.04 76.453 85.8315 76.1992 86.4869 75.7221C87.1423 75.2449 87.627 74.5696 87.8693 73.796C87.8085 74.6127 87.9918 75.429 88.396 76.1412C88.8002 76.8534 89.407 77.4294 90.1393 77.796C92.0193 78.486 94.2593 76.906 95.1393 74.336C96.0193 71.766 94.8793 68.986 93.0193 68.316Z" fill="#74ABDC"/>
<path d="M100.292 97.7601C101.144 83.9073 94.604 72.2327 85.6849 71.6841C76.7658 71.1354 68.8447 81.9205 67.9926 95.7732C67.1404 109.626 73.68 121.301 82.5991 121.849C91.5182 122.398 99.4394 111.613 100.292 97.7601Z" fill="#FFE644"/>
<path d="M98.2657 98.8247C99.187 91.5318 97.2021 85.2746 93.8324 84.8489C90.4626 84.4232 86.984 89.9902 86.0627 97.2831C85.1414 104.576 87.1262 110.833 90.496 111.259C93.8658 111.685 97.3444 106.118 98.2657 98.8247Z" fill="#4B0D3F"/>
<path d="M93.2682 99.2795C93.4137 96.9147 91.2705 94.8585 88.4812 94.6869C85.6919 94.5153 83.3128 96.2933 83.1673 98.6582C83.0219 101.023 85.1651 103.079 87.9544 103.251C90.7437 103.422 93.1228 101.644 93.2682 99.2795Z" fill="white"/>
<path d="M104.939 102.926C123.579 102.376 137.389 113.546 138.799 131.596C140.209 149.646 126.529 164.396 104.939 162.596C83.3493 160.796 75.4393 148.596 75.4393 132.816C75.4393 117.036 84.8793 103.516 104.939 102.926Z" fill="#BEBCDE"/>
<path d="M236.679 70.186C237.299 75.026 238.029 78.616 234.259 78.976C230.489 79.336 229.889 76.726 229.479 72.596C229.069 68.466 227.949 65.166 231.719 64.596C235.489 64.026 236.289 67.176 236.679 70.186Z" fill="#4F1851"/>
<path d="M253.959 63.696C257.449 63.696 257.959 67.116 257.859 70.476C257.759 73.836 257.499 76.726 253.959 76.906C250.419 77.086 249.299 73.136 249.659 70.006C250.019 66.876 251.309 63.696 253.959 63.696Z" fill="#4F1851"/>
<path d="M273.849 65.226C276.169 64.826 278.149 67.646 277.269 71.226C276.389 74.806 273.269 74.296 272.019 73.816C270.769 73.336 267.299 66.346 273.849 65.226Z" fill="#4F1851"/>
<path d="M240.809 113.836C241.809 108.086 240.689 105.756 236.619 105.166C232.549 104.576 232.549 109.766 232.129 113.836C231.709 117.906 230.779 120.036 234.379 121.036C237.979 122.036 240.219 117.316 240.809 113.836Z" fill="#4F1851"/>
<path d="M252.079 111.836C252.589 109.736 252.719 106.466 256.259 106.756C259.799 107.046 260.809 109.756 259.509 114.606C258.209 119.456 255.139 118.796 254.019 118.496C252.899 118.196 250.899 116.616 252.079 111.836Z" fill="#4F1851"/>
<path d="M272.609 110.776C269.839 110.126 267.609 113.076 268.239 115.776C268.39 116.366 268.693 116.906 269.12 117.34C269.546 117.775 270.08 118.089 270.667 118.25C271.254 118.412 271.874 118.415 272.462 118.26C273.051 118.104 273.588 117.796 274.019 117.366C275.619 115.546 276.379 111.656 272.609 110.776Z" fill="#4F1851"/>
<path d="M227.019 151.306C229.619 146.056 230.439 145.406 234.509 146.696C238.579 147.986 235.279 154.486 234.509 155.846C233.739 157.206 231.149 162.276 226.429 159.626C223.639 157.906 227.019 151.306 227.019 151.306Z" fill="#4F1851"/>
<path d="M247.769 151.776C245.769 150.116 243.769 150.776 241.869 153.896C239.969 157.016 239.919 159.896 242.159 160.976C244.399 162.056 246.289 161.156 247.769 158.556C249.249 155.956 249.889 153.546 247.769 151.776Z" fill="#4F1851"/>
<path d="M263.339 160.626C264.449 158.226 264.049 154.196 260.339 153.776C256.629 153.356 255.799 156.846 255.879 159.386C255.959 161.926 257.389 162.806 258.799 162.926C260.209 163.046 262.279 162.926 263.339 160.626Z" fill="#4F1851"/>
<path d="M38.5793 125.046C38.5793 119.456 39.3693 117.276 36.7793 116.886C34.1893 116.496 32.1293 118.306 31.4293 123.336C30.7293 128.366 31.1093 130.336 33.8593 130.576C36.6093 130.816 38.5793 129.036 38.5793 125.046Z" fill="#4F1851"/>
<path d="M26.8593 122.076C27.6793 117.626 26.7093 115.626 25.2093 115.316C23.7093 115.006 20.3293 115.946 19.0793 122.076C17.8293 128.206 25.8393 127.666 26.8593 122.076Z" fill="#4F1851"/>
<path d="M15.8493 119.166C16.9593 115.236 15.9293 112.796 12.5493 112.956C9.16928 113.116 7.27928 121.686 10.6593 121.846C14.0393 122.006 15.1393 121.686 15.8493 119.166Z" fill="#4F1851"/>
<path d="M41.8093 86.776C43.3793 83.296 43.8093 80.936 40.7093 79.446C37.6093 77.956 34.8093 81.176 34.2593 84.636C33.7093 88.096 32.9193 90.926 36.3793 91.636C39.8393 92.346 41.8093 86.776 41.8093 86.776Z" fill="#4F1851"/>
<path d="M30.7193 82.1959C31.1893 79.6059 31.0293 76.7659 28.3593 76.1959C25.6893 75.6259 23.9493 78.0859 23.8693 81.7059C23.7893 85.3259 23.8693 86.8959 26.4693 87.2159C29.0693 87.5359 30.7193 82.1959 30.7193 82.1959Z" fill="#4F1851"/>
<path d="M18.9393 73.306C21.8693 74.546 20.9393 83.396 14.9393 81.696C10.4193 80.306 13.9293 71.186 18.9393 73.306Z" fill="#4F1851"/>
<path d="M35.1193 43.806C35.8093 41.056 34.7793 39.636 33.7693 39.486C32.7593 39.336 29.2993 39.636 29.4593 43.806C29.6193 47.976 31.6593 47.426 32.7593 47.506C33.8593 47.586 34.3393 46.986 35.1193 43.806Z" fill="#4F1851"/>
<path d="M48.4993 45.616C48.8293 42.146 49.1993 40.056 46.1393 39.456C43.0793 38.856 42.5693 41.456 42.0493 44.456C41.7093 46.336 39.2293 49.886 41.6493 51.386C44.7593 53.276 48.2193 48.526 48.4993 45.616Z" fill="#4F1851"/>
<path d="M59.6693 41.926C62.4193 43.496 62.6693 47.666 58.3293 51.366C56.8893 53.366 57.0693 56.866 52.2693 56.556C48.0193 53.956 51.3293 48.766 52.2693 46.876C53.2093 44.986 55.2593 39.406 59.6693 41.926Z" fill="#4F1851"/>
<path d="M84.6593 130.166C88.9403 133.095 93.8679 134.941 99.0193 135.546C99.1813 135.582 99.349 135.585 99.512 135.553C99.6749 135.522 99.8297 135.457 99.9667 135.363C100.104 135.27 100.22 135.149 100.308 135.008C100.396 134.867 100.454 134.71 100.479 134.546V128.366C100.471 128.179 100.41 127.999 100.304 127.845C100.198 127.691 100.051 127.57 99.8793 127.496C98.1893 126.646 93.4693 124.146 92.8793 122.376C92.1693 120.216 91.6393 116.456 94.0293 114.946C96.4193 113.436 108.509 113.506 110.889 115.086C113.269 116.666 112.889 120.426 112.129 122.596C111.549 124.356 106.909 126.796 105.229 127.596C105.055 127.67 104.905 127.792 104.797 127.947C104.689 128.103 104.627 128.287 104.619 128.476V134.666C104.646 134.828 104.704 134.984 104.792 135.123C104.88 135.262 104.996 135.382 105.131 135.475C105.266 135.569 105.419 135.634 105.581 135.667C105.742 135.699 105.908 135.699 106.069 135.666C111.171 135.13 116.064 133.352 120.319 130.486C120.524 130.351 120.758 130.267 121.002 130.243C121.246 130.219 121.492 130.254 121.719 130.346L122.069 130.496C122.234 130.544 122.381 130.636 122.497 130.762C122.613 130.888 122.692 131.044 122.726 131.211C122.76 131.379 122.747 131.553 122.69 131.714C122.632 131.875 122.532 132.018 122.399 132.126C116.8 136.735 109.751 139.215 102.499 139.126C95.191 139.03 88.1348 136.44 82.4993 131.786C82.3816 131.668 82.2953 131.523 82.2481 131.363C82.201 131.203 82.1945 131.034 82.2293 130.871C82.264 130.708 82.339 130.556 82.4472 130.43C82.5555 130.303 82.6937 130.206 82.8493 130.146L83.2593 129.986C83.4893 129.898 83.7376 129.868 83.982 129.9C84.2263 129.931 84.459 130.023 84.6593 130.166Z" fill="#4F1851"/>
<path d="M165.429 72.426C163.429 71.846 161.329 73.236 160.429 75.616C160.269 73.156 158.639 71.196 156.669 71.116C154.459 71.026 152.669 73.116 152.419 75.776C151.349 73.566 149.139 72.426 147.259 73.076C145.139 73.816 144.259 76.516 145.139 79.076C146.019 81.636 148.489 83.166 150.619 82.436C151.332 82.1367 151.942 81.6374 152.377 80.9986C152.812 80.3597 153.052 79.6086 153.069 78.836C153.37 79.4448 153.82 79.9671 154.378 80.3537C154.936 80.7404 155.584 80.9786 156.259 81.046C157.112 80.9996 157.933 80.7025 158.617 80.1919C159.302 79.6814 159.821 78.9801 160.109 78.176C160.12 79.0258 160.393 79.8515 160.891 80.5405C161.388 81.2295 162.086 81.7482 162.889 82.026C165.019 82.596 167.389 80.876 168.129 78.266C168.869 75.656 167.549 72.986 165.429 72.426Z" fill="#74ABDC"/>
<path d="M156.829 126.496C166.726 126.496 174.749 115.245 174.749 101.366C174.749 87.487 166.726 76.236 156.829 76.236C146.932 76.236 138.909 87.487 138.909 101.366C138.909 115.245 146.932 126.496 156.829 126.496Z" fill="#FFE644"/>
<path d="M172.909 103.731C173.467 96.3955 170.875 90.2176 167.119 89.9319C163.364 89.6462 159.867 95.361 159.309 102.696C158.751 110.031 161.343 116.209 165.099 116.495C168.854 116.781 172.351 111.066 172.909 103.731Z" fill="#4B0D3F"/>
<path d="M162.859 108.026C165.952 108.026 168.459 106.105 168.459 103.736C168.459 101.367 165.952 99.446 162.859 99.446C159.766 99.446 157.259 101.367 157.259 103.736C157.259 106.105 159.766 108.026 162.859 108.026Z" fill="white"/>
<path d="M226.519 313.036C220.129 305.716 205.189 321.256 210.109 336.036C215.029 350.816 245.099 334.336 226.519 313.036Z" fill="#4F1851"/>
<path d="M226.869 360.756C224.949 357.396 200.919 364.526 209.229 377.526C217.539 390.526 234.559 374.216 226.869 360.756Z" fill="#4F1851"/>
<path d="M239.239 342.836C238.459 340.026 225.799 344.156 228.239 351.466C230.679 358.776 241.829 352.496 239.239 342.836Z" fill="#4F1851"/>
<g opacity="0.7">
<path d="M185.019 153.226C180.079 167.146 173.019 177.806 163.639 184.926C163.659 184.926 187.129 187.266 185.019 153.226Z" fill="#4F1851"/>
<path d="M195.459 161.366C190.519 175.286 183.459 185.946 174.079 193.066C174.079 193.066 197.549 195.406 195.459 161.366Z" fill="#4F1851"/>
<path d="M204.309 171.176C199.379 185.106 192.309 195.766 182.939 202.886C182.939 202.886 206.409 205.216 204.309 171.176Z" fill="#4F1851"/>
</g>
<path d="M120.819 111.876C120.749 113.586 113.669 112.546 104.819 112.186C95.9693 111.826 88.8193 112.286 88.8193 110.586C88.8193 108.886 95.9693 104.586 104.819 104.926C113.669 105.266 120.889 110.176 120.819 111.876Z" fill="#D8D6EC"/>
<defs>
<linearGradient id="paint0_linear_31_1513" x1="34.7133" y1="310.376" x2="90.6085" y2="255.322" gradientUnits="userSpaceOnUse">
<stop stop-color="#CA236C"/>
<stop offset="0.13" stop-color="#A52064"/>
<stop offset="0.31" stop-color="#771C5A"/>
<stop offset="0.45" stop-color="#5A1953"/>
<stop offset="0.53" stop-color="#4F1851"/>
<stop offset="1" stop-color="#DB4932"/>
</linearGradient>
<linearGradient id="paint1_linear_31_1513" x1="108.319" y1="449.016" x2="126.789" y2="364.156" gradientUnits="userSpaceOnUse">
<stop stop-color="#CA236C"/>
<stop offset="0.13" stop-color="#A52064"/>
<stop offset="0.31" stop-color="#771C5A"/>
<stop offset="0.45" stop-color="#5A1953"/>
<stop offset="0.53" stop-color="#4F1851"/>
<stop offset="1" stop-color="#A1227C"/>
</linearGradient>
<linearGradient id="paint2_linear_31_1513" x1="188.999" y1="453.106" x2="209.579" y2="358.536" gradientUnits="userSpaceOnUse">
<stop stop-color="#CA236C"/>
<stop offset="0.13" stop-color="#A52064"/>
<stop offset="0.31" stop-color="#771C5A"/>
<stop offset="0.45" stop-color="#5A1953"/>
<stop offset="0.53" stop-color="#4F1851"/>
</linearGradient>
<linearGradient id="paint3_linear_31_1513" x1="145.629" y1="272.016" x2="122.199" y2="393.716" gradientUnits="userSpaceOnUse">
<stop offset="0.21" stop-color="#DB4932"/>
<stop offset="0.4" stop-color="#DF6435"/>
<stop offset="0.82" stop-color="#EAA93C"/>
<stop offset="1" stop-color="#EFC93F"/>
</linearGradient>
<linearGradient id="paint4_linear_31_1513" x1="175.619" y1="372.016" x2="187.559" y2="244.056" gradientUnits="userSpaceOnUse">
<stop stop-color="#CA236C"/>
<stop offset="0.13" stop-color="#A52064"/>
<stop offset="0.31" stop-color="#771C5A"/>
<stop offset="0.45" stop-color="#5A1953"/>
<stop offset="0.53" stop-color="#4F1851"/>
<stop offset="1" stop-color="#DB4932"/>
</linearGradient>
<linearGradient id="paint5_linear_31_1513" x1="60.3093" y1="130.566" x2="-34.1807" y2="110.736" gradientUnits="userSpaceOnUse">
<stop stop-color="#DB4932"/>
<stop offset="1" stop-color="#EFC93F"/>
</linearGradient>
<linearGradient id="paint6_linear_31_1513" x1="64.8293" y1="89.1959" x2="-23.8407" y2="73.1259" gradientUnits="userSpaceOnUse">
<stop stop-color="#DB4932"/>
<stop offset="1" stop-color="#EFC93F"/>
</linearGradient>
<linearGradient id="paint7_linear_31_1513" x1="229.679" y1="111.706" x2="314.209" y2="111.306" gradientUnits="userSpaceOnUse">
<stop stop-color="#DB4932"/>
<stop offset="1" stop-color="#EFC93F"/>
</linearGradient>
<linearGradient id="paint8_linear_31_1513" x1="220.879" y1="146.216" x2="296.869" y2="152.066" gradientUnits="userSpaceOnUse">
<stop stop-color="#DB4932"/>
<stop offset="1" stop-color="#EFC93F"/>
</linearGradient>
<linearGradient id="paint9_linear_31_1513" x1="228.149" y1="72.736" x2="317.369" y2="66.186" gradientUnits="userSpaceOnUse">
<stop stop-color="#DB4932"/>
<stop offset="1" stop-color="#EFC93F"/>
</linearGradient>
<linearGradient id="paint10_linear_31_1513" x1="96.0893" y1="67.496" x2="21.1893" y2="26.056" gradientUnits="userSpaceOnUse">
<stop offset="0.2" stop-color="#A27ABE" stop-opacity="0.6"/>
<stop offset="0.6" stop-color="#8373BC"/>
<stop offset="0.7" stop-color="#807EC2"/>
<stop offset="0.88" stop-color="#779AD4"/>
<stop offset="1" stop-color="#70AFE1"/>
</linearGradient>
<linearGradient id="paint11_linear_31_1513" x1="78.5293" y1="57.786" x2="3.6293" y2="16.346" gradientUnits="userSpaceOnUse">
<stop stop-color="#DB4932"/>
<stop offset="1" stop-color="#EFC93F"/>
</linearGradient>
</defs>
</svg>
