<svg width="1024" height="576" viewBox="0 0 1024 576" fill="none" xmlns="http://www.w3.org/2000/svg">
<g clip-path="url(#clip0_36_13511)">
<rect width="1024" height="576" fill="white"/>
<path d="M1024 0H0V255.78H1024V0Z" fill="url(#paint0_linear_36_13511)"/>
<path d="M698.84 51.84H716.07C716.07 51.84 713.54 40.13 707.04 48.13C707.04 48.13 704.78 45.68 703.14 49.16C703.14 49.16 700.65 46.25 698.85 51.84H698.84Z" fill="white"/>
<path d="M745.53 71.78H734.57C734.57 71.78 735.22 67.81 737.89 69.86C737.89 69.86 738.67 67.55 741.66 67.55C744.46 67.55 745.53 70.25 745.53 71.78Z" fill="white"/>
<path d="M738.13 18.34C738.13 18.34 736.98 13.09 733.37 16.99C732.22 14.57 730.58 12.23 727.67 12.23C725.33 12.23 722.96 14.53 721.64 18.91C721.64 18.91 720.37 17.19 719.26 17.68C718.56 17.97 717.95 19.24 717.66 21.74H739.92C739.92 21.74 741.52 17.35 738.12 18.34H738.13Z" fill="white"/>
<path d="M-0.019989 123.23C235.35 110.21 777.93 113.69 1024 131.16V576H1.09859e-05L-0.019989 123.23Z" fill="#09D198"/>
<path d="M0 419.46C422.16 402.99 681.08 428.48 1023.96 416.76L1024 576H0V419.46Z" fill="#777F55"/>
<path d="M647.52 117.43C647.52 117.43 771.79 135.86 744.06 192.9C707.98 267.11 545.97 345.68 327.3 414.18C381.97 462.09 702.55 456.33 739.86 419.48C799.67 360.42 860.04 256.12 833.9 186.02C818.61 145.02 775.9 123.22 716.76 118.76C716.76 118.76 671.18 117.83 647.53 117.42L647.52 117.43Z" fill="#777F55"/>
<path d="M0 0V323.1H111.23L99.66 0H0Z" fill="#874022"/>
<path d="M151.67 0L142.29 323.1H281.23L269.66 0H151.67Z" fill="#72321C"/>
<path d="M340.14 0L346.74 213.16L338.04 228.4L327.29 237.8L335.4 240.9L353.01 233.56L351.34 241.98L340.09 251.64L348.66 255.74L362.67 251.91L374.74 247.41L386.44 245.16L394.16 253.16L419.72 253.08L412.77 243.94L432.95 250.47L445.59 244.9L427.81 225.79L419.26 0H340.14Z" fill="#683428"/>
<path d="M567.33 0L561.61 192.83L570.88 204.36L562.66 206L552.44 201.62L558.15 208.62L562.18 214.61L552.25 215.59L546.03 212.48L535.29 209.39L523.65 212.35L512.54 218.45L503.58 217.49L505.84 209.2L493.03 215.4L482.94 210.96L497.13 195.7L507.22 0H567.33Z" fill="#5E321E"/>
<path d="M627.67 0L634.32 135.66L638.31 147.15L647.15 162.4L649.52 168.99L639.84 170.05L630.4 163.34L633.49 170.19L635.46 176.8L627.7 177.65L613.93 171.07L607.73 178.4L598.99 177.62L595.37 172.55L593.25 167.51L585.4 175.44L575.93 174.79L578.23 168.11L583.84 156.36L588.17 140.04L585.81 0H627.67Z" fill="#934D2E"/>
<path d="M686.49 0L688.2 148.36L692.31 159.47L693.32 168L696.12 176.48L703.42 181.24L698.45 182.56L692.23 180.93L684.58 178.02L687.01 183.39L688.3 188.11L679.88 188.71L672.82 185.06L666.08 183.42L658.25 188.79L651.88 191.11L645.92 189.9L646.6 184.97L644.38 179.69L636.15 188L628.45 188.64L623 187.28L628.16 183.47L631.85 178.7L634.5 167.98L638.34 158.23L642.35 0H686.49Z" fill="#824C41"/>
<path d="M609.25 0L613.6 213.16L636.99 231.93L626.49 235.85L610.3 227.66L598.8 224.71L605.16 232.37L610.96 242.42L601.52 242.55L593.49 238.53L579.61 234.54L569.06 229.25L564.57 238.36L550.23 246.25L543.78 241.23V226.17L525.02 242.31L511.99 236.57L530.32 216.87L534.86 190.92L538.76 0H609.25Z" fill="#843731"/>
<path d="M516.89 0L527.48 224.88L537.63 238.24L542.77 254.25L555.42 264.84L569.06 270.32L564.11 279.37L544.98 281.35L526.42 273.99L513.08 271.39L520.67 291.83L499.14 294.03L470.01 276.28L451.08 288.25L435.82 295.16L418.81 291.83L429.77 272.45L411.77 282.28L389.54 284.38L380.8 278.98L385.31 273.19L399.64 259.85L405.71 243.32L411.25 214.97L407.16 0H516.89Z" fill="#9D473C"/>
<path d="M424.11 0C424.11 0 431.54 21.74 429.01 61.66C426.48 101.57 424.15 80.45 428.39 164.94C430.22 201.43 430.38 224.47 432.23 224.46C435.02 224.44 433.08 202.97 432.38 165.31C431.93 140.94 427.36 110.83 432.09 88.84C438.16 60.59 437.24 48.4 434.65 26.4C432.06 4.4 432.04 0 432.04 0H424.11Z" fill="#7E3127"/>
<path d="M444.89 291.05C451.69 276.34 452.19 248.39 451.69 227.62C450.12 161.21 442.38 126.62 458.49 115.37C467.62 108.99 478.59 98.53 474.92 0H489.46C489.46 0 487.97 64.96 491.87 112.23C497.05 175.02 485.7 233.16 513.07 271.39L515.65 278.33C515.65 278.33 493.18 264.36 487.75 208.01C482.44 152.99 486.76 117.69 485.41 100.3C483.68 78.21 486.32 54.63 482.7 54.94C476.53 55.47 477.84 89.97 473.95 103.26C467.46 125.41 458.96 116.46 454.93 136.15C450.9 155.84 456.05 200.67 458.29 224.46C460.53 248.25 458.77 283.4 458.77 283.4L451.09 288.25L444.9 291.06L444.89 291.05Z" fill="#7E3127"/>
<path d="M504.35 33.16C504.35 33.16 502.63 55.95 504.35 77.13C506.66 105.67 508.55 151.92 507.36 167.38C504.57 203.71 513.77 198.22 514.63 228.52C515.39 255.1 519.84 236.31 519.34 272.6L524.55 273.61C524.55 273.61 527.17 256.58 520.24 241.64C516.64 233.89 519.16 215.18 513.28 193.84C508.2 175.4 511.33 174.42 510.74 141.78C510.15 109.14 510.66 66.13 509.5 34.03C508.75 14.02 508.33 0 508.33 0H503.66C503.66 0 504.89 6.98 504.35 33.16Z" fill="#7E3127"/>
<path d="M169.21 0L209.45 420.45H26.72L39.11 0H169.21Z" fill="#BC6C4A"/>
<path d="M47.74 420.45C39.21 323.1 66.48 364.84 57.65 266.75C41.18 83.73 70.92 106.53 59.69 75.24C50.59 49.86 55.17 0 55.17 0H59.81C59.81 0 54.04 32.4 62.27 69.03C64.37 78.38 66.24 80.07 66.64 85.91C68.21 108.91 51.93 93.4 67.22 288.25C72.45 354.89 54.9 325.91 59.27 420.45H47.74Z" fill="#A65227"/>
<path d="M90.12 0C90.12 0 98.92 25.62 95.76 63.14C91.89 108.95 80.22 77.14 82.04 130.53C82.82 153.33 85.9 190.18 90.65 191.88C93.61 192.94 80.28 119.79 92.87 94.24C108.5 62.52 98.74 16.86 98.78 0H90.12Z" fill="#A65227"/>
<path d="M175.53 420.45C161.34 253.42 172.1 186.68 161.89 177.22C150.92 167.07 151.55 74.41 148.35 67.51C146.1 62.64 144.85 165.64 130.33 171.1C115.81 176.56 117.66 201.47 115.2 266.15C113.2 318.59 116.27 330.97 105.05 341.64C91.84 354.2 91.12 373.59 89.48 420.46H80.93C82.88 364.93 84.24 341.56 99.89 326.68C113.18 314.04 105.87 298.9 108.51 236.78C110.36 193.11 112.6 174.32 125.89 166.49C140.66 157.78 138.4 37.06 147.64 36.79C155.43 36.56 156.18 150.92 168.9 174.49C180.48 195.93 171.99 241.75 191 420.47H175.53V420.45Z" fill="#A65227"/>
<path d="M108.57 0C108.57 0 111.18 31.47 110.72 58.28C110.31 82.32 104.4 83.07 103.19 94.08C99.98 123.35 102.95 145.3 105.32 144.23C106.78 143.57 106.87 119.08 107.43 106.45C108.02 93.27 110.31 85.69 111.58 80.66C117.57 56.94 113.67 32.92 113.43 0H108.57Z" fill="#A65227"/>
<path d="M367.71 0L367.43 303.04L398.64 334.82L396.75 347.41L346.11 342.93L355.45 366.34L330.07 368.92L223.97 332.14L250.86 0H367.71Z" fill="#B55E4B"/>
<path d="M236.25 336.61C246.06 310.78 240.99 249.59 246.46 198.67C254.04 128.11 264.67 150.53 265.68 83.79C265.93 67.09 266.18 53.61 264.24 42.94C262.99 36.09 265.17 10.67 267.49 8.41001C268.78 7.15001 269.69 10.91 269.12 19.91C268.55 28.91 265.86 37.53 267.65 45.59C269.75 55.07 271.9 96.92 264.66 146.77C262.29 163.12 255.21 157.59 252.96 210.23C250.75 262 250.69 341.86 250.69 341.86L236.26 336.61H236.25Z" fill="#9B4835"/>
<path d="M289.25 0C289.25 0 284.05 35.72 292.47 49.07C300.89 62.42 294.27 78.46 292.47 95.58C280.41 210.23 298.67 210.23 287.44 225.33C278.71 237.06 275.66 319.68 268.31 348.27L282.06 353.27C292.35 192.36 293.39 242.63 298.13 219.91C303.7 193.25 287.09 230.7 297.98 92.99C299.34 75.83 305.51 54.54 297.44 50.26C287.83 45.17 294.06 0 294.06 0H289.24H289.25Z" fill="#9B4835"/>
<path d="M336.05 0C336.05 0 341.85 38.97 331.58 76.83C320.56 117.43 327.66 135.21 326.81 210.22C326.46 241.09 326.38 255.96 328.99 252.72C330.48 250.86 333.83 203.01 330.41 148.75C326.42 85.58 336.6 83.49 341.49 61.48C343.43 52.73 343.52 35.8 343.65 25.08C343.87 6.59 345.47 0 345.47 0H336.06H336.05Z" fill="#9B4835"/>
<path d="M341.49 87.81C338.95 87.81 339.6 116.79 341.32 127.96C343.04 139.13 344.61 161.35 341.01 198.41C336.72 242.49 338.76 252.02 338.21 270.26C337.9 280.57 337.89 292.64 339.28 293.89C340.45 294.94 343.2 290.92 343.61 255.69C343.82 237.72 343.96 221.57 347.31 190.35C350.66 159.13 347 145.68 344.59 124.96C341.67 99.85 344.03 87.81 341.49 87.81Z" fill="#9B4835"/>
<path d="M776.37 47.45L776.3 118.74L773.98 123.11L772.24 124.71L775.08 125.68L779.06 124.46L778.02 127.16L780.19 127.66L783.64 125.96L786.72 126.28L790.75 128.82L793.27 128.34L792.87 124.83L795.01 125.46L798.88 126.09L801.75 125.2L798.58 121.24L796.94 115.05L791.44 49.84L776.37 47.45Z" fill="#B0785E"/>
<path d="M810.4 11.59C811.48 18.9 809.07 26.49 808.34 32.19C807.45 39.16 813.83 42.72 812.13 53.27C810.85 61.22 802.69 62.17 800.37 65.92C794.98 74.6 785.81 75.84 779.29 74.02C771.83 71.94 768.56 63.98 765.93 56.98C764.22 52.42 755.88 52.42 753.84 45.1C751.27 35.92 757.32 33.73 756.49 29.62C755.26 23.52 752.12 20.45 751.86 13.91C751.55 6.12 758.88 0 758.88 0H805.62C805.62 0 809.39 4.75 810.4 11.59Z" fill="#11AC7C"/>
<path d="M786.01 20.29C785.04 21.31 783.95 21.8 783.02 21.88C782.93 21.11 783.05 19.29 784.1 18.19C784.76 17.48 786.01 17.02 786.75 16.98C786.95 18.03 786.75 19.53 786.01 20.29Z" fill="#68C8AD"/>
<path d="M792.35 30.81C791.57 31.46 790.76 31.72 790.09 31.7C790.09 31.15 790.32 29.85 791.16 29.16C791.69 28.71 792.62 28.48 793.15 28.52C793.21 29.29 792.94 30.33 792.35 30.82V30.81Z" fill="#68C8AD"/>
<path d="M774.98 31.8C775.66 32.71 775.9 33.64 775.84 34.38C775.22 34.35 773.79 34.01 773.06 33.03C772.59 32.41 772.39 31.36 772.46 30.77C773.32 30.75 774.48 31.12 774.98 31.8Z" fill="#68C8AD"/>
<path d="M791.67 61.83C791.5 60.44 791.82 59.3 792.35 58.54C792.99 58.96 794.31 60.21 794.49 61.7C794.61 62.65 794.17 63.9 793.74 64.49C792.81 63.98 791.8 62.87 791.68 61.83H791.67Z" fill="#68C8AD"/>
<path d="M775.98 57.05C776.76 56.09 777.68 55.6 778.49 55.46C778.62 56.12 778.63 57.73 777.79 58.75C777.26 59.41 776.2 59.89 775.56 59.98C775.32 59.07 775.4 57.76 775.99 57.04L775.98 57.05Z" fill="#68C8AD"/>
<path d="M797.78 54.93C798.48 55.57 798.82 56.3 798.88 56.93C798.37 57 797.13 56.93 796.38 56.24C795.9 55.8 795.58 54.96 795.54 54.47C796.25 54.32 797.25 54.45 797.77 54.93H797.78Z" fill="#68C8AD"/>
<path d="M767.14 10.94C766.55 11.97 766.33 13 766.36 13.86C765.95 13.11 765.25 12.32 764.21 11.74C763.2 11.17 761.55 11.13 760.96 11.33C761.26 12.13 762.12 13.44 762.99 14.07C764.28 15 765.88 14.88 766.58 14.68C767.3 14.5 768.72 13.8 769.37 12.34C769.8 11.38 769.89 9.81001 769.74 8.95001C769.14 9.09001 767.73 9.95001 767.15 10.95L767.14 10.94Z" fill="#68C8AD"/>
<path d="M767.01 46.14C767.76 46.21 768.42 46.05 768.9 45.81C768.57 46.25 768.31 46.86 768.26 47.62C768.2 48.36 768.62 49.32 768.9 49.6C769.28 49.21 769.8 48.36 769.93 47.69C770.12 46.7 769.62 45.81 769.31 45.46C769.01 45.09 768.23 44.46 767.21 44.48C766.54 44.49 765.61 44.86 765.16 45.18C765.4 45.49 766.28 46.07 767.01 46.14Z" fill="#68C8AD"/>
<path d="M823.7 0L817.89 118.41L815.71 124.7L810.87 133.05L809.57 136.65L814.87 137.23L820.03 133.56L818.35 137.31L817.27 140.93L821.52 141.39L829.05 137.79L832.45 141.8L837.23 141.38L839.21 138.6L840.37 135.84L844.66 140.18L849.85 139.83L848.59 136.17L845.52 129.74L843.15 120.81L843.03 0H823.7Z" fill="#934D2E"/>
<path d="M865.41 0C867.21 8.2 864.02 14.06 862.55 22.22C861.06 30.52 867.68 39.69 864.16 47.35C859.88 56.65 852.01 56.14 847.43 60.56C844.07 63.81 838.36 72.66 825.57 68.55C811.05 63.88 816.88 51.59 809.86 48.57C801.68 45.05 797 40.55 796.4 35.26C795.42 26.68 802.77 20.05 798.54 15.72C795.22 12.31 792.1 6.61 794.1 0H865.41V0Z" fill="#00996A"/>
<path d="M809.28 10.94C808.14 10.02 807.55 8.93 807.39 7.98C808.17 7.82 810.07 7.8 811.29 8.79C812.08 9.42 812.65 10.67 812.75 11.43C811.68 11.72 810.12 11.63 809.27 10.94H809.28Z" fill="#2FB48E"/>
<path d="M848.03 10.78C846.91 11.72 845.73 12.09 844.76 12.07C844.76 11.27 845.1 9.40001 846.31 8.40001C847.08 7.75001 848.42 7.42001 849.18 7.47001C849.26 8.58001 848.87 10.09 848.03 10.79V10.78Z" fill="#2FB48E"/>
<path d="M822.53 25.03C823.03 26.4 822.99 27.64 822.64 28.54C821.89 28.27 820.24 27.32 819.71 25.84C819.36 24.9 819.51 23.53 819.81 22.82C820.88 23.12 822.17 24 822.54 25.03H822.53Z" fill="#2FB48E"/>
<path d="M828.79 46.52C829.87 45.15 831.16 44.43 832.29 44.23C832.49 45.16 832.54 47.42 831.37 48.89C830.63 49.83 829.15 50.54 828.25 50.67C827.89 49.4 827.98 47.54 828.79 46.53V46.52Z" fill="#2FB48E"/>
<path d="M818.13 29.19C819.16 29.65 819.82 30.34 820.12 31.01C819.57 31.28 818.16 31.68 817.06 31.18C816.35 30.87 815.67 30.05 815.45 29.51C816.19 29.08 817.37 28.84 818.13 29.18V29.19Z" fill="#2FB48E"/>
<path d="M833.13 14.44C832.07 15.05 831.34 15.86 830.92 16.65C830.95 15.77 830.73 14.7 830.09 13.64C829.48 12.61 828.02 11.72 827.4 11.59C827.26 12.46 827.35 14.07 827.81 15.09C828.49 16.59 829.97 17.31 830.7 17.48C831.44 17.69 833.07 17.8 834.4 16.83C835.28 16.19 836.17 14.84 836.48 13.99C835.87 13.81 834.17 13.84 833.13 14.44Z" fill="#2FB48E"/>
<path d="M839.93 47.01C840.5 45.67 840.62 44.37 840.45 43.32C841.06 44.18 842.03 45.04 843.4 45.59C844.72 46.14 846.75 45.94 847.43 45.61C846.94 44.67 845.7 43.2 844.53 42.57C842.81 41.63 840.88 42.01 840.06 42.37C839.2 42.7 837.57 43.77 837 45.64C836.62 46.88 836.74 48.81 837.05 49.84C837.76 49.58 839.36 48.32 839.92 47.01H839.93Z" fill="#2FB48E"/>
<path d="M854.95 0L852.6 140.14L845.19 153.18L842.77 160.83L838.67 165.22L841.22 166.96L848.95 166.75L853.34 163.54L856.05 163.2L852.73 167.79L852.68 170.82L858.21 171.93L867.28 168.96L904.68 168.54L899.95 0H854.95Z" fill="#824C41"/>
<path d="M963.38 0L965.25 213.16L941.85 231.93L985.36 238.53L994.51 233.44L1007.95 236.57L1024 244.16V0H963.38Z" fill="#843731"/>
<path d="M867.09 0L870.84 240.82L858.85 261.35L847.18 265.84L844.09 276.89L863.93 280.32L849.75 294.83L865.95 299.62L902.9 291.83L914.14 301.52L922.05 311.35L937.97 312.01L945.38 295.57L953.18 293L965.34 296.7L981.27 303.38L996.38 301.14L991.69 291.83L986.74 283.03L993.76 277.18L1012.38 276.21V267.97L995.75 254.14L989.82 233.03L971.74 0H867.09Z" fill="#B55E4B"/>
<path d="M881.77 0C880.37 27.03 882.32 56.78 886.19 83.12C887.96 95.21 889.74 107.33 890.06 119.54C890.89 151.26 890.8 215.55 894.37 214.37C897.94 213.19 893.45 165.54 895.47 141.12C896.05 134.17 896.62 127.2 896.52 120.22C896.4 112.52 895.46 104.85 894.52 97.2C890.72 66.34 888.8 23.48 890.83 0H881.76H881.77Z" fill="#9B4835"/>
<path d="M913.27 301.14C916.03 288.06 918.09 271.18 918.66 257.83C919.88 229.62 918.29 169.12 913.33 143.51C912.6 139.75 910.58 124.87 913.67 127.36C927.66 144.73 927.71 156 930.29 166.22C933.72 179.79 936.78 201.56 937.5 215.54C939.01 244.73 936.63 288.24 942.86 301.13L945.37 295.56L950.24 293.95C946.62 283.83 945.45 272.28 944.69 261.56C943.06 238.57 941.43 215.57 939.8 192.58C938.53 174.67 936.96 155.84 927.01 140.9C923.87 136.18 919.93 131.92 917.77 126.68C915.86 122.04 915.47 116.93 915.1 111.92C913.51 90.21 911.93 68.49 910.34 46.78C898.71 120.03 919.12 195.39 908.77 268.84C907.65 276.78 906.18 284.66 905.17 292.61" fill="#9B4835"/>
<path d="M990.68 279.74C988.09 277.73 980.65 268.66 978.06 262.89C964.63 232.97 965.14 195.61 962.36 171.1C961.46 163.13 960.48 154.94 956.67 147.89C955.16 145.1 951.46 140.77 950.13 137.89C948.1 133.48 947.58 128.55 947.32 123.71C946.26 103.74 949.14 83.06 942.47 64.21C939.15 54.83 936.82 46.33 933.96 36.81C930.55 25.46 930.81 11.85 931.46 0.0100098H939.41C937.91 13.85 938.6 27.73 940.3 37.33C942.25 48.39 949.43 63.35 952.32 74.21C954.33 81.77 955.04 89.68 954.41 97.48C953.57 107.86 950.38 118.39 952.9 128.5C953.99 132.87 956.1 136.91 957.87 141.05C967.21 162.89 967.09 187.4 968.93 211.09C970.77 234.78 977.44 259.94 993.77 277.2L990.69 279.76L990.68 279.74Z" fill="#9B4835"/>
<path d="M298.61 339.15C314.05 299.78 280.71 307.96 280.71 307.96C298.18 258.14 234.65 279.81 234.65 279.81C256.11 194.9 176.89 241.02 176.89 241.02C190.21 160.29 108.44 204.7 108.44 204.7C79.52 150.41 34.23 216.3 34.23 216.3C25.47 189.6 9.08 203.9 0 214.96V420.46H328.3C372.06 323.61 298.61 339.16 298.61 339.16V339.15Z" fill="#0B9B78"/>
<path d="M89.88 235.89C85.47 240.26 82.93 245.21 81.91 249.58C80.89 245.21 78.43 240.26 73.94 235.89C69.61 231.61 61.3 229.14 58.08 229.33C58.5 233.8 61.05 241.6 64.61 245.97C69.87 252.44 78.1 254.05 81.91 253.96C85.81 254.06 93.95 252.44 99.21 245.97C102.69 241.69 105.32 233.89 105.74 229.33C102.52 229.23 94.2 231.61 89.88 235.89Z" fill="#2FB48E"/>
<path d="M139.5 286.19C135.26 287.33 132.21 289.52 130.34 291.99C130.93 288.76 130.76 284.48 129.15 279.82C127.54 275.26 122.79 270.31 120.58 269.17C119.56 272.31 118.97 278.39 119.99 282.67C121.6 289.04 126.44 293.32 129.07 294.84C131.61 296.46 137.38 298.64 142.81 296.46C146.37 295.03 150.36 290.95 151.89 288.19C149.77 286.76 143.58 285.05 139.51 286.19H139.5Z" fill="#2FB48E"/>
<path d="M200.48 270.79C194.54 272.98 189.2 272.69 185.3 271.27C186.49 267.94 190.56 260.91 197 258.53C201.07 257.01 207.01 257.67 210.06 258.91C208.79 263.66 204.97 269.18 200.48 270.8V270.79Z" fill="#2FB48E"/>
<path d="M232.54 316.62C224.74 319.47 217.7 319.19 212.61 317.19C214.14 312.91 219.56 303.59 227.96 300.55C233.3 298.55 241.11 299.41 245.09 301.12C243.39 307.21 238.39 314.53 232.54 316.62Z" fill="#2FB48E"/>
<path d="M850.26 373.02L847.44 389.81H830.26V373.02L840.15 383.98L850.26 373.02Z" fill="#00996A"/>
<path d="M711.07 195.03L710.59 200.58H723.32L724.89 194.31L721.21 197.45L720.54 194.31L717.77 197.45L716.5 192.5L713.97 196.54L711.07 195.03Z" fill="#00996A"/>
<path d="M967.54 320.71L970.73 341.18H995.7L998.32 325.07L987.43 332.18L985.25 320.71L976.97 334.36L967.54 320.71Z" fill="#00996A"/>
<path d="M681.63 216.92H688.39L689.12 211.96L686.47 214.85L684.19 211.02L682.68 215.34L680.74 212.82L681.63 216.92Z" fill="#00996A"/>
<path d="M624.31 273.62L621.21 264.01L618.01 269.24L610.85 259.63L608.5 269.14L603.38 266.04L603.91 273.62H624.31Z" fill="#00996A"/>
<path d="M213.86 500.08C208.56 500.08 204.26 504.93 204.26 510.92H223.46C223.46 504.93 219.16 500.08 213.86 500.08Z" fill="#5E573B"/>
<path d="M705.57 513.03C697.6 513.03 691.14 523.46 691.14 532.46H720C720 523.46 713.54 513.03 705.57 513.03Z" fill="#5E573B"/>
<path d="M974.27 454.63C971.37 454.63 969.02 461.32 969.02 464.59H979.52C979.52 461.32 977.17 454.63 974.27 454.63Z" fill="#5E573B"/>
<path d="M745.53 323.76C742.82 323.76 740.63 326.43 740.63 329.11H750.43C750.43 326.44 748.24 323.76 745.53 323.76Z" fill="#5E573B"/>
<path d="M839.49 489.38C842.41 489.38 844.89 492.44 845.86 496.73C846.69 495.24 847.96 494.28 849.39 494.28C851.88 494.28 853.89 497.17 853.89 500.73H846.3H844.88H832.66C832.66 494.46 835.71 489.38 839.48 489.38H839.49Z" fill="#5E573B"/>
<path d="M63.12 455.39C59.81 455.39 57.13 459.96 57.13 465.6H69.11C69.11 459.96 66.43 455.39 63.12 455.39Z" fill="#5E573B"/>
<path d="M314.08 466.1C309.96 466.1 306.46 470.41 305.09 476.46C303.93 474.36 302.13 473.01 300.12 473.01C296.61 473.01 293.77 477.08 293.77 482.1H323.7C323.7 473.26 319.4 466.09 314.09 466.09L314.08 466.1Z" fill="#5E573B"/>
<path d="M922.28 363.12L934.2 266.61M916.46 363.12L925.46 266.61M911.29 362.99L916.45 266.34M892.22 362.99L887.45 267.27M886.66 362.99L877.53 268.86M880.97 362.99L866.67 268.86M908.77 268.86L939.75 279.98M887.46 268.86L938.7 287.26M864.83 268.33L937.64 294.54M858.47 273.62L936.45 301.69M860.06 282.1L935.39 309.11M861.78 290.18L934.33 316.26M933.27 323.54L863.37 298.39M865.09 306.6L932.21 330.7M931.15 337.98L866.68 314.81M868.27 323.02L929.96 345.26M869.85 331.23L928.9 352.41M871.44 339.57L927.84 359.83M873.16 347.65L916.45 363.01M874.75 355.86L894.74 363.01M856.35 263.69L942.54 260.51L927.32 362.98H876.22L856.36 263.69H856.35Z" stroke="#1A5A4A" stroke-width="1.4" stroke-linecap="round" stroke-linejoin="round"/>
<path d="M907.99 269.65L905.6 362.99H897.26L896.34 270.05L907.99 269.65Z" fill="#1A5A4A"/>
<path d="M934.73 314.14L866.28 313.21L864.17 302.09L936.05 304.6L934.73 314.14Z" fill="#1A5A4A"/>
<path d="M941.35 269.65L858.34 272.56L856.49 263.69L942.67 260.52L941.35 269.65Z" fill="#1A5A4A"/>
</g>
<defs>
<linearGradient id="paint0_linear_36_13511" x1="512" y1="150.34" x2="512" y2="47.12" gradientUnits="userSpaceOnUse">
<stop stop-color="#FFF3AB"/>
<stop offset="0.48" stop-color="#FFF29B"/>
<stop offset="0.51" stop-color="#FFF198"/>
<stop offset="0.78" stop-color="#FFF089"/>
<stop offset="1" stop-color="#FFF084"/>
</linearGradient>
<clipPath id="clip0_36_13511">
<rect width="1024" height="576" fill="white"/>
</clipPath>
</defs>
</svg>
