<svg width="375" height="404" viewBox="0 0 375 404" fill="none" xmlns="http://www.w3.org/2000/svg">
<path d="M198.952 257.752L176.13 315.07C176.13 315.07 310.853 396.746 374.766 285.558C374.823 285.533 246.007 287.186 198.952 257.752Z" fill="#FCCB4F"/>
<path d="M223.335 335.439C215.263 332.948 207.883 330.18 201.485 327.508L211.454 264.132C216.983 266.419 222.638 268.385 228.393 270.02L223.335 335.439Z" fill="#A1227C"/>
<path d="M264.695 343.565C258.013 343.05 251.365 342.147 244.786 340.862L254.409 276.157C260.666 277.327 267.074 278.359 273.509 279.255L264.695 343.565Z" fill="#A1227C"/>
<path d="M321.556 335.188C313.464 338.621 304.982 341.052 296.296 342.427L300.004 282.288C307.007 282.94 313.859 283.462 320.39 283.879L321.556 335.188Z" fill="#A1227C"/>
<path d="M201.383 276.184C201.383 276.184 306.493 316.222 345.546 297.097C345.546 297.097 297.773 357.346 190.653 308.18L201.383 276.184Z" fill="#4F1851"/>
<path d="M15.0413 273.793C23.1421 287.765 38.7167 284.669 66.0859 262.935C92.8023 238.834 88.2322 196.328 88.2322 196.328L74.307 188.326C74.307 188.326 59.6087 211.955 42.8315 230.832C21.0289 255.37 6.8288 259.65 15.0413 273.793Z" fill="url(#paint0_linear_86_18842)"/>
<path d="M26.771 350.608C40.4428 371.718 58.5339 351.603 80.8515 336.958C91.1177 322.16 89.5631 289.211 65.6334 283.86C44.4207 306.309 16.4324 334.598 26.771 350.608Z" fill="url(#paint1_linear_86_18842)"/>
<path d="M153.489 403.558C168.093 403.747 178.075 395.522 190.428 331.736C175.197 320.166 136.36 329.678 136.36 329.678C134.839 338.383 123.491 403.146 153.489 403.558Z" fill="url(#paint2_linear_86_18842)"/>
<path d="M59.6345 210.754C51.9031 256.477 47.9773 304.447 78.5937 331.163C118.11 352.417 134.492 347.579 203.156 330.451C218.971 278.639 213.069 241.699 205.183 203.747C189.17 145.116 178.424 104.162 120.85 95.2589C63.2769 86.3562 45.9757 110.5 54.8926 136.076C66.2234 168.093 63.8267 188.84 59.6345 210.754Z" fill="#DB4932"/>
<path d="M93.9621 39.9386C88.4212 34.1321 82.4852 22.1246 86.3939 6.60924C89.0999 0.939983 94.0308 -2.56792 101.333 2.32085C108.635 7.20961 115.636 23.7628 114.717 35.4444C106.745 37.5114 93.9621 39.9386 93.9621 39.9386Z" fill="#DB4932"/>
<path d="M92.8795 38.9952C89.2969 34.5009 86.8396 29.2182 85.7116 23.5857C84.5837 17.9533 84.8175 12.1334 86.3937 6.60924C94.9069 -1.48724 109.373 18.0764 107.604 35.4101L92.8795 38.9952Z" fill="#FCCB4F"/>
<path d="M94.7008 34.1922C94.7008 34.1922 85.7151 19.2943 92.7937 17.2702C99.8722 15.2461 103.738 33.8405 103.738 33.8405L94.7008 34.1922Z" fill="#4F1851"/>
<path d="M157.008 40.6076C157.008 40.6076 162.213 7.74995 178.836 2.01208C182.083 0.794181 193.165 1.40313 191.275 23.7371C190.665 29.9381 186.542 40.5304 180.597 50.4538C168.227 45.1962 157.008 40.6076 157.008 40.6076Z" fill="#DB4932"/>
<path d="M157.549 38.3176C157.549 38.3176 157.789 30.6929 163.562 18.4109C165.201 15.0613 167.197 11.8981 169.515 8.97644C172.41 5.64007 173.364 4.14771 178.965 5.49427C182.53 6.35195 189.273 11.8325 184.712 25.5983C179.231 39.9043 175.314 46.4484 175.314 46.4484L157.549 38.3176Z" fill="#FCCB4F"/>
<path d="M162.892 38.3862C162.892 38.3862 163.227 33.6604 166.672 27.1849C170.117 20.7095 173.364 19.0885 175.726 20.5036C178.089 21.9188 177.891 26.576 175.254 31.5677C173.548 34.8756 172.058 38.2906 170.795 41.7912L162.892 38.3862Z" fill="#4F1851"/>
<path d="M54.8152 247.977C54.7465 248.835 54.6778 249.77 54.6262 250.662C54.0077 267.566 52.513 295.51 68.8521 320.442C71.6744 324.379 74.9433 327.977 78.5937 331.163C111.169 348.669 128.023 348.471 171.371 338.273C180.382 318.976 169.094 288.966 149.353 265.525C125.824 237.565 75.5011 230.764 54.8152 247.977Z" fill="url(#paint3_linear_86_18842)"/>
<path d="M148.159 301.573C163.373 307.037 173.278 294.652 180.176 260.405C185.038 224.777 154.104 195.221 154.104 195.221L138.323 198.112C138.323 198.112 142.344 225.635 141.708 250.859C140.84 283.631 132.748 296.041 148.159 301.573Z" fill="url(#paint4_linear_86_18842)"/>
<path d="M68.1476 137.963C68.1476 137.963 -1.22904 125.818 0.0165747 98.5009C3.86511 83.32 24.1386 77.2476 74.2125 98.5009C73.1531 111.784 71.1261 124.973 68.1476 137.963Z" fill="url(#paint5_linear_86_18842)"/>
<path d="M3.68462 63.4562C4.90447 44.5101 59.6344 49.9134 79.2808 64.3139C77.6744 77.0418 69.5993 100.722 69.5993 100.722C69.5993 100.722 1.65727 94.8215 3.68462 63.4562Z" fill="url(#paint6_linear_86_18842)"/>
<path d="M187.151 77.2476C187.151 77.2476 255.368 75.0863 256.279 97.283C257.293 121.976 183.26 112.67 183.26 112.67L187.151 77.2476Z" fill="url(#paint7_linear_86_18842)"/>
<path d="M169.309 146.085C169.919 146.488 232.964 156.377 238.239 140.399C245.326 118.879 181.679 101.537 181.679 101.537L169.309 146.085Z" fill="url(#paint8_linear_86_18842)"/>
<path d="M181.499 44.8617C200.75 41.7912 248.926 36.2849 256.683 56.6033C263.169 75.0177 234.786 75.0177 231.341 74.6146C229.176 74.3573 211.196 78.5942 198.165 81.7676C198.457 67.7446 192.976 52.6237 181.499 44.8617Z" fill="url(#paint9_linear_86_18842)"/>
<path d="M90.7578 34.4409C64.9864 21.1212 23.4601 15.7607 19.2937 29.8781C14.0105 47.7864 30.4613 58.9619 47.7797 65.6175C55.1074 53.5843 71.3176 41.3281 90.7578 34.4409Z" fill="url(#paint10_linear_86_18842)"/>
<path d="M90.7578 34.4409C64.9864 21.1212 23.4601 15.7607 19.2937 29.8781C14.0105 47.7864 30.4613 58.9619 47.7797 65.6175C55.1074 53.5843 71.3176 41.3281 90.7578 34.4409Z" fill="url(#paint11_linear_86_18842)"/>
<path d="M129.578 29.0718C164.67 32.5026 213.301 41.4224 194.651 109.025C177.127 172.553 93.6958 157.389 80.3119 154.868C66.9279 152.346 43.1752 141.814 43.8281 75.0177C47.8742 53.164 89.581 25.1522 129.578 29.0718Z" fill="#DB4932"/>
<path d="M47.3329 79.2031C50.2623 56.2688 67.2027 48.1637 93.4208 62.4698C113.694 73.8083 144.225 42.4345 162.351 71.5098C181.052 101.528 170.658 138.992 86.5312 120.492C86.5312 120.492 41.792 121.976 47.3329 79.2031Z" fill="#4F1851"/>
<path d="M79.9079 58.5931C78.4132 58.0099 76.6951 59.0992 75.879 61.089C75.879 58.9791 74.7193 57.2209 73.1988 57.0579C71.4807 56.8778 69.9344 58.5417 69.6595 60.8403C68.9551 58.9019 67.3057 57.8212 65.8195 58.2672C64.1014 58.799 63.2939 61.0718 63.8523 63.3532C64.4107 65.6347 66.2319 67.0155 67.9156 66.4838C68.5065 66.2332 69.0152 65.8224 69.3842 65.2979C69.7531 64.7734 69.9675 64.1562 70.0031 63.5162C70.1825 64.033 70.4941 64.494 70.907 64.8536C71.3199 65.2131 71.8197 65.4587 72.3569 65.5661C73.0533 65.5721 73.7332 65.3544 74.2963 64.9452C74.8593 64.5359 75.2756 63.9568 75.4838 63.2932C75.4316 63.9937 75.589 64.6938 75.9363 65.3047C76.2835 65.9155 76.8048 66.4095 77.4339 66.7239C79.0489 67.3157 80.9731 65.9606 81.7291 63.7564C82.4851 61.5521 81.5057 59.1678 79.9079 58.5931Z" fill="#74ABDC"/>
<path d="M86.1553 83.8467C86.8873 71.9655 81.2695 61.9524 73.6075 61.4819C65.9456 61.0113 59.1409 70.2615 58.4089 82.1427C57.6769 94.0239 63.2947 104.037 70.9567 104.507C78.6186 104.978 85.4232 95.7279 86.1553 83.8467Z" fill="#FFE644"/>
<path d="M84.4148 84.7598C85.2063 78.5048 83.5012 73.1382 80.6064 72.7731C77.7116 72.408 74.7233 77.1826 73.9318 83.4377C73.1404 89.6927 74.8455 95.0593 77.7403 95.4244C80.6351 95.7895 83.6234 91.0149 84.4148 84.7598Z" fill="#4B0D3F"/>
<path d="M80.1219 85.1499C80.2469 83.1216 78.4058 81.3581 76.0096 81.2109C73.6135 81.0638 71.5697 82.5887 71.4448 84.617C71.3198 86.6452 73.161 88.4088 75.5571 88.5559C77.9532 88.7031 79.997 87.1781 80.1219 85.1499Z" fill="white"/>
<path d="M90.1478 88.2774C106.16 87.8057 118.024 97.3859 119.235 112.867C120.446 128.348 108.695 140.999 90.1478 139.455C71.601 137.911 64.8059 127.448 64.8059 113.913C64.8059 100.379 72.9153 88.7834 90.1478 88.2774Z" fill="#BEBCDE"/>
<path d="M203.319 60.197C203.851 64.3481 204.479 67.4272 201.24 67.736C198.001 68.0447 197.486 65.8062 197.134 62.264C196.781 58.7218 195.819 55.8914 199.058 55.4026C202.297 54.9137 202.984 57.6154 203.319 60.197Z" fill="#4F1851"/>
<path d="M218.163 54.6306C221.161 54.6306 221.599 57.5639 221.513 60.4457C221.427 63.3275 221.204 65.8062 218.163 65.9606C215.122 66.115 214.16 62.7271 214.469 60.0426C214.778 57.3581 215.887 54.6306 218.163 54.6306Z" fill="#4F1851"/>
<path d="M235.249 55.9429C237.242 55.5998 238.943 58.0185 238.187 61.089C237.431 64.1595 234.751 63.722 233.677 63.3104C232.604 62.8987 229.623 56.9035 235.249 55.9429Z" fill="#4F1851"/>
<path d="M206.867 97.6347C207.726 92.703 206.764 90.7046 203.267 90.1986C199.771 89.6926 199.771 94.1439 199.41 97.6347C199.049 101.125 198.25 102.952 201.343 103.81C204.435 104.668 206.36 100.619 206.867 97.6347Z" fill="#4F1851"/>
<path d="M216.548 95.9193C216.986 94.1182 217.098 91.3136 220.139 91.5623C223.18 91.811 224.048 94.1353 222.931 98.2951C221.814 102.455 219.177 101.889 218.215 101.631C217.253 101.374 215.535 100.019 216.548 95.9193Z" fill="#4F1851"/>
<path d="M234.184 95.0102C231.805 94.4527 229.889 96.9828 230.43 99.2985C230.56 99.8046 230.821 100.267 231.187 100.64C231.553 101.013 232.012 101.282 232.516 101.421C233.021 101.559 233.553 101.562 234.058 101.429C234.564 101.296 235.025 101.031 235.396 100.662C236.77 99.1013 237.423 95.7649 234.184 95.0102Z" fill="#4F1851"/>
<path d="M195.02 129.772C197.254 125.269 197.958 124.712 201.455 125.818C204.951 126.924 202.116 132.499 201.455 133.666C200.793 134.832 198.568 139.181 194.513 136.908C192.117 135.433 195.02 129.772 195.02 129.772Z" fill="#4F1851"/>
<path d="M212.845 130.175C211.127 128.751 209.409 129.317 207.777 131.993C206.145 134.669 206.102 137.139 208.026 138.066C209.951 138.992 211.574 138.22 212.845 135.99C214.117 133.76 214.667 131.693 212.845 130.175Z" fill="#4F1851"/>
<path d="M226.221 137.765C227.175 135.707 226.831 132.251 223.644 131.89C220.457 131.53 219.744 134.523 219.813 136.702C219.881 138.88 221.11 139.635 222.321 139.738C223.532 139.841 225.31 139.738 226.221 137.765Z" fill="#4F1851"/>
<path d="M33.1414 107.249C33.1414 102.455 33.82 100.585 31.5951 100.251C29.3701 99.9161 27.6005 101.468 26.9992 105.783C26.3978 110.097 26.7243 111.786 29.0867 111.992C31.449 112.198 33.1414 110.671 33.1414 107.249Z" fill="#4F1851"/>
<path d="M23.0734 104.702C23.7779 100.885 22.9446 99.1699 21.656 98.904C20.3674 98.6381 17.4639 99.4443 16.3901 104.702C15.3162 109.959 22.1972 109.496 23.0734 104.702Z" fill="#4F1851"/>
<path d="M13.6153 102.206C14.5688 98.8354 13.684 96.7427 10.7804 96.8799C7.87682 97.0171 6.25322 104.367 9.15681 104.505C12.0604 104.642 13.0053 104.367 13.6153 102.206Z" fill="#4F1851"/>
<path d="M35.9161 74.4259C37.2648 71.4412 37.6342 69.417 34.9711 68.1391C32.3081 66.8612 29.9028 69.6229 29.4303 72.5904C28.9578 75.558 28.2792 77.9852 31.2515 78.5942C34.2238 79.2032 35.9161 74.4259 35.9161 74.4259Z" fill="#4F1851"/>
<path d="M26.3894 70.4977C26.7931 68.2763 26.6557 65.8405 24.362 65.3516C22.0684 64.8627 20.5736 66.9726 20.5049 70.0774C20.4362 73.1822 20.5049 74.5288 22.7384 74.8032C24.9719 75.0777 26.3894 70.4977 26.3894 70.4977Z" fill="#4F1851"/>
<path d="M16.2698 62.8729C18.7868 63.9365 17.9878 71.5269 12.8336 70.0689C8.95067 68.8767 11.9659 61.0547 16.2698 62.8729Z" fill="#4F1851"/>
<path d="M30.1691 37.5714C30.7618 35.2128 29.877 33.9949 29.0094 33.8663C28.1417 33.7376 25.1694 33.9949 25.3069 37.5714C25.4443 41.1479 27.1968 40.6762 28.1417 40.7448C29.0867 40.8135 29.499 40.2988 30.1691 37.5714Z" fill="#4F1851"/>
<path d="M41.6632 39.1238C41.9467 36.1477 42.2645 34.3551 39.6359 33.8405C37.0072 33.3259 36.5691 35.5559 36.1224 38.1289C35.8303 39.7414 33.6998 42.7861 35.7787 44.0726C38.4504 45.6936 41.4227 41.6197 41.6632 39.1238Z" fill="#4F1851"/>
<path d="M51.2589 35.959C53.6212 37.3056 53.836 40.8821 50.1077 44.0555C48.8707 45.7708 49.0253 48.7727 44.9019 48.5068C41.251 46.2769 44.0944 41.8255 44.9019 40.2045C45.7094 38.5835 47.4705 33.7976 51.2589 35.959Z" fill="#4F1851"/>
<path d="M72.7263 111.641C76.4039 114.152 80.6369 115.736 85.0622 116.255C85.2014 116.286 85.3454 116.288 85.4855 116.261C85.6255 116.234 85.7584 116.179 85.8761 116.098C85.9937 116.018 86.0935 115.914 86.1693 115.793C86.245 115.673 86.2951 115.538 86.3164 115.397V110.097C86.3089 109.937 86.2566 109.782 86.1655 109.65C86.0744 109.518 85.9481 109.414 85.801 109.351C84.3492 108.622 80.2945 106.477 79.7877 104.959C79.1777 103.107 78.7225 99.8818 80.7756 98.5867C82.8287 97.2916 93.2146 97.3516 95.2591 98.7068C97.3036 100.062 96.9772 103.287 96.3243 105.148C95.8261 106.657 91.8401 108.75 90.3969 109.436C90.2469 109.5 90.118 109.604 90.0252 109.738C89.9324 109.871 89.8796 110.029 89.8729 110.191V115.5C89.8955 115.639 89.9461 115.773 90.0216 115.892C90.0971 116.011 90.1961 116.114 90.3124 116.194C90.4288 116.274 90.5602 116.33 90.6987 116.358C90.8373 116.386 90.98 116.386 91.1185 116.358C95.5015 115.898 99.7047 114.373 103.36 111.915C103.536 111.799 103.737 111.727 103.946 111.707C104.156 111.686 104.367 111.716 104.563 111.795L104.863 111.924C105.004 111.965 105.131 112.044 105.231 112.152C105.33 112.26 105.398 112.393 105.427 112.537C105.457 112.681 105.446 112.83 105.396 112.968C105.347 113.107 105.261 113.229 105.147 113.322C100.337 117.275 94.2812 119.401 88.0517 119.325C81.7735 119.243 75.7119 117.022 70.8708 113.03C70.7697 112.929 70.6955 112.804 70.655 112.667C70.6145 112.53 70.6089 112.385 70.6388 112.245C70.6687 112.105 70.733 111.975 70.826 111.867C70.9191 111.758 71.0378 111.675 71.1714 111.623L71.5236 111.486C71.7213 111.411 71.9346 111.385 72.1444 111.412C72.3543 111.439 72.5542 111.518 72.7263 111.641Z" fill="#4F1851"/>
<path d="M142.112 62.1182C140.393 61.6207 138.589 62.8129 137.816 64.8542C137.679 62.7443 136.279 61.0632 134.586 60.9946C132.688 60.9174 131.15 62.71 130.935 64.9914C130.016 63.0959 128.118 62.1182 126.503 62.6757C124.682 63.3104 123.926 65.6261 124.682 67.8217C125.437 70.0174 127.559 71.3296 129.389 70.7035C130.001 70.4469 130.526 70.0187 130.899 69.4707C131.273 68.9228 131.479 68.2785 131.494 67.6159C131.752 68.1381 132.139 68.5861 132.618 68.9177C133.098 69.2493 133.654 69.4536 134.234 69.5114C134.967 69.4716 135.672 69.2168 136.26 68.7789C136.848 68.341 137.294 67.7396 137.541 67.0498C137.551 67.7787 137.785 68.4869 138.213 69.0778C138.64 69.6688 139.24 70.1137 139.93 70.3519C141.759 70.8408 143.795 69.3656 144.431 67.127C145.067 64.8885 143.933 62.5985 142.112 62.1182Z" fill="#74ABDC"/>
<path d="M134.724 108.493C143.226 108.493 150.118 98.843 150.118 86.9394C150.118 75.0357 143.226 65.3859 134.724 65.3859C126.222 65.3859 119.33 75.0357 119.33 86.9394C119.33 98.843 126.222 108.493 134.724 108.493Z" fill="#FFE644"/>
<path d="M148.537 88.9677C149.017 82.6764 146.79 77.3777 143.563 77.1326C140.337 76.8876 137.333 81.7891 136.854 88.0803C136.374 94.3716 138.601 99.6703 141.828 99.9154C145.054 100.16 148.058 95.259 148.537 88.9677Z" fill="#4B0D3F"/>
<path d="M139.904 92.6515C142.561 92.6515 144.715 91.0042 144.715 88.9721C144.715 86.94 142.561 85.2927 139.904 85.2927C137.247 85.2927 135.093 86.94 135.093 88.9721C135.093 91.0042 137.247 92.6515 139.904 92.6515Z" fill="white"/>
<path d="M194.591 268.484C189.101 262.206 176.267 275.534 180.494 288.211C184.72 300.887 210.552 286.753 194.591 268.484Z" fill="#4F1851"/>
<path d="M194.892 309.413C193.242 306.531 172.599 312.646 179.738 323.796C186.877 334.946 201.498 320.957 194.892 309.413Z" fill="#4F1851"/>
<path d="M205.518 294.043C204.848 291.633 193.972 295.175 196.068 301.445C198.164 307.714 207.743 302.328 205.518 294.043Z" fill="#4F1851"/>
<g opacity="0.7">
<path d="M158.94 131.419C154.697 143.357 148.632 152.5 140.574 158.607C140.591 158.607 160.753 160.614 158.94 131.419Z" fill="#4F1851"/>
<path d="M167.909 138.4C163.665 150.339 157.6 159.482 149.542 165.589C149.542 165.589 169.704 167.595 167.909 138.4Z" fill="#4F1851"/>
<path d="M175.511 146.814C171.276 158.761 165.203 167.904 157.154 174.011C157.154 174.011 177.315 176.009 175.511 146.814Z" fill="#4F1851"/>
</g>
<path d="M103.79 95.9536C103.729 97.4202 97.6474 96.5282 90.0448 96.2195C82.4422 95.9107 76.3 96.3052 76.3 94.8472C76.3 93.3891 82.4422 89.7011 90.0448 89.9927C97.6474 90.2843 103.85 94.4955 103.79 95.9536Z" fill="#D8D6EC"/>
<defs>
<linearGradient id="paint0_linear_86_18842" x1="29.8204" y1="266.202" x2="77.7616" y2="218.908" gradientUnits="userSpaceOnUse">
<stop stop-color="#CA236C"/>
<stop offset="0.13" stop-color="#A52064"/>
<stop offset="0.31" stop-color="#771C5A"/>
<stop offset="0.45" stop-color="#5A1953"/>
<stop offset="0.53" stop-color="#4F1851"/>
<stop offset="1" stop-color="#DB4932"/>
</linearGradient>
<linearGradient id="paint1_linear_86_18842" x1="24.3464" y1="334.089" x2="93.4719" y2="306.327" gradientUnits="userSpaceOnUse">
<stop stop-color="#CA236C"/>
<stop offset="0.13" stop-color="#A52064"/>
<stop offset="0.31" stop-color="#771C5A"/>
<stop offset="0.45" stop-color="#5A1953"/>
<stop offset="0.53" stop-color="#4F1851"/>
<stop offset="1" stop-color="#A1227C"/>
</linearGradient>
<linearGradient id="paint2_linear_86_18842" x1="148.773" y1="398.18" x2="166.398" y2="317.058" gradientUnits="userSpaceOnUse">
<stop stop-color="#CA236C"/>
<stop offset="0.13" stop-color="#A52064"/>
<stop offset="0.31" stop-color="#771C5A"/>
<stop offset="0.45" stop-color="#5A1953"/>
<stop offset="0.53" stop-color="#4F1851"/>
</linearGradient>
<linearGradient id="paint3_linear_86_18842" x1="125.103" y1="233.302" x2="105.037" y2="337.694" gradientUnits="userSpaceOnUse">
<stop offset="0.21" stop-color="#DB4932"/>
<stop offset="0.4" stop-color="#DF6435"/>
<stop offset="0.82" stop-color="#EAA93C"/>
<stop offset="1" stop-color="#EFC93F"/>
</linearGradient>
<linearGradient id="paint4_linear_86_18842" x1="150.865" y1="319.07" x2="161.09" y2="209.319" gradientUnits="userSpaceOnUse">
<stop stop-color="#CA236C"/>
<stop offset="0.13" stop-color="#A52064"/>
<stop offset="0.31" stop-color="#771C5A"/>
<stop offset="0.45" stop-color="#5A1953"/>
<stop offset="0.53" stop-color="#4F1851"/>
<stop offset="1" stop-color="#DB4932"/>
</linearGradient>
<linearGradient id="paint5_linear_86_18842" x1="51.8086" y1="111.984" x2="-29.3519" y2="94.9238" gradientUnits="userSpaceOnUse">
<stop stop-color="#DB4932"/>
<stop offset="1" stop-color="#EFC93F"/>
</linearGradient>
<linearGradient id="paint6_linear_86_18842" x1="55.6914" y1="76.5015" x2="-20.4726" y2="62.6759" gradientUnits="userSpaceOnUse">
<stop stop-color="#DB4932"/>
<stop offset="1" stop-color="#EFC93F"/>
</linearGradient>
<linearGradient id="paint7_linear_86_18842" x1="197.305" y1="95.8078" x2="269.921" y2="95.4636" gradientUnits="userSpaceOnUse">
<stop stop-color="#DB4932"/>
<stop offset="1" stop-color="#EFC93F"/>
</linearGradient>
<linearGradient id="paint8_linear_86_18842" x1="189.746" y1="125.406" x2="255.024" y2="130.44" gradientUnits="userSpaceOnUse">
<stop stop-color="#DB4932"/>
<stop offset="1" stop-color="#EFC93F"/>
</linearGradient>
<linearGradient id="paint9_linear_86_18842" x1="195.991" y1="62.3841" x2="272.634" y2="56.7484" gradientUnits="userSpaceOnUse">
<stop stop-color="#DB4932"/>
<stop offset="1" stop-color="#EFC93F"/>
</linearGradient>
<linearGradient id="paint10_linear_86_18842" x1="82.5453" y1="57.8898" x2="18.2508" y2="22.2608" gradientUnits="userSpaceOnUse">
<stop offset="0.2" stop-color="#A27ABE" stop-opacity="0.6"/>
<stop offset="0.6" stop-color="#8373BC"/>
<stop offset="0.7" stop-color="#807EC2"/>
<stop offset="0.88" stop-color="#779AD4"/>
<stop offset="1" stop-color="#70AFE1"/>
</linearGradient>
<linearGradient id="paint11_linear_86_18842" x1="67.4605" y1="49.5618" x2="3.16596" y2="13.9327" gradientUnits="userSpaceOnUse">
<stop stop-color="#DB4932"/>
<stop offset="1" stop-color="#EFC93F"/>
</linearGradient>
</defs>
</svg>
