<svg width="146" height="80" viewBox="0 0 156 90" fill="none" xmlns="http://www.w3.org/2000/svg">
<path fill-rule="evenodd" clip-rule="evenodd" d="M48.3649 0L51.9419 4.22735L66.1283 21.1419C70.0522 20.9984 73.9762 20.9266 77.9003 20.9266H79.7671C81.3143 19.1162 82.4126 17.2877 83.1928 15.2307L83.2056 15.197L83.2189 15.1635C85.2204 10.1312 87.8582 6.81024 90.8049 4.77432C93.7639 2.72993 96.6796 2.22661 98.8003 2.22661C102.708 2.22661 106.202 3.8247 108.653 6.19671C109.924 5.94552 111.175 5.82661 112.4 5.82661C116.722 5.82661 122.362 7.60527 126.001 14.0242C127.568 15.0846 128.868 16.4483 129.84 18.0504C131.534 18.2589 133.405 18.762 135.262 19.7865C137.637 21.0971 139.768 23.1407 141.421 26.0613C143.218 27.3167 144.618 28.9453 145.616 30.8438C148.21 32.1062 150.459 33.5712 152.182 35.2946C154.304 37.4167 155.8 40.1243 155.8 43.3266C155.8 43.2269 155.801 43.4556 155.801 43.46C155.8 43.5468 155.8 43.6594 155.797 43.7963C155.792 44.0697 155.781 44.4342 155.755 44.8802C155.705 45.7714 155.597 46.9879 155.374 48.4545C154.928 51.3804 154.014 55.3332 152.138 59.6953C148.666 67.8665 141.025 78.9095 125.12 85.9422L125.06 85.969L124.998 85.994C123.089 86.7719 120.436 87.3033 117.385 87.7118C114.236 88.1334 110.308 88.4666 105.645 88.72L105.635 88.7205L105.625 88.721C101.608 88.9218 97.0581 89.1243 92.1941 89.2256L92.1472 89.2266H92.1003C90.7525 89.2266 89.3984 89.2506 87.9848 89.2756L87.9675 89.2759C86.5603 89.3008 85.0963 89.3266 83.6003 89.3266H77.8673C73.9924 89.3266 70.1438 89.3266 66.385 89.2251C62.2221 89.1248 55.097 88.9231 48.2629 88.4666C44.847 88.2384 41.4511 87.9433 38.5072 87.5571C35.6757 87.1857 32.8868 86.686 30.9044 85.9341L30.7912 85.8912L30.6805 85.8422C14.7702 78.807 7.12945 67.7588 3.65883 59.5867M144.8 43.4481C144.72 43.326 144.524 43.0775 144.086 42.7053C143.095 41.8634 141.381 40.8529 138.791 39.7892L136.63 38.9017L136.112 36.6239C135.898 35.6803 135.466 35.1275 134.606 34.7534L133.007 34.0583L132.294 32.4674C131.777 31.3147 131.179 30.3917 130.477 29.7776C129.873 29.2501 129.064 28.8266 127.7 28.8266C126.985 28.8266 126.639 28.839 126.277 28.9195L121.612 29.9561L120.857 25.2376C120.73 24.4473 120.51 23.9076 120.276 23.5583C120.073 23.2557 119.798 22.9961 119.302 22.794L117.632 22.1134L116.894 20.4674C116.377 19.3147 115.779 18.3917 115.077 17.7776C114.473 17.2501 113.664 16.8266 112.3 16.8266C111.177 16.8266 109.572 17.0749 107.454 17.971L101.973 20.2896L101.249 14.4951C101.239 14.4758 101.224 14.449 101.202 14.415C101.107 14.2657 100.933 14.0552 100.664 13.8405C100.116 13.402 99.4119 13.1266 98.7003 13.1266C98.0233 13.1266 95.6021 13.4683 93.3955 19.1546L93.3914 19.1653L93.3872 19.176C91.9056 22.9368 89.8372 26.1966 87.2711 28.9121C86.9225 29.3261 86.5799 29.6592 86.3327 29.8934C86.1912 30.0275 86.0901 30.1213 86.007 30.1986C85.8841 30.3128 85.8002 30.3907 85.6823 30.5086L84.3643 31.8266H77.9003C72.9595 31.8266 68.1235 31.9254 63.4916 32.1225L61.2936 32.2161L46.5206 14.8147C44.8897 16.6508 42.9035 19.5654 41.6059 23.8352L39.2068 31.7289L25.5965 15.6883C25.4239 15.8792 25.2475 16.0819 25.0686 16.2964C23.1226 18.6296 20.8306 22.4199 19.8325 28.1048L19.8289 28.1254L19.8251 28.146C19.4446 30.2006 19.5042 32.4345 19.9251 34.7072L20.5948 38.3235L17.1842 39.6997C14.5348 40.7687 12.774 41.7833 11.7519 42.6392C11.278 43.0361 11.0774 43.297 11.0005 43.4191C11.0006 43.4232 11.0007 43.4275 11.0007 43.4318C11.0028 43.5567 11.0085 43.7651 11.0246 44.0484C11.0567 44.6156 11.1297 45.4785 11.2948 46.5679C11.6258 48.7518 12.3215 51.8092 13.775 55.2064C16.6344 61.8891 22.4849 70.0527 34.7503 75.5354C36.293 76.0414 40.0859 76.6221 45.8762 77.0913C51.62 77.5567 58.7982 77.8786 66.4874 78.0275L66.5047 78.0278L66.5219 78.0283C70.1506 78.1263 73.889 78.1266 77.7003 78.1266H83.4003C86.3144 78.1266 89.0336 78.1261 91.7397 78.0295L91.7722 78.0283L91.8046 78.0276C96.4323 77.9292 100.875 77.7322 104.852 77.5334C108.95 77.2863 112.514 76.9934 115.341 76.6474C118.202 76.2974 119.929 75.9336 120.701 75.6577C133.164 70.1185 139.099 61.9049 141.994 55.2042C143.464 51.8024 144.168 48.7442 144.502 46.5616C144.669 45.4729 144.743 44.611 144.776 44.0449C144.791 43.7754 144.797 43.574 144.8 43.4481ZM144.849 43.5361C144.849 43.5361 144.845 43.5296 144.84 43.5164C144.847 43.5295 144.849 43.5361 144.849 43.5361ZM10.9582 43.4993C10.9582 43.4993 10.9602 43.4915 10.9679 43.4759C10.9628 43.4915 10.9582 43.4993 10.9582 43.4993ZM3.65832 59.5855C1.78509 55.1776 0.872224 51.2034 0.426676 48.2795C0.203517 46.815 0.0964057 45.6063 0.045397 44.7282C0.0198695 44.2888 0.00837918 43.9319 0.00344678 43.667C-0.00148324 43.4023 0.000323018 43.2145 0.000323018 43.2266C0.000323018 37.981 3.80251 34.2663 8.52675 31.6337C8.51272 29.8141 8.6696 28.0385 8.96155 26.2868L8.96416 26.2712L8.96687 26.2556C11.5162 11.5971 20.5411 5.02674 22.6853 3.76832L27.6228 0.80527L31.0009 5.19683L35.7024 10.7341C36.8813 9.01804 38.0855 7.61227 39.187 6.48879C40.2902 5.36355 41.2902 4.52126 42.06 3.93137C42.8326 3.33932 43.4077 2.98004 43.4042 2.98238L43.4933 2.92299L48.3649 0" fill="white"/>
<path d="M78.0003 55.1266C114.562 55.1266 144.2 49.5302 144.2 42.6266C144.2 35.7231 114.562 30.1266 78.0003 30.1266C41.4391 30.1266 11.8003 35.7231 11.8003 42.6266C11.8003 49.5302 41.4391 55.1266 78.0003 55.1266Z" fill="#BC923F"/>
<path d="M78.0003 27.3266C38.5003 27.3266 6.50032 34.4266 6.50032 43.2266C6.50032 52.0266 38.5003 59.1266 78.0003 59.1266C117.5 59.1266 149.5 52.0266 149.5 43.2266C149.5 34.4266 117.4 27.3266 78.0003 27.3266ZM78.0003 55.1266C41.5003 55.1266 11.8003 49.5266 11.8003 42.6266C11.8003 35.7266 41.4003 30.1266 78.0003 30.1266C114.5 30.1266 144.2 35.7266 144.2 42.6266C144.2 49.5266 114.5 55.1266 78.0003 55.1266Z" fill="#DDB250"/>
<path d="M123.7 55.2266C126.4 51.1266 121.2 40.2266 112.1 40.9266C112.9 36.3266 105.2 36.9266 99.5003 37.9266C96.7003 40.9266 93.4003 43.3266 90.1003 45.4266C89.2003 48.3266 86.2003 51.5266 86.2003 51.5266C86.2003 51.5266 99.1003 58.3266 95.8003 63.9266C99.9003 65.6266 99.7003 69.0266 98.6003 71.9266C101.6 71.8266 105 71.6266 108.9 71.2266C118.1 70.2266 124.5 68.9266 129.1 67.4266C129.4 62.7266 129 55.9266 123.7 55.2266Z" fill="#9BE058"/>
<path d="M138.4 48.6266C140.6 43.9266 143.6 33.6266 136.6 30.6266C134.9 26.5266 131.1 21.7266 121.3 25.8266C120.8 21.4266 110.3 15.3266 104.8 29.5266C103.5 32.8266 101.6 35.6266 99.5003 37.9266C105.3 36.8266 112.9 36.2266 112.1 40.9266C121.2 40.2266 126.4 51.2266 123.7 55.2266C129 55.9266 129.4 62.8266 129 67.5266C136.1 65.3266 138.7 62.8266 140.5 61.0266C143.4 58.0266 143.1 50.0266 138.4 48.6266Z" fill="#82D638"/>
<path d="M95.7003 63.9266C99.0003 58.2266 86.1003 51.5266 86.1003 51.5266C86.1003 51.5266 89.2003 48.3266 90.0003 45.4266C85.1003 48.5266 80.3003 51.0266 77.3003 54.2266C70.9003 61.2266 76.1003 67.1266 78.2003 68.4266C79.9003 69.4266 84.5003 72.3266 98.4003 72.0266C99.6003 69.0266 99.8003 65.6266 95.7003 63.9266Z" fill="#E1F492"/>
<path d="M108.3 43.2266C111 39.1266 105.8 28.2266 96.7003 28.9266C97.5003 24.3266 89.8003 24.9266 84.1003 25.9266C81.3003 28.9266 78.0003 31.3266 74.7003 33.4266C73.8003 36.3266 70.8003 39.5266 70.8003 39.5266C70.8003 39.5266 83.7003 46.3266 80.4003 51.9266C84.5003 53.6266 84.3003 57.0266 83.2003 59.9266C86.2003 59.8266 89.6003 59.6266 93.5003 59.2266C102.7 58.2266 109.1 56.9266 113.7 55.4266C114 50.7266 113.6 43.9266 108.3 43.2266Z" fill="#C6EA2F"/>
<path d="M123 36.5266C125.2 31.8266 128.2 21.5266 121.2 18.5266C119.5 14.4266 115.7 9.62664 105.9 13.7266C105.4 9.32664 94.9003 3.22664 89.4003 17.4266C88.1003 20.7266 86.2003 23.5266 84.1003 25.8266C89.9003 24.7266 97.5003 24.1266 96.7003 28.8266C105.8 28.1266 111 39.1266 108.3 43.1266C113.6 43.8266 114 50.7266 113.6 55.4266C120.7 53.2266 123.3 50.7266 125.1 48.9266C128.1 45.9266 127.7 38.0266 123 36.5266Z" fill="#B7E21E"/>
<path d="M80.3003 51.9266C83.6003 46.2266 70.7003 39.5266 70.7003 39.5266C70.7003 39.5266 73.8003 36.3266 74.6003 33.4266C69.7003 36.5266 64.9003 39.0266 61.9003 42.2266C55.5003 49.2266 60.7003 55.1266 62.8003 56.4266C64.5003 57.4266 69.1003 60.3266 83.0003 60.0266C84.2003 57.0266 84.4003 53.6266 80.3003 51.9266Z" fill="#E1F492"/>
<path opacity="0.7" d="M98.7003 21.5266C98.7003 21.5266 92.1003 33.4266 83.7003 37.8266C76.6003 41.5266 67.3003 43.2266 67.3003 43.2266C67.3003 43.2266 80.5003 45.4266 89.9003 37.8266C99.3003 30.2266 98.7003 21.5266 98.7003 21.5266Z" fill="#86DD0B"/>
<path opacity="0.7" d="M113.7 29.4266C113.7 29.4266 103.9 38.7266 95.5003 43.2266C88.4003 46.9266 72.9003 48.5266 72.9003 48.5266C72.9003 48.5266 90.8003 51.1266 100.2 43.5266C109.6 35.9266 113.7 29.4266 113.7 29.4266Z" fill="#86DD0B"/>
<path d="M47.0003 8.42664L80.7003 48.1266C80.7003 48.1266 71.6003 56.8266 57.2003 55.2266C43.3003 53.6266 34.2003 38.9266 36.4003 26.5266C38.6003 13.3266 47.0003 8.42664 47.0003 8.42664Z" fill="#F45A45"/>
<path d="M47.0003 8.42664L47.5003 11.0266C47.5003 11.0266 43.3003 18.0266 42.7003 25.7266C42.1003 33.5266 46.0003 47.1266 59.5003 49.6266C71.6003 51.8266 80.7003 48.1266 80.7003 48.1266L47.0003 8.42664Z" fill="#F97E62"/>
<path d="M55.2003 25.0266C57.4003 23.0266 51.0003 19.0266 48.5003 21.2266C44.6003 24.6266 46.5003 36.2266 52.3003 41.9266C60.2003 49.5266 72.6003 47.0266 74.0003 46.0266C75.4003 45.0266 69.6003 39.4266 64.3003 36.6266C58.7003 33.6266 52.5003 27.5266 55.2003 25.0266Z" fill="#F45A45"/>
<path d="M51.0003 30.7266C52.6019 30.7266 53.9003 30.0998 53.9003 29.3266C53.9003 28.5534 52.6019 27.9266 51.0003 27.9266C49.3987 27.9266 48.1003 28.5534 48.1003 29.3266C48.1003 30.0998 49.3987 30.7266 51.0003 30.7266Z" fill="#F4CE11"/>
<path d="M55.306 38.1567C56.6947 37.3589 57.5083 36.1687 57.1232 35.4983C56.7381 34.8278 55.3001 34.931 53.9113 35.7288C52.5225 36.5266 51.7089 37.7168 52.094 38.3872C52.4792 39.0577 53.9172 38.9545 55.306 38.1567Z" fill="#F4CE11"/>
<path d="M62.0474 41.9714C62.9729 40.6643 63.2117 39.2425 62.5807 38.7957C61.9497 38.3488 60.6879 39.0462 59.7623 40.3533C58.8367 41.6604 58.5979 43.0822 59.2289 43.5291C59.8599 43.9759 61.1218 43.2785 62.0474 41.9714Z" fill="#F4CE11"/>
<path d="M26.1003 9.22663L59.8003 48.9266C59.8003 48.9266 50.7003 57.6266 36.3003 56.0266C22.4003 54.4266 13.3003 39.7266 15.5003 27.3266C17.7003 14.2266 26.1003 9.22663 26.1003 9.22663Z" fill="#F45A45"/>
<path d="M26.1003 9.22663L26.6003 11.8266C26.6003 11.8266 22.4003 18.8266 21.8003 26.5266C21.2003 34.3266 25.1003 47.9266 38.6003 50.4266C50.7003 52.6266 59.8003 48.9266 59.8003 48.9266L26.1003 9.22663Z" fill="#F97E62"/>
<path d="M34.2003 25.9266C36.4003 23.9266 30.0003 19.9266 27.5003 22.1266C23.6003 25.5266 25.5003 37.1266 31.3003 42.8266C39.2003 50.4266 51.6003 47.9266 53.0003 46.9266C54.4003 45.9266 48.6003 40.3266 43.3003 37.5266C37.7003 34.5266 31.5003 28.4266 34.2003 25.9266Z" fill="#F45A45"/>
<path d="M30.1003 31.6266C31.7019 31.6266 33.0003 30.9998 33.0003 30.2266C33.0003 29.4534 31.7019 28.8266 30.1003 28.8266C28.4987 28.8266 27.2003 29.4534 27.2003 30.2266C27.2003 30.9998 28.4987 31.6266 30.1003 31.6266Z" fill="#F4CE11"/>
<path d="M34.4138 39.0305C35.8026 38.2327 36.6162 37.0425 36.231 36.372C35.8459 35.7016 34.4079 35.8048 33.0191 36.6026C31.6303 37.4004 30.8167 38.5906 31.2019 39.261C31.587 39.9315 33.025 39.8282 34.4138 39.0305Z" fill="#F4CE11"/>
<path d="M41.1504 42.8231C42.076 41.516 42.3148 40.0942 41.6838 39.6474C41.0528 39.2005 39.7909 39.8979 38.8654 41.205C37.9398 42.5121 37.701 43.9339 38.332 44.3808C38.963 44.8276 40.2249 44.1302 41.1504 42.8231Z" fill="#F4CE11"/>
<path d="M65.4003 65.2266C65.3003 63.3266 63.9003 61.0266 61.8003 58.6266C55.8003 58.3266 50.2003 57.8266 44.9003 57.2266C49.6003 61.9266 53.3003 66.6266 53.6003 70.1266C54.0003 75.4266 60.7003 79.7266 66.7003 82.6266C72.2003 82.7266 78.0003 82.7266 83.7003 82.7266C76.5003 78.4266 65.7003 71.0266 65.4003 65.2266Z" fill="#D6A94D"/>
<path d="M88.6003 66.7266C88.2003 64.6266 86.5003 61.9266 84.0003 59.0266C82.0003 59.0266 80.0003 59.1266 78.0003 59.1266C76.1003 59.1266 74.3003 59.1266 72.4003 59.0266C75.3003 62.6266 77.5003 66.0266 78.0003 68.4266C79.0003 73.6266 86.5003 79.1266 92.1003 82.5266C96.8003 82.4266 101.3 82.2266 105.3 82.0266C99.3003 78.7266 89.6003 72.4266 88.6003 66.7266Z" fill="#D6A94D"/>
<path d="M149.4 43.2266H144C142.6 49.7266 114.8 54.9266 80.4003 55.2266C79.6003 55.2266 78.8003 55.2266 78.0003 55.2266C74.9003 55.2266 71.9003 55.2266 69.0003 55.1266C65.1003 55.0266 61.3003 54.8266 57.7003 54.6266C51.5003 54.2266 45.6003 53.7266 40.4003 53.0266C23.8003 50.7266 12.8003 47.2266 11.9003 43.2266H6.50031C6.50031 43.2266 6.00031 67.7266 33.4003 79.8266C37.6003 81.4266 51.2003 82.3266 66.7003 82.6266C60.8003 79.8266 54.0003 75.5266 53.6003 70.1266C53.3003 66.6266 49.6003 61.9266 44.9003 57.2266C50.2003 57.8266 55.8003 58.3266 61.8003 58.6266C63.9003 61.0266 65.3003 63.3266 65.4003 65.2266C65.7003 71.0266 76.5003 78.4266 83.6003 82.7266C86.5003 82.7266 89.3003 82.6266 92.1003 82.6266C86.4003 79.2266 79.0003 73.7266 78.0003 68.5266C77.5003 66.1266 75.3003 62.7266 72.4003 59.1266C74.2003 59.1266 76.1003 59.2266 78.0003 59.2266C80.0003 59.2266 82.0003 59.2266 84.0003 59.1266C86.5003 62.0266 88.2003 64.7266 88.6003 66.8266C89.6003 72.6266 99.3003 78.8266 105.3 82.1266C113.5 81.6266 119.9 80.9266 122.6 79.9266C149.9 67.7266 149.4 43.2266 149.4 43.2266Z" fill="#DDB250"/>
</svg>
