<svg width="46" height="46" viewBox="0 0 46 46" fill="none" xmlns="http://www.w3.org/2000/svg">
<rect x="46" width="46" height="46" rx="23" transform="rotate(90 46 0)" fill="#EC7000"/>
<path fill-rule="evenodd" clip-rule="evenodd" d="M23.8926 13.3871C25.9214 15.4182 27.7422 17.6469 29.3279 20.04C30.8035 22.2609 32.0657 24.6164 33.0976 27.075C33.1772 27.2648 33.2112 27.4707 33.1971 27.676C33.1829 27.8814 33.1209 28.0806 33.0159 28.2576C32.911 28.4347 32.7661 28.5848 32.5928 28.6959C32.4195 28.807 32.2226 28.8759 32.0179 28.8973C29.02 29.2099 26.0222 29.3665 23.0244 29.3665C20.0103 29.3665 16.9961 29.2087 13.9813 28.892C13.7806 28.8709 13.5873 28.804 13.4165 28.6964C13.2457 28.5888 13.1018 28.4435 12.996 28.2716C12.8902 28.0997 12.8252 27.9058 12.8061 27.7048C12.787 27.5038 12.8143 27.3012 12.8859 27.1124C14.0368 24.0731 15.3164 21.4936 16.7215 19.3739C18.1617 17.2023 19.9524 15.1854 22.0931 13.324C22.3453 13.1046 22.6713 12.9891 23.0053 13.0008C23.3393 13.0125 23.6565 13.1506 23.8926 13.3871V13.3871Z" fill="white"/>
</svg>
