<svg width="46" height="46" viewBox="0 0 46 46" fill="none" xmlns="http://www.w3.org/2000/svg">
<rect width="46" height="46" rx="23" fill="#EC7000"/>
<path fill-rule="evenodd" clip-rule="evenodd" d="M13.3871 22.1074C15.4182 20.0786 17.6469 18.2578 20.04 16.6721C22.2609 15.1965 24.6164 13.9343 27.075 12.9024C27.2648 12.8228 27.4707 12.7888 27.676 12.8029C27.8814 12.8171 28.0806 12.8791 28.2576 12.9841C28.4347 13.089 28.5848 13.2339 28.6959 13.4072C28.807 13.5805 28.8759 13.7774 28.8973 13.9821C29.2099 16.98 29.3665 19.9778 29.3665 22.9756C29.3665 25.9897 29.2087 29.0039 28.892 32.0187C28.8709 32.2194 28.804 32.4127 28.6964 32.5835C28.5889 32.7543 28.4435 32.8982 28.2716 33.004C28.0997 33.1098 27.9058 33.1748 27.7048 33.1939C27.5038 33.213 27.3012 33.1857 27.1124 33.1141C24.0731 31.9632 21.4936 30.6836 19.374 29.2785C17.2023 27.8383 15.1854 26.0476 13.324 23.9069C13.1046 23.6547 12.9891 23.3287 13.0008 22.9947C13.0125 22.6607 13.1506 22.3435 13.3871 22.1074Z" fill="white"/>
</svg>
