<svg width="46" height="46" viewBox="0 0 46 46" fill="none" xmlns="http://www.w3.org/2000/svg">
<rect width="46" height="46" rx="23" transform="matrix(-4.37114e-08 -1 -1 4.37114e-08 46 46)" fill="#EC7000"/>
<path fill-rule="evenodd" clip-rule="evenodd" d="M23.8926 32.6129C25.9214 30.5818 27.7422 28.3531 29.3279 25.96C30.8035 23.7391 32.0657 21.3836 33.0976 18.925C33.1772 18.7352 33.2112 18.5293 33.1971 18.324C33.1829 18.1186 33.1209 17.9194 33.0159 17.7424C32.911 17.5653 32.7661 17.4152 32.5928 17.3041C32.4195 17.193 32.2226 17.1241 32.0179 17.1027C29.02 16.7901 26.0222 16.6335 23.0244 16.6335C20.0103 16.6335 16.9961 16.7913 13.9813 17.108C13.7806 17.1291 13.5873 17.196 13.4165 17.3036C13.2457 17.4112 13.1018 17.5565 12.996 17.7284C12.8902 17.9003 12.8252 18.0942 12.8061 18.2952C12.787 18.4962 12.8143 18.6988 12.8859 18.8876C14.0368 21.9269 15.3164 24.5064 16.7215 26.6261C18.1617 28.7977 19.9524 30.8146 22.0931 32.676C22.3453 32.8954 22.6713 33.0109 23.0053 32.9992C23.3393 32.9875 23.6565 32.8494 23.8926 32.6129V32.6129Z" fill="white"/>
</svg>
