<svg width="46" height="46" viewBox="0 0 46 46" fill="none" xmlns="http://www.w3.org/2000/svg">
<rect width="46" height="46" rx="23" transform="matrix(-1 0 0 1 46 0)" fill="#EC7000"/>
<path fill-rule="evenodd" clip-rule="evenodd" d="M32.6129 22.1074C30.5818 20.0786 28.3531 18.2578 25.96 16.6721C23.7391 15.1965 21.3836 13.9343 18.925 12.9024C18.7352 12.8228 18.5293 12.7888 18.324 12.8029C18.1186 12.8171 17.9194 12.8791 17.7424 12.9841C17.5653 13.089 17.4152 13.2339 17.3041 13.4072C17.193 13.5805 17.1241 13.7774 17.1027 13.9821C16.7901 16.98 16.6335 19.9778 16.6335 22.9756C16.6335 25.9897 16.7913 29.0039 17.108 32.0187C17.1291 32.2194 17.196 32.4127 17.3036 32.5835C17.4111 32.7543 17.5565 32.8982 17.7284 33.004C17.9003 33.1098 18.0942 33.1748 18.2952 33.1939C18.4962 33.213 18.6988 33.1857 18.8876 33.1141C21.9269 31.9632 24.5064 30.6836 26.626 29.2785C28.7977 27.8383 30.8146 26.0476 32.676 23.9069C32.8954 23.6547 33.0109 23.3287 32.9992 22.9947C32.9875 22.6607 32.8494 22.3435 32.6129 22.1074Z" fill="white"/>
</svg>
