<svg width="160" height="116" viewBox="0 0 160 116" fill="none" xmlns="http://www.w3.org/2000/svg">
<path d="M32.1 31.2L34.9 41.8L39.9 42.9C43.7 41.5 47.7 40.4 51.4 39.9C52.4 39.7 53.4 39.7 54.5 39.7C65 39.7 77.4 46.9 95 48.2C114.4 49.6 146.6 47.3 151.1 55.4C152.4 57.7 153.3 60.4 153.8 63.3C154.1 65.1 154.3 66.9 154.3 68.8C154.3 68.9 154.3 69 154.3 69.1C154.3 70.3 154.2 71.6 154.1 72.8C154.1 73 154 73.3 154 73.5C154 73.8 153.9 74.1 153.9 74.4C153.8 74.7 153.8 75.1 153.7 75.4C153.6 75.7 153.6 76.1 153.5 76.4C153.4 76.8 153.3 77.2 153.2 77.6C153.1 77.8 153.1 78 153 78.2C152.9 78.6 152.7 79 152.6 79.3C152.5 79.5 152.5 79.6 152.4 79.8C152.2 80.3 152 80.8 151.7 81.3C151.6 81.4 151.6 81.6 151.5 81.7C151.3 82.1 151.1 82.5 150.9 82.9C150.8 83 150.7 83.2 150.7 83.3C150.4 83.8 150.1 84.2 149.8 84.7C148.9 86 147.6 87.5 146 89.3C145.4 90 144.7 90.7 143.9 91.5C142.4 93 140.6 94.6 138.5 96.1C137.5 96.9 136.4 97.7 135.2 98.4C134.2 99 133.2 99.7 132.1 100.3C131.5 100.6 130.9 101 130.3 101.3C129.6 101.7 128.9 102 128.2 102.4C127.6 102.7 127 103 126.4 103.2C117.5 107.2 105.9 110.1 90.6 110.1C86.6 110.1 82.4 109.9 77.9 109.5C77.8 109.5 77.8 109.5 77.7 109.5C30.5 104.9 25.6 82.5 24 73.3C24 73.3 22.4 61.3 24 54.7C24.5 52.7 26.1 50.8 28.5 49L28.4 48.8L17.4 44.9L27.5 41.8L32.1 31.2ZM32.6 25L30.3 30.3L26 40.1L16.8 42.9L11 44.8L16.7 46.8L24.6 49.6C23.2 51.1 22.3 52.7 21.9 54.2C20.3 61.1 21.8 73 21.9 73.5C22.6 77.7 24.2 86.4 32.2 94.4C41.4 103.6 56.6 109.3 77.4 111.4H77.5H77.6C82 111.8 86.4 112 90.5 112C104.3 112 116.7 109.6 127.2 104.9C127.8 104.6 128.4 104.3 129 104C129.7 103.6 130.5 103.3 131.1 102.9C131.8 102.6 132.4 102.2 133 101.9C134.2 101.2 135.2 100.6 136.2 100C137.4 99.2 138.5 98.4 139.6 97.6C141.6 96.1 143.4 94.5 145.2 92.8C145.9 92.1 146.7 91.3 147.4 90.5C148.8 89 150 87.5 151.3 85.8C151.6 85.4 152 84.9 152.3 84.3C152.4 84.2 152.5 84 152.5 83.9C152.8 83.4 153 83 153.2 82.6L153.3 82.5C153.4 82.4 153.4 82.3 153.4 82.2C153.7 81.7 153.9 81.1 154.1 80.5C154.1 80.4 154.2 80.3 154.2 80.1L154.3 79.9C154.5 79.5 154.6 79.1 154.7 78.7C154.8 78.5 154.8 78.2 154.9 78C155 77.6 155.1 77.2 155.2 76.7C155.3 76.4 155.4 76 155.4 75.6C155.5 75.2 155.5 74.9 155.6 74.5C155.7 74.2 155.7 73.8 155.8 73.5C155.8 73.2 155.9 73 155.9 72.8C156 71.5 156.1 70.2 156.1 68.9V68.8V68.6C156.1 66.6 155.9 64.7 155.6 62.8C155 59.6 154 56.7 152.7 54.3C149.1 47.9 134.4 47.2 112.4 46.7C106.1 46.7 100.1 46.6 95 46.2C85.9 45.5 78.2 43.2 71.4 41.2C65.1 39.3 59.6 37.7 54.4 37.7C53.2 37.7 52.1 37.8 51 37.9C47.4 38.5 43.5 39.5 39.7 40.8L36.5 40.1L34.1 30.7L32.6 25Z" stroke="white" stroke-width="7"/>
<path d="M49.4 18.1L51.2 25.1L58 26.6L51 29.7L49.4 36.7L46.9 29.6L39.8 27.1L46.4 25.1L49.4 18.1ZM49.9 12L47.6 17.3L44.9 23.4L39.2 25.1L33.4 26.9L39.1 28.9L45.3 31.1L47.5 37.3L49.8 43.7L51.3 37.1L52.7 31.1L58.7 28.4L64.3 25.9L58.3 24.6L52.7 23.4L51.2 17.6L49.9 12Z" stroke="white" stroke-width="7"/>
<path d="M126.8 23L129 31.7L137.5 33.6L128.8 37.4L126.8 46.1L123.7 37.3L114.9 34.2L123.1 31.7L126.8 23ZM127.3 16.9L125 22.2L121.6 30L114.3 32.2L108.5 34L114.2 36L122.1 38.8L124.9 46.7L127.2 53.1L128.7 46.5L130.5 38.8L138.2 35.4L143.8 32.9L137.8 31.6L130.5 30L128.6 22.5L127.3 16.9Z" stroke="white" stroke-width="7"/>
<path d="M23.8 73.3C28.1 81.7 30.3 105 77.7 109.6C125.1 114.2 143.6 92.8 149.5 84.8C155.4 76.8 155.4 63.5 150.9 55.5C146.4 47.5 114.2 49.8 94.8 48.3C75.4 46.9 62.4 38.3 51.2 40C40.1 41.6 25.4 48.1 23.8 54.7C22.2 61.3 23.8 73.3 23.8 73.3Z" fill="#7C4E2E"/>
<path d="M116.9 92.6C98.9 98.3 60.9 96.4 42.4 85.7C23.9 75 23.4 57.7 23.4 57.7C22.8 63.9 23.9 73.2 23.9 73.2C25.6 82.4 30.4 104.9 77.8 109.5C125.1 114.1 143.7 92.7 149.6 84.7C153.9 79 155 70.5 153.7 63.3C149.9 75.3 135.6 86.7 116.9 92.6Z" fill="#935C37"/>
<path d="M90.1 56.1C100.5 53.8 145.8 45.9 145.7 63C145.6 80.1 117.9 92 96 92C74.1 92 52.7 64.5 90.1 56.1Z" fill="#72482A"/>
<path opacity="0.6" d="M55.7 45.1C61 45.6 98.5 49 98.5 57.8C98.5 66.6 78.2 82.3 61.1 82.3C44 82.3 26.5 61.2 31.2 54C35.9 46.8 47.7 44.3 55.7 45.1Z" fill="#663E22"/>
<path opacity="0.4" d="M125.8 69.1C119.7 65.3 115.9 61.9 122.2 58.9C128.9 55.7 146.2 57.4 146.7 64.2C146.9 67.5 130.6 72.1 125.8 69.1Z" fill="#E5BCA5"/>
<path opacity="0.4" d="M115.7 74.9C111.9 72.6 111.5 66.8 117 68.3C122.8 69.8 127.2 72.5 123.8 76.7C122.3 78.7 119.5 77.1 115.7 74.9Z" fill="#E5BCA5"/>
<path d="M99.7 52.7C99.7 52.7 66.1 61.6 42.1 75.3C76.6 63.7 100 52.5 99.7 52.7Z" fill="#422715"/>
<path d="M76.2 46.9C76.2 46.9 56.2 51.3 32.1 65C66.7 53.4 76.5 46.8 76.2 46.9Z" fill="#422715"/>
<path d="M126.1 55.8C126.1 55.8 85.4 69.5 61.2 83.5C93.7 73.1 126.1 55.8 126.1 55.8Z" fill="#422715"/>
<path d="M145.2 61.9C145.2 61.9 110.2 75.3 85.5 88.4C119.5 78.7 145.2 61.9 145.2 61.9Z" fill="#422715"/>
<path d="M145.2 71.9C145.2 71.9 73.4 49.6 47.8 45.4C81.9 58.8 145.2 71.9 145.2 71.9Z" fill="#422715"/>
<path d="M137 80.3C137 80.3 60 53.9 34.4 49.7C68.5 63.1 137 80.3 137 80.3Z" fill="#422715"/>
<path d="M123.1 87C123.1 87 57.8 62.8 32.2 58.6C66.3 72 123.1 87 123.1 87Z" fill="#422715"/>
<path opacity="0.2" d="M73.6 80.9C78.5 82.4 81.3 77.6 85.2 77.4C89.1 77.2 91.1 82 97.1 79.8C103.1 77.6 100.7 69.8 103.3 67.7C105.9 65.6 116.2 62.9 115.2 59.8C114.3 56.7 108.2 53.7 102.6 54.3C97 54.9 97.7 51.2 93.8 51.2C89.8 51.2 88.5 53.6 85 53.6C81.5 53.6 74.4 50.6 69.1 53.7C63.8 56.8 69 60.3 67.8 62.5C66.6 64.6 53.3 62 53.3 68.4C53.3 74.8 62.5 72 65 75.2C67.5 78.4 69.8 79.8 73.6 80.9Z" fill="#F9E382"/>
<path d="M67.1 68.3L67.2 67.9C67.3 67.6 67.5 67.3 67.7 67.1L78.3 57.5C78.6 57.2 79.1 57 79.6 57.1L100 59.1C100.5 59.1 100.9 59.4 101.2 59.8C101.6 60.4 101.5 61.3 101 61.8L91.5 71.9C91.2 72.3 90.7 72.5 90.1 72.4L68.4 70.4C67.5 70.3 66.8 69.3 67.1 68.3Z" fill="#F9E382"/>
<path d="M81.1 59.5C79.2 58.3 71.5 64.7 73.1 66.1C74.8 67.5 83 60.6 81.1 59.5Z" fill="#FCF6DB"/>
<path opacity="0.8" d="M49.4 18.1L46.4 25.1L39.8 27.1L46.9 29.6L49.4 36.6L51.1 29.6L58 26.6L51.2 25.1L49.4 18.1Z" fill="#FFD731"/>
<path opacity="0.8" d="M32.1 31.2L27.5 41.8L17.4 44.9L28.3 48.7L32.1 59.6L34.6 48.8L45.3 44.1L34.9 41.8L32.1 31.2Z" fill="#FFD731"/>
<path opacity="0.8" d="M126.8 23L123 31.7L114.8 34.2L123.6 37.3L126.8 46.1L128.8 37.3L137.5 33.5L129 31.7L126.8 23Z" fill="#FFD731"/>
<path opacity="0.8" d="M140.7 71.2L137.7 78L131.3 80L138.2 82.5L140.7 89.4L142.4 82.5L149.2 79.5L142.5 78L140.7 71.2Z" fill="#FFD731"/>
</svg>
