<svg width="355" height="371" viewBox="0 0 355 371" fill="none" xmlns="http://www.w3.org/2000/svg">
<path d="M195.19 132.387C195.19 132.387 212.14 68.7473 261.38 88.3873C267.046 90.1895 272.524 92.5337 277.74 95.3872C287.2 100.707 282.25 115.387 271.54 113.617C267.843 113.038 264.264 111.866 260.94 110.147C260.94 110.147 266.59 114.057 269.51 118.717C269.902 119.365 270.136 120.095 270.192 120.85C270.249 121.605 270.125 122.363 269.833 123.061C269.54 123.759 269.087 124.378 268.509 124.868C267.932 125.357 267.247 125.703 266.51 125.877C260.9 127.257 251.51 128.587 245.44 124.057C245.44 124.057 250.03 132.127 249.27 135.417C249.021 136.531 248.463 137.551 247.66 138.361C246.857 139.172 245.841 139.739 244.73 139.997C243.811 140.217 242.879 140.377 241.94 140.477C232.796 141.483 224.094 144.937 216.75 150.477C211.06 154.677 203.41 153.347 195.19 132.387Z" fill="#054C77"/>
<path d="M211.41 150.257C211.41 150.257 278.08 77.9972 329.47 138.177C329.47 138.177 365.28 173.407 351.62 190.547C351.62 190.547 327.09 185.997 313.77 166.547C313.77 166.547 318.49 175.637 319.12 183.817C319.191 184.952 318.991 186.088 318.538 187.13C318.084 188.173 317.389 189.093 316.51 189.814C315.632 190.536 314.594 191.039 313.483 191.281C312.372 191.523 311.219 191.498 310.12 191.207C301.73 189.127 288.36 184.317 283.56 174.147C283.56 174.147 284.01 188.007 280.71 191.827C279.609 193.113 278.171 194.065 276.558 194.575C274.944 195.086 273.22 195.135 271.58 194.717C265.08 193.037 254.99 188.377 251.42 175.517C251.47 175.567 203.73 219.557 211.41 150.257Z" fill="url(#paint0_linear_31_1512)"/>
<path d="M143.38 284.677C115.25 279.937 95.98 294.467 118.1 331.127C141.48 366.517 125.36 369.987 140.85 369.677C156.34 369.367 160.58 326.997 160.58 326.997C160.58 326.997 170.18 289.187 143.38 284.677Z" fill="url(#paint1_linear_31_1512)"/>
<path d="M86.63 55.9973C75.63 66.6573 81.05 82.2973 84.01 85.4273C93.07 82.4273 114.32 75.3273 114.32 75.3273C114.32 75.3273 115.36 62.9973 106.13 55.9973C96.9 48.9973 88.55 54.1473 86.63 55.9973Z" fill="#7C1D72"/>
<path d="M85.23 81.2572C85.23 81.2572 82.1 65.4172 92.9 64.3672C103.7 63.3172 107.18 69.9372 107.35 76.2072C92.02 79.5172 85.23 81.2572 85.23 81.2572Z" fill="#E2AC33"/>
<path d="M127.5 73.9372C127.34 64.6672 127.81 55.7372 122.05 41.0472C112.25 16.1572 93.37 33.2272 92.19 20.8972C91 9.89723 116.44 11.7372 125.52 35.0372C134.6 58.3372 131.68 75.5672 131.68 75.5672L127.5 73.9372Z" fill="url(#paint2_linear_31_1512)"/>
<path d="M136.73 73.9372C136.73 73.9372 141.79 56.1372 136.41 33.4572C128.04 -0.0327682 107.06 18.4572 105.29 6.36723C105.37 -2.87277 129.23 -6.43277 140.13 26.9072C148.9 55.1072 138.86 76.7472 138.86 76.7472L136.73 73.9372Z" fill="url(#paint3_linear_31_1512)"/>
<path d="M116.14 213.607C107.92 208.177 99.19 223.997 90.94 232.097C82.69 240.197 66.04 255.307 75.94 264.017C85.84 272.727 104.19 254.697 109.77 244.157C115.35 233.617 123.73 218.647 116.14 213.607Z" fill="url(#paint4_linear_31_1512)"/>
<path d="M280.04 266.317C255.04 284.807 240.23 290.207 215.74 292.887L214.32 300.317C214.32 300.317 242.44 318.317 253.32 306.007C256.48 302.207 252.53 298.417 252.53 298.417C261.23 302.056 270.875 302.779 280.02 300.477C290.63 297.787 298.05 290.997 290.63 284.997C303.11 283.817 325.07 273.307 315.27 259.717C322.027 254.336 327.124 247.153 329.97 238.997C334.71 225.407 330.13 216.557 326.97 215.447C317.8 212.787 317.01 238.997 280.04 266.317Z" fill="url(#paint5_linear_31_1512)"/>
<path d="M286.73 288.737C289.05 285.817 282.13 281.257 276.9 284.147C271.67 287.037 279.95 297.257 286.73 288.737Z" fill="#FCCB4F"/>
<path d="M273.41 293.917C274.55 292.917 270.18 284.377 265.84 288.427C261.5 292.477 268.87 297.767 273.41 293.917Z" fill="#FCCB4F"/>
<path d="M279.13 297.697C280.13 297.207 277.69 292.697 275.13 294.147C272.57 295.597 275.66 299.347 279.13 297.697Z" fill="#FCCB4F"/>
<path d="M312.12 268.317C314.44 265.387 307.52 260.827 302.29 263.717C297.06 266.607 305.37 276.827 312.12 268.317Z" fill="#FCCB4F"/>
<path d="M298.83 273.497C299.97 272.497 295.59 263.947 291.26 267.997C286.93 272.047 294.28 277.347 298.83 273.497Z" fill="#FCCB4F"/>
<path d="M304.54 277.277C305.54 276.777 303.1 272.277 300.54 273.727C297.98 275.177 301.07 278.927 304.54 277.277Z" fill="#FCCB4F"/>
<path d="M325.09 232.237C324.65 228.527 316.54 230.237 314.9 235.947C313.26 241.657 326.36 242.997 325.09 232.237Z" fill="#FCCB4F"/>
<path d="M319.38 245.297C319.5 243.817 310.38 240.857 310.14 246.787C309.9 252.717 318.89 251.237 319.38 245.297Z" fill="#FCCB4F"/>
<path d="M326.09 243.917C326.45 242.857 321.54 241.417 320.73 244.277C319.92 247.137 324.81 247.547 326.09 243.917Z" fill="#FCCB4F"/>
<path d="M222.89 176.507C189.19 64.9072 132.07 67.9372 107.23 70.1872C86.37 72.7172 60.03 86.8672 31.83 121.307C7.50001 135.527 2.13 142.797 2.13 142.797C2.13 142.797 -4.82 155.747 47.63 172.797C96.93 189.857 96.21 189.937 96.85 242.707C92.98 296.707 115.57 323.517 168.16 331.107C227.53 332.997 254.73 268.517 222.89 176.507Z" fill="#A1227C"/>
<path d="M168.16 331.127C115.57 323.537 92.98 296.757 96.85 242.727C96.21 189.957 96.93 189.877 47.63 172.817C-4.82001 155.747 2.12999 142.817 2.12999 142.817C2.12999 142.817 7.5 142.157 28.99 147.817C50.48 153.477 110.83 125.157 140.53 212.497C152.02 298.737 214.79 330.497 168.81 331.127H168.16Z" fill="#FCD637"/>
<path d="M199.31 268.237C165.49 281.517 151.12 296.857 167.55 330.497C181.29 358.617 172.38 370.627 183.67 370.937C199.15 371.367 207.39 351.117 225.85 304.577C244.81 253.707 199.31 268.237 199.31 268.237Z" fill="url(#paint6_linear_31_1512)"/>
<path d="M197.73 118.117C195.52 114.417 191.66 108.897 187.48 103.037C187.48 103.037 157.35 131.177 161.3 136.627C165.25 142.077 178.06 139.647 197.73 118.117Z" fill="#FCD637"/>
<path d="M206.99 134.997C208.99 138.997 210.99 143.427 212.89 148.137C212.89 148.137 183.51 173.137 176.16 165.787C168.81 158.437 206.99 134.997 206.99 134.997Z" fill="#FCD637"/>
<path d="M231.57 206.997C230.72 202.997 229.57 198.607 228.4 194.177C228.4 194.177 198.2 201.047 192.99 219.297C195.36 223.127 215.73 220.997 231.57 206.997Z" fill="#FCD637"/>
<path d="M234.92 225.997C235.11 226.557 236.36 239.147 236.15 240.427C235.87 240.677 208.63 260.797 201.04 252.977C193.45 245.157 234.89 225.727 234.92 225.997Z" fill="#FCD637"/>
<path d="M235.24 266.317C235.24 267.927 233.24 278.697 232.49 280.317C231.74 281.937 201.55 295.837 199.99 288.497C198.43 281.157 235.24 266.317 235.24 266.317Z" fill="#FCD637"/>
<path d="M8.47999 155.487C9.26596 156.188 10.2333 156.653 11.2714 156.83C12.3094 157.007 13.3763 156.888 14.35 156.487C18.69 154.737 26.35 150.717 28.53 143.417C29.7 138.067 24.05 135.417 13.42 134.987C5.54 134.987 -0.0100193 134.077 -1.90735e-05 140.737C0.0396404 143.228 0.788946 145.657 2.15998 147.737C3.91072 150.591 6.03633 153.198 8.47999 155.487Z" fill="#0355A5"/>
<path d="M168.81 217.997C160.3 212.387 151.28 228.747 142.74 237.117C134.2 245.487 116.99 261.117 127.26 270.117C137.53 279.117 156.48 260.477 162.26 249.577C168.04 238.677 176.73 223.217 168.81 217.997Z" fill="url(#paint7_linear_31_1512)"/>
<path d="M25.85 164.237L35.8 168.627C35.8 168.627 45.64 168.867 52.98 161.927C58.91 156.187 62.23 150.527 60.68 149.267C59.13 148.007 58.85 150.267 58.14 151.207C57.43 152.147 51.73 161.697 41.73 164.477C36.4544 165.191 31.1016 165.11 25.85 164.237Z" fill="#662366"/>
<path d="M40.38 116.997C40.38 116.997 36.87 127.147 93.63 89.7672C122.22 72.2372 152.9 86.5572 152.9 86.5572C152.9 86.5572 152.9 81.1773 155.96 77.4373C142.43 69.8873 103.16 59.8372 72.83 89.3772C62.64 99.6072 40.38 116.997 40.38 116.997Z" fill="url(#paint8_linear_31_1512)"/>
<path d="M132.98 107.627C132.98 107.627 122.42 99.6272 109.33 100.097C106.052 100.248 102.876 101.285 100.14 103.097C94.45 106.787 84.61 114.807 84.57 126.097C84.5639 127.242 84.8466 128.37 85.3919 129.377C85.9373 130.384 86.7276 131.237 87.69 131.857C91.35 134.217 98.87 137.147 112.01 134.727C116.096 133.967 119.898 132.111 123.01 129.357C128.77 124.257 137.01 115.157 133.01 107.627H132.98Z" fill="#B2F7F5"/>
<path d="M100.15 131.957C96.7369 131.957 93.97 125.725 93.97 118.037C93.97 110.349 96.7369 104.117 100.15 104.117C103.563 104.117 106.33 110.349 106.33 118.037C106.33 125.725 103.563 131.957 100.15 131.957Z" fill="#04457A"/>
<path d="M106.96 122.677C103.547 122.677 100.78 120.6 100.78 118.037C100.78 115.475 103.547 113.397 106.96 113.397C110.373 113.397 113.14 115.475 113.14 118.037C113.14 120.6 110.373 122.677 106.96 122.677Z" fill="white"/>
<path d="M178.9 63.2573C165.62 60.3273 150.32 67.0473 148.43 88.0473C146.54 109.047 151.27 116.687 165.62 115.927C182 115.067 197.62 105.427 196.46 85.1173C195.3 64.8073 178.9 63.2573 178.9 63.2573Z" fill="#A1227C"/>
<path d="M153.27 98.7772C153.593 96.445 154.222 94.1654 155.14 91.9972C161 77.7072 169.34 73.9172 179.24 78.5672C179.24 78.5672 187.16 81.1472 185.24 96.1272C183.72 108.127 174.68 111.507 167.96 112.467L153.27 98.7772Z" fill="#FCCB4F"/>
<defs>
<linearGradient id="paint0_linear_31_1512" x1="283.799" y1="216.113" x2="279.682" y2="64.2098" gradientUnits="userSpaceOnUse">
<stop stop-color="#CAE6CA"/>
<stop offset="0.71" stop-color="#036DB8"/>
</linearGradient>
<linearGradient id="paint1_linear_31_1512" x1="139.19" y1="362.297" x2="133.17" y2="276.217" gradientUnits="userSpaceOnUse">
<stop stop-color="#4B1860"/>
<stop offset="0.04" stop-color="#4F1861"/>
<stop offset="0.41" stop-color="#681B6A"/>
<stop offset="0.73" stop-color="#771C70"/>
<stop offset="1" stop-color="#7C1D72"/>
</linearGradient>
<linearGradient id="paint2_linear_31_1512" x1="112.14" y1="75.5672" x2="112.14" y2="14.4072" gradientUnits="userSpaceOnUse">
<stop stop-color="#4E2850"/>
<stop offset="0.19" stop-color="#522750"/>
<stop offset="0.36" stop-color="#5C2651"/>
<stop offset="0.53" stop-color="#6F2352"/>
<stop offset="0.69" stop-color="#881F54"/>
<stop offset="0.84" stop-color="#AA1A57"/>
<stop offset="0.99" stop-color="#D2145A"/>
<stop offset="1" stop-color="#D4145A"/>
</linearGradient>
<linearGradient id="paint3_linear_31_1512" x1="124.52" y1="76.7472" x2="124.52" y2="-0.00276767" gradientUnits="userSpaceOnUse">
<stop offset="0.01" stop-color="#7C1D72"/>
<stop offset="0.19" stop-color="#811C71"/>
<stop offset="0.42" stop-color="#901B6C"/>
<stop offset="0.68" stop-color="#A91866"/>
<stop offset="0.94" stop-color="#CC155C"/>
<stop offset="1" stop-color="#D4145A"/>
</linearGradient>
<linearGradient id="paint4_linear_31_1512" x1="67.13" y1="278.187" x2="110.29" y2="225.667" gradientUnits="userSpaceOnUse">
<stop stop-color="#CA236C"/>
<stop offset="0.03" stop-color="#BC2469"/>
<stop offset="0.11" stop-color="#952560"/>
<stop offset="0.19" stop-color="#762659"/>
<stop offset="0.27" stop-color="#602754"/>
<stop offset="0.35" stop-color="#532851"/>
<stop offset="0.41" stop-color="#4E2850"/>
<stop offset="0.45" stop-color="#572755"/>
<stop offset="0.6" stop-color="#772566"/>
<stop offset="0.75" stop-color="#8E2372"/>
<stop offset="0.88" stop-color="#9C2279"/>
<stop offset="1" stop-color="#A1227C"/>
</linearGradient>
<linearGradient id="paint5_linear_31_1512" x1="215.43" y1="288.207" x2="377.65" y2="231.867" gradientUnits="userSpaceOnUse">
<stop stop-color="#4B1860"/>
<stop offset="0.15" stop-color="#591B6C"/>
<stop offset="0.41" stop-color="#7C228B"/>
<stop offset="0.55" stop-color="#A1227C"/>
<stop offset="0.59" stop-color="#AA2278"/>
<stop offset="0.73" stop-color="#CA236C"/>
</linearGradient>
<linearGradient id="paint6_linear_31_1512" x1="200.22" y1="360.947" x2="193.07" y2="258.647" gradientUnits="userSpaceOnUse">
<stop stop-color="#4B1860"/>
<stop offset="0.04" stop-color="#511962"/>
<stop offset="0.31" stop-color="#741D6D"/>
<stop offset="0.57" stop-color="#8D2075"/>
<stop offset="0.81" stop-color="#9C217A"/>
<stop offset="1" stop-color="#A1227C"/>
</linearGradient>
<linearGradient id="paint7_linear_31_1512" x1="122.3" y1="279.697" x2="175.82" y2="214.587" gradientUnits="userSpaceOnUse">
<stop stop-color="#CA236C"/>
<stop offset="0.03" stop-color="#BC2469"/>
<stop offset="0.11" stop-color="#952560"/>
<stop offset="0.19" stop-color="#762659"/>
<stop offset="0.27" stop-color="#602754"/>
<stop offset="0.35" stop-color="#532851"/>
<stop offset="0.41" stop-color="#4E2850"/>
<stop offset="0.45" stop-color="#572755"/>
<stop offset="0.6" stop-color="#772566"/>
<stop offset="0.75" stop-color="#8E2372"/>
<stop offset="0.88" stop-color="#9C2279"/>
<stop offset="1" stop-color="#A1227C"/>
</linearGradient>
<linearGradient id="paint8_linear_31_1512" x1="114.75" y1="75.9572" x2="30.02" y2="196.957" gradientUnits="userSpaceOnUse">
<stop stop-color="#EFC940"/>
<stop offset="0.2" stop-color="#D38E55"/>
<stop offset="0.39" stop-color="#BE5F66"/>
<stop offset="0.55" stop-color="#AE3E72"/>
<stop offset="0.68" stop-color="#A42979"/>
<stop offset="0.77" stop-color="#A1227C"/>
</linearGradient>
</defs>
</svg>
