<svg width="383" height="369" viewBox="0 0 383 369" fill="none" xmlns="http://www.w3.org/2000/svg">
<path d="M227.111 157.949C227.111 157.949 231.953 96.3512 280.748 106.105C286.285 106.805 291.741 108.037 297.041 109.783C306.679 113.084 304.602 127.47 294.413 127.657C290.902 127.75 287.398 127.277 284.037 126.256C284.037 126.256 289.918 128.904 293.405 132.707C293.877 133.238 294.217 133.872 294.397 134.559C294.577 135.246 294.592 135.966 294.441 136.66C294.289 137.354 293.975 138.002 293.525 138.552C293.075 139.102 292.502 139.537 291.851 139.823C286.906 142.05 278.463 144.872 272.089 141.724C272.089 141.724 277.697 148.39 277.555 151.555C277.514 152.624 277.172 153.661 276.568 154.545C275.964 155.429 275.123 156.125 274.141 156.552C273.33 156.911 272.497 157.217 271.646 157.469C263.375 159.95 255.927 164.617 250.088 170.976C245.548 175.818 238.259 175.891 227.111 157.949Z" fill="#054C77"/>
<path d="M245.121 171.68C245.121 171.68 294.402 93.6807 352.067 140.473C352.067 140.473 391.111 166.893 381.41 185.028C381.41 185.028 357.991 184.999 342.39 169.317C342.39 169.317 348.291 176.901 350.262 184.342C350.52 185.377 350.529 186.458 350.287 187.497C350.045 188.536 349.56 189.503 348.871 190.318C348.183 191.133 347.31 191.773 346.325 192.186C345.341 192.598 344.272 192.77 343.208 192.689C335.109 192.196 321.948 190.03 315.79 181.462C315.79 181.462 318.559 194.174 316.161 198.259C315.363 199.632 314.197 200.755 312.794 201.5C311.391 202.246 309.807 202.584 308.222 202.477C301.936 202.031 291.829 199.446 286.349 188.188C286.404 188.225 249.799 236.925 245.121 171.68Z" fill="url(#paint0_linear_86_17828)"/>
<path d="M155.951 284.201C140.391 262.406 117.957 259.286 108.377 298.303C100.477 337.311 87.4623 328.931 97.9648 338.992C108.467 349.054 139.352 323.716 139.352 323.716C139.352 323.716 170.779 304.961 155.951 284.201Z" fill="url(#paint1_linear_86_17828)"/>
<path d="M168.866 43.7033C156.1 50.3115 156.753 65.8276 158.57 69.4391C167.525 69.1897 188.546 68.5476 188.546 68.5476C188.546 68.5476 192.808 57.7497 186.398 48.9682C179.988 40.1866 171.091 42.5595 168.866 43.7033Z" fill="#7C1D72"/>
<path d="M160.792 66.0217C160.792 66.0217 162.251 50.9442 172.245 52.9167C182.238 54.8892 183.581 61.7769 182.042 67.4564C167.366 66.2915 160.792 66.0217 160.792 66.0217Z" fill="#E2AC33"/>
<path d="M200.771 70.8571C203.129 62.4847 205.961 54.5879 204.745 39.8337C202.65 14.8239 181.07 25.064 183.335 13.6668C185.234 3.46192 207.61 11.9837 209.487 35.3705C211.364 58.7573 204.09 73.4502 204.09 73.4502L200.771 70.8571Z" fill="url(#paint2_linear_86_17828)"/>
<path d="M209.07 73.3491C209.07 73.3491 218.422 58.7218 219.704 36.8911C221.215 4.54017 197.363 15.4892 199.034 4.14835C201.599 -4.13228 224.012 -0.888997 224.816 32.0102C225.092 59.716 210.227 76.449 210.227 76.449L209.07 73.3491Z" fill="url(#paint3_linear_86_17828)"/>
<path d="M150.16 190.632C146.528 182.129 131.511 189.998 120.86 192.072C110.21 194.146 89.3561 197.362 92.6089 209.302C95.8616 221.242 119.557 216.619 129.377 211.254C139.197 205.889 153.5 198.504 150.16 190.632Z" fill="url(#paint4_linear_86_17828)"/>
<path d="M286.01 284.897C258.544 294.76 243.772 295.614 221.03 291.41L217.749 297.702C217.749 297.702 238.174 321.468 251.278 313.344C255.144 310.783 252.615 306.311 252.615 306.311C259.456 311.93 267.932 315.183 276.776 315.584C287.041 316.032 295.544 311.934 290.492 304.54C302.031 306.849 324.61 303.335 319.466 288.478C326.993 285.468 333.514 280.39 338.273 273.83C346.202 262.899 344.472 253.711 341.93 251.86C334.403 246.994 326.621 270.331 286.01 284.897Z" fill="url(#paint5_linear_86_17828)"/>
<path d="M285.976 306.848C288.85 304.85 283.859 298.885 278.377 300.069C272.895 301.254 277.581 312.672 285.976 306.848Z" fill="#FCCB4F"/>
<path d="M272.603 307.906C273.897 307.315 272.273 298.462 267.278 300.929C262.283 303.396 267.482 310.139 272.603 307.906Z" fill="#FCCB4F"/>
<path d="M276.725 312.846C277.757 312.676 276.78 307.965 274.087 308.577C271.394 309.188 273.16 313.392 276.725 312.846Z" fill="#FCCB4F"/>
<path d="M314.314 295.355C317.19 293.349 312.199 287.383 306.717 288.568C301.235 289.753 305.949 301.179 314.314 295.355Z" fill="#FCCB4F"/>
<path d="M300.967 296.421C302.262 295.83 300.631 286.966 295.645 289.435C290.659 291.905 295.837 298.652 300.967 296.421Z" fill="#FCCB4F"/>
<path d="M305.081 301.359C306.115 301.18 305.135 296.478 302.442 297.089C299.75 297.701 301.516 301.905 305.081 301.359Z" fill="#FCCB4F"/>
<path d="M335.71 266.439C336.315 262.986 328.562 262.333 325.547 267.021C322.532 271.709 333.948 276.449 335.71 266.439Z" fill="#FCCB4F"/>
<path d="M327.052 276.631C327.559 275.334 320.158 270.212 318.343 275.476C316.527 280.739 325.009 281.836 327.052 276.631Z" fill="#FCCB4F"/>
<path d="M333.457 277.203C334.067 276.348 330.041 273.728 328.541 276.079C327.041 278.431 331.327 280.119 333.457 277.203Z" fill="#FCCB4F"/>
<path d="M258.86 188.772C258.672 79.3993 206.499 66.6999 183.558 62.015C164.121 58.6562 136.621 64.2586 101.974 87.5895C76.2626 93.7974 69.473 98.8797 69.473 98.8797C69.473 98.8797 59.7302 108.639 102.287 138.12C142.009 166.759 141.34 166.636 127.677 214.223C109.627 261.698 122.704 291.886 167.939 312.905C220.808 330.632 262.661 280.04 258.86 188.772Z" fill="#A1227C"/>
<path d="M167.934 312.923C122.699 291.904 109.614 261.743 127.672 214.241C141.334 166.654 142.003 166.777 102.282 138.138C59.7302 108.639 69.4676 98.8977 69.4676 98.8977C69.4676 98.8977 74.4738 99.7545 92.268 110.642C110.062 121.53 171.963 112.378 175.1 198.873C162.162 279.462 210.028 324.946 168.518 313.098L167.934 312.923Z" fill="#FCD637"/>
<path d="M205.092 272.959C180.617 296.711 173.731 315.195 200.145 338.35C222.23 357.704 218.866 371.327 228.754 367.502C242.315 362.263 242.114 341.752 241.239 294.785C239.228 243.89 205.092 272.959 205.092 272.959Z" fill="url(#paint6_linear_86_17828)"/>
<path d="M251.993 129.515C251.005 125.594 249.024 119.592 246.847 113.198C246.847 113.198 212.165 130.347 214.245 136.31C216.326 142.274 228.499 143.549 251.993 129.515Z" fill="#FCD637"/>
<path d="M255.765 147.182C256.483 151.316 257.086 155.836 257.524 160.581C257.524 160.581 224.363 175.111 219.738 166.523C215.113 157.934 255.765 147.182 255.765 147.182Z" fill="#FCD637"/>
<path d="M258.437 218.511C258.752 214.687 258.903 210.432 259.046 206.136C259.046 206.136 230.04 204.155 220.432 219.146C221.529 223.227 240.418 226.813 258.437 218.511Z" fill="#FCD637"/>
<path d="M256.323 236.487C256.342 237.041 254.069 248.691 253.535 249.784C253.216 249.933 223.296 260.657 218.582 251.581C213.868 242.506 256.369 236.236 256.323 236.487Z" fill="#FCD637"/>
<path d="M245.731 272.801C245.297 274.248 240.593 283.385 239.481 284.638C238.37 285.891 207.476 290.229 208.054 283.213C208.632 276.197 245.731 272.801 245.731 272.801Z" fill="#FCD637"/>
<path d="M71.7581 111.996C72.2757 112.838 73.0198 113.517 73.9054 113.957C74.791 114.396 75.7823 114.577 76.7659 114.48C81.1402 114.079 89.1118 112.535 93.0415 106.565C95.537 102.073 91.1721 98.1669 81.7309 94.9106C74.6461 92.783 69.9016 90.4669 68.1137 96.4537C67.4771 98.7028 67.4956 101.087 68.167 103.326C68.9709 106.364 70.1787 109.28 71.7581 111.996Z" fill="#0355A5"/>
<path d="M199.051 197.929C189.782 200.296 195.435 216.888 195.848 228.103C196.26 239.317 196.232 261.135 208.966 259.686C221.699 258.238 220.738 233.311 216.826 222.416C212.914 211.521 207.677 195.726 199.051 197.929Z" fill="url(#paint7_linear_86_17828)"/>
<path d="M85.0143 124.548L92.7758 131.179C92.7758 131.179 101.558 134.051 110.03 129.797C116.91 126.241 121.422 122.052 120.369 120.501C119.315 118.95 118.454 120.905 117.562 121.558C116.67 122.211 108.968 129.253 99.2271 129.051C94.2912 128.268 89.5004 126.75 85.0143 124.548Z" fill="#662366"/>
<path d="M110.824 86.0253C110.824 86.0253 104.93 94.1975 166.048 75.9359C196.483 67.9041 220.203 89.0541 220.203 89.0541C220.203 89.0541 221.655 84.2201 225.415 81.6858C215.287 71.2491 182.692 51.6165 147.452 69.9697C135.53 76.4102 110.824 86.0253 110.824 86.0253Z" fill="url(#paint8_linear_86_17828)"/>
<path d="M196.608 102.607C196.608 102.607 189.272 92.5683 177.376 89.4564C174.388 88.7072 171.253 88.7813 168.304 89.6707C162.193 91.4499 151.182 95.9993 148.1 106.133C147.785 107.16 147.735 108.25 147.954 109.301C148.172 110.353 148.653 111.333 149.351 112.15C152.005 115.259 157.975 119.922 170.442 121.295C174.32 121.715 178.24 121.074 181.781 119.44C188.336 116.413 198.2 110.461 196.635 102.616L196.608 102.607Z" fill="#B2F7F5"/>
<path d="M160.526 115.604C157.458 114.683 156.652 108.336 158.726 101.429C160.8 94.521 164.969 89.6684 168.038 90.5899C171.107 91.5114 171.913 97.8581 169.839 104.766C167.764 111.673 163.595 116.526 160.526 115.604Z" fill="#04457A"/>
<path d="M169.153 109.105C166.084 108.183 164.157 105.57 164.849 103.267C165.54 100.965 168.588 99.8452 171.657 100.767C174.726 101.688 176.653 104.302 175.961 106.604C175.27 108.907 172.222 110.026 169.153 109.105Z" fill="white"/>
<path d="M249.866 75.1386C238.717 68.9205 223.147 70.8276 215.782 89.186C208.417 107.544 210.608 115.686 223.715 118.878C238.674 122.527 255.319 118.083 259.756 99.521C264.193 80.9591 249.866 75.1386 249.866 75.1386Z" fill="#A1227C"/>
<path d="M217.238 100.134C218.158 98.1254 219.339 96.247 220.749 94.5467C229.873 83.2892 238.394 82.1356 246.041 88.9865C246.041 88.9865 252.465 93.443 246.697 106.384C242.093 116.756 233.053 117.352 226.752 116.401L217.238 100.134Z" fill="#FCCB4F"/>
<defs>
<linearGradient id="paint0_linear_86_17828" x1="323.137" y1="220.141" x2="293.545" y2="80.6865" gradientUnits="userSpaceOnUse">
<stop stop-color="#CAE6CA"/>
<stop offset="0.71" stop-color="#036DB8"/>
</linearGradient>
<linearGradient id="paint1_linear_86_17828" x1="101.75" y1="332.989" x2="154.773" y2="271.818" gradientUnits="userSpaceOnUse">
<stop stop-color="#4B1860"/>
<stop offset="0.04" stop-color="#4F1861"/>
<stop offset="0.41" stop-color="#681B6A"/>
<stop offset="0.73" stop-color="#771C70"/>
<stop offset="1" stop-color="#7C1D72"/>
</linearGradient>
<linearGradient id="paint2_linear_86_17828" x1="186.521" y1="68.1746" x2="203.023" y2="13.2218" gradientUnits="userSpaceOnUse">
<stop stop-color="#4E2850"/>
<stop offset="0.19" stop-color="#522750"/>
<stop offset="0.36" stop-color="#5C2651"/>
<stop offset="0.53" stop-color="#6F2352"/>
<stop offset="0.69" stop-color="#881F54"/>
<stop offset="0.84" stop-color="#AA1A57"/>
<stop offset="0.99" stop-color="#D2145A"/>
<stop offset="1" stop-color="#D4145A"/>
</linearGradient>
<linearGradient id="paint3_linear_86_17828" x1="197.334" y1="72.5773" x2="218.042" y2="3.61676" gradientUnits="userSpaceOnUse">
<stop offset="0.01" stop-color="#7C1D72"/>
<stop offset="0.19" stop-color="#811C71"/>
<stop offset="0.42" stop-color="#901B6C"/>
<stop offset="0.68" stop-color="#A91866"/>
<stop offset="0.94" stop-color="#CC155C"/>
<stop offset="1" stop-color="#D4145A"/>
</linearGradient>
<linearGradient id="paint4_linear_86_17828" x1="78.3822" y1="215.838" x2="139.331" y2="197.009" gradientUnits="userSpaceOnUse">
<stop stop-color="#CA236C"/>
<stop offset="0.03" stop-color="#BC2469"/>
<stop offset="0.11" stop-color="#952560"/>
<stop offset="0.19" stop-color="#762659"/>
<stop offset="0.27" stop-color="#602754"/>
<stop offset="0.35" stop-color="#532851"/>
<stop offset="0.41" stop-color="#4E2850"/>
<stop offset="0.45" stop-color="#572755"/>
<stop offset="0.6" stop-color="#772566"/>
<stop offset="0.75" stop-color="#8E2372"/>
<stop offset="0.88" stop-color="#9C2279"/>
<stop offset="1" stop-color="#A1227C"/>
</linearGradient>
<linearGradient id="paint5_linear_86_17828" x1="222.014" y1="287.121" x2="383.063" y2="280.233" gradientUnits="userSpaceOnUse">
<stop stop-color="#4B1860"/>
<stop offset="0.15" stop-color="#591B6C"/>
<stop offset="0.41" stop-color="#7C228B"/>
<stop offset="0.55" stop-color="#A1227C"/>
<stop offset="0.59" stop-color="#AA2278"/>
<stop offset="0.73" stop-color="#CA236C"/>
</linearGradient>
<linearGradient id="paint6_linear_86_17828" x1="239.467" y1="352.858" x2="196.222" y2="266.918" gradientUnits="userSpaceOnUse">
<stop stop-color="#4B1860"/>
<stop offset="0.04" stop-color="#511962"/>
<stop offset="0.31" stop-color="#741D6D"/>
<stop offset="0.57" stop-color="#8D2075"/>
<stop offset="0.81" stop-color="#9C217A"/>
<stop offset="1" stop-color="#A1227C"/>
</linearGradient>
<linearGradient id="paint7_linear_86_17828" x1="212.48" y1="269.179" x2="201.064" y2="190.916" gradientUnits="userSpaceOnUse">
<stop stop-color="#CA236C"/>
<stop offset="0.03" stop-color="#BC2469"/>
<stop offset="0.11" stop-color="#952560"/>
<stop offset="0.19" stop-color="#762659"/>
<stop offset="0.27" stop-color="#602754"/>
<stop offset="0.35" stop-color="#532851"/>
<stop offset="0.41" stop-color="#4E2850"/>
<stop offset="0.45" stop-color="#572755"/>
<stop offset="0.6" stop-color="#772566"/>
<stop offset="0.75" stop-color="#8E2372"/>
<stop offset="0.88" stop-color="#9C2279"/>
<stop offset="1" stop-color="#A1227C"/>
</linearGradient>
<linearGradient id="paint8_linear_86_17828" x1="188.763" y1="69.2297" x2="79.9872" y2="155.139" gradientUnits="userSpaceOnUse">
<stop stop-color="#EFC940"/>
<stop offset="0.2" stop-color="#D38E55"/>
<stop offset="0.39" stop-color="#BE5F66"/>
<stop offset="0.55" stop-color="#AE3E72"/>
<stop offset="0.68" stop-color="#A42979"/>
<stop offset="0.77" stop-color="#A1227C"/>
</linearGradient>
</defs>
</svg>
