<svg width="1024" height="576" viewBox="0 0 1024 576" fill="none" xmlns="http://www.w3.org/2000/svg">
<g clip-path="url(#clip0_36_13510)">
<rect width="1024" height="576" fill="white"/>
<path d="M1024 496H0V362.67L1024 351.3V496Z" fill="#7E7E7E"/>
<path d="M1024 576H0V453.27L1024 443.96V576Z" fill="#CEE0E3"/>
<path d="M1024 346.94L0 355.58V326.71L1024 326.15V346.94Z" fill="#E4EEF0"/>
<path d="M1024 354.07L0 365.88V358.76L1024 348.95V354.07Z" fill="#CEE0E3"/>
<path d="M1024 348.95L0 358.76V355.58L1024 346.94V348.95Z" fill="#B7CBCF"/>
<path d="M82.93 326.57L57.1 355.1L60.47 355.07L84.29 326.57H82.93Z" fill="#A7BFC4"/>
<path d="M260.9 326.57L253.04 353.44L255.59 353.42L262.04 326.57H260.9Z" fill="#A7BFC4"/>
<path d="M143.12 453.15L107.17 576H121.37L150.88 453.15H143.12Z" fill="#96ACB0"/>
<path d="M447.26 326.45H445.98L450.27 351.78L452.59 351.76L447.26 326.45Z" fill="#A7BFC4"/>
<path d="M627.76 326.29H626.03L630.19 350.26L632.84 350.24L627.76 326.29Z" fill="#A7BFC4"/>
<path d="M801.72 326.27H800.18L811.31 348.75L813.66 348.72L801.72 326.27Z" fill="#A7BFC4"/>
<path d="M866.76 445.45H860.6L904.47 576H917.83L866.76 445.45Z" fill="#96ACB0"/>
<path d="M961.42 326.15H960.15L973.6 347.37L976.3 347.34L961.42 326.15Z" fill="#A7BFC4"/>
<path d="M0 0H248.57L261.45 326.65L0 326.71V0Z" fill="#CE7364"/>
<path d="M247.24 326.71H0V203.25L239.35 206.01L247.24 326.71Z" fill="#808080"/>
<path d="M0 205.73V319.78H39.42L29.78 206.01L0 205.73Z" fill="#B3B3B3"/>
<path d="M49.38 203.71L55.29 319.78H240.16L232.62 206.01L49.38 203.71Z" fill="#B3B3B3"/>
<path d="M0 311.33L40.27 310.47" stroke="#808080" stroke-width="2" stroke-miterlimit="10"/>
<path d="M0 301.24L39.42 300.26" stroke="#808080" stroke-width="2" stroke-miterlimit="10"/>
<path d="M0 290.69L38.09 290.09" stroke="#808080" stroke-width="2" stroke-miterlimit="10"/>
<path d="M0 279.11L38.5 279.73" stroke="#808080" stroke-width="2" stroke-miterlimit="10"/>
<path d="M0 268.18L37.77 267.58" stroke="#808080" stroke-width="2" stroke-miterlimit="10"/>
<path d="M0 258.23H37.3" stroke="#808080" stroke-width="2" stroke-miterlimit="10"/>
<path d="M0 247.67H35.75" stroke="#808080" stroke-width="2" stroke-miterlimit="10"/>
<path d="M0 237.24L35.2 236.66" stroke="#808080" stroke-width="2" stroke-miterlimit="10"/>
<path d="M0 225.79L33.41 224.22" stroke="#808080" stroke-width="2" stroke-miterlimit="10"/>
<path d="M0 215.6H33.41" stroke="#808080" stroke-width="2" stroke-miterlimit="10"/>
<path d="M51.17 309.92L242.34 307.66" stroke="#808080" stroke-width="2" stroke-miterlimit="10"/>
<path d="M51.99 299.83L241.33 299.6" stroke="#808080" stroke-width="2" stroke-miterlimit="10"/>
<path d="M49.38 287.28H240.16" stroke="#808080" stroke-width="2" stroke-miterlimit="10"/>
<path d="M49.38 276.68L240.16 275.22" stroke="#808080" stroke-width="2" stroke-miterlimit="10"/>
<path d="M51.17 265.74L242.34 263.48" stroke="#808080" stroke-width="2" stroke-miterlimit="10"/>
<path d="M51.99 255.64L241.33 255.42" stroke="#808080" stroke-width="2" stroke-miterlimit="10"/>
<path d="M49.38 245.56H237.82" stroke="#808080" stroke-width="2" stroke-miterlimit="10"/>
<path d="M49.38 232.5L240.16 231.03" stroke="#808080" stroke-width="2" stroke-miterlimit="10"/>
<path d="M45.88 218.55L235.48 221.41" stroke="#808080" stroke-width="2" stroke-miterlimit="10"/>
<path d="M47.18 326.7L38.58 204.59" stroke="#666666" stroke-width="2" stroke-miterlimit="10"/>
<path d="M0 106.45L252.9 109.69L253.33 120.54L0 120.94V106.45Z" fill="#DB998E"/>
<path d="M0 116.45L253.23 118.22L253.33 120.54L0 120.94V116.45Z" fill="#B16355"/>
<path d="M0 172.77L255.32 171.07L255.41 173.38L0 177.26V172.77Z" fill="#B16355"/>
<path d="M0 160.35L254.95 161.78L255.32 171.07L0 172.77V160.35Z" fill="#DB998E"/>
<path d="M154.29 67.34H192.48L190.47 9.94999L152.28 9.73999L154.29 67.34Z" fill="#BE847B"/>
<path d="M155.44 100.09H193.67L192.48 67.34H154.29L155.44 100.09Z" fill="#BE847B"/>
<path d="M159.98 95.78L189.14 95.94L188.14 57.5H159.02L159.98 95.78Z" fill="#D6B2AC"/>
<path d="M158.83 52.11L187.63 52.63L186.63 14.13L157.46 13.71L158.83 52.11Z" fill="#D6B2AC"/>
<path d="M149.74 8.32L153.33 102.21L195.36 101.35L192.86 7.41L149.74 8.32ZM157.19 98.56L154.84 11.74L188.87 11.22L192.04 98.02L157.2 98.56H157.19Z" fill="#A55649"/>
<path d="M192.11 55.25C191.83 55.16 153.87 55.25 153.87 55.25" stroke="#A55649" stroke-width="2" stroke-miterlimit="10"/>
<path d="M91.54 67.34H129.72L125.72 9.94999L87.52 9.73999L91.54 67.34Z" fill="#BE847B"/>
<path d="M93.83 100.09H132.06L129.72 67.34H91.54L93.83 100.09Z" fill="#BE847B"/>
<path d="M98.26 96.56L126.76 97.1L125.04 57.5H95.92L98.26 96.56Z" fill="#D6B2AC"/>
<path d="M95.5401 52.11L124.37 52.63L122.02 14.13L92.8301 13.71L95.5401 52.11Z" fill="#D6B2AC"/>
<path d="M85.5601 7.41L91.7901 102.21L133.22 102.65L128 7.42H85.5601V7.41ZM95.5201 98.56L90.0801 10.81L124.15 11.22L129.3 99L95.5201 98.56Z" fill="#A55649"/>
<path d="M128.93 55.25C128.65 55.16 90.6901 55.25 90.6901 55.25" stroke="#A55649" stroke-width="2" stroke-miterlimit="10"/>
<path d="M256.91 211.32H0V142.47L254.15 141.9L256.91 211.32Z" fill="#8B4A4A"/>
<path d="M936.49 0H1024V326.15L922.01 326.31L936.49 0Z" fill="#5E84AA"/>
<path d="M1024 132.79L930.56 133.66L931.13 121.4L1024 121.5V132.79Z" fill="#85AECB"/>
<path d="M1024 121.5L931.13 121.4L931.27 117.65L1024 117.9V121.5Z" fill="#A6C4D9"/>
<path d="M967.51 72.57L999.03 74.24L1001.52 17.56L970.01 15.69L967.51 72.57Z" fill="#6E7F90"/>
<path d="M966.02 106.59H997.65L999.62 61.78L968.54 61.27L966.02 106.59Z" fill="#6E7F90"/>
<path d="M970.05 103.05H994.17L996.12 65.18L972.06 64.52L970.05 103.05Z" fill="#99B1C9"/>
<path d="M972.33 58.32L996.12 58.96L998.05 21.33L973.96 20.65L972.33 58.32Z" fill="#99B1C9"/>
<path d="M968.01 14.28L964.11 109.32H998.9L1003.67 15.05L968.01 14.28ZM968.12 105.49L971.96 17.96L1000.63 18.83L996.38 105.81L968.12 105.49Z" fill="#384F66"/>
<path d="M999.62 61.78L968.54 61.27" stroke="#384F66" stroke-width="2.19" stroke-miterlimit="10"/>
<path d="M942.21 240.11H1007.18L1014.25 183.59H945L942.21 240.11Z" fill="#6E7F90"/>
<path d="M940.66 240.11H1007.18L1011.03 184.45L945 183.59L940.66 240.11Z" fill="#99B1C9"/>
<path d="M942.21 180.9L937.6 241.71H1009.75L1013.82 181.87L942.21 180.9ZM943.06 237.39L947.4 185.73H1009.28L1004.06 237.39H943.06Z" fill="#384F66"/>
<path d="M1011.03 211.72L942.85 211.4" stroke="#384F66" stroke-width="2.4" stroke-miterlimit="10"/>
<path d="M979.32 183.59L974.5 240.11" stroke="#384F66" stroke-width="5" stroke-miterlimit="10"/>
<path d="M1024 135.15L930.41 136.84L930.56 133.66L1024 132.79V135.15Z" fill="#4B6A88"/>
<path d="M261.45 326.65L581.8 326.5L590.32 0H248.57L261.45 326.65Z" fill="#83C08B"/>
<path d="M265.37 58.81H296.96V11.33L265.37 11.16V58.81Z" fill="#88A78C"/>
<path d="M265.37 85.9H297L296.96 58.81H265.37V85.9Z" fill="#88A78C"/>
<path d="M269.25 82.34L293.37 82.47L293.66 50.67H269.56L269.25 82.34Z" fill="#B0CAB3"/>
<path d="M269.56 46.22L293.38 46.64L293.66 14.79L269.54 14.44L269.56 46.22Z" fill="#B0CAB3"/>
<path d="M263.31 9.98001L263.57 87.65L298.36 86.94L299 9.23001L263.3 9.98001H263.31ZM266.86 84.64L267.42 12.82L295.59 12.39L295.7 84.2L266.86 84.65V84.64Z" fill="#5C8661"/>
<path d="M297 48.81C296.77 48.73 265.37 48.81 265.37 48.81" stroke="#5C8661" stroke-width="2" stroke-miterlimit="10"/>
<path d="M301.5 92.52H261.04L260.81 87.3L301.7 86.47L301.5 92.52Z" fill="#ABD8AE"/>
<path d="M350.25 63.16H318.64V86.04H350.25V63.16Z" fill="#8A8989"/>
<path d="M318.35 59H349.94V11.53L318.35 11.36V59Z" fill="#88A78C"/>
<path d="M322.54 46.41L346.36 46.15L346.64 14.98L322.52 14.92L322.54 46.41Z" fill="#B0CAB3"/>
<path d="M318.35 65.44H349.98L349.94 48.34H318.35V65.44Z" fill="#88A78C"/>
<path d="M322.22 63.46H346.35L346.64 50.2L322.54 50.57L322.22 63.46Z" fill="#B0CAB3"/>
<path d="M346.67 65.28H322.2V84.86H346.67V65.28Z" fill="#ECECEC"/>
<path d="M344.14 82.84L324.72 82.32V67.3L344.14 67.68V82.84Z" fill="#7A7A7A"/>
<path d="M323.89 68.39L345.14 68.89" stroke="#ECECEC" stroke-width="0.68" stroke-miterlimit="10"/>
<path d="M323.89 70.1L344.84 70.52" stroke="#ECECEC" stroke-width="0.68" stroke-miterlimit="10"/>
<path d="M323.89 71.86L344.84 72.15" stroke="#ECECEC" stroke-width="0.68" stroke-miterlimit="10"/>
<path d="M323.89 73.22L344.84 73.9" stroke="#ECECEC" stroke-width="0.68" stroke-miterlimit="10"/>
<path d="M323.89 75.26H345.33" stroke="#ECECEC" stroke-width="0.68" stroke-miterlimit="10"/>
<path d="M323.89 76.73L345.02 77.04" stroke="#ECECEC" stroke-width="0.68" stroke-miterlimit="10"/>
<path d="M323.89 78.33L345.02 78.89" stroke="#ECECEC" stroke-width="0.68" stroke-miterlimit="10"/>
<path d="M324.03 79.98L345.02 80.13" stroke="#ECECEC" stroke-width="0.68" stroke-miterlimit="10"/>
<path d="M324.03 81.34L344.84 81.85" stroke="#ECECEC" stroke-width="0.68" stroke-miterlimit="10"/>
<path d="M316.28 9.14001L316 87.86L351.34 87.51L351.98 9.86001L316.28 9.14001ZM319.84 84.84L320.4 13.02L348.57 13.45L348.68 84.4L319.84 84.85V84.84Z" fill="#5C8661"/>
<path d="M349.98 48.36C349.75 48.28 318.35 48.36 318.35 48.36" stroke="#5C8661" stroke-width="2" stroke-miterlimit="10"/>
<path d="M354.52 91.66L314 92.2L313.79 87.5L354.68 86.66L354.52 91.66Z" fill="#ABD8AE"/>
<path d="M462.09 83.64L430.49 84.67V61.79L462.09 60.76V83.64Z" fill="#8A8989"/>
<path d="M430.2 57.63L461.79 56.6V9.13L430.2 9.98V57.63Z" fill="#88A78C"/>
<path d="M434.39 44.66L458.21 43.74L458.48 12.58L434.37 13.18L434.39 44.66Z" fill="#B0CAB3"/>
<path d="M430.2 64.06L461.83 63.03L461.79 45.94L430.2 46.97V64.06Z" fill="#88A78C"/>
<path d="M434.07 61.29L458.2 61.06L458.48 48.79L434.39 49.6L434.07 61.29Z" fill="#B0CAB3"/>
<path d="M458.51 82.46L434.05 83.12V63.53L458.51 62.88V82.46Z" fill="#ECECEC"/>
<path d="M455.98 80.44L436.57 80.58V65.56L455.98 65.28V80.44Z" fill="#7A7A7A"/>
<path d="M435.74 66.64L456.99 66.48" stroke="#ECECEC" stroke-width="0.68" stroke-miterlimit="10"/>
<path d="M435.74 68.36L456.69 68.12" stroke="#ECECEC" stroke-width="0.68" stroke-miterlimit="10"/>
<path d="M435.74 70.12L456.69 69.74" stroke="#ECECEC" stroke-width="0.68" stroke-miterlimit="10"/>
<path d="M435.74 71.48L456.69 71.5" stroke="#ECECEC" stroke-width="0.68" stroke-miterlimit="10"/>
<path d="M435.74 73.51L457.18 72.85" stroke="#ECECEC" stroke-width="0.68" stroke-miterlimit="10"/>
<path d="M435.74 74.98L456.87 74.63" stroke="#ECECEC" stroke-width="0.68" stroke-miterlimit="10"/>
<path d="M435.74 76.59L456.87 76.48" stroke="#ECECEC" stroke-width="0.68" stroke-miterlimit="10"/>
<path d="M435.87 78.24L456.87 77.73" stroke="#ECECEC" stroke-width="0.68" stroke-miterlimit="10"/>
<path d="M435.87 79.6L456.69 79.45" stroke="#ECECEC" stroke-width="0.68" stroke-miterlimit="10"/>
<path d="M428.13 7.76001L427.85 86.48L463.19 86.14L463.83 7.45001L428.13 7.76001ZM431.69 83.46L432.25 11.64L460.42 11.04L460.53 81.99L431.69 83.47V83.46Z" fill="#5C8661"/>
<path d="M461.83 45.96C461.6 45.88 430.2 46.99 430.2 46.99" stroke="#5C8661" stroke-width="2" stroke-miterlimit="10"/>
<path d="M466.36 90.22L425.84 90.83L425.64 86.12L466.53 85.22L466.36 90.22Z" fill="#ABD8AE"/>
<path d="M540.67 56.99L572.26 58.39V10.91L540.67 9.35001V56.99Z" fill="#88A78C"/>
<path d="M540.67 85.48H572.3L572.26 58.39L540.67 56.99V85.48Z" fill="#88A78C"/>
<path d="M544.55 81.92L568.67 81.7L568.96 50.8L544.87 50.25L544.55 81.92Z" fill="#B0CAB3"/>
<path d="M544.86 45.06L568.68 45.59L568.96 14.07L544.84 13.5L544.86 45.06Z" fill="#B0CAB3"/>
<path d="M538.61 8.17001L538.87 85.84L573.66 86.52L574.3 8.81001L538.6 8.17001H538.61ZM542.73 84.56V11.25L571.44 11.98L571.01 83.78L542.73 84.57V84.56Z" fill="#5C8661"/>
<path d="M572.3 47.96L541.21 47.53" stroke="#5C8661" stroke-width="2" stroke-miterlimit="10"/>
<path d="M576.8 91.74L536.34 90.7L536.11 85.49H577.01L576.8 91.74Z" fill="#ABD8AE"/>
<path d="M375.92 57.95L407.51 59.35V11.87L375.92 10.31V57.95Z" fill="#88A78C"/>
<path d="M375.92 86.44H407.55L407.51 59.35L375.92 57.95V86.44Z" fill="#88A78C"/>
<path d="M379.82 81.85L403.93 82.66L404.22 50.95L380.12 51.21L379.82 81.85Z" fill="#B0CAB3"/>
<path d="M380.34 47.18H404.22L404.68 14.82L380.09 14.46L380.34 47.18Z" fill="#B0CAB3"/>
<path d="M373.86 9.13L374.12 86.8L408.91 87.48L409.55 9.77001L373.85 9.13H373.86ZM377.98 83.9V12.21L406.69 12.94L406.26 84.74L377.98 83.91V83.9Z" fill="#5C8661"/>
<path d="M407.55 48.92L376.46 49.16" stroke="#5C8661" stroke-width="2" stroke-miterlimit="10"/>
<path d="M411.06 91.2L371.97 91.65L371.34 86.03L412.26 85.81L411.06 91.2Z" fill="#ABD8AE"/>
<path d="M520.65 84.48L489.05 84.31V61.44L520.65 61.61V84.48Z" fill="#8A8989"/>
<path d="M488.76 57.27L520.35 57.45V9.97001L488.76 9.63V57.27Z" fill="#88A78C"/>
<path d="M492.95 44.31L516.77 44.59L517.05 13.42H492.93L492.95 44.31Z" fill="#B0CAB3"/>
<path d="M488.76 63.71L520.39 63.88L520.35 46.78L488.76 46.61V63.71Z" fill="#88A78C"/>
<path d="M493.24 61.44L516.13 61.87L516.51 48.97H492.95L493.24 61.44Z" fill="#B0CAB3"/>
<path d="M486.69 7.40999L486.41 86.13L521.75 86.99L522.4 7.39999H486.69V7.40999ZM490.25 83.11L490.81 11.29L518.98 11.89L519.09 82.84L490.25 83.12V83.11Z" fill="#5C8661"/>
<path d="M520.39 46.8C520.16 46.72 488.76 46.63 488.76 46.63" stroke="#5C8661" stroke-width="2" stroke-miterlimit="10"/>
<path d="M524.89 91.07L483.8 90.48L484.2 84.86L524.47 85.16L524.89 91.07Z" fill="#ABD8AE"/>
<path d="M517.07 83.3H492.61V63.18L517.07 63.72V83.3Z" fill="#ECECEC"/>
<path d="M514.55 81.28L495.13 80.75V65.2L514.55 66.12V81.28Z" fill="#7A7A7A"/>
<path d="M494.3 66.29L515.55 67.33" stroke="#ECECEC" stroke-width="0.68" stroke-miterlimit="10"/>
<path d="M494.3 68L515.25 68.96" stroke="#ECECEC" stroke-width="0.68" stroke-miterlimit="10"/>
<path d="M494.3 69.77L515.25 70.59" stroke="#ECECEC" stroke-width="0.68" stroke-miterlimit="10"/>
<path d="M494.3 71.12L515.25 72.35" stroke="#ECECEC" stroke-width="0.68" stroke-miterlimit="10"/>
<path d="M494.3 73.16L515.74 73.7" stroke="#ECECEC" stroke-width="0.68" stroke-miterlimit="10"/>
<path d="M494.3 74.63L515.43 75.48" stroke="#ECECEC" stroke-width="0.68" stroke-miterlimit="10"/>
<path d="M494.3 76.23L515.43 77.33" stroke="#ECECEC" stroke-width="0.68" stroke-miterlimit="10"/>
<path d="M494.43 77.88L515.25 78.84" stroke="#ECECEC" stroke-width="0.68" stroke-miterlimit="10"/>
<path d="M494.43 79.77L515.25 80.01" stroke="#ECECEC" stroke-width="0.68" stroke-miterlimit="10"/>
<path d="M583.72 252.9L258.53 252.63L258.27 245.96L583.96 243.87L583.72 252.9Z" fill="#ABD8AE"/>
<path d="M581.86 293.54L260.81 288.25L260.66 275.22L581.89 275.31L581.86 293.54Z" fill="#9BD89F"/>
<path d="M581.8 326.5L261.45 326.65L261.28 316.26L581.99 319.32L581.8 326.5Z" fill="#9BD89F"/>
<path d="M390.69 273.04L387.57 198.88L449.72 199.13L446.64 273.02L390.69 273.04Z" fill="#013B28"/>
<path d="M419.3 169.03C403.97 169.03 387.56 182.4 387.56 198.89L449.71 199.14C449.71 182.65 434.63 169.04 419.29 169.04L419.3 169.03Z" fill="#001810"/>
<path d="M419.15 175.31C408.98 175.31 397.26 183.74 397.26 194.67L440.8 195.27C440.8 184.34 429.32 175.31 419.15 175.31Z" fill="#255D4A"/>
<path d="M393.99 232.07L393.14 204.04L406.22 204.16L406.16 232.06L393.99 232.07Z" fill="#35856A"/>
<path d="M395 265.14L394.14 234.9L406.22 235.02L406.66 265.13L395 265.14Z" fill="#35856A"/>
<path d="M443.52 270.13L410.41 270.15L408.81 204.04L444.82 204.77L443.52 270.13Z" fill="#1C5D47"/>
<path d="M440.3 235.66L413.86 235.67L412.59 207.18L440.79 208.29L440.3 235.66Z" fill="#35856A"/>
<path d="M413.22 245.57L410.31 245.46L409.9 238.25L413.65 238.34L413.22 245.57Z" fill="#7B7A79"/>
<path d="M409.63 237.87L410.28 238.38L413.47 238.49L414.05 237.79L409.63 237.87Z" fill="#4E4D4B"/>
<path d="M413.86 246.26L413.34 245.45L410.39 245.35L409.83 246.16L413.86 246.26Z" fill="#4E4D4B"/>
<path d="M410.39 245.35L410.28 238.38L409.63 237.87L409.83 246.16L410.39 245.35Z" fill="#636261"/>
<path d="M413.47 238.49L413.15 245.44L413.86 246.26L414.05 237.79L413.47 238.49Z" fill="#636261"/>
<path d="M415.29 240.21C414.64 240.19 413.44 240.32 412.92 240.38C412.77 239.92 412.35 239.57 411.83 239.56C411.18 239.54 410.64 240.06 410.62 240.71C410.6 241.36 411.12 241.9 411.77 241.92C412.31 241.93 412.77 241.58 412.92 241.08C413.39 241.19 414.41 241.41 415.25 241.43C416.39 241.46 416.6 241.13 416.61 240.85C416.61 240.59 416.42 240.24 415.28 240.21H415.29Z" fill="#939291"/>
<path d="M411.7 244.63C412.192 244.63 412.59 244.232 412.59 243.74C412.59 243.248 412.192 242.85 411.7 242.85C411.209 242.85 410.81 243.248 410.81 243.74C410.81 244.232 411.209 244.63 411.7 244.63Z" fill="#939291"/>
<path d="M411.96 243.48C411.96 243.34 411.85 243.22 411.71 243.21C411.57 243.2 411.45 243.32 411.44 243.46C411.44 243.56 411.5 243.65 411.58 243.69V244.26H411.79V243.69C411.89 243.65 411.95 243.56 411.96 243.46V243.48Z" fill="#4E4D4B"/>
<path d="M462.44 287.49H376.04L375.81 275.24H462.68L462.44 287.49Z" fill="#C19B78"/>
<path d="M462.68 275.24H375.81L375.77 273.04H462.72L462.68 275.24Z" fill="#C89B80"/>
<path d="M475.05 289.62H363.34V301.87H475.05V289.62Z" fill="#C19B78"/>
<path d="M475.05 289.62H363.34L363.32 287.42H475.05V289.62Z" fill="#EFD0B3"/>
<path d="M458.98 203.63C458.98 180.08 441.22 160.98 419.32 160.98C397.42 160.98 379.66 180.07 379.66 203.63L381.63 273.03H375.77L369.29 147.67H470.25L462.71 273.03H456.27L458.97 203.63H458.98Z" fill="#D7B392"/>
<path d="M386.59 273.04H391.82L390.41 204.18C390.41 186.13 402.51 171.45 419.29 171.45C436.07 171.45 448.31 186.5 448.31 204.55L446.62 273.04H451.34L453.83 204.46C453.83 181.76 439.21 166.17 419.28 166.17C399.35 166.17 384.74 181.59 384.74 204.09L386.58 273.04H386.59Z" fill="#9D7048"/>
<path d="M379.19 273.04H386.59L384.78 204.46C384.78 182.76 399.14 166.17 419.32 166.17C439.5 166.17 453.86 182.76 453.86 204.46L451.37 273.04H459.31L460.51 204.36C460.51 179.77 442.2 159.83 419.33 159.83C396.46 159.83 377.99 179.77 377.99 204.36L379.21 273.04H379.19Z" fill="#AE8158"/>
<path d="M375.77 273.04H381.63L379.66 203.64C379.66 180.09 397.42 160.99 419.32 160.99C441.22 160.99 458.98 180.08 458.98 203.64L456.28 273.04H462.72L464.02 203.53C464.02 176.83 444.14 155.19 419.32 155.19C394.5 155.19 374.44 176.83 374.44 203.53L375.76 273.04H375.77Z" fill="#C19B78"/>
<path d="M347.87 301.7L254.76 301.66V300.23L347.87 300.22V301.7Z" fill="#172D26"/>
<path d="M355.24 278.36L254.76 278.26V276.77L355.24 276.68V278.36Z" fill="#172D26"/>
<path d="M251.92 272.97L252.58 326.65H256.43L254.76 272.87L251.92 272.97Z" fill="#172D26"/>
<path d="M263.4 272.56L263.54 326.65H266.38L266.71 272.85L263.4 272.56Z" fill="#172D26"/>
<path d="M271.72 272.56L274.28 326.65H276.3L274.88 272.7L271.72 272.56Z" fill="#172D26"/>
<path d="M283.98 272.4L282.21 326.65H285.05L287.36 272.4H283.98Z" fill="#172D26"/>
<path d="M295.39 272.21L295.54 326.65H298.77V272.4L295.39 272.21Z" fill="#172D26"/>
<path d="M307.04 271.96L305.03 326.65H308.64L310.42 271.89L307.04 271.96Z" fill="#172D26"/>
<path d="M318.35 271.96L320.08 326.65H322.24L321.72 271.89L318.35 271.96Z" fill="#172D26"/>
<path d="M329.41 271.96L327.61 326.65H330.28L332.04 271.89L329.41 271.96Z" fill="#172D26"/>
<path d="M340.79 271.79L340.81 326.65H345.32L345.57 271.49L340.79 271.79Z" fill="#172D26"/>
<path d="M587.2 301.85L489.01 301.66V299.83L587.2 300.33V301.85Z" fill="#172D26"/>
<path d="M587.2 278.29L483 278.24V276.77L587.2 276.69V278.29Z" fill="#172D26"/>
<path d="M577.93 273L576.93 326.65H573.63L574.63 273H577.93Z" fill="#172D26"/>
<path d="M566.02 272.72L566.79 326.65H564.32L563.16 272.7L566.02 272.72Z" fill="#172D26"/>
<path d="M554.23 272.72L555.65 326.65H552.81L550.85 272.72H554.23Z" fill="#172D26"/>
<path d="M543.44 272.49L541.77 326.65H539.4L540.57 272.49H543.44Z" fill="#172D26"/>
<path d="M532.08 272.56L530.8 326.65H528.33L528.7 272.44L532.08 272.56Z" fill="#172D26"/>
<path d="M520.91 272.34L519.53 326.65H517.04L518.22 272.13L520.91 272.34Z" fill="#172D26"/>
<path d="M509.8 272.26L511.39 326.65H509.4L506.75 272.29L509.8 272.26Z" fill="#172D26"/>
<path d="M498.71 271.71L497.2 326.65H492.84L493.69 271.93L498.71 271.71Z" fill="#172D26"/>
<path d="M462.43 287.5L482.12 287.49L486.41 147.67H465.08L462.43 287.5Z" fill="#EFD0B3"/>
<path d="M376.03 287.5L356.35 287.49L352.05 147.67H373.39L376.03 287.5Z" fill="#EFD0B3"/>
<path d="M377.25 178.07L350.3 178.06L347.92 147.67H377.25V178.07Z" fill="#EFD0B3"/>
<path d="M377.25 152.56L348.3 152.55L345.43 147.67H379.48L377.25 152.56Z" fill="#F8EADD"/>
<path d="M350.3 178.06L377.25 178.07L377.97 182.16L349.51 182.72L350.3 178.06Z" fill="#F8EADD"/>
<path d="M461.22 178.07L488.16 178.06L490.54 147.67H461.22V178.07Z" fill="#EFD0B3"/>
<path d="M461.22 152.56L490.16 152.55L493.04 147.67H458.98L461.22 152.56Z" fill="#F8EADD"/>
<path d="M488.16 178.06L461.22 178.07L460.49 182.16L488.95 182.72L488.16 178.06Z" fill="#F8EADD"/>
<path d="M363.33 260.15V330.79L349.36 330.78L349.38 316.05L363.33 260.15Z" fill="#D7B392"/>
<path d="M349.38 316.05L338.48 315.76L355.14 260.15H363.33L349.38 316.05Z" fill="#F5E1CF"/>
<path d="M358.61 269.48C358.61 269.48 358.61 270.23 356.73 270.23C354.85 270.23 354.85 269.48 354.85 269.48V270.23L358.62 260.53V269.49L358.61 269.48Z" fill="#4D4D4D"/>
<path d="M353.94 286.53C353.94 286.53 353.94 287.28 352.06 287.28C350.18 287.28 350.18 286.53 350.18 286.53V280.76L353.95 270.18V286.53H353.94Z" fill="#4D4D4D"/>
<path d="M348.28 306.53C348.28 306.53 348.28 307.28 346.4 307.28C344.52 307.28 344.52 306.53 344.52 306.53V300.76L348.29 290.18V306.53H348.28Z" fill="#4D4D4D"/>
<path d="M361.9 251.52C362.1 250.84 361.76 249.98 360.9 249.88C359.89 249.77 359.5 250.57 359.22 251.26L338.65 305.22L342.84 306.14L361.91 251.51L361.9 251.52Z" fill="#4D4D4D"/>
<path d="M340.66 308.25C341.864 308.25 342.84 307.274 342.84 306.07C342.84 304.866 341.864 303.89 340.66 303.89C339.456 303.89 338.48 304.866 338.48 306.07C338.48 307.274 339.456 308.25 340.66 308.25Z" fill="#8E8E8E"/>
<path d="M338.48 315.76L339.83 330.79L349.36 330.78L349.38 316.05L338.48 315.76Z" fill="#C49C79"/>
<path d="M475.04 260.15V330.79L489.01 330.78L489 316.05L475.04 260.15Z" fill="#D7B392"/>
<path d="M489 316.05L499.9 315.76L483.24 260.15H475.04L489 316.05Z" fill="#F5E1CF"/>
<path d="M479.77 269.48C479.77 269.48 479.77 270.23 481.65 270.23C483.53 270.23 483.53 269.48 483.53 269.48V270.23L479.76 260.53V269.49L479.77 269.48Z" fill="#4D4D4D"/>
<path d="M484.44 286.53C484.44 286.53 484.44 287.28 486.32 287.28C488.2 287.28 488.2 286.53 488.2 286.53V280.76L484.43 270.18V286.53H484.44Z" fill="#4D4D4D"/>
<path d="M490.09 306.53C490.09 306.53 490.09 307.28 491.97 307.28C493.85 307.28 493.85 306.53 493.85 306.53V300.76L490.08 290.18V306.53H490.09Z" fill="#4D4D4D"/>
<path d="M476.47 251.52C476.27 250.84 476.61 249.98 477.47 249.88C478.48 249.77 478.87 250.57 479.15 251.26L499.72 305.22L495.53 306.14L476.46 251.51L476.47 251.52Z" fill="#4D4D4D"/>
<path d="M497.71 308.25C498.914 308.25 499.89 307.274 499.89 306.07C499.89 304.866 498.914 303.89 497.71 303.89C496.506 303.89 495.53 304.866 495.53 306.07C495.53 307.274 496.506 308.25 497.71 308.25Z" fill="#8E8E8E"/>
<path d="M499.9 315.76L498.55 330.79L489.01 330.78L489 316.05L499.9 315.76Z" fill="#C49C79"/>
<path d="M479.27 304.08H359.14V316.33H479.27V304.08Z" fill="#C19B78"/>
<path d="M479.26 304.08H359.14L359.11 301.87H479.26V304.08Z" fill="#EFD0B3"/>
<path d="M484.3 318.54H354.1V330.79H484.3V318.54Z" fill="#C19B78"/>
<path d="M484.3 318.54H354.1L354.07 316.33H484.3V318.54Z" fill="#EFD0B3"/>
<path d="M586.47 147.67H254.4L254.15 141.43L586.65 140.88L586.47 147.67Z" fill="#ABD8AE"/>
<path d="M587.18 120.54H253.33L252.9 109.69L587.41 111.61L587.18 120.54Z" fill="#ABD8AE"/>
<path d="M486.41 147.67H352.05L350.3 120.54H487.51L486.41 147.67Z" fill="#EFD0B3"/>
<path d="M493.04 147.67H345.43L344.55 141.21L493.84 141.03L493.04 147.67Z" fill="#F5E1CF"/>
<path d="M487.51 120.54H350.3L345.59 110.29L492.45 111.07L487.51 120.54Z" fill="#F5E1CF"/>
<path d="M446.64 273.02L391.82 273.04L391.72 267.95H446.76L446.64 273.02Z" fill="#EFD0B3"/>
<path d="M280.88 159.49C268.56 159.57 262.18 171.44 262.25 183.24L302.32 183.21C302.24 171.41 293.2 159.41 280.88 159.49Z" fill="#ABD8AE"/>
<path d="M273.83 229.49L270.9 182.38C270.86 175.3 274.68 168.19 282.07 168.14C289.46 168.09 294.88 175.29 294.92 182.36L296.55 229.49H273.82H273.83Z" fill="#B0CAB3"/>
<path d="M298.63 182.7C298.57 173.38 291.43 163.91 281.71 163.98C271.99 164.05 266.95 173.41 267.01 182.73L270.7 233.18H300.63L298.64 182.71L298.63 182.7ZM295.51 199.11L291.29 199.17L290.33 185.62L295.03 185.5L295.5 199.11H295.51ZM290.38 209.09L285.18 209.01L284.74 202.85L290.04 202.65L290.38 209.09ZM284.49 199.26L283.54 185.8L289.16 185.65L289.87 199.18L284.5 199.25L284.49 199.26ZM289.08 184.23L283.43 184.3L282.29 168.16C284.52 168.19 286.57 168.87 288.34 170.01L289.08 184.24V184.23ZM282.27 184.31L276.56 184.38L275.58 170.55C277.14 169.2 279.1 168.34 281.42 168.18L282.26 184.31H282.27ZM276.32 199.37L271.96 199.43L271.13 186.13L275.56 186.01L276.31 199.37H276.32ZM276.53 203.14L276.85 208.87L272.54 208.8L272.2 203.3L276.53 203.14ZM276.67 185.98L282.34 185.83L283.04 199.28L277.61 199.35L276.67 185.98ZM283.24 202.89L283.56 208.97L278.29 208.89L277.88 203.09L283.24 202.89ZM278.38 210.18L283.62 210.27L284.63 229.49H279.74L278.38 210.18ZM285.27 210.3L290.45 210.39L291.45 229.49H286.63L285.27 210.3ZM291.53 202.59L295.62 202.44L295.85 209.18L291.99 209.12L291.53 202.6V202.59ZM294.92 182.36L294.98 184.16L290.22 184.22L289.26 170.68C292.71 173.39 294.89 177.9 294.92 182.36ZM274.73 171.36L275.46 184.39L271.02 184.44L270.89 182.38C270.86 178.24 272.17 174.1 274.73 171.36ZM272.61 210.08L276.91 210.16L278 229.49H273.81L272.6 210.08H272.61ZM293.43 229.49L292.08 210.42L295.89 210.49L296.55 229.49H293.43Z" fill="#5C8661"/>
<path d="M301.5 235.22L269.51 234.07L268.48 229.49H302.39L301.5 235.22Z" fill="#ABD8AE"/>
<path d="M325.55 159.49C313.23 159.57 305.64 171.44 305.71 183.24L345.78 183.21C345.7 171.41 337.87 159.41 325.55 159.49Z" fill="#ABD8AE"/>
<path d="M315.15 229.49L313.87 182.38C314.07 175.3 318.15 168.19 325.54 168.14C332.93 168.09 338.1 175.29 337.9 182.36V229.49H315.16H315.15Z" fill="#B0CAB3"/>
<path d="M341.58 182.7C341.85 173.38 335.04 163.91 325.31 163.98C315.58 164.05 310.22 173.41 309.95 182.73L311.88 233.18H341.81L341.59 182.71L341.58 182.7ZM337.89 199.11L333.67 199.17L333.18 185.62L337.89 185.5V199.11ZM332.41 209.09L327.21 209.01L326.99 202.85L332.3 202.65L332.41 209.09ZM326.86 199.26L326.38 185.8L332 185.65L332.24 199.18L326.87 199.25L326.86 199.26ZM331.97 184.23L326.32 184.3L325.74 168.16C327.97 168.19 330 168.87 331.72 170.01L331.97 184.24V184.23ZM325.16 184.31L319.45 184.38L318.96 170.55C320.57 169.2 322.55 168.34 324.88 168.18L325.16 184.31ZM318.69 199.37L314.33 199.43L313.97 186.13L318.41 186.01L318.7 199.37H318.69ZM318.77 203.14L318.89 208.87L314.58 208.8L314.43 203.3L318.77 203.14ZM319.51 185.98L325.19 185.83L325.42 199.28L319.98 199.35L319.5 185.98H319.51ZM325.49 202.89L325.6 208.97L320.34 208.89L320.13 203.09L325.5 202.89H325.49ZM320.38 210.18L325.62 210.27L325.95 229.49H321.06L320.37 210.18H320.38ZM327.26 210.3L332.43 210.39L332.76 229.49H327.94L327.25 210.3H327.26ZM333.79 202.59L337.88 202.44V209.18L334.02 209.12L333.79 202.6V202.59ZM337.89 182.36V184.16L333.13 184.22L332.64 170.68C336 173.39 338.01 177.9 337.89 182.36ZM318.09 171.36L318.37 184.39L313.92 184.44L313.86 182.38C313.98 178.24 315.43 174.1 318.08 171.36H318.09ZM314.62 210.08L318.92 210.16L319.34 229.49H315.15L314.62 210.08ZM334.76 229.49L334.07 210.42L337.88 210.49V229.49H334.76Z" fill="#5C8661"/>
<path d="M343 235.22L309.62 235.55L308.26 229.49H343.89L343 235.22Z" fill="#ABD8AE"/>
<path d="M559.28 159.49C546.96 159.57 539.39 168.16 537.46 183.41L576.08 184.22C577.51 172.71 571.6 159.41 559.28 159.49Z" fill="#ABD8AE"/>
<path d="M543.44 229.49L545.07 182.36C545.11 175.28 550.54 168.09 557.92 168.14C565.31 168.19 569.13 175.3 569.09 182.38L566.16 229.49H543.43H543.44Z" fill="#B0CAB3"/>
<path d="M539.39 233.18H569.32L573.01 182.73C573.07 173.41 568.03 164.04 558.31 163.98C548.59 163.92 541.44 173.39 541.39 182.7L539.4 233.17L539.39 233.18ZM544.97 185.5L549.67 185.62L548.71 199.17L544.49 199.11L544.96 185.5H544.97ZM549.97 202.65L555.27 202.85L554.83 209.01L549.63 209.09L549.97 202.65ZM550.15 199.19L550.86 185.66L556.48 185.81L555.53 199.27L550.16 199.2L550.15 199.19ZM551.68 170.01C553.45 168.87 555.5 168.19 557.73 168.16L556.59 184.3L550.94 184.23L551.68 170V170.01ZM558.59 168.19C560.92 168.34 562.87 169.2 564.43 170.56L563.45 184.39L557.74 184.32L558.58 168.19H558.59ZM564.45 186.02L568.88 186.14L568.05 199.44L563.69 199.38L564.44 186.02H564.45ZM567.81 203.31L567.47 208.81L563.16 208.88L563.48 203.15L567.81 203.31ZM562.39 199.36L556.96 199.29L557.66 185.84L563.33 185.99L562.39 199.36ZM562.13 203.1L561.72 208.9L556.45 208.98L556.77 202.9L562.13 203.1ZM560.26 229.49H555.37L556.38 210.27L561.62 210.18L560.26 229.49ZM553.38 229.49H548.56L549.56 210.39L554.74 210.3L553.38 229.49ZM548.01 209.11L544.15 209.17L544.38 202.43L548.47 202.58L548.01 209.1V209.11ZM550.73 170.68L549.77 184.22L545.01 184.16L545.07 182.36C545.1 177.89 547.27 173.39 550.73 170.68ZM569.1 182.38L568.97 184.44L564.53 184.39L565.26 171.36C567.82 174.1 569.12 178.24 569.1 182.38ZM566.17 229.49H561.98L563.07 210.16L567.37 210.08L566.16 229.49H566.17ZM543.44 229.49L544.1 210.49L547.91 210.42L546.56 229.49H543.44Z" fill="#5C8661"/>
<path d="M538.51 235.22L570.49 234.07L571.52 229.49H537.61L538.51 235.22Z" fill="#ABD8AE"/>
<path d="M581.8 326.5L922.01 326.31L936.49 0H590.32L581.8 326.5Z" fill="#8C200E"/>
<path d="M651.79 326.44L613.07 326.47L614.79 288.61L650.62 288.07L651.79 326.44Z" fill="#BC8A70"/>
<path d="M649.3 323.95H616.58L615.85 291.62H650.35L649.3 323.95Z" fill="#702215"/>
<path d="M619.19 290.53V325.62M622.75 290.53L622.39 325.62M625.71 290.53L626.66 325.62M629.85 290.53L629.45 325.62M633.98 290.53L632.81 325.62M636.66 290.53V325.62M640.42 290.53L639.44 325.62M651.36 295.41L614.78 295.8M615.06 319.5H650.72M615.06 306.64L651.35 306.19M643.29 290.54L643.68 325.63M647.5 290.54L646.82 325.63" stroke="#BC8A70" stroke-width="0.5" stroke-miterlimit="10"/>
<path d="M887.45 326.33L847.81 326.36L848.99 286.22L887.45 285.8V326.33Z" fill="#BC8A70"/>
<path d="M884.96 323.95L850.73 324.67L851.56 289.13L885.48 288.25L884.96 323.95Z" fill="#702215"/>
<path d="M855.03 288.07L854.84 325.61M858.43 288.24L858.05 325.61M861.37 290.52L862.32 325.61M865.96 288.07L865.12 325.61M868.48 288.24V325.61M872.33 290.52V325.61M876.3 287.53L875.12 325.61M887.04 295.4L850.46 295.79M849.81 319.49H886.4M849.81 308.3L886.1 307.85M878.94 287.54L879.37 325.62M883.19 290.53L882.51 325.62" stroke="#BC8A70" stroke-width="0.5" stroke-miterlimit="10"/>
<path d="M514.58 160.56C503.2 160.56 495.11 168.6 495.11 183.38L532.37 182.71C533.4 171.85 527.56 160.55 514.58 160.55V160.56Z" fill="#ABD8AE"/>
<path d="M502.13 229.49V182.36C501.92 175.28 507.09 168.09 514.48 168.14C521.87 168.19 525.94 175.3 526.15 182.38L524.87 229.49H502.14H502.13Z" fill="#B0CAB3"/>
<path d="M498.2 233.18H528.13L530.06 182.73C529.79 173.41 524.43 164.04 514.7 163.98C504.97 163.92 498.16 173.39 498.43 182.7L498.21 233.17L498.2 233.18ZM502.12 185.5L506.83 185.62L506.34 199.17L502.12 199.11V185.5ZM507.71 202.65L513.02 202.85L512.8 209.01L507.6 209.09L507.71 202.65ZM507.77 199.19L508.01 185.66L513.63 185.81L513.15 199.27L507.78 199.2L507.77 199.19ZM508.28 170.01C510.01 168.87 512.03 168.19 514.26 168.16L513.68 184.3L508.03 184.23L508.28 170V170.01ZM515.12 168.19C517.45 168.34 519.43 169.2 521.04 170.56L520.55 184.39L514.84 184.32L515.12 168.19ZM521.6 186.02L526.04 186.14L525.68 199.44L521.32 199.38L521.61 186.02H521.6ZM525.57 203.31L525.42 208.81L521.11 208.88L521.23 203.15L525.57 203.31ZM520.02 199.36L514.58 199.29L514.81 185.84L520.49 185.99L520.01 199.36H520.02ZM519.89 203.1L519.68 208.9L514.42 208.98L514.53 202.9L519.9 203.1H519.89ZM518.95 229.49H514.06L514.39 210.27L519.63 210.18L518.94 229.49H518.95ZM512.07 229.49H507.25L507.58 210.39L512.75 210.3L512.06 229.49H512.07ZM505.99 209.11L502.13 209.17V202.43L506.22 202.58L505.99 209.1V209.11ZM507.37 170.68L506.88 184.22L502.12 184.16V182.36C501.99 177.89 504.01 173.39 507.37 170.68ZM526.15 182.38L526.09 184.44L521.64 184.39L521.92 171.36C524.57 174.1 526.02 178.24 526.14 182.38H526.15ZM524.87 229.49H520.68L521.1 210.16L525.4 210.08L524.87 229.49ZM502.14 229.49V210.49L505.95 210.42L505.26 229.49H502.14Z" fill="#5C8661"/>
<path d="M497.01 235.22L530.38 235.55L531.74 229.49H496.11L497.01 235.22Z" fill="#ABD8AE"/>
<path d="M599.43 58.63H631.02V11.15L599.43 10.98V58.63Z" fill="#96665E"/>
<path d="M599.43 85.72H631.06L631.02 58.63H599.43V85.72Z" fill="#96665E"/>
<path d="M603.31 82.16L627.43 82.29L627.72 50.49H603.62L603.31 82.16Z" fill="#C08B82"/>
<path d="M603.62 46.04L627.44 46.46L627.72 14.61L603.6 14.26L603.62 46.04Z" fill="#C08B82"/>
<path d="M597.37 9.80001L597.63 87.47H632.42L633.07 9.04001L597.37 9.79001V9.80001ZM600.92 84.46L601.48 12.64L629.65 12.21L629.76 84.02L600.92 84.47V84.46Z" fill="#5A0E02"/>
<path d="M631.06 48.63C630.83 48.55 599.43 48.63 599.43 48.63" stroke="#5A0E02" stroke-width="2" stroke-miterlimit="10"/>
<path d="M683.65 85.86H652.04L652.44 62.98H684.05L683.65 85.86Z" fill="#8A8989"/>
<path d="M652.23 58.82H683.82L684.65 11.35L653.06 11.18L652.23 58.82Z" fill="#96665E"/>
<path d="M656.64 46.23L680.47 45.97L681.28 14.8L657.17 14.74L656.64 46.23Z" fill="#C08B82"/>
<path d="M652.11 65.26H683.74L684 48.16H652.41L652.11 65.26Z" fill="#96665E"/>
<path d="M656.02 63.28H680.15L680.67 50.02L656.56 50.4L656.02 63.28Z" fill="#C08B82"/>
<path d="M680.09 84.68H655.62L655.96 65.1H680.43L680.09 84.68Z" fill="#ECECEC"/>
<path d="M677.6 82.66L658.2 82.14L658.46 67.12L677.86 67.5L677.6 82.66Z" fill="#7A7A7A"/>
<path d="M657.61 68.21L678.85 68.71" stroke="#ECECEC" stroke-width="0.68" stroke-miterlimit="10"/>
<path d="M657.58 69.92L678.51 70.34" stroke="#ECECEC" stroke-width="0.68" stroke-miterlimit="10"/>
<path d="M657.55 71.69L678.49 71.97" stroke="#ECECEC" stroke-width="0.68" stroke-miterlimit="10"/>
<path d="M657.52 73.04L678.46 73.72" stroke="#ECECEC" stroke-width="0.68" stroke-miterlimit="10"/>
<path d="M657.49 75.08H678.93" stroke="#ECECEC" stroke-width="0.68" stroke-miterlimit="10"/>
<path d="M657.46 76.55L678.59 76.86" stroke="#ECECEC" stroke-width="0.68" stroke-miterlimit="10"/>
<path d="M657.43 78.15L678.55 78.71" stroke="#ECECEC" stroke-width="0.68" stroke-miterlimit="10"/>
<path d="M657.54 79.8L678.53 79.95" stroke="#ECECEC" stroke-width="0.68" stroke-miterlimit="10"/>
<path d="M657.51 81.16L678.32 81.68" stroke="#ECECEC" stroke-width="0.68" stroke-miterlimit="10"/>
<path d="M651.03 8.95999L649.37 87.68L684.71 87.33L686.71 9.67999L651.03 8.95999ZM653.27 84.66L655.08 12.84L683.24 13.27L682.11 84.22L653.26 84.67L653.27 84.66Z" fill="#5A0E02"/>
<path d="M684.04 48.18C683.81 48.1 652.41 48.18 652.41 48.18" stroke="#5A0E02" stroke-width="2" stroke-miterlimit="10"/>
<path d="M794.2 84.09L762.57 84.44L763.77 61.56L795.43 60.53L794.2 84.09Z" fill="#8A8989"/>
<path d="M763.7 57.4L795.34 56.37L797.83 8.89999L766.2 9.75999L763.7 57.4Z" fill="#96665E"/>
<path d="M768.57 44.44L792.44 43.52L794.35 12.35L770.2 12.95L768.57 44.44Z" fill="#C08B82"/>
<path d="M763.36 63.83L795.05 62.81L795.9 45.71L764.26 46.74L763.36 63.83Z" fill="#96665E"/>
<path d="M767.38 61.07L791.52 60.83L792.45 48.56L768.31 49.37L767.38 61.07Z" fill="#C08B82"/>
<path d="M790.61 84.12L766.13 84.4L767.24 63.31L791.74 62.65L790.61 84.12Z" fill="#ECECEC"/>
<path d="M788.29 82.15L768.87 82.3L769.66 65.33L789.09 65.05L788.29 82.15Z" fill="#7A7A7A"/>
<path d="M768.77 66.41L790.03 66.26" stroke="#ECECEC" stroke-width="0.68" stroke-miterlimit="10"/>
<path d="M768.68 68.13L789.64 67.89" stroke="#ECECEC" stroke-width="0.68" stroke-miterlimit="10"/>
<path d="M768.59 69.89L789.55 69.52" stroke="#ECECEC" stroke-width="0.68" stroke-miterlimit="10"/>
<path d="M768.52 71.25L789.46 71.27" stroke="#ECECEC" stroke-width="0.68" stroke-miterlimit="10"/>
<path d="M768.41 73.28L789.88 72.63" stroke="#ECECEC" stroke-width="0.68" stroke-miterlimit="10"/>
<path d="M768.34 74.75L789.48 74.4" stroke="#ECECEC" stroke-width="0.68" stroke-miterlimit="10"/>
<path d="M768.25 76.36L789.39 76.26" stroke="#ECECEC" stroke-width="0.68" stroke-miterlimit="10"/>
<path d="M768.3 78.01L789.32 77.5" stroke="#ECECEC" stroke-width="0.68" stroke-miterlimit="10"/>
<path d="M768.22 79.37L789.04 79.22" stroke="#ECECEC" stroke-width="0.68" stroke-miterlimit="10"/>
<path d="M768.22 80.99L789.04 80.84" stroke="#ECECEC" stroke-width="0.68" stroke-miterlimit="10"/>
<path d="M764.24 7.53999L759.79 87.01H795.12L799.95 7.23999L764.24 7.54999V7.53999ZM763.83 84.44L768.15 11.41L796.35 10.81L792.68 84.1L763.82 84.44H763.83Z" fill="#5A0E02"/>
<path d="M795.94 45.73C795.72 45.65 764.25 46.76 764.25 46.76" stroke="#5A0E02" stroke-width="2" stroke-miterlimit="10"/>
<path d="M874.26 56.22L905.78 57.62L908.26 10.14L876.76 8.57999L874.26 56.22Z" fill="#96665E"/>
<path d="M872.77 84.71H904.4L906.36 47.19L875.29 46.76L872.77 84.71Z" fill="#96665E"/>
<path d="M876.8 81.75H900.92L902.87 50.03L878.81 49.48L876.8 81.75Z" fill="#C08B82"/>
<path d="M879.07 44.29L902.86 44.82L904.8 13.3L880.71 12.73L879.07 44.29Z" fill="#C08B82"/>
<path d="M874.75 7.39999L870.85 87H905.64L910.41 8.03999L874.75 7.39999ZM874.86 83.79L878.7 10.48L907.37 11.21L903.12 84.07L874.86 83.8V83.79Z" fill="#5A0E02"/>
<path d="M906.36 47.19L875.29 46.76" stroke="#5A0E02" stroke-width="2" stroke-miterlimit="10"/>
<path d="M709.66 57.77L741.2 59.17L742.86 11.69L711.32 10.13L709.66 57.77Z" fill="#96665E"/>
<path d="M708.66 86.26H740.29L741.2 59.17L709.66 57.77L708.66 86.26Z" fill="#96665E"/>
<path d="M712.67 82.94L736.8 82.48L738.2 50.77L714.09 51.03L712.67 82.94Z" fill="#C08B82"/>
<path d="M714.45 47H738.33L739.92 14.64L715.35 14.28L714.45 47Z" fill="#C08B82"/>
<path d="M709.3 8.95001L706.82 87.69L741.59 87.95L744.97 9.59001L709.3 8.95001ZM710.76 84.99L713.31 12.03L741.99 12.76L739.05 84.56L710.76 85V84.99Z" fill="#5A0E02"/>
<path d="M741.6 48.74L710.5 48.99" stroke="#5A0E02" stroke-width="2" stroke-miterlimit="10"/>
<path d="M852.7 86L821.1 85.83L822.38 61.26L853.98 61.43L852.7 86Z" fill="#8A8989"/>
<path d="M822.31 57.1L853.9 57.27L856.38 9.79001L824.81 9.45001L822.31 57.1Z" fill="#96665E"/>
<path d="M827.18 44.13L850.99 44.41L852.9 13.24H828.78L827.18 44.13Z" fill="#C08B82"/>
<path d="M821.98 63.53L853.6 63.7L854.45 46.6L822.87 46.43L821.98 63.53Z" fill="#96665E"/>
<path d="M826.58 61.26L849.45 61.69L850.5 48.79H826.94L826.58 61.26Z" fill="#C08B82"/>
<path d="M822.86 7.23001L818.39 87H853.73L858.56 7.23001H822.85H822.86ZM822.37 84.44L826.77 11.1L854.91 11.7L851.22 84.16L822.36 84.44H822.37Z" fill="#5A0E02"/>
<path d="M854.49 46.62C854.27 46.54 822.87 46.45 822.87 46.45" stroke="#5A0E02" stroke-width="2" stroke-miterlimit="10"/>
<path d="M849.21 84.17L824.73 84.4L825.83 63.43L850.28 63.68L849.21 84.17Z" fill="#ECECEC"/>
<path d="M846.76 82.6L827.38 82.07L828.26 65.33L847.65 65.68L846.76 82.6Z" fill="#7A7A7A"/>
<path d="M827.29 67.95L848.2 68.67" stroke="#ECECEC" stroke-width="0.68" stroke-miterlimit="10"/>
<path d="M827.38 66.33L848.28 67.01" stroke="#ECECEC" stroke-width="0.68" stroke-miterlimit="10"/>
<path d="M827.2 69.65L848.11 70.28" stroke="#ECECEC" stroke-width="0.68" stroke-miterlimit="10"/>
<path d="M827.13 71.08L848.03 71.91" stroke="#ECECEC" stroke-width="0.68" stroke-miterlimit="10"/>
<path d="M827.06 72.44L847.93 73.66" stroke="#ECECEC" stroke-width="0.68" stroke-miterlimit="10"/>
<path d="M826.95 74.47L848.36 75.02" stroke="#ECECEC" stroke-width="0.68" stroke-miterlimit="10"/>
<path d="M826.87 75.95L847.96 76.8" stroke="#ECECEC" stroke-width="0.68" stroke-miterlimit="10"/>
<path d="M826.79 77.55L847.86 78.65" stroke="#ECECEC" stroke-width="0.68" stroke-miterlimit="10"/>
<path d="M826.83 79.2L847.59 80.16" stroke="#ECECEC" stroke-width="0.68" stroke-miterlimit="10"/>
<path d="M826.73 81.09L847.53 81.33" stroke="#ECECEC" stroke-width="0.68" stroke-miterlimit="10"/>
<path d="M624.72 230H593.11L593.91 207.12H625.52L624.72 230Z" fill="#8A8989"/>
<path d="M593.77 202.96H625.36L627.02 155.48L595.43 155.31L593.77 202.96Z" fill="#96665E"/>
<path d="M598.4 190.36L622.23 190.1L623.59 158.94L599.48 158.88L598.4 190.36Z" fill="#C08B82"/>
<path d="M593.54 209.39H625.17L625.73 192.3H594.14L593.54 209.39Z" fill="#96665E"/>
<path d="M597.49 207.42H621.61L622.36 194.16L598.25 194.53L597.49 207.42Z" fill="#C08B82"/>
<path d="M621.18 228.82H596.71L597.4 209.23H621.86L621.18 228.82Z" fill="#ECECEC"/>
<path d="M618.72 226.79L599.33 226.28L599.85 211.26L619.25 211.63L618.72 226.79Z" fill="#7A7A7A"/>
<path d="M598.98 212.34L620.22 212.84" stroke="#ECECEC" stroke-width="0.68" stroke-miterlimit="10"/>
<path d="M598.92 214.06L619.85 214.47" stroke="#ECECEC" stroke-width="0.68" stroke-miterlimit="10"/>
<path d="M598.86 215.82L619.8 216.1" stroke="#ECECEC" stroke-width="0.68" stroke-miterlimit="10"/>
<path d="M598.82 217.18L619.74 217.86" stroke="#ECECEC" stroke-width="0.68" stroke-miterlimit="10"/>
<path d="M598.74 219.21H620.18" stroke="#ECECEC" stroke-width="0.68" stroke-miterlimit="10"/>
<path d="M598.69 220.68L619.81 220.99" stroke="#ECECEC" stroke-width="0.68" stroke-miterlimit="10"/>
<path d="M598.64 222.29L619.75 222.84" stroke="#ECECEC" stroke-width="0.68" stroke-miterlimit="10"/>
<path d="M598.71 223.94L619.7 224.08" stroke="#ECECEC" stroke-width="0.68" stroke-miterlimit="10"/>
<path d="M598.66 225.3L619.46 225.81" stroke="#ECECEC" stroke-width="0.68" stroke-miterlimit="10"/>
<path d="M593.44 153.09L590.36 233.18L625.7 232.84L629.11 153.81L593.44 153.09ZM594.36 228.79L597.43 156.97L625.58 157.4L623.21 228.35L594.35 228.8L594.36 228.79Z" fill="#5A0E02"/>
<path d="M625.77 192.31H594.14" stroke="#5A0E02" stroke-width="2" stroke-miterlimit="10"/>
<path d="M644.86 202.41H676.45L678.94 154.94L647.36 154.76L644.86 202.41Z" fill="#96665E"/>
<path d="M649.71 189.82L673.55 189.56L675.45 158.39L651.34 158.33L649.71 189.82Z" fill="#C08B82"/>
<path d="M643.43 229.64L675.15 228.82L677.01 191.75H645.42L643.43 229.64Z" fill="#96665E"/>
<path d="M647.82 226.37H671.95L673.61 193.61L649.49 193.98L647.82 226.37Z" fill="#C08B82"/>
<path d="M645.4 152.55L640.89 233.18H676.22L681.06 153.27L645.4 152.55ZM644.99 228.25L649.31 156.43L677.46 156.86L673.86 227.81L645 228.26L644.99 228.25Z" fill="#5A0E02"/>
<path d="M677.05 191.77H645.42" stroke="#5A0E02" stroke-width="2" stroke-miterlimit="10"/>
<path d="M873.91 202.96H905.5L908.82 155.48L877.24 155.31L873.91 202.96Z" fill="#96665E"/>
<path d="M878.98 190.36L902.83 190.1L905.28 158.94L881.16 158.88L878.98 190.36Z" fill="#C08B82"/>
<path d="M871.75 229.66L903.38 229.64L906.25 192.3H874.66L871.75 229.66Z" fill="#96665E"/>
<path d="M875.78 225.47H901L903.16 194.79L878.69 194.53L875.78 225.47Z" fill="#C08B82"/>
<path d="M875.37 152.52L869.45 233.17L904.8 232.83L911.05 152.86L875.37 152.51V152.52ZM873.7 227.49L879.18 156.96H907.35L902.54 227.49H873.71H873.7Z" fill="#5A0E02"/>
<path d="M906.29 192.31H874.66" stroke="#5A0E02" stroke-width="2" stroke-miterlimit="10"/>
<path d="M826.51 202.41H858.1L861.42 154.94L829.84 154.76L826.51 202.41Z" fill="#96665E"/>
<path d="M831.58 189.82L855.43 189.56L857.88 158.39L833.76 158.33L831.58 189.82Z" fill="#C08B82"/>
<path d="M824.61 229.64L856.35 228.82L858.85 191.75H827.26L824.61 229.64Z" fill="#96665E"/>
<path d="M829.05 226.37H853.18L855.42 193.61L831.29 193.98L829.05 226.37Z" fill="#C08B82"/>
<path d="M827.93 152.55L822.01 233.18H857.34L863.58 153.27L827.94 152.55H827.93ZM826.2 228.25L831.78 156.43L859.92 156.86L855.08 227.81L826.21 228.26L826.2 228.25Z" fill="#5A0E02"/>
<path d="M858.89 191.77H827.26" stroke="#5A0E02" stroke-width="2" stroke-miterlimit="10"/>
<path d="M926.04 237.38L584.07 237.23L584.28 231.56L926.25 230.71L926.04 237.38Z" fill="#EBAD8C"/>
<path d="M923.82 285.4L582.77 289.13L583.41 264.83L924.7 265.71L923.82 285.4Z" fill="#EBAD8C"/>
<path d="M701.23 272.86L699.14 147.49H800.1L788.18 272.86H701.23Z" fill="#B77758"/>
<path d="M716.15 272.86L721.53 187.6L775.96 188.47L772.1 272.84L716.15 272.86Z" fill="#701101"/>
<path d="M765.9 269.95L725.64 269.97L728.47 197.61L769.83 198.4L765.9 269.95Z" fill="#CA413D"/>
<path d="M743.65 254.55L734.13 254.56L735.61 197.3L745.76 197.42L743.65 254.55Z" fill="#A21A16"/>
<path d="M758.36 254.55L749.94 254.56L752.25 197.3L762.4 197.42L758.36 254.55Z" fill="#A21A16"/>
<path d="M732.19 235.73L729.02 235.61L728.84 227.71L732.94 227.81L732.19 235.73Z" fill="#7B7A79"/>
<path d="M728.56 227.29L729.25 227.86L732.73 227.98L733.4 227.21L728.56 227.29Z" fill="#4E4D4B"/>
<path d="M732.87 236.49L732.33 235.59L729.11 235.49L728.46 236.37L732.87 236.49Z" fill="#4E4D4B"/>
<path d="M729.11 235.49L729.25 227.86L728.56 227.29L728.46 236.37L729.11 235.49Z" fill="#636261"/>
<path d="M732.73 227.98L732.12 235.59L732.87 236.49L733.4 227.21L732.73 227.98Z" fill="#636261"/>
<path d="M734.67 229.86C733.96 229.84 732.64 229.98 732.07 230.04C731.92 229.53 731.47 229.16 730.91 229.14C730.2 229.12 729.59 229.69 729.55 230.4C729.51 231.11 730.05 231.7 730.76 231.72C731.35 231.73 731.87 231.34 732.05 230.8C732.56 230.92 733.67 231.16 734.59 231.18C735.84 231.21 736.08 230.85 736.1 230.55C736.12 230.27 735.92 229.88 734.67 229.85V229.86Z" fill="#939291"/>
<path d="M731.27 234.401C731.664 234.014 731.682 233.394 731.31 233.016C730.939 232.638 730.318 232.645 729.924 233.032C729.53 233.419 729.512 234.039 729.884 234.418C730.255 234.796 730.876 234.788 731.27 234.401Z" fill="#939291"/>
<path d="M730.9 233.44C730.9 233.28 730.79 233.15 730.63 233.15C730.47 233.15 730.34 233.27 730.33 233.43C730.33 233.54 730.38 233.64 730.47 233.69L730.43 234.31H730.68L730.72 233.7C730.82 233.66 730.89 233.56 730.89 233.45L730.9 233.44Z" fill="#4E4D4B"/>
<path d="M798.56 287.24H688.98L689.98 275.06H799.22L798.56 287.24Z" fill="#8F6448"/>
<path d="M799.22 275.06H689.98L690.18 272.86H799.34L799.22 275.06Z" fill="#C89B80"/>
<path d="M801.87 301.69H685.85L687.03 289.67L802.3 289.44L801.87 301.69Z" fill="#8F6448"/>
<path d="M802.23 289.44L687.03 289.67L687.26 287.24H802.3L802.23 289.44Z" fill="#C89B80"/>
<path d="M929.68 153.33H586.32L586.82 134.2L930.56 133.66L929.68 153.33Z" fill="#EBAD8C"/>
<path d="M930.3 139.37H586.63L586.82 134.2L930.56 133.66L930.3 139.37Z" fill="#EFBCA1"/>
<path d="M701.23 272.86H718.05L721.53 187.6L775.97 188.47L772.11 272.85H788.19L791.92 203.34C792.85 176.64 773.73 155 748.91 155C724.09 155 703.28 176.64 702.35 203.34L701.25 272.85L701.23 272.86Z" fill="#DAAD95"/>
<path d="M677.11 301.52L584 301.48V300.05L677.11 300.04V301.52Z" fill="#172D26"/>
<path d="M684.48 278.18L584 278.08V276.59L684.49 276.5L684.48 278.18Z" fill="#172D26"/>
<path d="M581.16 272.79L581.83 326.47H585.67L584 272.69L581.16 272.79Z" fill="#172D26"/>
<path d="M592.65 272.38L592.79 326.47H595.63L595.96 272.67L592.65 272.38Z" fill="#172D26"/>
<path d="M600.96 272.38L603.52 326.47H605.54L604.13 272.52L600.96 272.38Z" fill="#172D26"/>
<path d="M613.23 272.22L611.46 326.47H614.3L616.6 272.22H613.23Z" fill="#172D26"/>
<path d="M624.64 272.03L624.79 326.47H628.01V272.22L624.64 272.03Z" fill="#172D26"/>
<path d="M637.54 271.78L635.53 326.47H639.13L640.91 271.71L637.54 271.78Z" fill="#172D26"/>
<path d="M648.78 271.78L650.52 326.47H652.68L652.15 271.71L648.78 271.78Z" fill="#172D26"/>
<path d="M662.19 271.78L660.4 326.47H663.06L664.82 271.71L662.19 271.78Z" fill="#172D26"/>
<path d="M673.58 271.61L673.59 326.47H678.1L678.35 271.31L673.58 271.61Z" fill="#172D26"/>
<path d="M929.24 301.67L811.42 301.12V299.28L929.25 300.15L929.24 301.67Z" fill="#172D26"/>
<path d="M929.24 278.11L808.18 278.07V276.59L929.25 276.51L929.24 278.11Z" fill="#172D26"/>
<path d="M930.27 272.23L931.12 326.31H927.42L927.79 272.41L930.27 272.23Z" fill="#172D26"/>
<path d="M919.98 272.82L918.97 326.47H915.67L916.67 272.82H919.98Z" fill="#172D26"/>
<path d="M908.06 272.54L908.83 326.47H906.37L905.21 272.52L908.06 272.54Z" fill="#172D26"/>
<path d="M896.27 272.54L897.69 326.47H894.85L892.9 272.54H896.27Z" fill="#172D26"/>
<path d="M885.48 272.31L883.81 326.47H881.44L882.61 272.31H885.48Z" fill="#172D26"/>
<path d="M874.12 272.38L872.84 326.47H870.37L870.74 272.26L874.12 272.38Z" fill="#172D26"/>
<path d="M862.95 272.16L861.58 326.38H859.08L860.26 271.95L862.95 272.16Z" fill="#172D26"/>
<path d="M851.84 272.09L853.43 326.37L851.44 326.36L848.8 272.11L851.84 272.09Z" fill="#172D26"/>
<path d="M840.75 271.53L841.35 326.47H834.88L835.74 271.75L840.75 271.53Z" fill="#172D26"/>
<path d="M828 271.06L828.59 326.47H826.05L824.06 271.06H828Z" fill="#172D26"/>
<path d="M818.33 271.06L817.51 326.47H814.4V270.38L818.33 271.06Z" fill="#172D26"/>
<path d="M707.16 272.86H680.51L686.39 139.37H713.7L707.16 272.86Z" fill="#F2CBB6"/>
<path d="M712.96 154.45L685.73 154.4L685.78 153.33H713.02L712.96 154.45Z" fill="#C2A292"/>
<path d="M683.99 193.61L711.03 194L710.96 195.38L683.93 195.16L683.99 193.61Z" fill="#C2A292"/>
<path d="M713.7 139.37H686.39L686.63 134.04H713.96L713.7 139.37Z" fill="#F8E2D7"/>
<path d="M714.01 134.04H686.63L687.69 115.41H715.18L714.01 134.04Z" fill="#A1493A"/>
<path d="M715.18 115.41H687.69L687.88 110.08H715.44L715.18 115.41Z" fill="#F8E2D7"/>
<path d="M715.44 110.08H687.88L688.5 96.12H716.13L715.44 110.08Z" fill="#F2CBB6"/>
<path d="M808.52 272.86H781.86L787.75 139.37H815.06L808.52 272.86Z" fill="#F2CBB6"/>
<path d="M814.32 154.45L787.09 154.4L787.14 153.33H814.37L814.32 154.45Z" fill="#C2A292"/>
<path d="M785.35 193.61L812.38 194L812.31 195.38L785.29 195.16L785.35 193.61Z" fill="#C2A292"/>
<path d="M815.06 139.37H787.75L787.99 134.04H815.32L815.06 139.37Z" fill="#F8E2D7"/>
<path d="M815.37 134.04H787.99L789.04 115.41H816.54L815.37 134.04Z" fill="#A1493A"/>
<path d="M816.54 115.41H789.04L789.24 110.08H816.8L816.54 115.41Z" fill="#F8E2D7"/>
<path d="M752.34 144.93C723.22 144.93 700.77 166.34 699.85 192.75L799.37 193.14C800.29 166.73 779.3 144.93 752.34 144.93Z" fill="#457A68"/>
<path d="M816.8 110.08H789.24L789.85 96.12H817.48L816.8 110.08Z" fill="#F2CBB6"/>
<path d="M688.31 272.86H690.18L688.98 287.24H687.26L685.85 301.69L684.11 330.61L671.98 330.6L673.34 315.87L688.31 272.86Z" fill="#C6886A"/>
<path d="M673.34 315.87L662.45 315.58L680.12 272.86H690.18L673.34 315.87Z" fill="#DCB39F"/>
<path d="M662.45 315.58L662.61 330.61L671.98 330.6L673.34 315.87L662.45 315.58Z" fill="#B27352"/>
<path d="M799.34 272.86L798.56 287.24H802.3L801.87 301.69L793.68 330.61L810.9 330.6L812.96 315.73L799.34 272.86Z" fill="#C6886A"/>
<path d="M812.96 315.73L823.87 315.43L808.52 272.86H799.34L812.96 315.73Z" fill="#DCB39F"/>
<path d="M823.87 315.43L820.44 330.61L810.9 330.6L812.96 315.73L823.87 315.43Z" fill="#B27352"/>
<path d="M803.21 316.15H682.38L683.52 303.9H804.51L803.21 316.15Z" fill="#8F6448"/>
<path d="M804.51 303.9H683.52L683.74 301.69H804.73L804.51 303.9Z" fill="#C89B80"/>
<path d="M806.68 330.61H676.77L677.97 318.36H808.18L806.68 330.61Z" fill="#8F6448"/>
<path d="M808.18 318.36H677.97L678.2 316.15H808.39L808.18 318.36Z" fill="#C89B80"/>
<path d="M932.22 96.12H587.81L588.05 87H932.63L932.22 96.12Z" fill="#EBAD8C"/>
<path d="M932.53 89.03L588.01 91.07L588.05 87H932.63L932.53 89.03Z" fill="#EFBCA1"/>
<path d="M787.99 134.04H713.96L715.18 115.41H789.04L787.99 134.04Z" fill="#701101"/>
<path d="M789.04 115.41H715.18L715.44 110.08H789.24L789.04 115.41Z" fill="#EFBCA1"/>
<path d="M777.74 272.86H707.16L707.41 267.77L778.11 267.79L777.74 272.86Z" fill="#8F6448"/>
<path d="M699.84 200.79L799.3 201.97L799.37 193.14L699.84 192.75V200.79Z" fill="#75A998"/>
</g>
<defs>
<clipPath id="clip0_36_13510">
<rect width="1024" height="576" fill="white"/>
</clipPath>
</defs>
</svg>
